<svg width="710" height="65" viewBox="0 0 710 65" fill="none" xmlns="http://www.w3.org/2000/svg">
<g clip-path="url(#clip0_2143_6942)">
<path d="M22.4014 2.07506H30.5441L53.7506 63.5521H45.2823L27.2056 13.1491C27.1512 13.0405 27.097 12.8777 27.0427 12.6605C26.907 12.2263 26.7984 11.8055 26.717 11.3984C26.6356 10.9913 26.5949 10.652 26.5949 10.3806H26.3506C26.3506 10.7063 26.2963 11.0863 26.1877 11.5205C26.1063 11.9277 25.9706 12.3891 25.7806 12.9048C25.7806 12.9862 25.7535 13.0813 25.6992 13.1898L7.66319 63.5521H-0.805176L22.4014 2.07506ZM12.4674 38.4727H40.4781V45.3126H12.4674V38.4727ZM73.0665 64.8549C70.3523 64.8549 67.8688 64.2579 65.616 63.0636C63.3903 61.8422 61.6261 60.2 60.3232 58.1373C59.0204 56.0473 58.369 53.7402 58.369 51.216C58.369 48.0133 59.4548 45.2583 61.6261 42.9512C63.8246 40.6169 67.0138 38.8256 71.1937 37.577C75.4008 36.3013 80.4628 35.6228 86.3797 35.5414V34.1164C86.3797 31.4837 86.0676 29.3801 85.4433 27.8059C84.8462 26.2316 83.8827 25.0917 82.5527 24.3859C81.2228 23.6531 79.445 23.2867 77.2193 23.2867C74.3693 23.2867 71.8587 23.8567 69.6873 24.9966C67.516 26.1366 65.5753 27.928 63.8653 30.3708L59.1833 25.0374C60.6218 23.1917 62.2775 21.6446 64.1503 20.396C66.0503 19.1475 68.1538 18.2111 70.4608 17.5868C72.768 16.9625 75.265 16.6504 77.9521 16.6504C81.5349 16.6504 84.5341 17.2068 86.9497 18.3197C89.3654 19.4325 91.1704 21.0882 92.3646 23.2867C93.586 25.4852 94.1967 28.213 94.1967 31.4701V53.6181C94.1967 54.9752 94.4682 55.9795 95.011 56.6309C95.5538 57.2823 96.3952 57.608 97.5352 57.608C98.1324 57.608 98.7838 57.5402 99.4895 57.4044C100.222 57.2416 100.656 57.0923 100.792 56.9566V63.3893C100.086 63.6879 99.2316 63.9321 98.2273 64.1221C97.2502 64.3393 96.341 64.4478 95.4995 64.4478C93.2739 64.4478 91.4147 63.7014 89.9218 62.2086C88.429 60.6886 87.574 58.6936 87.3569 56.2237H87.1533C86.5291 57.8794 85.5113 59.3723 84.0998 60.7022C82.6884 62.005 81.0192 63.0229 79.0921 63.7557C77.1921 64.4885 75.1836 64.8549 73.0665 64.8549ZM74.6543 57.9337C76.3643 57.9337 77.9657 57.6216 79.4585 56.9973C80.9785 56.3459 82.322 55.4366 83.4891 54.2695C84.6834 53.0752 85.6469 51.6502 86.3797 49.9946V41.1598C81.9827 41.2684 78.305 41.7162 75.3464 42.5034C72.388 43.2633 70.1623 44.3491 68.6695 45.7604C67.1767 47.1718 66.4302 48.8953 66.4302 50.931C66.4302 52.3424 66.7695 53.5774 67.4481 54.6359C68.1267 55.6674 69.0766 56.4816 70.298 57.0787C71.5466 57.6487 72.9987 57.9337 74.6543 57.9337ZM145.927 1.99364H157.002L181.918 63.5521H169.541L152.564 19.1339C152.509 18.944 152.442 18.7539 152.36 18.5639C152.143 17.9125 151.953 17.2611 151.79 16.6097C151.654 15.9583 151.587 15.4019 151.587 14.9405H151.342C151.342 15.429 151.247 16.0261 151.057 16.7318C150.895 17.4376 150.691 18.1432 150.447 18.8489C150.42 18.9575 150.379 19.0661 150.325 19.1746L133.388 63.5521H121.011L145.927 1.99364ZM134.202 40.1013H168.564V49.8725H134.202V40.1013ZM200.458 64.8549C197.69 64.8549 195.166 64.2579 192.886 63.0636C190.633 61.8422 188.855 60.1865 187.552 58.0965C186.25 55.9795 185.598 53.6317 185.598 51.0531C185.598 47.8775 186.657 45.1497 188.774 42.8698C190.918 40.5627 194.066 38.7441 198.219 37.4142C202.399 36.0843 207.516 35.27 213.568 34.9714V33.6686C213.568 32.0129 213.283 30.6422 212.713 29.5565C212.143 28.4709 211.288 27.6566 210.148 27.1137C209.008 26.5709 207.583 26.2995 205.873 26.2995C203.322 26.2995 200.906 26.8695 198.626 28.0094C196.373 29.1223 194.582 30.6015 193.252 32.4472L186.82 24.7117C188.692 22.9203 190.701 21.4275 192.845 20.2332C195.017 19.0389 197.337 18.1432 199.807 17.5461C202.277 16.949 204.91 16.6504 207.705 16.6504C211.587 16.6504 214.83 17.2204 217.436 18.3604C220.042 19.5003 221.996 21.2103 223.299 23.4903C224.628 25.7702 225.294 28.593 225.294 31.9586V51.0939C225.294 52.3696 225.511 53.2924 225.945 53.8624C226.379 54.4052 227.085 54.6766 228.062 54.6766C228.713 54.6766 229.351 54.5681 229.976 54.3509C230.627 54.1338 231.048 53.8895 231.238 53.6181V63.145C230.369 63.525 229.297 63.8371 228.021 64.0814C226.745 64.3257 225.565 64.4478 224.479 64.4478C221.792 64.4478 219.634 63.6064 218.006 61.9236C216.377 60.2407 215.346 57.7708 214.912 54.5138H214.586C214.315 56.4951 213.568 58.273 212.347 59.8472C211.125 61.3943 209.497 62.6157 207.461 63.5114C205.425 64.4071 203.091 64.8549 200.458 64.8549ZM204.204 55.0838C205.67 55.0838 207.068 54.8124 208.398 54.2695C209.727 53.7266 210.854 52.9803 211.777 52.0303C212.699 51.0803 213.297 50.0353 213.568 48.8953V42.0555C209.823 42.2998 206.769 42.7205 204.408 43.3176C202.073 43.9147 200.35 44.729 199.237 45.7604C198.124 46.7646 197.568 48.0268 197.568 49.5468C197.568 50.6596 197.839 51.6367 198.382 52.4781C198.952 53.3195 199.726 53.9709 200.703 54.4324C201.707 54.8666 202.874 55.0838 204.204 55.0838ZM282.988 1.99364H294.469L323.254 63.5521H310.755L292.027 21.1696C291.836 20.7354 291.646 20.3146 291.457 19.9075C290.561 17.8447 289.936 16.3654 289.584 15.4697C289.258 14.5469 289.014 13.5562 288.851 12.4977H288.607C288.389 13.5833 288.104 14.5876 287.752 15.5104C287.426 16.4332 286.788 17.9804 285.838 20.1518C285.675 20.5046 285.513 20.8575 285.35 21.2103L266.703 63.5521H254.204L282.988 1.99364ZM270.001 40.1013H307.335V49.8725H270.001V40.1013ZM345.614 64.8549C342.276 64.8549 339.222 64.2579 336.454 63.0636C333.713 61.8422 331.541 60.1865 329.94 58.0965C328.339 55.9795 327.538 53.6588 327.538 51.1346C327.538 47.9589 328.854 45.2175 331.487 42.9105C334.12 40.6034 337.988 38.7848 343.09 37.4549C348.22 36.0978 354.477 35.27 361.859 34.9714V32.8543C361.859 31.3615 361.52 30.1401 360.841 29.1901C360.19 28.213 359.186 27.4938 357.828 27.0323C356.472 26.5437 354.748 26.2995 352.658 26.2995C349.482 26.2995 346.375 26.8016 343.334 27.8059C340.322 28.783 337.893 30.0858 336.047 31.7143L328.8 24.8338C330.483 23.2596 332.667 21.8481 335.354 20.5996C338.042 19.3511 340.987 18.3875 344.189 17.709C347.393 17.0032 350.581 16.6504 353.757 16.6504C357.883 16.6504 361.425 17.2611 364.383 18.4825C367.369 19.6768 369.649 21.4275 371.223 23.7345C372.798 26.0145 373.584 28.7559 373.584 31.9586V51.0939C373.584 52.2881 373.869 53.1838 374.439 53.7809C375.037 54.378 375.919 54.6766 377.086 54.6766C377.873 54.6766 378.687 54.5681 379.528 54.3509C380.37 54.1338 380.967 53.8895 381.32 53.6181V63.145C380.397 63.525 379.243 63.8371 377.859 64.0814C376.503 64.3257 375.213 64.4478 373.991 64.4478C370.87 64.4478 368.387 63.6064 366.541 61.9236C364.723 60.2136 363.623 57.7437 363.243 54.5138H363.04C362.47 56.5223 361.343 58.3137 359.66 59.8879C358.005 61.4621 355.955 62.6835 353.513 63.5521C351.07 64.4207 348.437 64.8549 345.614 64.8549ZM348.79 55.0838C350.772 55.0838 352.604 54.8531 354.286 54.3916C355.969 53.9031 357.449 53.1973 358.724 52.2745C360 51.3517 361.045 50.2253 361.859 48.8953V42.0555C356.648 42.2998 352.4 42.734 349.116 43.3583C345.859 43.9554 343.444 44.7833 341.869 45.8418C340.322 46.8733 339.548 48.1625 339.548 49.7096C339.548 50.8225 339.914 51.786 340.647 52.6003C341.408 53.3874 342.479 53.9981 343.864 54.4324C345.248 54.8666 346.89 55.0838 348.79 55.0838ZM408.394 53.6995H422.074V11.9277H408.476L408.516 2.07506H447.56L447.601 11.9277H433.962V53.6995H447.682L447.642 63.5521H408.435L408.394 53.6995ZM461.117 21.1289L466.491 26.9102H449.717V17.9532H473.087V63.5521H461.117V21.1289ZM467.02 12.9048C465.419 12.9048 464.021 12.6334 462.827 12.0905C461.66 11.5477 460.75 10.7741 460.099 9.76987C459.474 8.76561 459.163 7.58492 459.163 6.22782C459.163 4.8707 459.474 3.70359 460.099 2.72648C460.75 1.72222 461.66 0.962231 462.827 0.446528C464.021 -0.0963153 465.419 -0.367737 467.02 -0.367737C468.622 -0.367737 470.006 -0.0963153 471.173 0.446528C472.368 0.962231 473.276 1.72222 473.901 2.72648C474.552 3.70359 474.878 4.8707 474.878 6.22782C474.878 7.58492 474.552 8.76561 473.901 9.76987C473.276 10.7741 472.368 11.5477 471.173 12.0905C470.006 12.6334 468.622 12.9048 467.02 12.9048ZM512.51 41.567C511.071 41.567 509.755 41.2276 508.561 40.5491C507.366 39.8434 506.417 38.907 505.711 37.7399C505.005 36.5728 504.652 35.2835 504.652 33.8721C504.652 32.4336 505.005 31.1172 505.711 29.923C506.417 28.7287 507.366 27.7788 508.561 27.073C509.755 26.3673 511.071 26.0145 512.51 26.0145C513.949 26.0145 515.264 26.3673 516.459 27.073C517.654 27.7788 518.603 28.7287 519.309 29.923C520.015 31.1172 520.368 32.4336 520.368 33.8721C520.368 35.2835 520.015 36.5728 519.309 37.7399C518.603 38.907 517.654 39.8434 516.459 40.5491C515.264 41.2276 513.949 41.567 512.51 41.567ZM512.551 64.8142C507.014 64.8142 502.372 63.6199 498.627 61.2315C494.881 58.8158 492.072 55.3009 490.199 50.6867C488.353 46.0725 487.431 40.4406 487.431 33.7907C487.431 27.1408 488.353 21.5089 490.199 16.8947C492.072 12.2805 494.881 8.77918 498.627 6.39067C502.372 4.00215 507.014 2.8079 512.551 2.8079C518.088 2.8079 522.715 4.00215 526.434 6.39067C530.153 8.77918 532.934 12.2805 534.78 16.8947C536.653 21.5089 537.589 27.1408 537.589 33.7907C537.589 40.4406 536.653 46.0725 534.78 50.6867C532.934 55.3009 530.153 58.8158 526.434 61.2315C522.715 63.6199 518.088 64.8142 512.551 64.8142ZM512.551 54.6359C515.509 54.6359 517.939 53.8488 519.838 52.2745C521.766 50.7003 523.177 48.3797 524.072 45.3126C524.995 42.2184 525.457 38.3777 525.457 33.7907C525.457 29.2037 524.995 25.3767 524.072 22.3096C523.177 19.2425 521.766 16.9218 519.838 15.3476C517.939 13.7734 515.509 12.9862 512.551 12.9862C509.565 12.9862 507.109 13.7734 505.182 15.3476C503.282 16.9218 501.87 19.2561 500.947 22.3503C500.025 25.4174 499.563 29.2308 499.563 33.7907C499.563 38.3777 500.025 42.2184 500.947 45.3126C501.87 48.3797 503.295 50.7003 505.222 52.2745C507.15 53.8488 509.592 54.6359 512.551 54.6359ZM558.001 20.6403L566.143 14.2076L591.385 46.6968L583.243 53.1295L558.001 20.6403ZM574.734 64.8142C569.197 64.8142 564.555 63.6199 560.81 61.2315C557.064 58.8158 554.255 55.3009 552.382 50.6867C550.536 46.0725 549.614 40.4406 549.614 33.7907C549.614 27.1408 550.536 21.5089 552.382 16.8947C554.255 12.2805 557.064 8.77918 560.81 6.39067C564.555 4.00215 569.197 2.8079 574.734 2.8079C580.271 2.8079 584.898 4.00215 588.617 6.39067C592.336 8.77918 595.117 12.2805 596.963 16.8947C598.836 21.5089 599.772 27.1408 599.772 33.7907C599.772 40.4406 598.836 46.0725 596.963 50.6867C595.117 55.3009 592.336 58.8158 588.617 61.2315C584.898 63.6199 580.271 64.8142 574.734 64.8142ZM574.734 54.6359C577.692 54.6359 580.122 53.8488 582.021 52.2745C583.949 50.7003 585.36 48.3797 586.256 45.3126C587.178 42.2184 587.64 38.3777 587.64 33.7907C587.64 29.2037 587.178 25.3767 586.256 22.3096C585.36 19.2425 583.949 16.9218 582.021 15.3476C580.122 13.7734 577.692 12.9862 574.734 12.9862C571.748 12.9862 569.292 13.7734 567.365 15.3476C565.465 16.9218 564.053 19.2561 563.13 22.3503C562.208 25.4174 561.746 29.2308 561.746 33.7907C561.746 38.3777 562.208 42.2184 563.13 45.3126C564.053 48.3797 565.478 50.7003 567.405 52.2745C569.333 53.8488 571.776 54.6359 574.734 54.6359Z" fill="#111111"/>
<path d="M650.626 34.2538C647.063 34.2538 643.939 33.6858 641.254 32.5498C638.62 31.4138 636.581 29.7873 635.135 27.6702C633.689 25.5531 632.966 23.0745 632.966 20.2345C632.966 17.3945 633.689 14.916 635.135 12.7989C636.581 10.6818 638.62 9.05527 641.254 7.91927C643.939 6.78327 647.063 6.21527 650.626 6.21527C654.189 6.21527 657.287 6.78327 659.92 7.91927C662.606 9.05527 664.671 10.6818 666.117 12.7989C667.563 14.916 668.286 17.3945 668.286 20.2345C668.286 23.0745 667.563 25.5531 666.117 27.6702C664.671 29.7873 662.606 31.4138 659.92 32.5498C657.287 33.6858 654.189 34.2538 650.626 34.2538ZM683.302 10.088H709.791L689.653 61.208H667.966L683.302 10.088Z" fill="#111111"/>
</g>
<defs>
<clipPath id="clip0_2143_6942">
<rect width="710" height="64.5455" fill="white"/>
</clipPath>
</defs>
</svg>
