<svg width="525" height="378" viewBox="0 0 525 378" fill="none" xmlns="http://www.w3.org/2000/svg">
<path d="M9 1H516C520.418 1 524 4.58172 524 9V359C524 368.941 515.941 377 506 377H19C9.05886 377 1 368.941 1 359V9.00001C1 4.58173 4.58172 1 9 1Z" fill="#111111"/>
<path d="M24.898 52.37H30.332L34.7 65.396L35.298 67.606H35.35L35.948 65.396L40.316 52.37H45.75V72H41.98V65.032L42.37 56.478H42.292L36.936 72H33.712L28.356 56.53H28.278L28.668 65.032V72H24.898V52.37ZM55.7923 52.344H67.3883V55.516H58.1063L59.5623 54.164V61.782L58.1063 60.352H66.0883V63.524H58.1063L59.5623 62.094V70.18L58.1063 68.828H67.3883V72H55.7923V52.344ZM76.9112 52.37H81.2532L89.9892 66.904H90.0412L89.6512 59.364V52.37H93.4212V72H89.0532L80.3432 57.362H80.2912L80.6812 64.46V72H76.9112V52.37ZM111.095 72.26C109.388 72.26 107.975 71.961 106.857 71.363C105.739 70.7563 104.894 69.8073 104.322 68.516C103.759 67.216 103.477 65.5347 103.477 63.472V52.37H107.247V63.966C107.247 65.7947 107.576 67.0947 108.235 67.866C108.894 68.6287 109.847 69.01 111.095 69.01C111.91 69.01 112.599 68.854 113.162 68.542C113.734 68.2213 114.172 67.6883 114.475 66.943C114.787 66.1977 114.943 65.2053 114.943 63.966V52.37H118.713V63.472C118.713 65.552 118.427 67.2377 117.855 68.529C117.292 69.8203 116.451 70.765 115.333 71.363C114.215 71.961 112.802 72.26 111.095 72.26Z" fill="#FAFAFA"/>
<path d="M181.531 140.35H189.406C191.416 140.35 193.171 140.82 194.671 141.76C196.171 142.69 197.326 144.005 198.136 145.705C198.946 147.405 199.351 149.375 199.351 151.615C199.351 153.835 198.956 155.805 198.166 157.525C197.376 159.245 196.256 160.59 194.806 161.56C193.366 162.52 191.686 163 189.766 163H181.531V140.35ZM183.241 159.91H188.776C190.206 159.91 191.431 159.605 192.451 158.995C193.471 158.375 194.251 157.46 194.791 156.25C195.341 155.04 195.616 153.56 195.616 151.81C195.616 150.01 195.326 148.485 194.746 147.235C194.166 145.985 193.336 145.04 192.256 144.4C191.186 143.76 189.906 143.44 188.416 143.44H183.241L185.146 141.67V161.68L183.241 159.91ZM208.637 163.48C207.657 163.48 206.762 163.26 205.952 162.82C205.152 162.38 204.517 161.78 204.047 161.02C203.587 160.25 203.357 159.395 203.357 158.455C203.357 157.255 203.732 156.225 204.482 155.365C205.232 154.495 206.337 153.825 207.797 153.355C209.267 152.875 211.047 152.615 213.137 152.575V151.765C213.137 151.155 213.067 150.635 212.927 150.205C212.797 149.765 212.527 149.41 212.117 149.14C211.707 148.86 211.102 148.72 210.302 148.72C209.432 148.72 208.667 148.89 208.007 149.23C207.357 149.57 206.852 149.955 206.492 150.385C206.132 150.805 205.912 151.14 205.832 151.39L203.687 148.81C204.217 148.17 204.852 147.62 205.592 147.16C206.342 146.7 207.157 146.345 208.037 146.095C208.927 145.845 209.852 145.72 210.812 145.72C212.792 145.72 214.272 146.175 215.252 147.085C216.242 147.985 216.737 149.33 216.737 151.12V158.425C216.737 159.065 216.827 159.52 217.007 159.79C217.187 160.06 217.492 160.195 217.922 160.195C218.142 160.195 218.377 160.165 218.627 160.105C218.877 160.045 219.017 159.995 219.047 159.955V162.895C218.747 163.025 218.392 163.13 217.982 163.21C217.582 163.29 217.187 163.33 216.797 163.33C215.967 163.33 215.262 163.06 214.682 162.52C214.102 161.98 213.752 161.21 213.632 160.21H213.572C213.362 160.88 213.007 161.46 212.507 161.95C212.007 162.44 211.417 162.815 210.737 163.075C210.067 163.345 209.367 163.48 208.637 163.48ZM209.627 160.405C210.247 160.405 210.787 160.275 211.247 160.015C211.717 159.745 212.107 159.41 212.417 159.01C212.737 158.61 212.977 158.205 213.137 157.795V154.915C211.727 154.945 210.572 155.085 209.672 155.335C208.782 155.585 208.122 155.945 207.692 156.415C207.262 156.875 207.047 157.46 207.047 158.17C207.047 158.64 207.147 159.045 207.347 159.385C207.557 159.715 207.857 159.97 208.247 160.15C208.637 160.32 209.097 160.405 209.627 160.405ZM222.973 146.2H226.423C226.443 146.89 226.453 147.52 226.453 148.09C226.463 148.65 226.448 149.195 226.408 149.725H226.468C227.088 148.155 227.883 147.005 228.853 146.275C229.833 145.545 231.073 145.215 232.573 145.285V148.99C232.453 148.97 232.293 148.955 232.093 148.945C231.893 148.935 231.693 148.94 231.493 148.96C230.903 149 230.293 149.145 229.663 149.395C229.033 149.635 228.443 149.99 227.893 150.46C227.353 150.92 226.913 151.485 226.573 152.155V163H222.973V146.2ZM239.935 153.16L241.765 151.105L246.67 146.2H251.23L242.905 154.315L239.935 156.91V153.16ZM236.335 139.75H239.935V163H236.335V139.75ZM241.69 154.18L244.165 151.87L251.53 163H247.345L241.69 154.18ZM263.662 140.35H268.492L274.477 156.265L275.227 158.89H275.287L276.052 156.265L282.037 140.35H286.867V163H283.282V152.335L283.552 145.255H283.447L276.922 163H273.622L267.097 145.705H267.022L267.247 152.335V163H263.662V140.35ZM299.695 163.48C298.125 163.48 296.735 163.11 295.525 162.37C294.315 161.62 293.375 160.58 292.705 159.25C292.035 157.91 291.7 156.37 291.7 154.63C291.7 152.88 292.035 151.33 292.705 149.98C293.375 148.63 294.315 147.585 295.525 146.845C296.745 146.095 298.135 145.72 299.695 145.72C301.255 145.72 302.635 146.09 303.835 146.83C305.035 147.57 305.965 148.615 306.625 149.965C307.285 151.315 307.615 152.87 307.615 154.63C307.615 156.38 307.285 157.925 306.625 159.265C305.975 160.595 305.05 161.63 303.85 162.37C302.65 163.11 301.265 163.48 299.695 163.48ZM299.65 160.42C301.04 160.42 302.1 159.945 302.83 158.995C303.56 158.045 303.925 156.59 303.925 154.63C303.925 152.65 303.555 151.18 302.815 150.22C302.085 149.26 301.03 148.78 299.65 148.78C298.29 148.78 297.24 149.265 296.5 150.235C295.76 151.195 295.39 152.66 295.39 154.63C295.39 156.59 295.755 158.045 296.485 158.995C297.225 159.945 298.28 160.42 299.65 160.42ZM318.579 163.48C317.119 163.48 315.839 163.115 314.739 162.385C313.649 161.655 312.804 160.625 312.204 159.295C311.604 157.965 311.304 156.415 311.304 154.645C311.304 152.865 311.609 151.3 312.219 149.95C312.829 148.6 313.689 147.56 314.799 146.83C315.909 146.1 317.204 145.735 318.684 145.735C319.944 145.735 321.024 146.01 321.924 146.56C322.834 147.1 323.494 147.885 323.904 148.915H323.964C323.934 147.365 323.909 145.86 323.889 144.4C323.869 142.94 323.859 141.385 323.859 139.735H327.459V163H324.249C324.139 162.05 324.084 161.15 324.084 160.3H324.024C323.544 161.31 322.834 162.095 321.894 162.655C320.964 163.205 319.859 163.48 318.579 163.48ZM319.239 160.42C320.139 160.42 320.944 160.205 321.654 159.775C322.364 159.335 322.919 158.705 323.319 157.885C323.729 157.065 323.934 156.095 323.934 154.975V154.255C323.934 153.155 323.734 152.195 323.334 151.375C322.934 150.555 322.374 149.92 321.654 149.47C320.944 149.02 320.129 148.795 319.209 148.795C318.299 148.795 317.529 149.02 316.899 149.47C316.269 149.92 315.794 150.58 315.474 151.45C315.154 152.31 314.994 153.355 314.994 154.585C314.994 155.815 315.154 156.87 315.474 157.75C315.804 158.62 316.284 159.285 316.914 159.745C317.554 160.195 318.329 160.42 319.239 160.42ZM340.368 163.48C338.728 163.48 337.293 163.13 336.063 162.43C334.833 161.72 333.878 160.705 333.198 159.385C332.528 158.055 332.193 156.48 332.193 154.66C332.193 153.01 332.478 151.51 333.048 150.16C333.618 148.81 334.493 147.735 335.673 146.935C336.863 146.125 338.343 145.72 340.113 145.72C341.563 145.72 342.788 145.995 343.788 146.545C344.788 147.095 345.538 147.915 346.038 149.005C346.548 150.085 346.803 151.425 346.803 153.025C346.803 153.675 346.783 154.23 346.743 154.69C346.713 155.14 346.668 155.51 346.608 155.8H333.828L333.798 153.205H345.243L343.098 154.495C343.368 153.445 343.448 152.49 343.338 151.63C343.228 150.76 342.903 150.06 342.363 149.53C341.823 149 341.058 148.735 340.068 148.735C339.038 148.735 338.213 148.94 337.593 149.35C336.983 149.76 336.533 150.385 336.243 151.225C335.953 152.065 335.793 153.165 335.763 154.525C335.773 155.825 335.953 156.92 336.303 157.81C336.663 158.69 337.183 159.355 337.863 159.805C338.543 160.245 339.378 160.465 340.368 160.465C341.218 160.465 341.918 160.325 342.468 160.045C343.028 159.755 343.438 159.445 343.698 159.115C343.958 158.775 344.103 158.52 344.133 158.35L346.758 160.09C346.278 160.94 345.683 161.615 344.973 162.115C344.263 162.615 343.518 162.965 342.738 163.165C341.958 163.375 341.168 163.48 340.368 163.48Z" fill="#FAFAFA"/>
<path d="M196.285 250.3C194.435 250.3 192.88 249.96 191.62 249.28C190.37 248.6 189.425 247.565 188.785 246.175C188.145 244.775 187.825 243.02 187.825 240.91V227.35H191.44V241.39C191.44 243.34 191.855 244.785 192.685 245.725C193.525 246.655 194.725 247.12 196.285 247.12C197.315 247.12 198.19 246.92 198.91 246.52C199.63 246.11 200.18 245.48 200.56 244.63C200.95 243.78 201.145 242.7 201.145 241.39V227.35H204.76V240.91C204.76 243.03 204.44 244.785 203.8 246.175C203.16 247.565 202.21 248.6 200.95 249.28C199.7 249.96 198.145 250.3 196.285 250.3ZM215.538 250.465C214.658 250.465 213.788 250.345 212.928 250.105C212.068 249.875 211.273 249.555 210.543 249.145C209.823 248.725 209.218 248.255 208.728 247.735L210.483 244.855C210.513 244.955 210.758 245.23 211.218 245.68C211.678 246.12 212.283 246.535 213.033 246.925C213.793 247.305 214.648 247.495 215.598 247.495C216.228 247.495 216.773 247.425 217.233 247.285C217.693 247.135 218.043 246.93 218.283 246.67C218.523 246.4 218.643 246.085 218.643 245.725C218.643 245.345 218.528 245.005 218.298 244.705C218.078 244.395 217.683 244.09 217.113 243.79C216.553 243.49 215.748 243.165 214.698 242.815C213.058 242.255 211.768 241.535 210.828 240.655C209.888 239.765 209.418 238.705 209.418 237.475C209.418 236.545 209.678 235.725 210.198 235.015C210.728 234.295 211.468 233.735 212.418 233.335C213.378 232.935 214.473 232.735 215.703 232.735C216.623 232.735 217.478 232.86 218.268 233.11C219.068 233.35 219.768 233.685 220.368 234.115C220.978 234.545 221.468 235.045 221.838 235.615L219.828 238C219.768 237.86 219.558 237.605 219.198 237.235C218.848 236.865 218.373 236.52 217.773 236.2C217.173 235.87 216.503 235.705 215.763 235.705C214.933 235.705 214.263 235.855 213.753 236.155C213.243 236.455 212.988 236.89 212.988 237.46C212.988 237.81 213.108 238.12 213.348 238.39C213.588 238.65 213.978 238.915 214.518 239.185C215.058 239.445 215.888 239.79 217.008 240.22C218.248 240.7 219.243 241.18 219.993 241.66C220.743 242.13 221.303 242.67 221.673 243.28C222.043 243.89 222.228 244.61 222.228 245.44C222.228 246.53 221.918 247.455 221.298 248.215C220.678 248.965 219.858 249.53 218.838 249.91C217.828 250.28 216.728 250.465 215.538 250.465ZM234.021 250.48C232.381 250.48 230.946 250.13 229.716 249.43C228.486 248.72 227.531 247.705 226.851 246.385C226.181 245.055 225.846 243.48 225.846 241.66C225.846 240.01 226.131 238.51 226.701 237.16C227.271 235.81 228.146 234.735 229.326 233.935C230.516 233.125 231.996 232.72 233.766 232.72C235.216 232.72 236.441 232.995 237.441 233.545C238.441 234.095 239.191 234.915 239.691 236.005C240.201 237.085 240.456 238.425 240.456 240.025C240.456 240.675 240.436 241.23 240.396 241.69C240.366 242.14 240.321 242.51 240.261 242.8H227.481L227.451 240.205H238.896L236.751 241.495C237.021 240.445 237.101 239.49 236.991 238.63C236.881 237.76 236.556 237.06 236.016 236.53C235.476 236 234.711 235.735 233.721 235.735C232.691 235.735 231.866 235.94 231.246 236.35C230.636 236.76 230.186 237.385 229.896 238.225C229.606 239.065 229.446 240.165 229.416 241.525C229.426 242.825 229.606 243.92 229.956 244.81C230.316 245.69 230.836 246.355 231.516 246.805C232.196 247.245 233.031 247.465 234.021 247.465C234.871 247.465 235.571 247.325 236.121 247.045C236.681 246.755 237.091 246.445 237.351 246.115C237.611 245.775 237.756 245.52 237.786 245.35L240.411 247.09C239.931 247.94 239.336 248.615 238.626 249.115C237.916 249.615 237.171 249.965 236.391 250.165C235.611 250.375 234.821 250.48 234.021 250.48ZM261.861 250.45C259.991 250.45 258.371 249.965 257.001 248.995C255.631 248.025 254.581 246.64 253.851 244.84C253.121 243.04 252.756 240.92 252.756 238.48C252.756 236.02 253.136 233.94 253.896 232.24C254.656 230.54 255.771 229.255 257.241 228.385C258.721 227.515 260.516 227.08 262.626 227.08C264.066 227.08 265.336 227.28 266.436 227.68C267.536 228.07 268.441 228.62 269.151 229.33C269.861 230.03 270.381 230.84 270.711 231.76L267.621 233.575C267.611 233.265 267.421 232.845 267.051 232.315C266.681 231.785 266.111 231.31 265.341 230.89C264.571 230.47 263.616 230.26 262.476 230.26C260.486 230.26 258.991 230.97 257.991 232.39C256.991 233.81 256.491 235.885 256.491 238.615C256.491 240.465 256.716 242.035 257.166 243.325C257.626 244.605 258.306 245.575 259.206 246.235C260.106 246.895 261.206 247.225 262.506 247.225C263.446 247.225 264.271 247.065 264.981 246.745C265.691 246.415 266.286 245.965 266.766 245.395C267.256 244.825 267.676 244.14 268.026 243.34L267.666 244.87V239.785L268.161 240.37H261.921V237.46H270.891V249.985H268.371L267.906 246.235L268.686 246.4C268.446 247.08 268.031 247.73 267.441 248.35C266.851 248.97 266.081 249.475 265.131 249.865C264.191 250.255 263.101 250.45 261.861 250.45ZM281.194 250.48C280.424 250.48 279.714 250.345 279.064 250.075C278.414 249.815 277.859 249.445 277.399 248.965C276.919 248.445 276.559 247.785 276.319 246.985C276.089 246.185 275.974 245.205 275.974 244.045V233.2H279.574V242.545C279.574 243.585 279.614 244.385 279.694 244.945C279.784 245.505 279.949 245.955 280.189 246.295C280.449 246.645 280.789 246.92 281.209 247.12C281.639 247.32 282.109 247.42 282.619 247.42C283.339 247.42 283.969 247.235 284.509 246.865C285.059 246.485 285.479 245.96 285.769 245.29C286.069 244.62 286.219 243.855 286.219 242.995V233.2H289.819V250H286.324L286.309 248.86C286.299 248.05 286.304 247.455 286.324 247.075H286.264C286.024 247.785 285.664 248.395 285.184 248.905C284.704 249.415 284.124 249.805 283.444 250.075C282.764 250.345 282.014 250.48 281.194 250.48ZM295.628 234.37L297.278 235.72H295.628V233.2H299.288V250H295.628V234.37ZM297.443 230.86C296.973 230.86 296.553 230.765 296.183 230.575C295.813 230.385 295.523 230.12 295.313 229.78C295.103 229.44 294.998 229.055 294.998 228.625C294.998 228.195 295.103 227.815 295.313 227.485C295.523 227.155 295.813 226.9 296.183 226.72C296.553 226.54 296.973 226.45 297.443 226.45C297.923 226.45 298.343 226.54 298.703 226.72C299.073 226.9 299.358 227.155 299.558 227.485C299.768 227.815 299.873 228.195 299.873 228.625C299.873 229.055 299.768 229.44 299.558 229.78C299.358 230.11 299.073 230.375 298.703 230.575C298.343 230.765 297.923 230.86 297.443 230.86ZM311.445 250.48C309.985 250.48 308.705 250.115 307.605 249.385C306.515 248.655 305.67 247.625 305.07 246.295C304.47 244.965 304.17 243.415 304.17 241.645C304.17 239.865 304.475 238.3 305.085 236.95C305.695 235.6 306.555 234.56 307.665 233.83C308.775 233.1 310.07 232.735 311.55 232.735C312.81 232.735 313.89 233.01 314.79 233.56C315.7 234.1 316.36 234.885 316.77 235.915H316.83C316.8 234.365 316.775 232.86 316.755 231.4C316.735 229.94 316.725 228.385 316.725 226.735H320.325V250H317.115C317.005 249.05 316.95 248.15 316.95 247.3H316.89C316.41 248.31 315.7 249.095 314.76 249.655C313.83 250.205 312.725 250.48 311.445 250.48ZM312.105 247.42C313.005 247.42 313.81 247.205 314.52 246.775C315.23 246.335 315.785 245.705 316.185 244.885C316.595 244.065 316.8 243.095 316.8 241.975V241.255C316.8 240.155 316.6 239.195 316.2 238.375C315.8 237.555 315.24 236.92 314.52 236.47C313.81 236.02 312.995 235.795 312.075 235.795C311.165 235.795 310.395 236.02 309.765 236.47C309.135 236.92 308.66 237.58 308.34 238.45C308.02 239.31 307.86 240.355 307.86 241.585C307.86 242.815 308.02 243.87 308.34 244.75C308.67 245.62 309.15 246.285 309.78 246.745C310.42 247.195 311.195 247.42 312.105 247.42ZM333.234 250.48C331.594 250.48 330.159 250.13 328.929 249.43C327.699 248.72 326.744 247.705 326.064 246.385C325.394 245.055 325.059 243.48 325.059 241.66C325.059 240.01 325.344 238.51 325.914 237.16C326.484 235.81 327.359 234.735 328.539 233.935C329.729 233.125 331.209 232.72 332.979 232.72C334.429 232.72 335.654 232.995 336.654 233.545C337.654 234.095 338.404 234.915 338.904 236.005C339.414 237.085 339.669 238.425 339.669 240.025C339.669 240.675 339.649 241.23 339.609 241.69C339.579 242.14 339.534 242.51 339.474 242.8H326.694L326.664 240.205H338.109L335.964 241.495C336.234 240.445 336.314 239.49 336.204 238.63C336.094 237.76 335.769 237.06 335.229 236.53C334.689 236 333.924 235.735 332.934 235.735C331.904 235.735 331.079 235.94 330.459 236.35C329.849 236.76 329.399 237.385 329.109 238.225C328.819 239.065 328.659 240.165 328.629 241.525C328.639 242.825 328.819 243.92 329.169 244.81C329.529 245.69 330.049 246.355 330.729 246.805C331.409 247.245 332.244 247.465 333.234 247.465C334.084 247.465 334.784 247.325 335.334 247.045C335.894 246.755 336.304 246.445 336.564 246.115C336.824 245.775 336.969 245.52 336.999 245.35L339.624 247.09C339.144 247.94 338.549 248.615 337.839 249.115C337.129 249.615 336.384 249.965 335.604 250.165C334.824 250.375 334.034 250.48 333.234 250.48Z" fill="#FAFAFA"/>
<path d="M191.083 314.35H205.138V317.47H193.258L194.683 316.105V325.84L193.258 324.475H203.413V327.61H193.258L194.683 326.26V337H191.083V314.35ZM215.841 337.48C214.201 337.48 212.766 337.13 211.536 336.43C210.306 335.72 209.351 334.705 208.671 333.385C208.001 332.055 207.666 330.48 207.666 328.66C207.666 327.01 207.951 325.51 208.521 324.16C209.091 322.81 209.966 321.735 211.146 320.935C212.336 320.125 213.816 319.72 215.586 319.72C217.036 319.72 218.261 319.995 219.261 320.545C220.261 321.095 221.011 321.915 221.511 323.005C222.021 324.085 222.276 325.425 222.276 327.025C222.276 327.675 222.256 328.23 222.216 328.69C222.186 329.14 222.141 329.51 222.081 329.8H209.301L209.271 327.205H220.716L218.571 328.495C218.841 327.445 218.921 326.49 218.811 325.63C218.701 324.76 218.376 324.06 217.836 323.53C217.296 323 216.531 322.735 215.541 322.735C214.511 322.735 213.686 322.94 213.066 323.35C212.456 323.76 212.006 324.385 211.716 325.225C211.426 326.065 211.266 327.165 211.236 328.525C211.246 329.825 211.426 330.92 211.776 331.81C212.136 332.69 212.656 333.355 213.336 333.805C214.016 334.245 214.851 334.465 215.841 334.465C216.691 334.465 217.391 334.325 217.941 334.045C218.501 333.755 218.911 333.445 219.171 333.115C219.431 332.775 219.576 332.52 219.606 332.35L222.231 334.09C221.751 334.94 221.156 335.615 220.446 336.115C219.736 336.615 218.991 336.965 218.211 337.165C217.431 337.375 216.641 337.48 215.841 337.48ZM234.183 337.48C232.543 337.48 231.108 337.13 229.878 336.43C228.648 335.72 227.693 334.705 227.013 333.385C226.343 332.055 226.008 330.48 226.008 328.66C226.008 327.01 226.293 325.51 226.863 324.16C227.433 322.81 228.308 321.735 229.488 320.935C230.678 320.125 232.158 319.72 233.928 319.72C235.378 319.72 236.603 319.995 237.603 320.545C238.603 321.095 239.353 321.915 239.853 323.005C240.363 324.085 240.618 325.425 240.618 327.025C240.618 327.675 240.598 328.23 240.558 328.69C240.528 329.14 240.483 329.51 240.423 329.8H227.643L227.613 327.205H239.058L236.913 328.495C237.183 327.445 237.263 326.49 237.153 325.63C237.043 324.76 236.718 324.06 236.178 323.53C235.638 323 234.873 322.735 233.883 322.735C232.853 322.735 232.028 322.94 231.408 323.35C230.798 323.76 230.348 324.385 230.058 325.225C229.768 326.065 229.608 327.165 229.578 328.525C229.588 329.825 229.768 330.92 230.118 331.81C230.478 332.69 230.998 333.355 231.678 333.805C232.358 334.245 233.193 334.465 234.183 334.465C235.033 334.465 235.733 334.325 236.283 334.045C236.843 333.755 237.253 333.445 237.513 333.115C237.773 332.775 237.918 332.52 237.948 332.35L240.573 334.09C240.093 334.94 239.498 335.615 238.788 336.115C238.078 336.615 237.333 336.965 236.553 337.165C235.773 337.375 234.983 337.48 234.183 337.48ZM251.656 337.48C250.196 337.48 248.916 337.115 247.816 336.385C246.726 335.655 245.881 334.625 245.281 333.295C244.681 331.965 244.381 330.415 244.381 328.645C244.381 326.865 244.686 325.3 245.296 323.95C245.906 322.6 246.766 321.56 247.876 320.83C248.986 320.1 250.281 319.735 251.761 319.735C253.021 319.735 254.101 320.01 255.001 320.56C255.911 321.1 256.571 321.885 256.981 322.915H257.041C257.011 321.365 256.986 319.86 256.966 318.4C256.946 316.94 256.936 315.385 256.936 313.735H260.536V337H257.326C257.216 336.05 257.161 335.15 257.161 334.3H257.101C256.621 335.31 255.911 336.095 254.971 336.655C254.041 337.205 252.936 337.48 251.656 337.48ZM252.316 334.42C253.216 334.42 254.021 334.205 254.731 333.775C255.441 333.335 255.996 332.705 256.396 331.885C256.806 331.065 257.011 330.095 257.011 328.975V328.255C257.011 327.155 256.811 326.195 256.411 325.375C256.011 324.555 255.451 323.92 254.731 323.47C254.021 323.02 253.206 322.795 252.286 322.795C251.376 322.795 250.606 323.02 249.976 323.47C249.346 323.92 248.871 324.58 248.551 325.45C248.231 326.31 248.071 327.355 248.071 328.585C248.071 329.815 248.231 330.87 248.551 331.75C248.881 332.62 249.361 333.285 249.991 333.745C250.631 334.195 251.406 334.42 252.316 334.42ZM275.157 337.465C273.887 337.465 272.792 337.19 271.872 336.64C270.962 336.09 270.312 335.305 269.922 334.285H269.862C269.862 334.495 269.857 334.665 269.847 334.795C269.837 335.105 269.757 335.84 269.607 337H266.367V313.75H269.967C269.967 315.99 269.962 317.78 269.952 319.12C269.952 320.46 269.947 321.365 269.937 321.835C269.927 322.305 269.902 322.71 269.862 323.05H269.922C270.302 321.99 270.957 321.17 271.887 320.59C272.817 320.01 273.937 319.72 275.247 319.72C276.697 319.72 277.972 320.085 279.072 320.815C280.172 321.545 281.022 322.58 281.622 323.92C282.222 325.26 282.522 326.815 282.522 328.585C282.522 330.365 282.217 331.925 281.607 333.265C281.007 334.605 280.152 335.64 279.042 336.37C277.932 337.1 276.637 337.465 275.157 337.465ZM274.617 334.405C275.527 334.405 276.297 334.18 276.927 333.73C277.557 333.27 278.032 332.61 278.352 331.75C278.672 330.89 278.832 329.845 278.832 328.615C278.832 327.375 278.667 326.32 278.337 325.45C278.017 324.58 277.542 323.92 276.912 323.47C276.282 323.01 275.517 322.78 274.617 322.78C273.707 322.78 272.892 323.005 272.172 323.455C271.462 323.905 270.902 324.545 270.492 325.375C270.092 326.195 269.892 327.145 269.892 328.225V328.945C269.892 330.035 270.092 330.995 270.492 331.825C270.892 332.645 271.447 333.28 272.157 333.73C272.877 334.18 273.697 334.405 274.617 334.405ZM291.587 337.48C290.607 337.48 289.712 337.26 288.902 336.82C288.102 336.38 287.467 335.78 286.997 335.02C286.537 334.25 286.307 333.395 286.307 332.455C286.307 331.255 286.682 330.225 287.432 329.365C288.182 328.495 289.287 327.825 290.747 327.355C292.217 326.875 293.997 326.615 296.087 326.575V325.765C296.087 325.155 296.017 324.635 295.877 324.205C295.747 323.765 295.477 323.41 295.067 323.14C294.657 322.86 294.052 322.72 293.252 322.72C292.382 322.72 291.617 322.89 290.957 323.23C290.307 323.57 289.802 323.955 289.442 324.385C289.082 324.805 288.862 325.14 288.782 325.39L286.637 322.81C287.167 322.17 287.802 321.62 288.542 321.16C289.292 320.7 290.107 320.345 290.987 320.095C291.877 319.845 292.802 319.72 293.762 319.72C295.742 319.72 297.222 320.175 298.202 321.085C299.192 321.985 299.687 323.33 299.687 325.12V332.425C299.687 333.065 299.777 333.52 299.957 333.79C300.137 334.06 300.442 334.195 300.872 334.195C301.092 334.195 301.327 334.165 301.577 334.105C301.827 334.045 301.967 333.995 301.997 333.955V336.895C301.697 337.025 301.342 337.13 300.932 337.21C300.532 337.29 300.137 337.33 299.747 337.33C298.917 337.33 298.212 337.06 297.632 336.52C297.052 335.98 296.702 335.21 296.582 334.21H296.522C296.312 334.88 295.957 335.46 295.457 335.95C294.957 336.44 294.367 336.815 293.687 337.075C293.017 337.345 292.317 337.48 291.587 337.48ZM292.577 334.405C293.197 334.405 293.737 334.275 294.197 334.015C294.667 333.745 295.057 333.41 295.367 333.01C295.687 332.61 295.927 332.205 296.087 331.795V328.915C294.677 328.945 293.522 329.085 292.622 329.335C291.732 329.585 291.072 329.945 290.642 330.415C290.212 330.875 289.997 331.46 289.997 332.17C289.997 332.64 290.097 333.045 290.297 333.385C290.507 333.715 290.807 333.97 291.197 334.15C291.587 334.32 292.047 334.405 292.577 334.405ZM312.639 337.48C311.039 337.48 309.654 337.12 308.484 336.4C307.314 335.68 306.419 334.66 305.799 333.34C305.189 332.01 304.884 330.45 304.884 328.66C304.884 326.82 305.209 325.23 305.859 323.89C306.519 322.54 307.444 321.51 308.634 320.8C309.834 320.08 311.224 319.72 312.804 319.72C313.794 319.72 314.689 319.865 315.489 320.155C316.289 320.435 316.979 320.86 317.559 321.43C318.149 321.99 318.619 322.685 318.969 323.515L315.999 325.3C315.959 325.1 315.839 324.81 315.639 324.43C315.449 324.05 315.109 323.685 314.619 323.335C314.129 322.985 313.469 322.81 312.639 322.81C311.829 322.81 311.114 323.025 310.494 323.455C309.884 323.875 309.404 324.52 309.054 325.39C308.704 326.26 308.529 327.345 308.529 328.645C308.529 330.555 308.909 331.99 309.669 332.95C310.429 333.91 311.454 334.39 312.744 334.39C313.574 334.39 314.264 334.23 314.814 333.91C315.364 333.59 315.769 333.25 316.029 332.89C316.289 332.53 316.439 332.265 316.479 332.095L318.879 334.42C318.449 335.09 317.924 335.655 317.304 336.115C316.694 336.565 315.994 336.905 315.204 337.135C314.424 337.365 313.569 337.48 312.639 337.48ZM326.664 327.16L328.494 325.105L333.399 320.2H337.959L329.634 328.315L326.664 330.91V327.16ZM323.064 313.75H326.664V337H323.064V313.75ZM328.419 328.18L330.894 325.87L338.259 337H334.074L328.419 328.18Z" fill="#FAFAFA"/>
<path d="M485.5 73L474.675 52.75L496.325 52.75L485.5 73Z" fill="#FAFAFA"/>
<rect x="24.75" y="122.75" width="477.5" height="58.759" rx="29.3795" stroke="#FAFAFA" stroke-width="5.5"/>
<rect x="24.75" y="207.75" width="477.5" height="58.759" rx="29.3795" stroke="#FAFAFA" stroke-width="5.5"/>
<rect x="24.75" y="292.75" width="477.5" height="58.759" rx="29.3795" stroke="#FAFAFA" stroke-width="5.5"/>
<path d="M9 1H516C520.418 1 524 4.58172 524 9V359C524 368.941 515.941 377 506 377H19C9.05886 377 1 368.941 1 359V9.00001C1 4.58173 4.58172 1 9 1Z" stroke="#FAFAFA" stroke-width="2"/>
</svg>
