<svg width="355" height="732" viewBox="0 0 355 732" fill="none" xmlns="http://www.w3.org/2000/svg">
<g clip-path="url(#clip0_2150_6963)">
<path d="M344.524 0H11.2612C5.4756 0 0.7854 4.6902 0.7854 10.4759V721.524C0.7854 727.31 5.4756 732 11.2612 732H344.524C350.31 732 355 727.31 355 721.524V10.4759C355 4.6902 350.31 0 344.524 0Z" fill="#111111"/>
<path d="M163.738 101.085C166.826 101.085 169.014 100.056 169.765 99.241V94.4162C169.143 95.1233 167.062 96.2174 165.218 96.2174C163.545 96.2174 162.451 95.1665 162.451 93.0222V67.9097H156.595V94.0083C156.595 98.8979 159.512 101.085 163.738 101.085Z" fill="#FAFAFA"/>
<path d="M151.919 95.9817C150.825 95.9817 150.504 95.2739 150.504 94.1157V84.165C150.504 78.6324 147.007 76.3382 141.517 76.3382C137.184 76.3382 133.924 77.5815 130.878 80.4768L134.138 84.3372C135.447 82.5137 137.87 81.163 140.637 81.163C143.147 81.163 144.648 82.2138 144.648 85.0659V85.7521C138.342 86.0526 130.256 87.6822 130.256 94.0083C130.256 98.2975 133.774 101.085 137.913 101.085C140.187 101.085 142.546 100.335 143.962 98.5765C144.605 97.7187 145.013 96.8394 145.163 95.8527H145.335C145.678 98.7906 147.179 100.871 150.139 100.871C151.598 100.871 152.22 100.742 153.592 100.228V95.4881C153.185 95.896 152.541 95.9817 151.919 95.9817ZM144.648 92.9149C144.176 94.9734 141.667 96.2174 139.737 96.2174C137.656 96.2174 136.219 95.0166 136.219 93.2796C136.219 91.392 137.999 90.4485 139.822 89.9771C141.088 89.6766 142.653 89.4625 144.648 89.3551V92.9149Z" fill="#FAFAFA"/>
<path d="M101.15 74.2791C103.33 74.2791 105.097 72.7817 105.097 70.934C105.097 69.0863 103.33 67.5883 101.15 67.5883C98.9703 67.5883 97.2031 69.0863 97.2031 70.934C97.2031 72.7817 98.9703 74.2791 101.15 74.2791Z" fill="#FAFAFA"/>
<path d="M118.803 101.085C122.32 101.085 125.537 99.9913 127.704 97.2467L124.078 93.3438C122.685 95.1024 121.59 96.1101 119.296 96.1101C115.135 96.1101 113.569 92.7434 113.569 88.6257C113.569 84.6802 115.027 81.292 118.909 81.292C120.904 81.292 122.728 82.2996 123.5 84.2723L127.961 81.2062C126.395 77.9895 123.328 76.3382 119.21 76.3382C111.403 76.3382 107.671 81.6992 107.671 88.883C107.671 96.389 111.509 101.085 118.803 101.085Z" fill="#FAFAFA"/>
<path d="M104.153 77.0027H98.1899V100.442H104.153V77.0027Z" fill="#FAFAFA"/>
<path d="M90.0823 100.871C91.4337 100.871 93.2781 100.613 94.4147 99.9062V95.1666C93.9217 95.7244 91.7768 95.9385 91.0258 95.9385C89.4171 95.9385 88.5594 95.124 88.5594 93.0223V81.3987H94.3506V77.0027H88.5594V69.0895L82.6824 71.148V77.0027H79.4009V81.3987H82.6824V93.6443C82.6824 98.5332 85.1921 100.871 90.0823 100.871Z" fill="#FAFAFA"/>
<path d="M67.2822 76.3382C64.1078 76.3382 61.1478 78.2677 60.054 81.0346H59.7966C59.9681 80.2621 60.1612 78.8472 60.1612 77.0028H54.3057V109.342H60.1612C60.1612 107.412 60.1183 104.645 60.054 102.179C59.9896 99.6699 59.9681 97.6755 59.7107 96.3458H60.054C61.1478 99.1985 64.0649 101.085 67.2822 101.085C73.8885 101.085 77.5347 95.6386 77.5347 88.6899C77.5347 81.9349 74.06 76.3382 67.2822 76.3382ZM66.0596 96.2174C62.6278 96.2174 60.1183 93.3006 60.1183 89.6124V87.8322C60.1183 84.2723 62.4991 81.2062 66.0596 81.2062C69.9633 81.2062 71.572 84.8302 71.572 88.7331C71.572 92.5286 69.856 96.2174 66.0596 96.2174Z" fill="#FAFAFA"/>
<path d="M34.6799 67.4383C24.7276 67.4383 19.7729 74.6012 19.7729 84.1656C19.7729 93.9016 24.8778 101.085 34.6799 101.085C44.4821 101.085 49.5869 94.0515 49.5869 84.1656C49.5869 74.408 44.6966 67.4383 34.6799 67.4383ZM39.1842 94.373C37.8758 95.3381 36.4172 95.8527 34.6799 95.8527C29.0174 95.8527 26.1004 90.1912 26.1004 84.2298C26.1004 78.2893 28.76 72.7351 34.6799 72.7351C40.5998 72.7351 43.3024 78.3109 43.3024 84.2298C43.3024 88.0253 42.1441 92.0998 39.1842 94.373Z" fill="#FAFAFA"/>
<path d="M21.6377 195.113H26.8547C29.8193 195.113 31.6317 193.489 31.6317 190.88C31.6317 188.555 30.186 186.795 28.2794 186.795V186.753C29.8089 186.753 30.9612 185.108 30.9612 183.306C30.9612 180.96 28.9917 179.294 26.289 179.294H21.6377V195.113ZM23.6491 193.332V187.675H26.4356C28.426 187.675 29.5574 188.806 29.5574 190.755C29.5574 192.494 28.6775 193.332 26.8547 193.332H23.6491ZM23.6491 185.957V181.012H25.828C27.8184 181.012 28.887 181.892 28.887 183.547C28.887 185.077 28.007 185.957 26.4566 185.957H23.6491ZM39.8686 195.448C43.0742 195.448 45.2113 192.965 45.2113 189.267C45.2113 185.548 43.0533 183.044 39.8686 183.044C36.663 183.044 34.4421 185.59 34.4421 189.267C34.4421 192.934 36.6525 195.448 39.8686 195.448ZM36.5163 189.267C36.5163 186.355 37.6687 184.804 39.8267 184.804C41.9952 184.804 43.1371 186.334 43.1371 189.267C43.1371 192.179 42.0057 193.688 39.8267 193.688C37.6477 193.688 36.5163 192.179 36.5163 189.267ZM51.8887 195.333C52.6115 195.333 53.2296 195.207 53.7115 195.029V193.258C53.3972 193.426 52.6953 193.562 52.1296 193.562C51.082 193.562 50.6525 193.091 50.6525 191.928V178.875H48.6412V192.158C48.6412 194.243 49.7411 195.333 51.8887 195.333ZM60.3573 195.448C62.1277 195.448 63.5105 194.631 64.1915 193.164H64.2334C64.2334 193.918 64.2648 194.453 64.3381 195.113H66.2028V178.865H64.1915C64.2229 183.38 64.2334 184.281 64.2334 185.14H64.1915C63.4581 183.778 62.1801 183.065 60.4935 183.065C57.3717 183.065 55.3708 185.506 55.3708 189.288C55.3708 193.007 57.3088 195.448 60.3573 195.448ZM57.445 189.215C57.445 186.271 58.4507 184.825 60.6087 184.825C62.882 184.825 64.2962 186.439 64.2962 189.246V189.288C64.2962 192.033 62.8401 193.688 60.5982 193.688C58.5031 193.688 57.445 192.242 57.445 189.215ZM70.3877 185.663V195.113H72.3991V187.78C72.3991 185.936 73.541 184.804 75.4057 184.804C76.2647 184.804 76.8723 185.035 77.2494 185.485C77.6056 185.915 77.7627 186.585 77.7627 187.717V195.113H79.7741V186.795C79.7741 185.485 79.4493 184.543 78.7789 183.914C78.1818 183.348 77.3018 183.044 76.2332 183.044C74.4 183.044 72.9019 183.935 72.3991 185.328H72.3572C72.3991 184.983 72.3991 184.941 72.3991 183.38H70.3877V185.663ZM88.4265 195.448C89.7464 195.448 91.7578 195.008 92.7949 193.248L91.3283 192.117C91.2969 192.337 90.4797 193.688 88.416 193.688C86.5094 193.688 85.3571 192.232 85.1161 189.938H92.7111C92.753 189.676 92.7949 189.257 92.7949 188.241C92.7949 184.679 91.4121 183.044 88.3322 183.044C84.5609 183.044 83.0419 186.009 83.0419 189.246C83.0419 192.986 85.2418 195.448 88.4265 195.448ZM85.1475 188.303C85.4304 185.705 86.4884 184.804 88.4474 184.804C90.6159 184.804 90.9616 186.742 90.815 188.303H85.1475ZM99.5826 195.448C101.961 195.448 103.982 194.149 103.982 192.054C103.982 190.357 102.82 189.466 100.599 188.513C98.3569 187.57 97.5398 187.015 97.5398 186.166C97.5398 185.276 98.4826 184.804 99.7397 184.804C101.688 184.804 102.558 186.282 102.61 186.376L103.616 184.836C103.102 184.008 101.615 183.044 99.7083 183.044C97.236 183.044 95.5285 184.406 95.5285 186.198C95.5285 187.979 97.1836 189.12 99.2369 189.927C101.06 190.65 101.971 191.195 101.971 192.253C101.971 193.07 101.06 193.688 99.6245 193.688C97.5084 193.688 96.1046 192.012 96.0941 191.97L95.1618 193.74C96.3875 194.914 98.116 195.448 99.5826 195.448ZM110.631 195.448C113.009 195.448 115.031 194.149 115.031 192.054C115.031 190.357 113.868 189.466 111.647 188.513C109.405 187.57 108.588 187.015 108.588 186.166C108.588 185.276 109.531 184.804 110.788 184.804C112.736 184.804 113.606 186.282 113.658 186.376L114.664 184.836C114.151 184.008 112.663 183.044 110.756 183.044C108.284 183.044 106.577 184.406 106.577 186.198C106.577 187.979 108.232 189.12 110.285 189.927C112.108 190.65 113.019 191.195 113.019 192.253C113.019 193.07 112.108 193.688 110.673 193.688C108.556 193.688 107.153 192.012 107.142 191.97L106.21 193.74C107.436 194.914 109.164 195.448 110.631 195.448Z" fill="#FAFAFA"/>
<path d="M330.447 214.591H25.9927C23.5519 214.591 21.5732 216.57 21.5732 219.011C21.5732 221.452 23.5519 223.43 25.9927 223.43H330.447C332.888 223.43 334.867 221.452 334.867 219.011C334.867 216.57 332.888 214.591 330.447 214.591Z" fill="#FAFAFA" stroke="#FAFAFA" stroke-width="3.60107"/>
<path d="M235.51 214.755H25.9929C23.6425 214.755 21.7371 216.66 21.7371 219.011C21.7371 221.361 23.6425 223.267 25.9929 223.267H235.51C237.86 223.267 239.766 221.361 239.766 219.011C239.766 216.66 237.86 214.755 235.51 214.755Z" fill="#FAFAFA" stroke="#FAFAFA" stroke-width="3.92844"/>
<path d="M319.187 195.113H321.198V179.713H319.187L315.248 182.227V184.302L319.187 181.787V195.113ZM329.986 195.343C333.086 195.343 334.93 193.258 334.93 190.325C334.93 187.036 332.626 185.454 330.352 185.454C328.833 185.454 327.388 186.156 326.424 187.319V187.214C326.424 183.327 327.964 181.243 330.834 181.243C331.955 181.243 333.086 181.557 334.029 182.06V180.069C332.961 179.713 331.777 179.483 330.572 179.483C326.665 179.483 324.475 181.913 324.475 187.434C324.475 193.028 326.717 195.343 329.986 195.343ZM326.738 190.325C326.738 188.523 328.226 187.109 329.923 187.109C331.578 187.109 332.961 188.45 332.961 190.346C332.961 192.179 331.662 193.604 329.986 193.604C328.289 193.604 326.738 192.159 326.738 190.325Z" fill="#FAFAFA"/>
<path d="M237.147 232.597C244.831 232.597 251.06 226.367 251.06 218.683C251.06 210.999 244.831 204.77 237.147 204.77C229.463 204.77 223.233 210.999 223.233 218.683C223.233 226.367 229.463 232.597 237.147 232.597Z" fill="#FAFB45" stroke="#111111" stroke-width="3.60107"/>
<path d="M25.0109 271.738H27.5251L30.8774 259.565H30.9193L34.2716 271.738H36.7858L41.3952 255.899H39.1324L35.5915 269.811H35.5496L32.0298 256.653H29.746L26.2052 269.811H26.1633L22.6434 255.899H20.3806L25.0109 271.738ZM44.5318 271.717H46.5641V259.984H44.5318V271.717ZM44.1547 256.611C44.1547 257.376 44.7833 258.015 45.548 258.015C46.3127 258.015 46.9203 257.365 46.9203 256.611C46.9203 255.867 46.3127 255.27 45.548 255.27C44.7833 255.27 44.1547 255.857 44.1547 256.611ZM55.0383 272.053C56.8087 272.053 58.1916 271.235 58.8725 269.769H58.9144C58.9144 270.523 58.9458 271.057 59.0191 271.717H60.8838V255.469H58.8725C58.9039 259.984 58.9144 260.885 58.9144 261.744H58.8725C58.1392 260.382 56.8611 259.67 55.1745 259.67C52.0527 259.67 50.0518 262.111 50.0518 265.893C50.0518 269.612 51.9899 272.053 55.0383 272.053ZM52.126 265.819C52.126 262.876 53.1317 261.43 55.2897 261.43C57.563 261.43 58.9772 263.043 58.9772 265.851V265.893C58.9772 268.637 57.5211 270.293 55.2793 270.293C53.1841 270.293 52.126 268.847 52.126 265.819ZM68.5139 271.937C69.2367 271.937 69.8548 271.812 70.3367 271.634V269.863C70.19 270.01 69.3205 270.167 68.7548 270.167C67.7072 270.167 67.2777 269.695 67.2777 268.533V261.535H70.3995V259.984H67.2777V256.904L65.2667 257.428V259.984H63.7372V261.535H65.2667V268.763C65.2667 270.848 66.3663 271.937 68.5139 271.937ZM73.5796 271.717H75.591V264.384C75.591 262.572 76.7014 261.409 78.5975 261.409C79.4251 261.409 80.0641 261.629 80.4413 262.09C80.787 262.509 80.9546 263.127 80.9546 264.321V271.717H82.966V263.4C82.966 262.08 82.6307 261.137 81.9708 260.519C81.3317 259.922 80.4413 259.649 79.4251 259.649C77.5814 259.649 76.0938 260.55 75.591 261.933H75.5491C75.591 261.566 75.591 261.472 75.591 255.48H73.5796V271.717Z" fill="#FAFAFA"/>
<path d="M330.447 291.196H25.9927C23.5519 291.196 21.5732 293.175 21.5732 295.615C21.5732 298.056 23.5519 300.035 25.9927 300.035H330.447C332.888 300.035 334.867 298.056 334.867 295.615C334.867 293.175 332.888 291.196 330.447 291.196Z" fill="#FAFAFA" stroke="#FAFAFA" stroke-width="3.60107"/>
<path d="M235.51 291.36H25.9929C23.6425 291.36 21.7371 293.265 21.7371 295.615C21.7371 297.966 23.6425 299.871 25.9929 299.871H235.51C237.86 299.871 239.766 297.966 239.766 295.615C239.766 293.265 237.86 291.36 235.51 291.36Z" fill="#FAFAFA" stroke="#FAFAFA" stroke-width="3.92844"/>
<path d="M329.986 271.948C333.087 271.948 334.93 269.863 334.93 266.93C334.93 263.64 332.626 262.059 330.352 262.059C328.833 262.059 327.388 262.76 326.424 263.923V263.819C326.424 259.932 327.964 257.847 330.834 257.847C331.955 257.847 333.086 258.162 334.029 258.664V256.674C332.961 256.318 331.777 256.087 330.572 256.087C326.665 256.087 324.475 258.518 324.475 264.039C324.475 269.633 326.717 271.948 329.986 271.948ZM326.738 266.93C326.738 265.128 328.226 263.714 329.923 263.714C331.578 263.714 332.961 265.055 332.961 266.951C332.961 268.784 331.662 270.209 329.986 270.209C328.289 270.209 326.738 268.763 326.738 266.93Z" fill="#FAFAFA"/>
<path d="M117.329 309.201C125.013 309.201 131.242 302.972 131.242 295.288C131.242 287.604 125.013 281.375 117.329 281.375C109.645 281.375 103.416 287.604 103.416 295.288C103.416 302.972 109.645 309.201 117.329 309.201Z" fill="#FAFB45" stroke="#111111" stroke-width="3.60107"/>
<path d="M25.8384 348.657C29.1173 348.657 30.9087 346.667 30.9087 344.174C30.9087 342.078 29.6411 340.863 26.7917 339.585C24.1937 338.422 23.3242 337.511 23.3242 336.285C23.3242 334.944 24.3718 334.159 25.7546 334.159C27.9126 334.159 28.7611 336.055 28.8345 336.254L30.4792 334.756C29.6935 333.614 28.625 332.304 25.985 332.304C23.1147 332.304 21.1871 333.855 21.1871 336.38C21.1871 338.37 22.4233 339.92 25.1784 341.157C27.8707 342.361 28.7716 343.189 28.7716 344.467C28.7716 346.133 27.1793 346.793 25.765 346.793C23.4813 346.793 22.0461 345.054 21.7842 344.614L20.6528 346.405C22.0356 347.788 23.6699 348.657 25.8384 348.657ZM34.1747 352.512H36.1861C36.1861 347.264 36.1756 346.751 36.1442 346.373H36.1861C36.867 347.84 38.2498 348.657 40.0203 348.657C43.0687 348.657 45.0068 346.216 45.0068 342.497C45.0068 338.716 43.0059 336.275 39.8841 336.275C38.1975 336.275 36.9194 337.092 36.1861 338.663H36.1442C36.1442 338.38 36.1547 338.087 36.1861 336.589H34.1747V352.512ZM36.0813 342.497V342.455C36.0813 339.648 37.4956 338.035 39.7688 338.035C41.9269 338.035 42.9325 339.48 42.9325 342.424C42.9325 345.452 41.8745 346.897 39.7793 346.897C37.5375 346.897 36.0813 345.242 36.0813 342.497ZM51.2834 348.657C52.7291 348.657 53.9233 347.892 54.6043 346.541H54.6462C54.7614 347.756 55.5995 348.552 56.7413 348.552C57.1709 348.552 57.7366 348.437 58.0823 348.28V346.625C58.0194 346.698 57.5375 346.793 57.2547 346.793C56.6575 346.793 56.3852 346.415 56.3852 345.556V339.858C56.3852 337.49 55.1281 336.254 52.3834 336.254C50.4558 336.254 48.7378 337.134 47.8159 338.433L49.094 339.941C49.2511 339.48 50.2044 337.961 52.2682 337.961C53.9443 337.961 54.3738 338.737 54.3738 340.538V341.219C50.0892 341.188 47.5855 342.644 47.5855 345.137C47.5855 347.138 49.2092 348.657 51.2834 348.657ZM49.6597 345.095C49.6597 343.482 51.2415 342.644 54.3738 342.665V344.834C53.7348 346.206 52.8443 346.876 51.6606 346.876C50.4349 346.876 49.6597 346.206 49.6597 345.095ZM65.2675 348.657C67.1532 348.657 68.735 347.924 69.5626 346.269L68.0436 345.085C68.0122 345.2 67.4151 346.897 65.2361 346.897C63.0885 346.897 61.9152 345.263 61.9152 342.539C61.9152 339.658 63.2247 338.014 65.1837 338.014C67.2893 338.014 67.656 339.878 67.677 340.004L69.5312 339.166C68.9445 337.291 67.3732 336.254 65.278 336.254C62.0619 336.254 59.841 338.705 59.841 342.445C59.841 345.85 61.6743 348.657 65.2675 348.657ZM72.4991 348.322H74.5314V336.589H72.4991V348.322ZM72.122 333.216C72.122 333.981 72.7505 334.62 73.5153 334.62C74.28 334.62 74.8876 333.97 74.8876 333.216C74.8876 332.472 74.28 331.875 73.5153 331.875C72.7505 331.875 72.122 332.462 72.122 333.216ZM78.6936 338.873V348.322H80.705V340.989C80.705 339.145 81.8468 338.014 83.7115 338.014C84.5706 338.014 85.1782 338.244 85.5553 338.695C85.9115 339.124 86.0686 339.795 86.0686 340.926V348.322H88.08V340.004C88.08 338.695 87.7552 337.752 87.0848 337.123C86.4877 336.558 85.6077 336.254 84.5391 336.254C82.7059 336.254 81.2078 337.144 80.705 338.538H80.6631C80.705 338.192 80.705 338.15 80.705 336.589H78.6936V338.873ZM96.3657 352.764C99.7285 352.764 101.97 351.444 101.97 349.108C101.97 347.411 100.587 346.185 98.0314 346.185H96.1038C94.7629 346.185 94.0087 345.839 94.0087 345.336C94.0087 344.792 95.0667 344.697 96.5648 344.697H96.5752C99.1942 344.697 101.069 342.948 101.069 340.507C101.069 338.82 100.148 337.427 98.7228 336.736C99.5504 335.395 101.551 335.342 101.886 335.604V333.74C99.7913 333.614 98.3561 334.567 97.8219 336.4C97.4238 336.306 97.0047 336.254 96.5648 336.254C93.9667 336.254 92.0392 338.066 92.0392 340.507C92.0392 342.11 92.8773 343.43 94.2077 344.132C93.003 344.414 92.144 344.938 92.144 345.724C92.144 346.3 92.563 346.887 93.3382 347.316C91.9135 347.714 90.9811 348.552 90.9811 349.736C90.9811 351.339 93.0344 352.764 96.3657 352.764ZM93.0449 349.338C93.0449 348.343 94.0925 347.903 95.9886 347.903H96.02H97.5181C99.0685 347.903 99.8961 348.511 99.8961 349.317C99.8961 350.47 98.6076 351.13 96.3867 351.13C94.1658 351.13 93.0449 350.386 93.0449 349.338ZM93.9877 340.517C93.9877 338.957 95.0248 337.899 96.5648 337.899C98.1047 337.899 99.1209 338.936 99.1209 340.507C99.1209 342.047 98.1152 343.053 96.5543 343.053C94.9934 343.053 93.9877 342.057 93.9877 340.517Z" fill="#FAFAFA"/>
<path d="M330.447 367.801H25.9927C23.5519 367.801 21.5732 369.779 21.5732 372.22C21.5732 374.661 23.5519 376.64 25.9927 376.64H330.447C332.888 376.64 334.867 374.661 334.867 372.22C334.867 369.779 332.888 367.801 330.447 367.801Z" fill="#FAFAFA" stroke="#FAFAFA" stroke-width="3.60107"/>
<path d="M235.51 367.964H25.9929C23.6425 367.964 21.7371 369.87 21.7371 372.22C21.7371 374.57 23.6425 376.476 25.9929 376.476H235.51C237.86 376.476 239.766 374.57 239.766 372.22C239.766 369.87 237.86 367.964 235.51 367.964Z" fill="#FAFAFA" stroke="#FAFAFA" stroke-width="3.92844"/>
<path d="M320.149 348.322H322.16V332.923H320.149L316.21 335.437V337.511L320.149 334.997V348.322ZM329.334 348.322H331.387L334.425 340.905C335.001 339.554 335.305 338.527 335.305 337.438C335.305 334.441 333.042 332.462 330.214 332.462C327.323 332.462 324.934 334.536 324.934 337.48C324.934 340.465 327.406 342.351 329.983 342.351C330.706 342.351 331.408 342.204 332.068 341.911L329.334 348.322ZM326.966 337.469C326.966 335.521 328.601 334.201 330.287 334.201C331.911 334.201 333.461 335.437 333.461 337.448C333.461 339.302 332.152 340.654 330.308 340.654C328.517 340.654 326.966 339.376 326.966 337.469Z" fill="#FAFAFA"/>
<path d="M305.894 385.806C313.579 385.806 319.808 379.577 319.808 371.893C319.808 364.209 313.579 357.979 305.894 357.979C298.21 357.979 291.981 364.209 291.981 371.893C291.981 379.577 298.21 385.806 305.894 385.806Z" fill="#FAFB45" stroke="#111111" stroke-width="3.60107"/>
<path d="M23.6491 418.934H26.2471C29.4736 418.934 31.3383 416.85 31.3383 413.979C31.3383 411.004 29.327 409.108 26.0166 409.108H21.6377V424.927H23.6491V418.934ZM23.6491 417.175V410.868H25.6395C28.0489 410.868 29.2432 411.874 29.2432 414C29.2432 416.096 28.0908 417.175 26.2052 417.175H23.6491ZM37.9912 425.262C39.7197 425.262 41.1968 424.35 41.6682 422.978H41.7101C41.6682 423.345 41.6682 423.439 41.6682 424.927H43.6795V413.194H41.6682V420.527C41.6682 422.339 40.5996 423.502 38.8083 423.502C37.9702 423.502 37.2474 423.209 36.8598 422.685C36.5141 422.213 36.4303 421.428 36.4303 420.171V413.194H34.4189V421.092C34.4189 422.475 34.7436 423.554 35.4455 424.256C36.0426 424.853 36.9331 425.262 37.9912 425.262ZM47.8622 415.477V424.927H49.8736V417.594C49.8736 415.75 51.0154 414.618 52.8802 414.618C53.7392 414.618 54.3468 414.849 54.7239 415.299C55.0801 415.729 55.2372 416.399 55.2372 417.531V424.927H57.2486V416.609C57.2486 415.299 56.9238 414.357 56.2534 413.728C55.6563 413.162 54.7763 412.858 53.7077 412.858C51.8745 412.858 50.3764 413.749 49.8736 415.142H49.8317C49.8736 414.797 49.8736 414.755 49.8736 413.194H47.8622V415.477ZM65.9429 425.262C67.8283 425.262 69.4102 424.529 70.2378 422.873L68.7188 421.69C68.6874 421.805 68.0902 423.502 65.9115 423.502C63.7639 423.502 62.5906 421.868 62.5906 419.144C62.5906 416.263 63.9001 414.618 65.8591 414.618C67.9645 414.618 68.3312 416.483 68.3521 416.609L70.2064 415.771C69.6197 413.896 68.0483 412.858 65.9534 412.858C62.7373 412.858 60.5164 415.31 60.5164 419.05C60.5164 422.454 62.3497 425.262 65.9429 425.262ZM76.943 425.147C77.6658 425.147 78.2839 425.021 78.7658 424.843V423.072C78.6191 423.219 77.7496 423.376 77.1839 423.376C76.1363 423.376 75.7068 422.905 75.7068 421.742V414.744H78.8286V413.194H75.7068V410.114L73.6955 410.638V413.194H72.166V414.744H73.6955V421.972C73.6955 424.057 74.7954 425.147 76.943 425.147ZM85.2726 425.262C87.0011 425.262 88.4782 424.35 88.9496 422.978H88.9915C88.9496 423.345 88.9496 423.439 88.9496 424.927H90.961V413.194H88.9496V420.527C88.9496 422.339 87.8811 423.502 86.0897 423.502C85.2516 423.502 84.5288 423.209 84.1412 422.685C83.7955 422.213 83.7117 421.428 83.7117 420.171V413.194H81.7003V421.092C81.7003 422.475 82.0251 423.554 82.727 424.256C83.3241 424.853 84.2145 425.262 85.2726 425.262ZM97.951 425.262C99.3967 425.262 100.591 424.497 101.272 423.146H101.314C101.429 424.361 102.267 425.157 103.409 425.157C103.838 425.157 104.404 425.042 104.75 424.885V423.23C104.687 423.303 104.205 423.397 103.922 423.397C103.325 423.397 103.053 423.02 103.053 422.161V416.462C103.053 414.095 101.796 412.858 99.0509 412.858C97.1234 412.858 95.4054 413.738 94.4835 415.037L95.7615 416.546C95.9187 416.085 96.872 414.566 98.9357 414.566C100.612 414.566 101.041 415.341 101.041 417.143V417.824C96.7567 417.793 94.253 419.249 94.253 421.742C94.253 423.743 95.8768 425.262 97.951 425.262ZM96.3272 421.7C96.3272 420.087 97.9091 419.249 101.041 419.27V421.438C100.402 422.811 99.5119 423.481 98.3281 423.481C97.1024 423.481 96.3272 422.811 96.3272 421.7ZM110.946 425.147C111.669 425.147 112.287 425.021 112.769 424.843V423.072C112.622 423.219 111.753 423.376 111.187 423.376C110.14 423.376 109.71 422.905 109.71 421.742V414.744H112.832V413.194H109.71V410.114L107.699 410.638V413.194H106.169V414.744H107.699V421.972C107.699 424.057 108.799 425.147 110.946 425.147ZM116.016 424.927H118.048V413.194H116.016V424.927ZM115.639 409.82C115.639 410.585 116.267 411.224 117.032 411.224C117.797 411.224 118.404 410.575 118.404 409.82C118.404 409.077 117.797 408.48 117.032 408.48C116.267 408.48 115.639 409.066 115.639 409.82ZM126.902 425.262C130.107 425.262 132.244 422.779 132.244 419.081C132.244 415.362 130.086 412.858 126.902 412.858C123.696 412.858 121.475 415.404 121.475 419.081C121.475 422.748 123.686 425.262 126.902 425.262ZM123.549 419.081C123.549 416.169 124.702 414.618 126.86 414.618C129.028 414.618 130.17 416.148 130.17 419.081C130.17 421.993 129.039 423.502 126.86 423.502C124.681 423.502 123.549 421.993 123.549 419.081ZM135.612 415.477V424.927H137.623V417.594C137.623 415.75 138.765 414.618 140.63 414.618C141.489 414.618 142.096 414.849 142.473 415.299C142.83 415.729 142.987 416.399 142.987 417.531V424.927H144.998V416.609C144.998 415.299 144.673 414.357 144.003 413.728C143.406 413.162 142.526 412.858 141.457 412.858C139.624 412.858 138.126 413.749 137.623 415.142H137.581C137.623 414.797 137.623 414.755 137.623 413.194H135.612V415.477ZM158.761 425.262C162.04 425.262 163.832 423.271 163.832 420.778C163.832 418.683 162.564 417.468 159.715 416.19C157.117 415.027 156.247 414.116 156.247 412.89C156.247 411.549 157.295 410.763 158.678 410.763C160.836 410.763 161.684 412.659 161.757 412.858L163.402 411.36C162.616 410.219 161.548 408.909 158.908 408.909C156.038 408.909 154.11 410.46 154.11 412.984C154.11 414.975 155.346 416.525 158.101 417.761C160.794 418.966 161.695 419.793 161.695 421.072C161.695 422.737 160.102 423.397 158.688 423.397C156.404 423.397 154.969 421.658 154.707 421.218L153.576 423.01C154.959 424.392 156.593 425.262 158.761 425.262ZM167.388 424.927H169.421V413.194H167.388V424.927ZM167.011 409.82C167.011 410.585 167.64 411.224 168.404 411.224C169.169 411.224 169.777 410.575 169.777 409.82C169.777 409.077 169.169 408.48 168.404 408.48C167.64 408.48 167.011 409.066 167.011 409.82ZM172.684 424.927H181.148V423.219H175.167L175.69 422.486L181.148 414.325V413.194H172.684V414.901H178.718L178.257 415.53L172.684 423.795V424.927ZM188.88 425.262C190.2 425.262 192.211 424.822 193.248 423.062L191.782 421.931C191.75 422.151 190.933 423.502 188.87 423.502C186.963 423.502 185.811 422.046 185.57 419.752H193.165C193.207 419.49 193.248 419.071 193.248 418.055C193.248 414.493 191.866 412.858 188.786 412.858C185.014 412.858 183.495 415.823 183.495 419.06C183.495 422.8 185.695 425.262 188.88 425.262ZM185.601 418.117C185.884 415.519 186.942 414.618 188.901 414.618C191.07 414.618 191.415 416.556 191.269 418.117H185.601Z" fill="#FAFAFA"/>
<path d="M330.447 444.405H25.9927C23.5519 444.405 21.5732 446.384 21.5732 448.825C21.5732 451.266 23.5519 453.244 25.9927 453.244H330.447C332.888 453.244 334.867 451.266 334.867 448.825C334.867 446.384 332.888 444.405 330.447 444.405Z" fill="#FAFAFA" stroke="#FAFAFA" stroke-width="3.60107"/>
<path d="M235.51 444.569H25.9929C23.6425 444.569 21.7371 446.474 21.7371 448.825C21.7371 451.175 23.6425 453.081 25.9929 453.081H235.51C237.86 453.081 239.766 451.175 239.766 448.825C239.766 446.474 237.86 444.569 235.51 444.569Z" fill="#FAFAFA" stroke="#FAFAFA" stroke-width="3.92844"/>
<path d="M324.868 424.927H334.987V423.209H327.843L332.159 418.683C333.845 416.923 334.673 415.456 334.673 413.77C334.673 410.847 332.201 409.276 329.54 409.276C327.529 409.276 325.831 410.166 325.098 411.266L325.119 413.55C325.779 412.471 327.371 411.036 329.425 411.036C331.09 411.036 332.62 411.979 332.62 413.917C332.62 415.017 332.138 415.98 330.273 417.887L324.868 423.418V424.927Z" fill="#FAFAFA"/>
<path d="M60.3666 462.411C68.0507 462.411 74.2798 456.181 74.2798 448.497C74.2798 440.813 68.0507 434.584 60.3666 434.584C52.6825 434.584 46.4534 440.813 46.4534 448.497C46.4534 456.181 52.6825 462.411 60.3666 462.411Z" fill="#FAFB45" stroke="#111111" stroke-width="3.60107"/>
<path d="M314.976 670.945H40.8092C30.1855 670.945 21.5732 679.558 21.5732 690.181C21.5732 700.805 30.1855 709.417 40.8092 709.417H314.976C325.6 709.417 334.212 700.805 334.212 690.181C334.212 679.558 325.6 670.945 314.976 670.945Z" fill="#FAFAFA" stroke="#FAFAFA" stroke-width="3.60107"/>
<path d="M149.03 663.907H151.378V656.921L151.23 652.583H151.279L155.551 663.907H157.712L161.984 652.289H162.053L161.876 656.921V663.907H164.224V649.077H161.061L157.143 659.494L156.642 661.216H156.602L156.111 659.494L152.193 649.077H149.03V663.907ZM168.29 663.907H176.972V661.884H170.657V657.314H175.892V655.291H170.657V651.081H176.923V649.057H168.29V663.907ZM180.204 663.907H182.571V656.384L182.335 652.338H182.374L189.485 663.907H192.146V649.077H189.779V656.345L190.015 660.587H189.976L182.885 649.077H180.204V663.907ZM201.748 664.103C205.372 664.103 207.297 662.159 207.297 657.955V649.077H204.93V658.27C204.93 660.902 203.732 662.021 201.748 662.021C199.774 662.021 198.576 660.902 198.576 658.27V649.077H196.209V657.955C196.209 662.139 198.134 664.103 201.748 664.103Z" fill="#111111"/>
<path d="M149.03 697.299H151.378V690.313L151.23 685.978H151.279L155.551 697.299H157.712L161.984 685.677H162.053L161.876 690.313V697.299H164.224V682.469H161.061L157.143 692.886L156.642 694.608H156.602L156.111 692.886L152.193 682.469H149.03V697.299ZM168.29 697.299H176.972V695.276H170.657V690.706H175.892V688.682H170.657V684.472H176.923V682.449H168.29V697.299ZM180.204 697.299H182.571V689.776L182.335 685.729H182.374L189.485 697.299H192.146V682.469H189.779V689.736L190.015 693.979H189.976L182.885 682.469H180.204V697.299ZM201.748 697.495C205.372 697.495 207.297 695.551 207.297 691.347V682.469H204.93V691.661C204.93 694.294 203.732 695.413 201.748 695.413C199.774 695.413 198.576 694.294 198.576 691.661V682.469H196.209V691.347C196.209 695.531 198.134 697.495 201.748 697.495Z" fill="#111111"/>
<path d="M321.608 67.1109H277.741C268.881 67.1109 261.699 74.2928 261.699 83.152C261.699 92.0113 268.881 99.1932 277.741 99.1932H321.608C330.468 99.1932 337.649 92.0113 337.649 83.152C337.649 74.2928 330.468 67.1109 321.608 67.1109Z" fill="#FAFB45" stroke="#FAFB45" stroke-width="3.2737"/>
<path d="M321.608 67.1109H302.621C293.761 67.1109 286.58 74.2928 286.58 83.152C286.58 92.0113 293.761 99.1932 302.621 99.1932H321.608C330.467 99.1932 337.649 92.0113 337.649 83.152C337.649 74.2928 330.467 67.1109 321.608 67.1109Z" fill="#111111" stroke="#FAFB45" stroke-width="3.2737"/>
<path d="M306.633 90.6057C310.027 90.6057 312.101 88.2643 312.101 84.4458C312.101 80.6274 310.043 78.3332 306.633 78.3332C303.223 78.3332 301.165 80.6274 301.165 84.4458C301.165 88.2643 303.239 90.6057 306.633 90.6057ZM303.522 84.4616C303.522 81.9788 304.779 80.3131 306.633 80.3131C308.487 80.3131 309.744 81.9788 309.744 84.4616C309.744 86.9286 308.471 88.6414 306.633 88.6414C304.794 88.6414 303.522 86.9286 303.522 84.4616ZM314.077 90.3542H316.356V85.7972L316.12 81.5074H316.152L321.416 90.3542H324.056V78.4903H321.777V82.7173L322.013 87.2743H321.981L316.702 78.4903H314.077V90.3542Z" fill="#FAFB45"/>
<path d="M23.6491 531.55H26.2471C29.4736 531.55 31.3383 529.465 31.3383 526.595C31.3383 523.62 29.327 521.724 26.0166 521.724H21.6377V537.542H23.6491V531.55ZM23.6491 529.79V523.483H25.6395C28.0489 523.483 29.2432 524.489 29.2432 526.616C29.2432 528.711 28.0908 529.79 26.2052 529.79H23.6491ZM34.4613 537.542H36.4727V529.958C37.3317 528.229 38.3269 527.412 39.7935 527.234C40.0659 527.192 40.3592 527.192 40.663 527.192V525.222C38.5469 525.118 37.2374 526.26 36.3784 528.376H36.3365C36.4727 527.517 36.4727 526.668 36.4727 525.809H34.4613V537.542ZM47.344 537.877C48.6639 537.877 50.6753 537.437 51.7124 535.677L50.2458 534.546C50.2144 534.766 49.3973 536.117 47.3335 536.117C45.4269 536.117 44.2746 534.661 44.0336 532.367H51.6286C51.6705 532.105 51.7124 531.686 51.7124 530.67C51.7124 527.108 50.3296 525.474 47.2497 525.474C43.4784 525.474 41.9594 528.438 41.9594 531.676C41.9594 535.415 44.1593 537.877 47.344 537.877ZM44.065 530.733C44.3479 528.135 45.406 527.234 47.3649 527.234C49.5334 527.234 49.8791 529.172 49.7325 530.733H44.065ZM55.5459 524.259V525.809H54.226V527.359H55.5459V537.542H57.5573V527.359H60.3648V525.809H57.5573V524.489C57.5573 523.326 57.9868 522.855 59.0344 522.855C59.6001 522.855 60.5324 523.043 60.6162 523.159V521.388C60.1343 521.21 59.5163 521.084 58.7934 521.084C56.6459 521.084 55.5459 522.174 55.5459 524.259ZM67.537 537.877C68.8569 537.877 70.8683 537.437 71.9054 535.677L70.4388 534.546C70.4074 534.766 69.5902 536.117 67.5265 536.117C65.6199 536.117 64.4675 534.661 64.2266 532.367H71.8216C71.8635 532.105 71.9054 531.686 71.9054 530.67C71.9054 527.108 70.5226 525.474 67.4427 525.474C63.6714 525.474 62.1524 528.438 62.1524 531.676C62.1524 535.415 64.3523 537.877 67.537 537.877ZM64.258 530.733C64.5409 528.135 65.5989 527.234 67.5579 527.234C69.7264 527.234 70.0721 529.172 69.9255 530.733H64.258ZM75.2361 537.542H77.2474V529.958C78.1064 528.229 79.1017 527.412 80.5683 527.234C80.8406 527.192 81.134 527.192 81.4378 527.192V525.222C79.3216 525.118 78.0122 526.26 77.1531 528.376H77.1112C77.2474 527.517 77.2474 526.668 77.2474 525.809H75.2361V537.542ZM83.8492 537.542H85.8605V529.958C86.7196 528.229 87.7148 527.412 89.1814 527.234C89.4538 527.192 89.7471 527.192 90.0509 527.192V525.222C87.9348 525.118 86.6253 526.26 85.7663 528.376H85.7244C85.8605 527.517 85.8605 526.668 85.8605 525.809H83.8492V537.542ZM96.7319 537.877C98.0518 537.877 100.063 537.437 101.1 535.677L99.6337 534.546C99.6022 534.766 98.7851 536.117 96.7214 536.117C94.8148 536.117 93.6624 534.661 93.4215 532.367H101.016C101.058 532.105 101.1 531.686 101.1 530.67C101.1 527.108 99.7175 525.474 96.6376 525.474C92.8663 525.474 91.3473 528.438 91.3473 531.676C91.3473 535.415 93.5472 537.877 96.7319 537.877ZM93.4529 530.733C93.7358 528.135 94.7938 527.234 96.7528 527.234C98.9213 527.234 99.267 529.172 99.1203 530.733H93.4529ZM108.742 537.877C110.513 537.877 111.896 537.06 112.577 535.594H112.618C112.618 536.348 112.65 536.882 112.723 537.542H114.588V521.294H112.577C112.608 525.809 112.618 526.71 112.618 527.569H112.577C111.843 526.207 110.565 525.495 108.879 525.495C105.757 525.495 103.756 527.936 103.756 531.717C103.756 535.436 105.694 537.877 108.742 537.877ZM105.83 531.644C105.83 528.7 106.836 527.255 108.994 527.255C111.267 527.255 112.681 528.868 112.681 531.676V531.717C112.681 534.462 111.225 536.117 108.983 536.117C106.888 536.117 105.83 534.672 105.83 531.644ZM124.199 537.542H133.041V535.573H126.21V521.724H124.199V537.542ZM140.433 537.877C141.752 537.877 143.764 537.437 144.801 535.677L143.334 534.546C143.303 534.766 142.486 536.117 140.422 536.117C138.515 536.117 137.363 534.661 137.122 532.367H144.717C144.759 532.105 144.801 531.686 144.801 530.67C144.801 527.108 143.418 525.474 140.338 525.474C136.567 525.474 135.048 528.438 135.048 531.676C135.048 535.415 137.248 537.877 140.433 537.877ZM137.154 530.733C137.436 528.135 138.494 527.234 140.453 527.234C142.622 527.234 142.968 529.172 142.821 530.733H137.154ZM151.966 537.762C152.689 537.762 153.307 537.636 153.789 537.458V535.688C153.642 535.834 152.772 535.992 152.207 535.992C151.159 535.992 150.73 535.52 150.73 534.357V527.359H153.851V525.809H150.73V522.729L148.718 523.253V525.809H147.189V527.359H148.718V534.588C148.718 536.673 149.818 537.762 151.966 537.762ZM160.865 537.762C161.588 537.762 162.207 537.636 162.688 537.458V535.688C162.542 535.834 161.672 535.992 161.106 535.992C160.058 535.992 159.629 535.52 159.629 534.357V527.359H162.751V525.809H159.629V522.729L157.617 523.253V525.809H156.088V527.359H157.617V534.588C157.617 536.673 158.717 537.762 160.865 537.762ZM170.118 537.877C171.438 537.877 173.45 537.437 174.487 535.677L173.02 534.546C172.989 534.766 172.172 536.117 170.108 536.117C168.201 536.117 167.049 534.661 166.808 532.367H174.403C174.445 532.105 174.487 531.686 174.487 530.67C174.487 527.108 173.104 525.474 170.024 525.474C166.253 525.474 164.734 528.438 164.734 531.676C164.734 535.415 166.934 537.877 170.118 537.877ZM166.84 530.733C167.122 528.135 168.18 527.234 170.139 527.234C172.308 527.234 172.654 529.172 172.507 530.733H166.84ZM177.818 537.542H179.829V529.958C180.688 528.229 181.683 527.412 183.15 527.234C183.422 527.192 183.715 527.192 184.019 527.192V525.222C181.903 525.118 180.594 526.26 179.735 528.376H179.693C179.829 527.517 179.829 526.668 179.829 525.809H177.818V537.542Z" fill="#FAFAFA"/>
<path d="M334.212 583.374C334.212 597.587 322.832 609.072 308.841 609.072C294.849 609.072 283.469 597.587 283.469 583.374C283.469 569.161 294.849 557.675 308.841 557.675C322.832 557.675 334.212 569.161 334.212 583.374Z" stroke="#FAFAFA" stroke-width="3.60107"/>
<path d="M203.264 583.374C203.264 597.587 191.884 609.072 177.893 609.072C163.901 609.072 152.521 597.587 152.521 583.374C152.521 569.161 163.901 557.675 177.893 557.675C191.884 557.675 203.264 569.161 203.264 583.374Z" stroke="#FAFAFA" stroke-width="3.60107"/>
<path d="M268.738 583.374C268.738 597.587 257.359 609.072 243.367 609.072C229.375 609.072 217.996 597.587 217.996 583.374C217.996 569.161 229.375 557.675 243.367 557.675C257.359 557.675 268.738 569.161 268.738 583.374Z" stroke="#FAFAFA" stroke-width="3.60107"/>
<path d="M137.79 583.374C137.79 597.587 126.41 609.072 112.419 609.072C98.4268 609.072 87.0474 597.587 87.0474 583.374C87.0474 569.161 98.4268 557.675 112.419 557.675C126.41 557.675 137.79 569.161 137.79 583.374Z" stroke="#FAFAFA" stroke-width="3.60107"/>
<path d="M72.3156 583.374C72.3156 597.587 60.9363 609.072 46.9444 609.072C32.9526 609.072 21.5732 597.587 21.5732 583.374C21.5732 569.161 32.9526 557.675 46.9444 557.675C60.9363 557.675 72.3156 569.161 72.3156 583.374Z" stroke="#FAFAFA" stroke-width="3.60107"/>
<path d="M237.962 595.814H243.155L251.87 575.278V571.271H234.874V575.311H246.06C246.411 575.311 246.762 575.294 247.112 575.261L237.962 595.814Z" fill="#FAFAFA"/>
<path d="M45.4725 595.814H50.381V577.115H40.7976V580.788H45.4725V595.814ZM44.6711 572.306C44.6711 573.992 45.9232 575.044 47.8934 575.044C49.8635 575.044 51.1157 573.992 51.1157 572.306C51.1157 570.637 49.8635 569.601 47.8934 569.601C45.9232 569.601 44.6711 570.637 44.6711 572.306Z" fill="#FAFAFA"/>
<path d="M104.375 595.814H120.453L120.47 591.774H114.844V574.644H120.436L120.42 570.603H104.408L104.392 574.644H109.968V591.774H104.359L104.375 595.814Z" fill="#FAFAFA"/>
<path d="M178.57 596.332C185.448 596.332 188.837 591.757 188.837 583.609C188.837 575.461 185.448 570.904 178.57 570.904C171.691 570.904 168.268 575.461 168.268 583.609C168.268 591.757 171.691 596.332 178.57 596.332ZM173.243 583.609C173.243 578.05 174.88 575.078 178.57 575.078C182.259 575.078 183.862 578.05 183.862 583.609C183.862 589.169 182.259 592.157 178.57 592.157C174.88 592.157 173.243 589.169 173.243 583.609Z" fill="#FAFAFA"/>
<path d="M307.65 598.377C313.827 598.377 317.333 595.271 317.317 589.962L317.233 572.498H313.076C312.992 573.6 312.943 574.602 312.926 575.403H312.792C311.757 573.182 309.62 571.964 306.799 571.964C301.79 571.964 298.551 575.837 298.551 581.814C298.551 587.808 301.806 591.732 306.799 591.732C309.737 591.732 311.824 590.346 312.475 587.958H312.592V590.145C312.592 593.385 311.106 594.804 307.7 594.804C305.563 594.804 303.526 594.236 301.69 593.151L300.254 596.691C302.357 597.776 304.929 598.377 307.65 598.377ZM303.459 581.814C303.459 578.224 305.162 575.971 307.883 575.971C310.521 575.971 312.425 578.108 312.425 581.08V582.616C312.425 585.487 310.388 587.725 307.8 587.725C305.162 587.725 303.459 585.404 303.459 581.814Z" fill="#FAFAFA"/>
</g>
<defs>
<clipPath id="clip0_2150_6963">
<rect x="0.7854" width="354.215" height="732" rx="12" fill="white"/>
</clipPath>
</defs>
</svg>
