<svg width="353" height="729" viewBox="0 0 353 729" fill="none" xmlns="http://www.w3.org/2000/svg">
<g clip-path="url(#clip0_2150_7059)">
<path d="M342.567 0H10.6697C4.90779 0 0.236816 4.67098 0.236816 10.4329V718.567C0.236816 724.329 4.90779 729 10.6697 729H342.567C348.329 729 353 724.329 353 718.567V10.4329C353 4.67098 348.329 0 342.567 0Z" fill="#FAFAFA"/>
<path d="M318.441 67.4879H274.753C265.93 67.4879 258.778 74.6403 258.778 83.4633C258.778 92.2863 265.93 99.4387 274.753 99.4387H318.441C327.264 99.4387 334.416 92.2863 334.416 83.4633C334.416 74.6403 327.264 67.4879 318.441 67.4879Z" fill="#111111" stroke="#111111" stroke-width="3.26029"/>
<path d="M318.441 67.4879H299.531C290.708 67.4879 283.556 74.6403 283.556 83.4633C283.556 92.2863 290.708 99.4387 299.531 99.4387H318.441C327.264 99.4387 334.416 92.2863 334.416 83.4633C334.416 74.6403 327.264 67.4879 318.441 67.4879Z" fill="#FAFB45" stroke="#111111" stroke-width="3.26029"/>
<path d="M303.527 90.8863C306.907 90.8863 308.973 88.5546 308.973 84.7518C308.973 80.949 306.923 78.6642 303.527 78.6642C300.131 78.6642 298.081 80.949 298.081 84.7518C298.081 88.5546 300.147 90.8863 303.527 90.8863ZM300.428 84.7674C300.428 82.2948 301.68 80.636 303.527 80.636C305.374 80.636 306.626 82.2948 306.626 84.7674C306.626 87.2244 305.358 88.9302 303.527 88.9302C301.696 88.9302 300.428 87.2244 300.428 84.7674ZM310.941 90.636H313.21V86.0976L312.975 81.8254H313.007L318.249 90.636H320.878V78.8207H318.609V83.0304L318.844 87.5687H318.813L313.554 78.8207H310.941V90.636Z" fill="#111111"/>
<path d="M162.522 100.671C165.598 100.671 167.776 99.6461 168.524 98.8343V94.0293C167.905 94.7335 165.832 95.8231 163.996 95.8231C162.33 95.8231 161.24 94.7765 161.24 92.6411V67.6314H155.409V93.6231C155.409 98.4926 158.314 100.671 162.522 100.671Z" fill="#111111"/>
<path d="M150.752 95.5883C149.662 95.5883 149.342 94.8835 149.342 93.73V83.82C149.342 78.3101 145.86 76.0253 140.392 76.0253C136.077 76.0253 132.83 77.2636 129.797 80.147L133.044 83.9915C134.347 82.1755 136.761 80.8303 139.516 80.8303C142.016 80.8303 143.511 81.8769 143.511 84.7173V85.4006C137.23 85.6999 129.177 87.3229 129.177 93.623C129.177 97.8947 132.681 100.671 136.803 100.671C139.068 100.671 141.417 99.9239 142.827 98.1725C143.468 97.3183 143.874 96.4425 144.023 95.4599H144.194C144.536 98.3857 146.031 100.457 148.979 100.457C150.432 100.457 151.051 100.329 152.418 99.8169V95.0967C152.012 95.5029 151.371 95.5883 150.752 95.5883ZM143.511 92.5341C143.041 94.5842 140.541 95.8231 138.619 95.8231C136.547 95.8231 135.116 94.6272 135.116 92.8973C135.116 91.0174 136.888 90.0778 138.704 89.6083C139.965 89.309 141.524 89.0958 143.511 88.9889V92.5341Z" fill="#111111"/>
<path d="M100.191 73.9747C102.361 73.9747 104.121 72.4834 104.121 70.6433C104.121 68.8032 102.361 67.3113 100.191 67.3113C98.02 67.3113 96.2607 68.8032 96.2607 70.6433C96.2607 72.4834 98.02 73.9747 100.191 73.9747Z" fill="#111111"/>
<path d="M117.771 100.671C121.274 100.671 124.479 99.5815 126.636 96.8481L123.026 92.9612C121.638 94.7126 120.548 95.7162 118.262 95.7162C114.118 95.7162 112.559 92.3633 112.559 88.2625C112.559 84.3332 114.012 80.9588 117.878 80.9588C119.865 80.9588 121.68 81.9623 122.449 83.927L126.892 80.8734C125.333 77.6698 122.278 76.0253 118.177 76.0253C110.401 76.0253 106.685 81.3644 106.685 88.5187C106.685 95.9939 110.508 100.671 117.771 100.671Z" fill="#111111"/>
<path d="M103.181 76.6872H97.2432V100.03H103.181V76.6872Z" fill="#111111"/>
<path d="M89.1674 100.457C90.5133 100.457 92.3508 100.201 93.4828 99.4968V94.7765C92.9911 95.3321 90.855 95.5453 90.1077 95.5453C88.5056 95.5453 87.6514 94.7341 87.6514 92.641V81.0651H93.4189V76.6872H87.6514V68.8064L81.7979 70.8565V76.6872H78.5298V81.0651H81.7979V93.2605C81.7979 98.1294 84.2972 100.457 89.1674 100.457Z" fill="#111111"/>
<path d="M66.4617 76.0253C63.3 76.0253 60.3522 77.9469 59.2628 80.7025H59.0065C59.1774 79.9331 59.3696 78.524 59.3696 76.6872H53.5381V108.894H59.3696C59.3696 106.971 59.3269 104.216 59.2628 101.76C59.1987 99.2614 59.1774 97.2752 58.921 95.9509H59.2628C60.3522 98.7919 63.2573 100.671 66.4617 100.671C73.0403 100.671 76.6723 95.2467 76.6723 88.3264C76.6723 81.5991 73.2118 76.0253 66.4617 76.0253ZM65.2439 95.8231C61.8261 95.8231 59.3269 92.9182 59.3269 89.2451V87.4722C59.3269 83.927 61.698 80.8734 65.2439 80.8734C69.1319 80.8734 70.7334 84.4825 70.7334 88.3694C70.7334 92.1494 69.025 95.8231 65.2439 95.8231Z" fill="#111111"/>
<path d="M33.9928 67.1619C24.0814 67.1619 19.147 74.2954 19.147 83.8207C19.147 93.5168 24.2309 100.671 33.9928 100.671C43.7548 100.671 48.8387 93.6661 48.8387 83.8207C48.8387 74.1031 43.9684 67.1619 33.9928 67.1619ZM38.4786 93.9863C37.1756 94.9474 35.7231 95.4599 33.9928 95.4599C28.3536 95.4599 25.4485 89.8216 25.4485 83.8846C25.4485 77.9685 28.0972 72.4371 33.9928 72.4371C39.8885 72.4371 42.58 77.99 42.58 83.8846C42.58 87.6646 41.4265 91.7223 38.4786 93.9863Z" fill="#111111"/>
<path d="M20.9961 193.009H26.5347C29.3949 193.009 31.1434 191.199 31.1434 188.683C31.1434 186.439 29.7891 185.004 28.0103 185.004V184.923C29.4252 184.923 30.4966 183.286 30.4966 181.548C30.4966 179.304 28.6773 177.748 26.191 177.748H20.9961V193.009ZM22.9366 191.291V185.833H26.1304C28.0507 185.833 29.1422 186.925 29.1422 188.804C29.1422 190.482 28.2933 191.291 26.5347 191.291H22.9366ZM22.9366 184.176V179.405H25.5442C27.4645 179.405 28.4954 180.203 28.4954 181.81C28.4954 183.266 27.6464 184.176 26.1506 184.176H22.9366ZM38.8936 193.332C41.9863 193.332 44.0481 190.937 44.0481 187.369C44.0481 183.781 41.9661 181.366 38.8936 181.366C35.8009 181.366 33.6583 183.821 33.6583 187.369C33.6583 190.907 35.7908 193.332 38.8936 193.332ZM35.6594 187.369C35.6594 184.56 36.7712 183.064 38.8532 183.064C40.9453 183.064 42.047 184.539 42.047 187.369C42.047 190.179 40.9554 191.634 38.8532 191.634C36.751 191.634 35.6594 190.179 35.6594 187.369ZM49.7064 193.221C50.4543 193.221 51.1214 193.07 51.4751 192.928V191.22C51.2023 191.381 50.5857 191.513 50.1511 191.513C49.4639 191.513 49.1303 191.159 49.1303 190.007V177.343H47.1898V190.159C47.1898 192.281 48.0388 193.221 49.7064 193.221ZM58.2084 193.332C59.9165 193.332 61.2405 192.544 61.8974 191.129H61.9581C61.9581 191.857 61.9884 192.372 62.049 193.009H63.8481V177.333H61.9075C61.948 181.689 61.9581 182.558 61.9581 183.387H61.8974C61.1899 182.073 59.967 181.386 58.3398 181.386C55.3279 181.386 53.3975 183.741 53.3975 187.389C53.3975 190.977 55.2673 193.332 58.2084 193.332ZM55.3987 187.318C55.3987 184.479 56.369 183.084 58.451 183.084C60.6442 183.084 62.0086 184.64 62.0086 187.349V187.389C62.0086 190.037 60.6037 191.634 58.4409 191.634C56.4195 191.634 55.3987 190.24 55.3987 187.318ZM67.3225 193.009H69.263V185.934C69.263 184.135 70.3643 183.064 72.224 183.064C73.8209 183.064 74.4377 183.852 74.4377 185.873V193.009H76.3782V184.984C76.3782 182.629 75.1954 181.366 72.9921 181.366C71.1931 181.366 69.7579 182.215 69.263 183.569H69.1919C69.2526 183.276 69.263 183.084 69.263 181.689H67.3225V193.009ZM84.6972 193.332C86.5164 193.332 88.1029 192.524 88.8912 191.21L87.5773 190.199C86.9611 191.048 85.8187 191.634 84.6261 191.634C82.878 191.634 81.7355 190.35 81.4832 188.016H88.8104C88.8508 187.794 88.8912 187.127 88.8912 186.601C88.8912 183.306 87.2741 181.366 84.4951 181.366C81.4428 181.366 79.482 183.7 79.482 187.258C79.482 190.916 81.5536 193.332 84.6972 193.332ZM81.5034 186.439C81.7662 184.185 82.7365 183.064 84.4344 183.064C86.0613 183.064 86.9813 184.095 86.9813 185.873C86.9813 186.055 86.9709 186.247 86.9507 186.439H81.5034ZM95.3825 193.332C97.8185 193.332 99.5771 191.958 99.5771 189.946C99.5771 188.461 98.6167 187.723 96.3025 186.642C94.0686 185.6 93.3611 185.257 93.3611 184.438C93.3611 183.498 94.3111 183.064 95.3525 183.064C96.5346 183.064 97.6164 183.63 98.2632 184.56L99.2231 183.094C98.5665 182.063 97.01 181.366 95.3525 181.366C93.0885 181.366 91.4206 182.669 91.4206 184.479C91.4206 186.055 92.6738 186.955 94.9984 188.006C96.8887 188.855 97.6366 189.209 97.6366 190.088C97.6366 191.179 96.4942 191.634 95.5748 191.634C94.3111 191.634 92.7449 190.846 91.9565 190.088L91.0769 191.695C92.1587 192.715 93.7556 193.332 95.3825 193.332ZM105.933 193.332C108.369 193.332 110.127 191.958 110.127 189.946C110.127 188.461 109.168 187.723 106.853 186.642C104.62 185.6 103.912 185.257 103.912 184.438C103.912 183.498 104.862 183.064 105.903 183.064C107.086 183.064 108.167 183.63 108.814 184.56L109.774 183.094C109.117 182.063 107.56 181.366 105.903 181.366C103.639 181.366 101.971 182.669 101.971 184.479C101.971 186.055 103.225 186.955 105.549 188.006C107.439 188.855 108.187 189.209 108.187 190.088C108.187 191.179 107.045 191.634 106.125 191.634C104.862 191.634 103.295 190.846 102.507 190.088L101.628 191.695C102.709 192.715 104.306 193.332 105.933 193.332Z" fill="#111111"/>
<path d="M328.548 213.712H25.3413C22.9105 213.712 20.9399 215.682 20.9399 218.113C20.9399 220.544 22.9105 222.515 25.3413 222.515H328.548C330.979 222.515 332.949 220.544 332.949 218.113C332.949 215.682 330.979 213.712 328.548 213.712Z" fill="#111111" stroke="#111111" stroke-width="3.58631"/>
<path d="M234 213.875H25.3414C23.0006 213.875 21.103 215.772 21.103 218.113C21.103 220.454 23.0006 222.352 25.3414 222.352H234C236.34 222.352 238.238 220.454 238.238 218.113C238.238 215.772 236.34 213.875 234 213.875Z" fill="#111111" stroke="#111111" stroke-width="3.91234"/>
<path d="M317.136 193.009H319.076V178.152H317.176L313.335 180.375V182.377L316.924 180.284C316.994 180.244 317.065 180.183 317.136 180.113V193.009ZM328.14 193.323C331.334 193.323 333.427 191.301 333.427 188.42C333.427 185.631 331.455 183.771 328.697 183.771C327.464 183.771 326.574 184.145 326.119 184.479L326.089 184.448C326.2 184.297 326.332 184.145 326.433 183.994L330.384 178.152H328.221L324.957 183.235C323.34 185.752 322.875 186.945 322.875 188.36C322.875 191.341 324.977 193.323 328.14 193.323ZM324.917 188.38C324.917 186.48 326.109 185.206 328.221 185.206C330.273 185.206 331.385 186.409 331.385 188.319C331.385 190.321 330.162 191.543 328.161 191.543C326.159 191.543 324.917 190.321 324.917 188.38Z" fill="#111111"/>
<path d="M235.63 231.643C243.282 231.643 249.486 225.44 249.486 217.787C249.486 210.135 243.282 203.931 235.63 203.931C227.977 203.931 221.773 210.135 221.773 217.787C221.773 225.44 227.977 231.643 235.63 231.643Z" fill="#FAFB45" stroke="#111111" stroke-width="3.58631"/>
<path d="M24.2509 269.32H26.6766L29.9108 257.576H29.9512L33.1854 269.32H35.6111L40.0581 254.038H37.875L34.4589 267.46H34.4185L31.0226 254.766H28.8192L25.4031 267.46H25.3627L21.9668 254.038H19.7837L24.2509 269.32ZM43.6802 269.3H45.6409V257.98H41.2545V259.476H43.6802V269.3ZM43.3163 254.725C43.3163 255.463 43.9227 256.08 44.6605 256.08C45.3983 256.08 45.9845 255.453 45.9845 254.725C45.9845 254.008 45.3983 253.432 44.6605 253.432C43.9227 253.432 43.3163 253.998 43.3163 254.725ZM53.7184 269.623C55.4264 269.623 56.7504 268.835 57.4074 267.42H57.468C57.468 268.147 57.4984 268.663 57.559 269.3H59.358V253.624H57.4175C57.4579 257.98 57.468 258.849 57.468 259.678H57.4074C56.6999 258.364 55.477 257.677 53.8498 257.677C50.8379 257.677 48.9075 260.031 48.9075 263.68C48.9075 267.268 50.7773 269.623 53.7184 269.623ZM50.9087 263.609C50.9087 260.769 51.8789 259.375 53.9609 259.375C56.1541 259.375 57.5186 260.931 57.5186 263.64V263.68C57.5186 266.328 56.1137 267.925 53.9508 267.925C51.9295 267.925 50.9087 266.53 50.9087 263.609ZM66.9265 269.512C67.6235 269.512 68.2201 269.391 68.685 269.219V267.51C68.5436 267.652 67.7148 267.804 67.1488 267.804C66.1479 267.804 65.7338 267.339 65.7338 266.227V259.476H68.7457V257.98H65.7338V255.008L63.7932 255.514V257.98H62.3176V259.476H63.7932V266.449C63.7932 268.46 64.8544 269.512 66.9265 269.512ZM71.6265 269.3H73.567V262.225C73.567 260.415 74.6383 259.354 76.4778 259.354C78.0845 259.354 78.7417 260.173 78.7417 262.164V269.3H80.6823V261.275C80.6823 258.93 79.4792 257.657 77.2661 257.657C75.4769 257.657 74.0619 258.505 73.567 259.86H73.4959C73.5566 259.526 73.567 258.627 73.567 253.634H71.6265V269.3Z" fill="#111111"/>
<path d="M328.548 290.002H25.3413C22.9105 290.002 20.9399 291.973 20.9399 294.404C20.9399 296.835 22.9105 298.805 25.3413 298.805H328.548C330.979 298.805 332.949 296.835 332.949 294.404C332.949 291.973 330.979 290.002 328.548 290.002Z" fill="#111111" stroke="#111111" stroke-width="3.58631"/>
<path d="M234 290.165H25.3414C23.0006 290.165 21.103 292.063 21.103 294.404C21.103 296.745 23.0006 298.642 25.3414 298.642H234C236.34 298.642 238.238 296.745 238.238 294.404C238.238 292.063 236.34 290.165 234 290.165Z" fill="#111111" stroke="#111111" stroke-width="3.91234"/>
<path d="M328.14 269.613C331.334 269.613 333.427 267.591 333.427 264.711C333.427 261.922 331.455 260.062 328.697 260.062C327.464 260.062 326.574 260.436 326.119 260.769L326.089 260.739C326.2 260.587 326.332 260.436 326.433 260.284L330.384 254.443H328.221L324.957 259.526C323.34 262.043 322.875 263.235 322.875 264.65C322.875 267.632 324.977 269.613 328.14 269.613ZM324.917 264.671C324.917 262.771 326.109 261.497 328.221 261.497C330.273 261.497 331.385 262.7 331.385 264.61C331.385 266.611 330.162 267.834 328.161 267.834C326.159 267.834 324.917 266.611 324.917 264.671Z" fill="#111111"/>
<path d="M116.303 307.934C123.956 307.934 130.159 301.73 130.159 294.078C130.159 286.425 123.956 280.222 116.303 280.222C108.65 280.222 102.447 286.425 102.447 294.078C102.447 301.73 108.65 307.934 116.303 307.934Z" fill="#FAFB45" stroke="#111111" stroke-width="3.58631"/>
<path d="M25.0286 345.914C28.2123 345.914 29.9405 343.993 29.9405 341.588C29.9405 339.567 28.7176 338.394 25.9685 337.161C23.462 336.039 22.6232 335.16 22.6232 333.977C22.6232 332.684 23.6338 331.926 24.968 331.926C26.6255 331.926 27.4745 333.078 27.9394 333.947L29.5262 332.502C28.7681 331.4 27.7372 330.137 25.1903 330.137C22.421 330.137 20.5614 331.632 20.5614 334.069C20.5614 335.989 21.754 337.485 24.4121 338.677C27.0095 339.839 27.8787 340.638 27.8787 341.871C27.8787 343.478 26.3425 344.115 24.9781 344.115C22.7647 344.115 21.3901 342.427 21.1374 342.013L20.0459 343.74C21.2789 345.075 22.9163 345.914 25.0286 345.914ZM32.9265 349.633H34.867C34.867 344.569 34.8569 344.074 34.8165 343.71H34.8771C35.5341 345.125 36.8581 345.914 38.5661 345.914C41.5073 345.914 43.377 343.559 43.377 339.981C43.377 336.322 41.4264 333.967 38.4853 333.967C36.7873 333.967 35.5947 334.745 34.8771 336.272H34.8165C34.8165 335.999 34.8266 335.716 34.867 334.271H32.9265V349.633ZM34.766 339.971V339.93C34.766 337.222 36.1304 335.665 38.3236 335.665C40.4056 335.665 41.3759 337.06 41.3759 339.9C41.3759 342.821 40.3551 344.216 38.3337 344.216C36.1708 344.216 34.766 342.619 34.766 339.971ZM49.2657 345.914C50.8525 345.914 52.2978 345.024 52.7627 343.771H52.8132C52.9244 345.004 53.7329 345.813 54.8346 345.813C55.2591 345.813 55.8048 345.702 56.1485 345.55V343.953C56.0777 344.023 55.633 344.115 55.3399 344.115C54.7739 344.115 54.5112 343.791 54.5112 343.124V337.626C54.5112 335.19 53.1568 333.947 50.4785 333.947C48.4672 333.947 46.8906 334.655 45.8192 336.029L46.9815 337.353C47.8406 336.14 48.8917 335.594 50.2966 335.594C51.944 335.594 52.5706 336.342 52.5706 338.283V338.637C48.1438 338.707 45.6171 340.122 45.6171 342.528C45.6171 344.438 47.214 345.914 49.2657 345.914ZM47.6183 342.457C47.6183 340.941 49.296 340.112 52.5706 340.032V342.224C52.0249 343.457 50.9434 344.196 49.6599 344.196C48.4167 344.196 47.6183 343.508 47.6183 342.457ZM63.3617 345.914C65.2618 345.914 66.7374 345.095 67.4951 343.63L66.1108 342.639C65.5246 343.72 64.4936 344.216 63.2909 344.216C61.1887 344.216 60.0264 342.72 60.0264 340.032C60.0264 337.282 61.2392 335.645 63.2606 335.645C64.5846 335.645 65.6257 336.373 65.8278 337.393L67.4749 336.737C66.9089 334.947 65.4336 333.947 63.3718 333.947C60.1578 333.947 58.0252 336.332 58.0252 339.92C58.0252 343.529 60.1477 345.914 63.3617 345.914ZM71.1271 345.59H73.0878V334.271H68.7014V335.766H71.1271V345.59ZM70.7632 331.016C70.7632 331.754 71.3696 332.371 72.1071 332.371C72.8453 332.371 73.4315 331.744 73.4315 331.016C73.4315 330.298 72.8453 329.723 72.1071 329.723C71.3696 329.723 70.7632 330.289 70.7632 331.016ZM76.6494 345.59H78.5899V338.516C78.5899 336.717 79.6912 335.645 81.5509 335.645C83.1478 335.645 83.7646 336.434 83.7646 338.455V345.59H85.7051V337.565C85.7051 335.21 84.5223 333.947 82.319 333.947C80.52 333.947 79.0848 334.796 78.5899 336.151H78.5188C78.5794 335.857 78.5899 335.665 78.5899 334.271H76.6494V345.59ZM94.1167 349.846C97.3809 349.846 99.1297 347.935 99.1297 344.407V334.25H97.3606C97.2902 335.049 97.2596 335.615 97.2596 336.332H97.1892C96.6232 334.796 95.3093 333.927 93.5709 333.927C90.6901 333.927 88.7802 336.292 88.7802 339.859C88.7802 343.437 90.7103 345.752 93.6817 345.752C95.3191 345.752 96.5019 345.045 97.1892 343.67H97.2596L97.2498 344.63C97.2296 346.935 96.2085 348.148 93.8539 348.148C92.54 348.148 91.4178 347.773 90.0941 346.904L89.7101 348.734C90.9125 349.421 92.5804 349.846 94.1167 349.846ZM90.7814 339.94C90.7814 337.121 91.8325 335.625 93.8435 335.625C95.9561 335.625 97.2902 337.272 97.2902 339.87V339.91C97.2902 342.528 96.0168 344.054 93.8337 344.054C91.7921 344.054 90.7814 342.71 90.7814 339.94Z" fill="#111111"/>
<path d="M328.548 366.293H25.3413C22.9105 366.293 20.9399 368.264 20.9399 370.695C20.9399 373.125 22.9105 375.096 25.3413 375.096H328.548C330.979 375.096 332.949 373.125 332.949 370.695C332.949 368.264 330.979 366.293 328.548 366.293Z" fill="#111111" stroke="#111111" stroke-width="3.58631"/>
<path d="M234 366.456H25.3414C23.0006 366.456 21.103 368.354 21.103 370.695C21.103 373.035 23.0006 374.933 25.3414 374.933H234C236.34 374.933 238.238 373.035 238.238 370.695C238.238 368.354 236.34 366.456 234 366.456Z" fill="#111111" stroke="#111111" stroke-width="3.91234"/>
<path d="M317.076 345.59H319.017V330.733H317.116L313.276 332.957V334.958L316.864 332.865C316.935 332.825 317.006 332.764 317.076 332.694V345.59ZM329.658 340.607L326.919 345.59H329.102L331.82 340.072C332.973 337.737 333.316 336.645 333.316 335.463C333.316 332.512 331.164 330.511 328.081 330.511C324.857 330.511 322.815 332.694 322.815 335.635C322.815 338.647 324.958 340.658 327.656 340.658C328.738 340.658 329.597 340.335 330.021 339.859L330.062 339.88L329.658 340.607ZM324.847 335.564C324.847 333.604 325.969 332.29 328.04 332.29C330.092 332.29 331.285 333.583 331.285 335.625C331.285 337.757 329.991 338.99 328.071 339.001C325.938 339.01 324.847 337.494 324.847 335.564Z" fill="#111111"/>
<path d="M304.095 384.225C311.748 384.225 317.952 378.021 317.952 370.369C317.952 362.716 311.748 356.512 304.095 356.512C296.443 356.512 290.239 362.716 290.239 370.369C290.239 378.021 296.443 384.225 304.095 384.225Z" fill="#FAFB45" stroke="#111111" stroke-width="3.58631"/>
<path d="M22.9366 416.1H25.6453C28.7582 416.1 30.5572 414.088 30.5572 411.319C30.5572 408.449 28.6167 406.62 25.4229 406.62H20.9961V421.881H22.9366V416.1ZM22.9366 414.402V408.318H25.0591C27.3836 408.318 28.5358 409.288 28.5358 411.339C28.5358 413.361 27.4241 414.402 25.6048 414.402H22.9366ZM36.7674 422.204C38.4451 422.204 39.8399 421.295 40.2745 420.001H40.3452C40.2846 421.052 40.2846 421.102 40.2846 421.881H42.215V410.561H40.2745V417.636C40.2745 419.435 39.2638 420.507 37.4547 420.507C35.8477 420.507 35.221 419.667 35.221 417.293V410.561H33.2805V418.182C33.2805 420.718 34.6247 422.204 36.7674 422.204ZM45.6882 421.881H47.6287V414.806C47.6287 413.007 48.7304 411.936 50.59 411.936C52.1869 411.936 52.8034 412.724 52.8034 414.746V421.881H54.744V413.856C54.744 411.501 53.5615 410.238 51.3582 410.238C49.5591 410.238 48.124 411.087 47.6287 412.441H47.558C47.6186 412.148 47.6287 411.956 47.6287 410.561H45.6882V421.881ZM62.9868 422.204C64.8868 422.204 66.3626 421.385 67.1203 419.92L65.736 418.93C65.1496 420.011 64.1187 420.507 62.916 420.507C60.8138 420.507 59.6515 419.011 59.6515 416.322C59.6515 413.573 60.8643 411.936 62.8857 411.936C64.2097 411.936 65.2507 412.664 65.453 413.684L67.1001 413.027C66.5341 411.238 65.0587 410.238 62.9969 410.238C59.7829 410.238 57.6503 412.623 57.6503 416.211C57.6503 419.819 59.7728 422.204 62.9868 422.204ZM73.6077 422.094C74.3047 422.094 74.9013 421.972 75.3663 421.8V420.092C75.2248 420.233 74.396 420.385 73.83 420.385C72.8291 420.385 72.415 419.92 72.415 418.809V412.057H75.4269V410.561H72.415V407.59L70.4745 408.095V410.561H68.9989V412.057H70.4745V419.031C70.4745 421.042 71.5354 422.094 73.6077 422.094ZM81.5758 422.204C83.2535 422.204 84.6483 421.295 85.0826 420.001H85.1536C85.093 421.052 85.093 421.102 85.093 421.881H87.0231V410.561H85.0826V417.636C85.0826 419.435 84.0719 420.507 82.2631 420.507C80.6557 420.507 80.0291 419.667 80.0291 417.293V410.561H78.0886V418.182C78.0886 420.718 79.4331 422.204 81.5758 422.204ZM93.6793 422.204C95.2664 422.204 96.7114 421.315 97.1763 420.062H97.2271C97.338 421.295 98.1465 422.103 99.2485 422.103C99.673 422.103 100.219 421.993 100.562 421.841V420.244C100.491 420.314 100.047 420.405 99.7538 420.405C99.1879 420.405 98.9251 420.082 98.9251 419.415V413.917C98.9251 411.481 97.5708 410.238 94.8921 410.238C92.8812 410.238 91.3045 410.945 90.2332 412.32L91.3951 413.644C92.2545 412.431 93.3056 411.885 94.7102 411.885C96.3579 411.885 96.9846 412.633 96.9846 414.573V414.928C92.5577 414.998 90.031 416.413 90.031 418.818C90.031 420.729 91.6279 422.204 93.6793 422.204ZM92.0322 418.748C92.0322 417.232 93.7099 416.403 96.9846 416.322V418.515C96.4388 419.748 95.357 420.486 94.0738 420.486C92.8303 420.486 92.0322 419.799 92.0322 418.748ZM106.424 422.094C107.121 422.094 107.718 421.972 108.183 421.8V420.092C108.041 420.233 107.213 420.385 106.647 420.385C105.646 420.385 105.232 419.92 105.232 418.809V412.057H108.244V410.561H105.232V407.59L103.291 408.095V410.561H101.816V412.057H103.291V419.031C103.291 421.042 104.352 422.094 106.424 422.094ZM112.244 421.881H114.205V410.561H109.818V412.057H112.244V421.881ZM111.88 407.307C111.88 408.044 112.487 408.661 113.224 408.661C113.962 408.661 114.548 408.035 114.548 407.307C114.548 406.589 113.962 406.013 113.224 406.013C112.487 406.013 111.88 406.579 111.88 407.307ZM122.627 422.204C125.72 422.204 127.782 419.809 127.782 416.241C127.782 412.653 125.7 410.238 122.627 410.238C119.535 410.238 117.392 412.694 117.392 416.241C117.392 419.779 119.525 422.204 122.627 422.204ZM119.393 416.241C119.393 413.432 120.505 411.936 122.587 411.936C124.679 411.936 125.781 413.411 125.781 416.241C125.781 419.051 124.689 420.507 122.587 420.507C120.485 420.507 119.393 419.051 119.393 416.241ZM130.942 421.881H132.883V414.806C132.883 413.007 133.984 411.936 135.844 411.936C137.441 411.936 138.058 412.724 138.058 414.746V421.881H139.998V413.856C139.998 411.501 138.815 410.238 136.612 410.238C134.813 410.238 133.378 411.087 132.883 412.441H132.812C132.872 412.148 132.883 411.956 132.883 410.561H130.942V421.881ZM152.644 422.204C155.827 422.204 157.555 420.284 157.555 417.879C157.555 415.857 156.332 414.685 153.583 413.452C151.077 412.33 150.238 411.451 150.238 410.268C150.238 408.974 151.249 408.217 152.583 408.217C154.24 408.217 155.089 409.369 155.554 410.238L157.141 408.792C156.383 407.691 155.352 406.427 152.805 406.427C150.036 406.427 148.176 407.923 148.176 410.359C148.176 412.28 149.369 413.775 152.027 414.968C154.624 416.13 155.494 416.929 155.494 418.162C155.494 419.768 153.957 420.405 152.593 420.405C150.38 420.405 149.005 418.717 148.752 418.303L147.66 420.031C148.894 421.365 150.531 422.204 152.644 422.204ZM161.602 421.881H163.563V410.561H159.176V412.057H161.602V421.881ZM161.238 407.307C161.238 408.044 161.845 408.661 162.582 408.661C163.32 408.661 163.907 408.035 163.907 407.307C163.907 406.589 163.32 406.013 162.582 406.013C161.845 406.013 161.238 406.579 161.238 407.307ZM166.731 421.881H174.897V420.233H169.126L169.631 419.526L174.897 411.653V410.561H166.731V412.208H172.552L172.107 412.815L166.731 420.789V421.881ZM182.13 422.204C183.949 422.204 185.536 421.396 186.324 420.082L185.01 419.071C184.394 419.92 183.252 420.507 182.059 420.507C180.311 420.507 179.169 419.223 178.916 416.888H186.243C186.284 416.666 186.324 415.999 186.324 415.473C186.324 412.178 184.707 410.238 181.928 410.238C178.876 410.238 176.915 412.572 176.915 416.13C176.915 419.789 178.987 422.204 182.13 422.204ZM178.936 415.312C179.199 413.057 180.169 411.936 181.867 411.936C183.494 411.936 184.414 412.967 184.414 414.746C184.414 414.928 184.404 415.119 184.384 415.312H178.936Z" fill="#111111"/>
<path d="M328.548 442.584H25.3413C22.9105 442.584 20.9399 444.554 20.9399 446.985C20.9399 449.416 22.9105 451.387 25.3413 451.387H328.548C330.979 451.387 332.949 449.416 332.949 446.985C332.949 444.554 330.979 442.584 328.548 442.584Z" fill="#111111" stroke="#111111" stroke-width="3.58631"/>
<path d="M234 442.747H25.3414C23.0006 442.747 21.103 444.644 21.103 446.985C21.103 449.326 23.0006 451.224 25.3414 451.224H234C236.34 451.224 238.238 449.326 238.238 446.985C238.238 444.644 236.34 442.747 234 442.747Z" fill="#111111" stroke="#111111" stroke-width="3.91234"/>
<path d="M323.36 421.881H333.224V420.183H326.109C326.361 419.991 326.604 419.799 326.826 419.597L330.687 416.161C332.415 414.624 333.143 413.128 333.143 411.39C333.143 408.59 331.142 406.802 328.14 406.802C325.532 406.802 322.834 408.257 322.834 411.511L324.764 412.239C324.724 411.036 325.087 408.58 328.039 408.58C330.04 408.58 331.101 409.631 331.101 411.491C331.101 412.835 330.616 413.765 328.453 415.746L323.36 420.426V421.881Z" fill="#111111"/>
<path d="M59.5745 460.515C67.2271 460.515 73.4307 454.312 73.4307 446.659C73.4307 439.007 67.2271 432.803 59.5745 432.803C51.9219 432.803 45.7183 439.007 45.7183 446.659C45.7183 454.312 51.9219 460.515 59.5745 460.515Z" fill="#FAFB45" stroke="#111111" stroke-width="3.58631"/>
<path d="M313.14 668.196H40.0971C29.5169 668.196 20.9399 676.773 20.9399 687.353C20.9399 697.933 29.5169 706.51 40.0971 706.51H313.14C323.72 706.51 332.297 697.933 332.297 687.353C332.297 676.773 323.72 668.196 313.14 668.196Z" fill="#111111" stroke="#111111" stroke-width="3.58631"/>
<path d="M147.875 661.186H150.212V654.229L150.065 649.909H150.114L154.369 661.186H156.521L160.775 649.615H160.844L160.668 654.229V661.186H163.006V646.417H159.856L155.954 656.791L155.455 658.506H155.416L154.927 656.791L151.024 646.417H147.875V661.186ZM167.055 661.186H175.702V659.171H169.413V654.62H174.626V652.605H169.413V648.412H175.653V646.397H167.055V661.186ZM178.92 661.186H181.277V653.694L181.043 649.664H181.082L188.163 661.186H190.814V646.417H188.457V653.655L188.691 657.88H188.652L181.59 646.417H178.92V661.186ZM200.376 661.382C203.985 661.382 205.902 659.445 205.902 655.259V646.417H203.545V655.572C203.545 658.193 202.352 659.308 200.376 659.308C198.41 659.308 197.217 658.193 197.217 655.572V646.417H194.86V655.259C194.86 659.425 196.777 661.382 200.376 661.382Z" fill="#FAFAFA"/>
<path d="M147.875 694.441H150.212V687.483L150.065 683.167H150.114L154.369 694.441H156.521L160.775 682.867H160.844L160.668 687.483V694.441H163.006V679.672H159.856L155.954 690.046L155.455 691.761H155.416L154.927 690.046L151.024 679.672H147.875V694.441ZM167.055 694.441H175.702V692.426H169.413V687.875H174.626V685.86H169.413V681.667H175.653V679.652H167.055V694.441ZM178.92 694.441H181.277V686.949L181.043 682.919H181.082L188.163 694.441H190.814V679.672H188.457V686.91L188.691 691.135H188.652L181.59 679.672H178.92V694.441ZM200.376 694.637C203.985 694.637 205.902 692.7 205.902 688.514V679.672H203.545V688.827C203.545 691.448 202.352 692.563 200.376 692.563C198.41 692.563 197.217 691.448 197.217 688.827V679.672H194.86V688.514C194.86 692.68 196.777 694.637 200.376 694.637Z" fill="#FAFAFA"/>
<path d="M22.9366 528.254H25.6453C28.7582 528.254 30.5572 526.242 30.5572 523.473C30.5572 520.602 28.6167 518.773 25.4229 518.773H20.9961V534.035H22.9366V528.254ZM22.9366 526.556V520.471H25.0591C27.3836 520.471 28.5358 521.442 28.5358 523.493C28.5358 525.514 27.4241 526.556 25.6048 526.556H22.9366ZM33.3017 534.035H35.2422V526.717C36.0912 525.06 37.1221 524.059 38.8504 524.059C38.9616 524.059 39.0728 524.059 39.194 524.069L39.2648 522.149C37.2333 522.048 35.9699 523.16 35.1513 525.191H35.0906C35.0906 524.009 35.0906 523.756 35.0704 522.715H33.3017V534.035ZM45.5637 534.358C47.383 534.358 48.9697 533.55 49.7581 532.236L48.4442 531.225C47.8277 532.074 46.6856 532.66 45.493 532.66C43.7445 532.66 42.6024 531.376 42.3497 529.042H49.6772C49.7176 528.82 49.7581 528.153 49.7581 527.627C49.7581 524.332 48.141 522.392 45.3616 522.392C42.3093 522.392 40.3486 524.726 40.3486 528.284C40.3486 531.942 42.4205 534.358 45.5637 534.358ZM42.3699 527.465C42.6327 525.211 43.603 524.09 45.3009 524.09C46.9282 524.09 47.8479 525.121 47.8479 526.899C47.8479 527.081 47.8378 527.273 47.8176 527.465H42.3699ZM53.3089 521.32V522.715H52.0355V524.211H53.3089V534.035H55.2494V524.211H57.9581V522.715H55.2494V521.442C55.2494 520.33 55.6638 519.865 56.6442 519.865C57.2506 519.865 58.1097 520.047 58.2007 520.158V518.45C57.7357 518.278 57.1394 518.157 56.4421 518.157C54.3701 518.157 53.3089 519.208 53.3089 521.32ZM64.8095 534.358C66.6287 534.358 68.2158 533.55 69.0035 532.236L67.6902 531.225C67.0734 532.074 65.9316 532.66 64.7387 532.66C62.9902 532.66 61.8481 531.376 61.5955 529.042H68.9233C68.9637 528.82 69.0035 528.153 69.0035 527.627C69.0035 524.332 67.387 522.392 64.6073 522.392C61.555 522.392 59.5943 524.726 59.5943 528.284C59.5943 531.942 61.6662 534.358 64.8095 534.358ZM61.6157 527.465C61.8785 525.211 62.8487 524.09 64.5467 524.09C66.1742 524.09 67.0936 525.121 67.0936 526.899C67.0936 527.081 67.0838 527.273 67.0636 527.465H61.6157ZM72.1092 534.035H74.0498V526.717C74.8987 525.06 75.9296 524.059 77.6576 524.059C77.7691 524.059 77.8799 524.059 78.0012 524.069L78.0723 522.149C76.0405 522.048 74.7775 523.16 73.9585 525.191H73.8978C73.8978 524.009 73.8978 523.756 73.8776 522.715H72.1092V534.035ZM80.271 534.035H82.2116V526.717C83.0605 525.06 84.0914 524.059 85.82 524.059C85.9309 524.059 86.0424 524.059 86.1637 524.069L86.2341 522.149C84.2029 522.048 82.9393 523.16 82.1209 525.191H82.0603C82.0603 524.009 82.0603 523.756 82.0401 522.715H80.271V534.035ZM92.533 534.358C94.3522 534.358 95.9393 533.55 96.7277 532.236L95.4138 531.225C94.7969 532.074 93.6552 532.66 92.4626 532.66C90.7137 532.66 89.572 531.376 89.319 529.042H96.6468C96.6872 528.82 96.7277 528.153 96.7277 527.627C96.7277 524.332 95.1105 522.392 92.3308 522.392C89.2785 522.392 87.3178 524.726 87.3178 528.284C87.3178 531.942 89.3901 534.358 92.533 534.358ZM89.3392 527.465C89.602 525.211 90.5722 524.09 92.2702 524.09C93.8977 524.09 94.8171 525.121 94.8171 526.899C94.8171 527.081 94.8074 527.273 94.7871 527.465H89.3392ZM103.855 534.358C105.563 534.358 106.887 533.57 107.544 532.155H107.605C107.605 532.883 107.635 533.398 107.696 534.035H109.495V518.359H107.554C107.595 522.715 107.605 523.584 107.605 524.413H107.544C106.837 523.099 105.614 522.412 103.986 522.412C100.975 522.412 99.0444 524.767 99.0444 528.415C99.0444 532.003 100.914 534.358 103.855 534.358ZM101.046 528.344C101.046 525.505 102.016 524.11 104.098 524.11C106.291 524.11 107.655 525.666 107.655 528.375V528.415C107.655 531.063 106.25 532.66 104.087 532.66C102.066 532.66 101.046 531.266 101.046 528.344ZM118.173 534.035H126.703V532.135H120.113V518.773H118.173V534.035ZM133.433 534.358C135.252 534.358 136.839 533.55 137.627 532.236L136.313 531.225C135.697 532.074 134.555 532.66 133.362 532.66C131.613 532.66 130.472 531.376 130.219 529.042H137.546C137.587 528.82 137.627 528.153 137.627 527.627C137.627 524.332 136.01 522.392 133.23 522.392C130.178 522.392 128.217 524.726 128.217 528.284C128.217 531.942 130.29 534.358 133.433 534.358ZM130.239 527.465C130.502 525.211 131.472 524.09 133.17 524.09C134.797 524.09 135.717 525.121 135.717 526.899C135.717 527.081 135.707 527.273 135.687 527.465H130.239ZM144.432 534.247C145.129 534.247 145.725 534.126 146.19 533.954V532.246C146.049 532.387 145.22 532.539 144.654 532.539C143.654 532.539 143.239 532.074 143.239 530.962V524.211H146.251V522.715H143.239V519.744L141.298 520.249V522.715H139.823V524.211H141.298V531.185C141.298 533.196 142.36 534.247 144.432 534.247ZM152.831 534.247C153.528 534.247 154.124 534.126 154.589 533.954V532.246C154.448 532.387 153.619 532.539 153.053 532.539C152.052 532.539 151.638 532.074 151.638 530.962V524.211H154.65V522.715H151.638V519.744L149.698 520.249V522.715H148.222V524.211H149.698V531.185C149.698 533.196 150.758 534.247 152.831 534.247ZM161.63 534.358C163.449 534.358 165.037 533.55 165.825 532.236L164.511 531.225C163.894 532.074 162.752 532.66 161.56 532.66C159.811 532.66 158.669 531.376 158.416 529.042H165.744C165.784 528.82 165.825 528.153 165.825 527.627C165.825 524.332 164.208 522.392 161.428 522.392C158.376 522.392 156.415 524.726 156.415 528.284C156.415 531.942 158.487 534.358 161.63 534.358ZM158.436 527.465C158.699 525.211 159.669 524.09 161.367 524.09C162.995 524.09 163.914 525.121 163.914 526.899C163.914 527.081 163.905 527.273 163.884 527.465H158.436ZM168.93 534.035H170.87V526.717C171.719 525.06 172.75 524.059 174.478 524.059C174.59 524.059 174.701 524.059 174.822 524.069L174.893 522.149C172.861 522.048 171.598 523.16 170.779 525.191H170.719C170.719 524.009 170.719 523.756 170.698 522.715H168.93V534.035Z" fill="#111111"/>
<path d="M332.297 580.983C332.297 595.138 320.964 606.576 307.03 606.576C293.095 606.576 281.763 595.138 281.763 580.983C281.763 566.828 293.095 555.39 307.03 555.39C320.964 555.39 332.297 566.828 332.297 580.983Z" fill="#FAFAFA" stroke="#111111" stroke-width="3.58631"/>
<path d="M201.886 580.983C201.886 595.138 190.553 606.576 176.618 606.576C162.684 606.576 151.351 595.138 151.351 580.983C151.351 566.828 162.684 555.39 176.618 555.39C190.553 555.39 201.886 566.828 201.886 580.983Z" fill="#FAFAFA" stroke="#111111" stroke-width="3.58631"/>
<path d="M267.092 580.983C267.092 595.138 255.759 606.576 241.824 606.576C227.89 606.576 216.557 595.138 216.557 580.983C216.557 566.828 227.89 555.39 241.824 555.39C255.759 555.39 267.092 566.828 267.092 580.983Z" fill="#FAFAFA" stroke="#111111" stroke-width="3.58631"/>
<path d="M136.68 580.983C136.68 595.138 125.347 606.576 111.413 606.576C97.4783 606.576 86.1455 595.138 86.1455 580.983C86.1455 566.828 97.4783 555.39 111.413 555.39C125.347 555.39 136.68 566.828 136.68 580.983Z" fill="#FAFAFA" stroke="#111111" stroke-width="3.58631"/>
<path d="M71.4744 580.983C71.4744 595.138 60.1417 606.576 46.2072 606.576C32.2726 606.576 20.9399 595.138 20.9399 580.983C20.9399 566.828 32.2726 555.39 46.2072 555.39C60.1417 555.39 71.4744 566.828 71.4744 580.983Z" fill="#FAFAFA" stroke="#111111" stroke-width="3.58631"/>
<path d="M236.442 593.372H241.613L250.293 572.92V568.93H233.366V572.954H244.507C244.855 572.954 245.205 572.937 245.554 572.903L236.442 593.372Z" fill="#111111"/>
<path d="M44.7411 593.372H49.6296V574.749H40.0854V578.407H44.7411V593.372ZM43.943 569.961C43.943 571.64 45.1901 572.688 47.1521 572.688C49.1142 572.688 50.3612 571.64 50.3612 569.961C50.3612 568.298 49.1142 567.267 47.1521 567.267C45.1901 567.267 43.943 568.298 43.943 569.961Z" fill="#111111"/>
<path d="M103.402 593.372H119.415L119.431 589.348H113.828V572.289H119.398L119.381 568.265H103.435L103.419 572.289H108.973V589.348H103.386L103.402 593.372Z" fill="#111111"/>
<path d="M177.293 593.888C184.143 593.888 187.518 589.331 187.518 581.217C187.518 573.103 184.143 568.564 177.293 568.564C170.442 568.564 167.033 573.103 167.033 581.217C167.033 589.331 170.442 593.888 177.293 593.888ZM171.988 581.217C171.988 575.68 173.618 572.721 177.293 572.721C180.967 572.721 182.563 575.68 182.563 581.217C182.563 586.754 180.967 589.73 177.293 589.73C173.618 589.73 171.988 586.754 171.988 581.217Z" fill="#111111"/>
<path d="M305.844 595.924C311.996 595.924 315.488 592.832 315.472 587.544L315.388 570.152H311.248C311.165 571.249 311.115 572.247 311.098 573.045H310.965C309.934 570.833 307.806 569.62 304.996 569.62C300.008 569.62 296.782 573.477 296.782 579.43C296.782 585.399 300.024 589.307 304.996 589.307C307.923 589.307 310.001 587.926 310.65 585.549H310.766V587.727C310.766 590.953 309.286 592.366 305.894 592.366C303.766 592.366 301.737 591.801 299.908 590.72L298.478 594.245C300.573 595.326 303.134 595.924 305.844 595.924ZM301.671 579.43C301.671 575.855 303.367 573.61 306.077 573.61C308.704 573.61 310.599 575.739 310.599 578.698V580.228C310.599 583.088 308.571 585.316 305.994 585.316C303.367 585.316 301.671 583.004 301.671 579.43Z" fill="#111111"/>
</g>
<defs>
<clipPath id="clip0_2150_7059">
<rect x="0.237305" width="352.763" height="729" rx="11" fill="white"/>
</clipPath>
</defs>
</svg>
