<svg width="525" height="1065" viewBox="0 0 525 1065" fill="none" xmlns="http://www.w3.org/2000/svg">
<rect x="1" y="1" width="523" height="1063" rx="18" fill="#111111"/>
<rect x="386.5" y="57.5" width="116" height="49" rx="24.5" fill="#FAFB45" stroke="#FAFB45" stroke-width="5"/>
<rect x="424.5" y="57.5" width="78" height="49" rx="24.5" fill="#111111" stroke="#FAFB45" stroke-width="5"/>
<path d="M455.128 93.384C453.416 93.384 451.932 93.008 450.676 92.256C449.42 91.496 448.456 90.408 447.784 88.992C447.112 87.576 446.776 85.904 446.776 83.976C446.776 82.048 447.108 80.384 447.772 78.984C448.444 77.576 449.404 76.5 450.652 75.756C451.908 75.012 453.4 74.64 455.128 74.64C456.856 74.64 458.344 75.012 459.592 75.756C460.848 76.5 461.808 77.576 462.472 78.984C463.144 80.384 463.48 82.048 463.48 83.976C463.48 85.904 463.144 87.576 462.472 88.992C461.8 90.408 460.836 91.496 459.58 92.256C458.324 93.008 456.84 93.384 455.128 93.384ZM455.128 90.384C456.056 90.384 456.88 90.116 457.6 89.58C458.32 89.036 458.88 88.28 459.28 87.312C459.68 86.344 459.88 85.24 459.88 84C459.88 82.752 459.68 81.648 459.28 80.688C458.888 79.728 458.332 78.984 457.612 78.456C456.892 77.928 456.064 77.664 455.128 77.664C454.192 77.664 453.364 77.928 452.644 78.456C451.924 78.984 451.364 79.728 450.964 80.688C450.572 81.648 450.376 82.752 450.376 84C450.376 85.24 450.576 86.344 450.976 87.312C451.376 88.28 451.936 89.036 452.656 89.58C453.376 90.116 454.2 90.384 455.128 90.384ZM466.498 74.88H470.506L478.57 88.296H478.618L478.258 81.336V74.88H481.738V93H477.706L469.666 79.488H469.618L469.978 86.04V93H466.498V74.88Z" fill="#FAFB45"/>
<path d="M25.581 593H33.324C38.834 593 42.082 588.461 42.082 582.009C42.082 575.469 38.747 571.105 32.976 571.105H25.581V593ZM28.365 590.564V573.541H32.019C36.398 573.541 39.124 576.296 39.124 582.226C39.124 587.954 36.572 590.564 32.367 590.564H28.365ZM47.0392 593H49.8522V576.76H47.0392V593ZM46.5172 572.091C46.5172 573.149 47.3872 574.034 48.4457 574.034C49.5042 574.034 50.3452 573.135 50.3452 572.091C50.3452 571.061 49.5042 570.235 48.4457 570.235C47.3872 570.235 46.5172 571.047 46.5172 572.091ZM55.6232 574.614V576.76H53.7962V578.906H55.6232V593H58.4072V578.906H62.2932V576.76H58.4072V574.933C58.4072 573.323 59.0017 572.671 60.4517 572.671C61.2347 572.671 62.5252 572.932 62.6412 573.091V570.641C61.9742 570.394 61.1187 570.22 60.1182 570.22C57.1457 570.22 55.6232 571.728 55.6232 574.614ZM66.6602 574.614V576.76H64.8332V578.906H66.6602V593H69.4442V578.906H73.3302V576.76H69.4442V574.933C69.4442 573.323 70.0387 572.671 71.4887 572.671C72.2717 572.671 73.5622 572.932 73.6782 573.091V570.641C73.0112 570.394 72.1557 570.22 71.1552 570.22C68.1827 570.22 66.6602 571.728 66.6602 574.614ZM82.9675 593.464C84.7945 593.464 87.5785 592.855 89.014 590.419L86.984 588.853C86.9405 589.157 85.8095 591.028 82.953 591.028C80.314 591.028 78.719 589.012 78.3855 585.837H88.898C88.956 585.474 89.014 584.894 89.014 583.488C89.014 578.558 87.1 576.296 82.837 576.296C77.617 576.296 75.5145 580.399 75.5145 584.88C75.5145 590.056 78.5595 593.464 82.9675 593.464ZM78.429 583.575C78.8205 579.979 80.285 578.732 82.9965 578.732C85.998 578.732 86.4765 581.414 86.2735 583.575H78.429ZM93.3341 593H96.1181V582.502C97.3071 580.109 98.6846 578.978 100.715 578.732C101.092 578.674 101.498 578.674 101.918 578.674V575.948C98.9891 575.803 97.1766 577.383 95.9876 580.312H95.9296C96.1181 579.123 96.1181 577.949 96.1181 576.76H93.3341V593ZM110.875 593.464C112.702 593.464 115.486 592.855 116.922 590.419L114.892 588.853C114.848 589.157 113.717 591.028 110.861 591.028C108.222 591.028 106.627 589.012 106.293 585.837H116.806C116.864 585.474 116.922 584.894 116.922 583.488C116.922 578.558 115.008 576.296 110.745 576.296C105.525 576.296 103.422 580.399 103.422 584.88C103.422 590.056 106.467 593.464 110.875 593.464ZM106.337 583.575C106.728 579.979 108.193 578.732 110.904 578.732C113.906 578.732 114.384 581.414 114.181 583.575H106.337ZM121.242 579.921V593H124.026V582.85C124.026 580.298 125.607 578.732 128.188 578.732C129.377 578.732 130.218 579.051 130.74 579.674C131.233 580.269 131.45 581.197 131.45 582.763V593H134.234V581.487C134.234 579.674 133.785 578.369 132.857 577.499C132.03 576.716 130.812 576.296 129.333 576.296C126.796 576.296 124.722 577.528 124.026 579.457H123.968C124.026 578.978 124.026 578.92 124.026 576.76H121.242V579.921ZM144.355 593.305C145.355 593.305 146.211 593.131 146.878 592.884V590.433C146.675 590.636 145.471 590.854 144.688 590.854C143.238 590.854 142.644 590.201 142.644 588.592V578.906H146.965V576.76H142.644V572.497L139.86 573.222V576.76H137.743V578.906H139.86V588.911C139.86 591.796 141.382 593.305 144.355 593.305ZM151.081 593H153.894V576.76H151.081V593ZM150.559 572.091C150.559 573.149 151.429 574.034 152.488 574.034C153.546 574.034 154.387 573.135 154.387 572.091C154.387 571.061 153.546 570.235 152.488 570.235C151.429 570.235 150.559 571.047 150.559 572.091ZM163.507 593.464C165.508 593.464 167.161 592.405 168.103 590.535H168.161C168.321 592.217 169.481 593.319 171.061 593.319C171.656 593.319 172.439 593.16 172.917 592.942V590.651C172.83 590.752 172.163 590.883 171.772 590.883C170.945 590.883 170.568 590.361 170.568 589.172V581.284C170.568 578.007 168.828 576.296 165.029 576.296C162.361 576.296 159.983 577.514 158.707 579.312L160.476 581.4C160.694 580.762 162.013 578.659 164.87 578.659C167.19 578.659 167.784 579.732 167.784 582.226V583.169C161.854 583.125 158.388 585.141 158.388 588.592C158.388 591.361 160.636 593.464 163.507 593.464ZM161.259 588.534C161.259 586.301 163.449 585.141 167.784 585.17V588.171C166.9 590.071 165.667 590.999 164.029 590.999C162.332 590.999 161.259 590.071 161.259 588.534ZM181.204 593.305C182.204 593.305 183.06 593.131 183.727 592.884V590.433C183.524 590.636 182.32 590.854 181.537 590.854C180.087 590.854 179.493 590.201 179.493 588.592V578.906H183.814V576.76H179.493V572.497L176.709 573.222V576.76H174.592V578.906H176.709V588.911C176.709 591.796 178.231 593.305 181.204 593.305ZM187.93 593H190.743V576.76H187.93V593ZM187.408 572.091C187.408 573.149 188.278 574.034 189.337 574.034C190.395 574.034 191.236 573.135 191.236 572.091C191.236 571.061 190.395 570.235 189.337 570.235C188.278 570.235 187.408 571.047 187.408 572.091ZM202.708 593.464C207.145 593.464 210.103 590.027 210.103 584.909C210.103 579.761 207.116 576.296 202.708 576.296C198.271 576.296 195.197 579.819 195.197 584.909C195.197 589.984 198.257 593.464 202.708 593.464ZM198.068 584.909C198.068 580.878 199.663 578.732 202.65 578.732C205.652 578.732 207.232 580.849 207.232 584.909C207.232 588.94 205.666 591.028 202.65 591.028C199.634 591.028 198.068 588.94 198.068 584.909ZM214.474 579.921V593H217.258V582.85C217.258 580.298 218.838 578.732 221.419 578.732C222.608 578.732 223.449 579.051 223.971 579.674C224.464 580.269 224.682 581.197 224.682 582.763V593H227.466V581.487C227.466 579.674 227.016 578.369 226.088 577.499C225.262 576.716 224.044 576.296 222.565 576.296C220.027 576.296 217.954 577.528 217.258 579.457H217.2C217.258 578.978 217.258 578.92 217.258 576.76H214.474V579.921Z" fill="#FAFAFA"/>
<rect x="23.75" y="620.75" width="478.5" height="13.5" rx="6.75" fill="#FAFAFA" stroke="#FAFAFA" stroke-width="5.5"/>
<rect x="24" y="621" width="333" height="13" rx="6.5" fill="#FAFAFA" stroke="#FAFAFA" stroke-width="6"/>
<path d="M25.581 707H32.802C36.9055 707 39.414 704.752 39.414 701.142C39.414 697.923 37.413 695.487 34.774 695.487V695.429C36.891 695.429 38.486 693.152 38.486 690.658C38.486 687.41 35.76 685.105 32.019 685.105H25.581V707ZM28.365 704.535V696.705H32.222C34.977 696.705 36.543 698.271 36.543 700.968C36.543 703.375 35.325 704.535 32.802 704.535H28.365ZM28.365 694.327V687.483H31.381C34.136 687.483 35.615 688.701 35.615 690.992C35.615 693.109 34.397 694.327 32.251 694.327H28.365ZM50.5251 707.464C54.9621 707.464 57.9201 704.027 57.9201 698.909C57.9201 693.761 54.9331 690.296 50.5251 690.296C46.0881 690.296 43.0141 693.819 43.0141 698.909C43.0141 703.984 46.0736 707.464 50.5251 707.464ZM45.8851 698.909C45.8851 694.878 47.4801 692.732 50.4671 692.732C53.4686 692.732 55.0491 694.849 55.0491 698.909C55.0491 702.94 53.4831 705.028 50.4671 705.028C47.4511 705.028 45.8851 702.94 45.8851 698.909ZM66.8725 707.305C67.873 707.305 68.7285 707.131 69.3955 706.884V704.433C68.9605 704.665 67.989 704.854 67.206 704.854C65.756 704.854 65.1615 704.201 65.1615 702.592V684.525H62.3775V702.911C62.3775 705.796 63.9 707.305 66.8725 707.305ZM78.3041 707.464C80.7546 707.464 82.6686 706.333 83.6111 704.303H83.6691C83.6691 705.347 83.7126 706.086 83.8141 707H86.3951V684.51H83.6111C83.6546 690.76 83.6691 692.007 83.6691 693.196H83.6111C82.5961 691.311 80.8271 690.325 78.4926 690.325C74.1716 690.325 71.4021 693.703 71.4021 698.938C71.4021 704.085 74.0846 707.464 78.3041 707.464ZM74.2731 698.836C74.2731 694.762 75.6651 692.761 78.6521 692.761C81.7986 692.761 83.7561 694.994 83.7561 698.88V698.938C83.7561 702.737 81.7406 705.028 78.6376 705.028C75.7376 705.028 74.2731 703.027 74.2731 698.836ZM91.8977 693.921V707H94.6817V696.85C94.6817 694.298 96.2622 692.732 98.8432 692.732C100.032 692.732 100.873 693.051 101.395 693.674C101.888 694.269 102.106 695.197 102.106 696.763V707H104.89V695.487C104.89 693.674 104.44 692.369 103.512 691.499C102.686 690.716 101.468 690.296 99.9887 690.296C97.4512 690.296 95.3777 691.528 94.6817 693.457H94.6237C94.6817 692.978 94.6817 692.92 94.6817 690.76H91.8977V693.921ZM116.576 707.464C118.403 707.464 121.187 706.855 122.622 704.419L120.592 702.853C120.549 703.157 119.418 705.028 116.561 705.028C113.922 705.028 112.327 703.012 111.994 699.837H122.506C122.564 699.474 122.622 698.894 122.622 697.488C122.622 692.558 120.708 690.296 116.445 690.296C111.225 690.296 109.123 694.399 109.123 698.88C109.123 704.056 112.168 707.464 116.576 707.464ZM112.037 697.575C112.429 693.979 113.893 692.732 116.605 692.732C119.606 692.732 120.085 695.414 119.882 697.575H112.037ZM131.727 707.464C135.019 707.464 137.817 705.666 137.817 702.766C137.817 700.417 136.208 699.184 133.134 697.865C130.031 696.56 128.9 695.791 128.9 694.617C128.9 693.384 130.205 692.732 131.945 692.732C134.642 692.732 135.845 694.776 135.918 694.907L137.31 692.775C136.599 691.63 134.54 690.296 131.901 690.296C128.479 690.296 126.116 692.181 126.116 694.66C126.116 697.125 128.407 698.706 131.249 699.822C133.772 700.823 135.033 701.577 135.033 703.041C135.033 704.172 133.772 705.028 131.785 705.028C128.856 705.028 126.913 702.708 126.899 702.65L125.608 705.1C127.305 706.724 129.697 707.464 131.727 707.464ZM146.729 707.464C150.021 707.464 152.819 705.666 152.819 702.766C152.819 700.417 151.21 699.184 148.136 697.865C145.033 696.56 143.902 695.791 143.902 694.617C143.902 693.384 145.207 692.732 146.947 692.732C149.644 692.732 150.847 694.776 150.92 694.907L152.312 692.775C151.601 691.63 149.542 690.296 146.903 690.296C143.481 690.296 141.118 692.181 141.118 694.66C141.118 697.125 143.409 698.706 146.251 699.822C148.774 700.823 150.035 701.577 150.035 703.041C150.035 704.172 148.774 705.028 146.787 705.028C143.858 705.028 141.915 702.708 141.901 702.65L140.61 705.1C142.307 706.724 144.699 707.464 146.729 707.464Z" fill="#FAFAFA"/>
<rect x="23.75" y="734.75" width="478.5" height="13.5" rx="6.75" fill="#FAFAFA" stroke="#FAFAFA" stroke-width="5.5"/>
<rect x="24" y="735" width="187" height="13" rx="6.5" fill="#FAFAFA" stroke="#FAFAFA" stroke-width="6"/>
<path d="M31.3955 828.464C35.934 828.464 38.4135 825.709 38.4135 822.258C38.4135 819.358 36.659 817.676 32.715 815.907C29.119 814.297 27.9155 813.036 27.9155 811.339C27.9155 809.483 29.3655 808.396 31.2795 808.396C34.2665 808.396 35.441 811.02 35.5425 811.296L37.819 809.222C36.7315 807.642 35.2525 805.829 31.5985 805.829C27.6255 805.829 24.9575 807.975 24.9575 811.47C24.9575 814.225 26.6685 816.371 30.482 818.082C34.2085 819.749 35.4555 820.895 35.4555 822.664C35.4555 824.969 33.2515 825.883 31.294 825.883C28.133 825.883 26.1465 823.476 25.784 822.867L24.218 825.346C26.132 827.26 28.394 828.464 31.3955 828.464ZM42.6441 833.8H45.4281C45.4281 826.535 45.4136 825.825 45.3701 825.303H45.4281C46.3706 827.333 48.2846 828.464 50.7351 828.464C54.9546 828.464 57.6371 825.085 57.6371 819.938C57.6371 814.703 54.8676 811.325 50.5466 811.325C48.2121 811.325 46.4431 812.456 45.4281 814.631H45.3701C45.3701 814.239 45.3846 813.833 45.4281 811.76H42.6441V833.8ZM45.2831 819.938V819.88C45.2831 815.994 47.2406 813.761 50.3871 813.761C53.3741 813.761 54.7661 815.762 54.7661 819.836C54.7661 824.027 53.3016 826.028 50.4016 826.028C47.2986 826.028 45.2831 823.737 45.2831 819.938ZM66.0349 828.464C68.0359 828.464 69.6889 827.405 70.6314 825.535H70.6894C70.8489 827.217 72.0089 828.319 73.5894 828.319C74.1839 828.319 74.9669 828.16 75.4454 827.942V825.651C75.3584 825.752 74.6914 825.883 74.2999 825.883C73.4734 825.883 73.0964 825.361 73.0964 824.172V816.284C73.0964 813.007 71.3564 811.296 67.5574 811.296C64.8894 811.296 62.5114 812.514 61.2354 814.312L63.0044 816.4C63.2219 815.762 64.5414 813.659 67.3979 813.659C69.7179 813.659 70.3124 814.732 70.3124 817.226V818.169C64.3819 818.125 60.9164 820.141 60.9164 823.592C60.9164 826.361 63.1639 828.464 66.0349 828.464ZM63.7874 823.534C63.7874 821.301 65.9769 820.141 70.3124 820.17V823.171C69.4279 825.071 68.1954 825.999 66.5569 825.999C64.8604 825.999 63.7874 825.071 63.7874 823.534ZM85.1008 828.464C87.7108 828.464 89.9003 827.449 91.0458 825.158L88.9433 823.519C88.8998 823.679 88.0733 826.028 85.0573 826.028C82.0848 826.028 80.4608 823.766 80.4608 819.996C80.4608 816.008 82.2733 813.732 84.9848 813.732C87.8993 813.732 88.4068 816.313 88.4358 816.487L91.0023 815.327C90.1903 812.731 88.0153 811.296 85.1153 811.296C80.6638 811.296 77.5898 814.689 77.5898 819.865C77.5898 824.578 80.1273 828.464 85.1008 828.464ZM94.8201 828H97.6331V811.76H94.8201V828ZM94.2981 807.091C94.2981 808.149 95.1681 809.034 96.2266 809.034C97.2851 809.034 98.1261 808.135 98.1261 807.091C98.1261 806.061 97.2851 805.235 96.2266 805.235C95.1681 805.235 94.2981 806.047 94.2981 807.091ZM103.105 814.921V828H105.889V817.85C105.889 815.298 107.469 813.732 110.05 813.732C111.239 813.732 112.08 814.051 112.602 814.674C113.095 815.269 113.313 816.197 113.313 817.763V828H116.097V816.487C116.097 814.674 115.647 813.369 114.719 812.499C113.893 811.716 112.675 811.296 111.196 811.296C108.658 811.296 106.585 812.528 105.889 814.457H105.831C105.889 813.978 105.889 813.92 105.889 811.76H103.105V814.921ZM127.275 834.148C131.93 834.148 135.033 832.321 135.033 829.088C135.033 826.738 133.119 825.042 129.581 825.042H126.913C125.057 825.042 124.013 824.563 124.013 823.867C124.013 823.113 125.477 822.983 127.551 822.983H127.565C131.19 822.983 133.786 820.561 133.786 817.183C133.786 814.848 132.51 812.92 130.538 811.963C131.683 810.107 134.453 810.034 134.917 810.397V807.816C132.017 807.642 130.03 808.961 129.291 811.499C128.74 811.368 128.16 811.296 127.551 811.296C123.955 811.296 121.287 813.804 121.287 817.183C121.287 819.401 122.447 821.228 124.288 822.2C122.621 822.591 121.432 823.316 121.432 824.404C121.432 825.201 122.012 826.013 123.085 826.608C121.113 827.159 119.822 828.319 119.822 829.958C119.822 832.176 122.664 834.148 127.275 834.148ZM122.679 829.407C122.679 828.029 124.129 827.42 126.753 827.42H126.797H128.87C131.016 827.42 132.162 828.261 132.162 829.378C132.162 830.973 130.378 831.886 127.304 831.886C124.23 831.886 122.679 830.857 122.679 829.407ZM123.984 817.197C123.984 815.037 125.419 813.572 127.551 813.572C129.682 813.572 131.089 815.008 131.089 817.183C131.089 819.314 129.697 820.706 127.536 820.706C125.376 820.706 123.984 819.329 123.984 817.197Z" fill="#FAFAFA"/>
<rect x="23.75" y="855.75" width="478.5" height="13.5" rx="6.75" fill="#FAFAFA" stroke="#FAFAFA" stroke-width="5.5"/>
<rect x="24" y="856" width="396" height="13" rx="6.5" fill="#FAFAFA" stroke="#FAFAFA" stroke-width="6"/>
<circle cx="352" cy="628" r="24.25" fill="#FAFB45" stroke="#111111" stroke-width="5.5"/>
<circle cx="208" cy="742" r="24.25" fill="#FAFB45" stroke="#111111" stroke-width="5.5"/>
<circle cx="432" cy="863" r="24.25" fill="#FAFB45" stroke="#111111" stroke-width="5.5"/>
<path d="M482.609 592.294C486.585 592.294 489.035 589.62 489.035 585.518C489.035 581.752 486.375 579.204 482.735 579.204C480.733 579.204 478.703 580.352 477.485 582.088V581.584C477.485 575.928 479.683 573.044 483.743 573.044C485.073 573.044 486.487 573.408 487.803 574.038V571.854C486.403 571.378 484.933 571.112 483.449 571.112C477.933 571.112 475.329 574.472 475.329 582.256C475.329 588.752 478.171 592.294 482.609 592.294ZM477.961 585.644C477.961 583.18 480.117 581.066 482.567 581.066C484.905 581.066 486.879 583.11 486.879 585.616C486.879 588.374 485.045 590.376 482.553 590.376C480.173 590.376 477.961 588.22 477.961 585.644Z" fill="#FAFAFA"/>
<path d="M484.23 706H486.414V701.24H490.124V699.336H486.414V694.142H484.216V699.336H477.23L485.252 685.42H482.732L474.766 699.266L474.752 701.24H484.23V706Z" fill="#FAFAFA"/>
<path d="M481.363 827.336C485.731 827.336 488.643 824.536 488.643 820.224C488.643 816.192 485.787 813.448 481.559 813.448C480.467 813.448 479.291 813.672 478.101 814.176L478.983 808.716H487.691V806.42H476.603L475.483 815.688L477.443 817.116C478.479 816.136 479.739 815.66 481.167 815.66C483.827 815.66 485.899 817.368 485.899 820.168C485.899 823.052 484.023 825.012 481.447 825.012C478.927 825.012 476.743 823.892 475.371 822.072V825.096C476.491 826.496 478.647 827.336 481.363 827.336Z" fill="#FAFAFA"/>
<path d="M24.898 221.37H28.694V239.05L27.524 237.62H36.26V241H24.898V221.37ZM45.1536 221.344H56.7496V224.516H47.4676L48.9236 223.164V230.782L47.4676 229.352H55.4496V232.524H47.4676L48.9236 231.094V239.18L47.4676 237.828H56.7496V241H45.1536V221.344ZM64.5825 221.37H68.6645L73.7865 237.1H73.8385L78.9605 221.37H83.0425L75.7105 241.026H71.9405L64.5825 221.37ZM91.3778 221.344H102.974V224.516H93.6918L95.1478 223.164V230.782L93.6918 229.352H101.674V232.524H93.6918L95.1478 231.094V239.18L93.6918 237.828H102.974V241H91.3778V221.344ZM112.497 221.37H116.293V239.05L115.123 237.62H123.859V241H112.497V221.37ZM152.263 241.416C150.859 241.416 149.615 241.095 148.532 240.454C147.457 239.813 146.621 238.916 146.023 237.763C145.434 236.602 145.139 235.263 145.139 233.746C145.139 232.229 145.434 230.886 146.023 229.716C146.621 228.546 147.457 227.64 148.532 226.999C149.615 226.349 150.859 226.024 152.263 226.024C153.667 226.024 154.906 226.345 155.981 226.986C157.056 227.627 157.888 228.533 158.477 229.703C159.066 230.873 159.361 232.221 159.361 233.746C159.361 235.263 159.066 236.602 158.477 237.763C157.888 238.924 157.056 239.826 155.981 240.467C154.906 241.1 153.667 241.416 152.263 241.416ZM152.237 238.296C153.286 238.296 154.096 237.941 154.668 237.23C155.249 236.511 155.539 235.349 155.539 233.746C155.539 232.143 155.249 230.977 154.668 230.249C154.087 229.512 153.277 229.144 152.237 229.144C151.214 229.144 150.413 229.512 149.832 230.249C149.251 230.977 148.961 232.143 148.961 233.746C148.961 235.341 149.247 236.498 149.819 237.217C150.4 237.936 151.206 238.296 152.237 238.296ZM168.965 225.231C168.965 223.714 169.35 222.562 170.122 221.773C170.893 220.984 171.942 220.59 173.268 220.59C173.796 220.59 174.321 220.633 174.841 220.72C175.369 220.798 175.777 220.902 176.063 221.032V224.009C176.019 223.957 175.79 223.892 175.374 223.814C174.966 223.736 174.568 223.697 174.178 223.697C173.805 223.697 173.515 223.762 173.307 223.892C173.099 224.013 172.947 224.217 172.852 224.503C172.756 224.789 172.709 225.183 172.709 225.686V241H168.965V225.231ZM166.989 226.44H175.907V229.3H166.989V226.44ZM24.898 258.344H36.494V261.516H27.212L28.668 260.164V267.782L27.212 266.352H35.194V269.524H27.212L28.668 268.094V276.18L27.212 274.828H36.494V278H24.898V258.344ZM46.0169 258.37H50.3589L59.0949 272.904H59.1469L58.7569 265.364V258.37H62.5269V278H58.1589L49.4489 263.362H49.3969L49.7869 270.46V278H46.0169V258.37ZM84.4254 258.37H88.1954V278H84.4254V258.37ZM72.5694 258.37H76.3394V278H72.5694V258.37ZM75.5074 266.196H85.2054V269.368H75.5074V266.196ZM104.525 258.344H108.061L116.017 278H112.065L105.539 260.918H107.047L100.521 278H96.5692L104.525 258.344ZM100.781 270.512H111.753V273.632H100.781V270.512ZM124.379 258.37H128.721L137.457 272.904H137.509L137.119 265.364V258.37H140.889V278H136.521L127.811 263.362H127.759L128.149 270.46V278H124.379V258.37ZM158.446 278.39C156.877 278.39 155.486 278.004 154.273 277.233C153.068 276.453 152.124 275.3 151.439 273.775C150.754 272.25 150.412 270.408 150.412 268.25C150.412 266.118 150.754 264.289 151.439 262.764C152.124 261.239 153.103 260.082 154.377 259.293C155.651 258.496 157.159 258.097 158.901 258.097C160.132 258.097 161.219 258.288 162.164 258.669C163.109 259.042 163.897 259.588 164.53 260.307C165.171 261.018 165.652 261.876 165.973 262.881L162.697 264.389C162.654 264.12 162.502 263.761 162.242 263.31C161.991 262.851 161.57 262.426 160.981 262.036C160.392 261.646 159.625 261.451 158.68 261.451C157.319 261.451 156.236 262.006 155.43 263.115C154.624 264.216 154.221 265.945 154.221 268.302C154.221 269.741 154.394 270.963 154.741 271.968C155.096 272.973 155.608 273.74 156.275 274.269C156.942 274.789 157.753 275.049 158.706 275.049C159.755 275.049 160.613 274.854 161.28 274.464C161.947 274.065 162.428 273.645 162.723 273.203C163.026 272.761 163.195 272.445 163.23 272.254L166.103 274.334C165.384 275.721 164.4 276.743 163.152 277.402C161.904 278.061 160.335 278.39 158.446 278.39ZM174.565 258.344H186.161V261.516H176.879L178.335 260.164V267.782L176.879 266.352H184.861V269.524H176.879L178.335 268.094V276.18L176.879 274.828H186.161V278H174.565V258.344ZM195.683 258.37H201.117L205.485 271.396L206.083 273.606H206.135L206.733 271.396L211.101 258.37H216.535V278H212.765V271.032L213.155 262.478H213.077L207.721 278H204.497L199.141 262.53H199.063L199.453 271.032V278H195.683V258.37ZM226.578 258.344H238.174V261.516H228.892L230.348 260.164V267.782L228.892 266.352H236.874V269.524H228.892L230.348 268.094V276.18L228.892 274.828H238.174V278H226.578V258.344ZM247.697 258.37H252.039L260.775 272.904H260.827L260.437 265.364V258.37H264.207V278H259.839L251.129 263.362H251.077L251.467 270.46V278H247.697V258.37ZM278.253 259.904L279.735 261.49H272.637V258.37H287.587V261.49H280.515L281.997 259.904V278H278.253V259.904Z" fill="#FAFAFA"/>
<path d="M303.5 360C303.5 382.385 285.575 400.5 263.5 400.5C241.425 400.5 223.5 382.385 223.5 360C223.5 337.615 241.425 319.5 263.5 319.5C285.575 319.5 303.5 337.615 303.5 360Z" fill="#FAFB45" stroke="#FAFB45" stroke-width="3"/>
<path d="M261.896 376.462C260.048 376.462 258.391 376.169 256.924 375.582C255.458 374.995 254.204 374.196 253.162 373.184V367.464C254.438 368.931 255.832 370.053 257.342 370.83C258.868 371.593 260.452 371.974 262.094 371.974C263.488 371.974 264.661 371.71 265.614 371.182C266.582 370.654 267.301 369.943 267.77 369.048C268.254 368.139 268.496 367.119 268.496 365.99C268.496 364.714 268.188 363.636 267.572 362.756C266.956 361.861 266.054 361.179 264.866 360.71C263.693 360.241 262.256 360.006 260.554 360.006C259.44 360.006 258.494 360.013 257.716 360.028V356.332L268.298 346.63L268.716 348.104H252.128V343.66H273.16V347.994L260.906 359.038L257.716 356.332C258.376 356.273 258.963 356.222 259.476 356.178C260.122 356.149 260.679 356.134 261.148 356.134C263.964 356.134 266.318 356.545 268.21 357.366C270.117 358.187 271.532 359.339 272.456 360.82C273.395 362.301 273.864 364.025 273.864 365.99C273.864 368.161 273.322 370.038 272.236 371.622C271.166 373.206 269.721 374.409 267.902 375.23C266.084 376.051 264.082 376.462 261.896 376.462Z" fill="#111111"/>
<path d="M32.412 522.39C30.8433 522.39 29.4523 522.004 28.239 521.233C27.0343 520.453 26.0897 519.3 25.405 517.775C24.7203 516.25 24.378 514.408 24.378 512.25C24.378 510.118 24.7203 508.289 25.405 506.764C26.0897 505.239 27.069 504.082 28.343 503.293C29.617 502.496 31.125 502.097 32.867 502.097C34.0977 502.097 35.1853 502.288 36.13 502.669C37.0747 503.042 37.8633 503.588 38.496 504.307C39.1373 505.018 39.6183 505.876 39.939 506.881L36.663 508.389C36.6197 508.12 36.468 507.761 36.208 507.31C35.9567 506.851 35.5363 506.426 34.947 506.036C34.3577 505.646 33.5907 505.451 32.646 505.451C31.2853 505.451 30.202 506.006 29.396 507.115C28.59 508.216 28.187 509.945 28.187 512.302C28.187 513.741 28.3603 514.963 28.707 515.968C29.0623 516.973 29.5737 517.74 30.241 518.269C30.9083 518.789 31.7187 519.049 32.672 519.049C33.7207 519.049 34.5787 518.854 35.246 518.464C35.9133 518.065 36.3943 517.645 36.689 517.203C36.9923 516.761 37.1613 516.445 37.196 516.254L40.069 518.334C39.3497 519.721 38.366 520.743 37.118 521.402C35.87 522.061 34.3013 522.39 32.412 522.39ZM57.0586 522.416C55.2039 522.416 53.5962 522.009 52.2356 521.194C50.8749 520.371 49.8306 519.192 49.1026 517.658C48.3746 516.124 48.0106 514.313 48.0106 512.224C48.0106 510.135 48.3702 508.333 49.0896 506.816C49.8176 505.291 50.8576 504.125 52.2096 503.319C53.5702 502.513 55.1866 502.11 57.0586 502.11C58.9306 502.11 60.5426 502.513 61.8946 503.319C63.2552 504.125 64.2952 505.291 65.0146 506.816C65.7426 508.333 66.1066 510.135 66.1066 512.224C66.1066 514.313 65.7426 516.124 65.0146 517.658C64.2866 519.192 63.2422 520.371 61.8816 521.194C60.5209 522.009 58.9132 522.416 57.0586 522.416ZM57.0586 519.166C58.0639 519.166 58.9566 518.876 59.7366 518.295C60.5166 517.706 61.1232 516.887 61.5566 515.838C61.9899 514.789 62.2066 513.593 62.2066 512.25C62.2066 510.898 61.9899 509.702 61.5566 508.662C61.1319 507.622 60.5296 506.816 59.7496 506.244C58.9696 505.672 58.0726 505.386 57.0586 505.386C56.0446 505.386 55.1476 505.672 54.3676 506.244C53.5876 506.816 52.9809 507.622 52.5476 508.662C52.1229 509.702 51.9106 510.898 51.9106 512.25C51.9106 513.593 52.1272 514.789 52.5606 515.838C52.9939 516.887 53.6006 517.706 54.3806 518.295C55.1606 518.876 56.0532 519.166 57.0586 519.166ZM75.6163 502.37H79.9583L88.6943 516.904H88.7463L88.3563 509.364V502.37H92.1263V522H87.7583L79.0483 507.362H78.9963L79.3863 514.46V522H75.6163V502.37ZM106.173 503.904L107.655 505.49H100.557V502.37H115.507V505.49H108.435L109.917 503.904V522H106.173V503.904ZM129.642 513.368L131.826 514.408H127.042V511.288L130.37 511.314C131.246 511.323 131.965 511.223 132.528 511.015C133.092 510.798 133.503 510.486 133.763 510.079C134.032 509.663 134.166 509.152 134.166 508.545C134.166 507.6 133.854 506.855 133.23 506.309C132.606 505.763 131.679 505.49 130.448 505.49H127.042V502.37H130.916C132.372 502.37 133.633 502.608 134.699 503.085C135.765 503.553 136.58 504.225 137.143 505.1C137.707 505.975 137.988 507.007 137.988 508.194C137.988 509.173 137.785 510.062 137.377 510.859C136.97 511.656 136.342 512.337 135.492 512.9C134.652 513.455 133.594 513.853 132.32 514.096L133.022 512.354L139.236 522H134.868L129.642 513.368ZM123.922 502.37H127.666V522H123.922V502.37ZM155.905 522.416C154.051 522.416 152.443 522.009 151.082 521.194C149.722 520.371 148.677 519.192 147.949 517.658C147.221 516.124 146.857 514.313 146.857 512.224C146.857 510.135 147.217 508.333 147.936 506.816C148.664 505.291 149.704 504.125 151.056 503.319C152.417 502.513 154.033 502.11 155.905 502.11C157.777 502.11 159.389 502.513 160.741 503.319C162.102 504.125 163.142 505.291 163.861 506.816C164.589 508.333 164.953 510.135 164.953 512.224C164.953 514.313 164.589 516.124 163.861 517.658C163.133 519.192 162.089 520.371 160.728 521.194C159.368 522.009 157.76 522.416 155.905 522.416ZM155.905 519.166C156.911 519.166 157.803 518.876 158.583 518.295C159.363 517.706 159.97 516.887 160.403 515.838C160.837 514.789 161.053 513.593 161.053 512.25C161.053 510.898 160.837 509.702 160.403 508.662C159.979 507.622 159.376 506.816 158.596 506.244C157.816 505.672 156.919 505.386 155.905 505.386C154.891 505.386 153.994 505.672 153.214 506.244C152.434 506.816 151.828 507.622 151.394 508.662C150.97 509.702 150.757 510.898 150.757 512.25C150.757 513.593 150.974 514.789 151.407 515.838C151.841 516.887 152.447 517.706 153.227 518.295C154.007 518.876 154.9 519.166 155.905 519.166ZM174.463 502.37H178.259V520.05L177.089 518.62H185.825V522H174.463V502.37ZM200.922 522.416C199.778 522.416 198.742 522.26 197.815 521.948C196.888 521.636 196.099 521.181 195.449 520.583C194.799 519.976 194.318 519.253 194.006 518.412L196.931 516.436C196.974 516.679 197.135 517.012 197.412 517.437C197.698 517.862 198.131 518.247 198.712 518.594C199.293 518.941 200.016 519.114 200.883 519.114C201.507 519.114 202.075 519.014 202.586 518.815C203.106 518.616 203.513 518.33 203.808 517.957C204.111 517.576 204.263 517.134 204.263 516.631C204.263 516.172 204.12 515.764 203.834 515.409C203.548 515.054 203.097 514.724 202.482 514.421C201.875 514.109 201.056 513.784 200.025 513.446C198.907 513.082 197.962 512.627 197.191 512.081C196.428 511.526 195.848 510.885 195.449 510.157C195.05 509.42 194.851 508.597 194.851 507.687C194.851 506.578 195.146 505.603 195.735 504.762C196.324 503.913 197.135 503.258 198.166 502.799C199.197 502.34 200.363 502.11 201.663 502.11C202.746 502.11 203.704 502.27 204.536 502.591C205.377 502.912 206.083 503.362 206.655 503.943C207.236 504.524 207.695 505.213 208.033 506.01L204.874 507.817C204.813 507.557 204.675 507.254 204.458 506.907C204.25 506.56 203.908 506.244 203.431 505.958C202.954 505.663 202.335 505.516 201.572 505.516C201.009 505.516 200.515 505.603 200.09 505.776C199.665 505.949 199.336 506.196 199.102 506.517C198.868 506.829 198.751 507.189 198.751 507.596C198.751 508.029 198.89 508.415 199.167 508.753C199.444 509.091 199.873 509.407 200.454 509.702C201.035 509.997 201.802 510.291 202.755 510.586C204.038 510.985 205.073 511.444 205.862 511.964C206.651 512.475 207.231 513.082 207.604 513.784C207.977 514.477 208.163 515.301 208.163 516.254C208.163 517.519 207.864 518.616 207.266 519.543C206.668 520.47 205.823 521.181 204.731 521.675C203.639 522.169 202.369 522.416 200.922 522.416Z" fill="#FAFAFA"/>
<path d="M24.898 997.37H30.332L34.7 1010.4L35.298 1012.61H35.35L35.948 1010.4L40.316 997.37H45.75V1017H41.98V1010.03L42.37 1001.48H42.292L36.936 1017H33.712L28.356 1001.53H28.278L28.668 1010.03V1017H24.898V997.37ZM55.7923 997.344H67.3883V1000.52H58.1063L59.5623 999.164V1006.78L58.1063 1005.35H66.0883V1008.52H58.1063L59.5623 1007.09V1015.18L58.1063 1013.83H67.3883V1017H55.7923V997.344ZM76.9112 997.37H81.2532L89.9892 1011.9H90.0412L89.6512 1004.36V997.37H93.4212V1017H89.0532L80.3432 1002.36H80.2912L80.6812 1009.46V1017H76.9112V997.37ZM111.095 1017.26C109.388 1017.26 107.975 1016.96 106.857 1016.36C105.739 1015.76 104.894 1014.81 104.322 1013.52C103.759 1012.22 103.477 1010.53 103.477 1008.47V997.37H107.247V1008.97C107.247 1010.79 107.576 1012.09 108.235 1012.87C108.894 1013.63 109.847 1014.01 111.095 1014.01C111.91 1014.01 112.599 1013.85 113.162 1013.54C113.734 1013.22 114.172 1012.69 114.475 1011.94C114.787 1011.2 114.943 1010.21 114.943 1008.97V997.37H118.713V1008.47C118.713 1010.55 118.427 1012.24 117.855 1013.53C117.292 1014.82 116.451 1015.76 115.333 1016.36C114.215 1016.96 112.802 1017.26 111.095 1017.26Z" fill="#FAFAFA"/>
<path d="M472 1004.5L492.25 993.675L492.25 1015.33L472 1004.5Z" fill="#FAFAFA"/>
<circle cx="480" cy="248" r="19.5" fill="#FAFAFA" stroke="#FAFAFA" stroke-width="3"/>
<path d="M477.404 253.784C477.404 252.6 477.49 251.651 477.66 250.936C477.842 250.211 478.151 249.592 478.588 249.08C479.026 248.568 479.66 248.056 480.492 247.544C481.378 247 482.06 246.52 482.54 246.104C483.02 245.688 483.362 245.283 483.564 244.888C483.767 244.493 483.868 244.061 483.868 243.592C483.868 242.909 483.692 242.312 483.34 241.8C482.999 241.277 482.503 240.877 481.852 240.6C481.212 240.312 480.45 240.168 479.564 240.168C478.54 240.168 477.484 240.355 476.396 240.728C475.308 241.101 474.386 241.603 473.628 242.232V238.296C474.375 237.763 475.314 237.336 476.444 237.016C477.575 236.696 478.711 236.536 479.852 236.536C481.367 236.536 482.706 236.829 483.868 237.416C485.031 237.992 485.927 238.792 486.556 239.816C487.196 240.84 487.516 241.997 487.516 243.288C487.516 244.067 487.394 244.787 487.148 245.448C486.914 246.099 486.54 246.717 486.028 247.304C485.516 247.88 484.855 248.429 484.044 248.952L483.868 249.064C483.047 249.608 482.439 250.077 482.044 250.472C481.66 250.867 481.394 251.309 481.244 251.8C481.106 252.28 481.036 252.941 481.036 253.784H477.404ZM479.228 261.368C478.706 261.368 478.242 261.256 477.836 261.032C477.431 260.819 477.111 260.525 476.876 260.152C476.652 259.768 476.54 259.347 476.54 258.888C476.54 258.451 476.647 258.051 476.86 257.688C477.084 257.315 477.399 257.021 477.804 256.808C478.21 256.595 478.684 256.488 479.228 256.488C479.772 256.488 480.242 256.595 480.636 256.808C481.042 257.021 481.351 257.309 481.564 257.672C481.788 258.035 481.9 258.445 481.9 258.904C481.9 259.363 481.788 259.779 481.564 260.152C481.34 260.525 481.026 260.819 480.62 261.032C480.215 261.256 479.751 261.368 479.228 261.368Z" fill="#111111"/>
<circle cx="480" cy="515" r="19.5" fill="#FAFAFA" stroke="#FAFAFA" stroke-width="3"/>
<path d="M477.404 520.784C477.404 519.6 477.49 518.651 477.66 517.936C477.842 517.211 478.151 516.592 478.588 516.08C479.026 515.568 479.66 515.056 480.492 514.544C481.378 514 482.06 513.52 482.54 513.104C483.02 512.688 483.362 512.283 483.564 511.888C483.767 511.493 483.868 511.061 483.868 510.592C483.868 509.909 483.692 509.312 483.34 508.8C482.999 508.277 482.503 507.877 481.852 507.6C481.212 507.312 480.45 507.168 479.564 507.168C478.54 507.168 477.484 507.355 476.396 507.728C475.308 508.101 474.386 508.603 473.628 509.232V505.296C474.375 504.763 475.314 504.336 476.444 504.016C477.575 503.696 478.711 503.536 479.852 503.536C481.367 503.536 482.706 503.829 483.868 504.416C485.031 504.992 485.927 505.792 486.556 506.816C487.196 507.84 487.516 508.997 487.516 510.288C487.516 511.067 487.394 511.787 487.148 512.448C486.914 513.099 486.54 513.717 486.028 514.304C485.516 514.88 484.855 515.429 484.044 515.952L483.868 516.064C483.047 516.608 482.439 517.077 482.044 517.472C481.66 517.867 481.394 518.309 481.244 518.8C481.106 519.28 481.036 519.941 481.036 520.784H477.404ZM479.228 528.368C478.706 528.368 478.242 528.256 477.836 528.032C477.431 527.819 477.111 527.525 476.876 527.152C476.652 526.768 476.54 526.347 476.54 525.888C476.54 525.451 476.647 525.051 476.86 524.688C477.084 524.315 477.399 524.021 477.804 523.808C478.21 523.595 478.684 523.488 479.228 523.488C479.772 523.488 480.242 523.595 480.636 523.808C481.042 524.021 481.351 524.309 481.564 524.672C481.788 525.035 481.9 525.445 481.9 525.904C481.9 526.363 481.788 526.779 481.564 527.152C481.34 527.525 481.026 527.819 480.62 528.032C480.215 528.256 479.751 528.368 479.228 528.368Z" fill="#111111"/>
<path d="M104.25 360C104.25 381.708 86.8701 399.25 65.5 399.25C44.1299 399.25 26.75 381.708 26.75 360C26.75 338.292 44.1299 320.75 65.5 320.75C86.8701 320.75 104.25 338.292 104.25 360Z" stroke="#FAFB45" stroke-width="5.5"/>
<path d="M203.25 360C203.25 381.708 185.87 399.25 164.5 399.25C143.13 399.25 125.75 381.708 125.75 360C125.75 338.292 143.13 320.75 164.5 320.75C185.87 320.75 203.25 338.292 203.25 360Z" stroke="#FAFB45" stroke-width="5.5"/>
<path d="M401.25 360C401.25 381.708 383.87 399.25 362.5 399.25C341.13 399.25 323.75 381.708 323.75 360C323.75 338.292 341.13 320.75 362.5 320.75C383.87 320.75 401.25 338.292 401.25 360Z" stroke="#FAFB45" stroke-width="5.5"/>
<path d="M500.25 360C500.25 381.708 482.87 399.25 461.5 399.25C440.13 399.25 422.75 381.708 422.75 360C422.75 338.292 440.13 320.75 461.5 320.75C482.87 320.75 500.25 338.292 500.25 360Z" stroke="#FAFB45" stroke-width="5.5"/>
<path d="M65.1181 349.072L57.2201 354.418V348.984L65.1181 343.638L70.3981 343.66V376H65.1181V349.072Z" fill="#FAFB45"/>
<path d="M153.337 372.568L164.887 361.062C166.002 359.947 166.882 358.943 167.527 358.048C168.187 357.153 168.657 356.317 168.935 355.54C169.214 354.763 169.353 353.993 169.353 353.23C169.353 352.057 169.067 351.052 168.495 350.216C167.938 349.365 167.183 348.727 166.229 348.302C165.291 347.877 164.249 347.664 163.105 347.664C161.683 347.664 160.333 347.921 159.057 348.434C157.796 348.947 156.696 349.585 155.757 350.348C154.819 351.096 154.063 351.851 153.491 352.614L153.469 347.114C154.085 346.337 154.892 345.647 155.889 345.046C156.901 344.43 158.067 343.953 159.387 343.616C160.707 343.279 162.101 343.11 163.567 343.11C165.577 343.11 167.432 343.506 169.133 344.298C170.835 345.075 172.191 346.197 173.203 347.664C174.215 349.131 174.721 350.854 174.721 352.834C174.721 354.066 174.509 355.276 174.083 356.464C173.658 357.637 173.049 358.796 172.257 359.94C171.48 361.084 170.512 362.265 169.353 363.482L159.255 374.13L156.615 371.578H175.447V376.022H153.359L153.337 372.568Z" fill="#FAFB45"/>
<path d="M365.174 368.74H350.038L350.104 364.252L361.676 343.66H367.462L355.846 364.296H365.13V356.486H370.454V364.296H376.46V368.74H370.454V376H365.174V368.74Z" fill="#FAFB45"/>
<path d="M460.104 376.528C458.652 376.528 457.318 376.389 456.1 376.11C454.898 375.831 453.856 375.443 452.976 374.944C452.096 374.445 451.4 373.866 450.886 373.206V367.794C451.957 369.085 453.306 370.119 454.934 370.896C456.577 371.659 458.381 372.04 460.346 372.04C461.534 372.04 462.612 371.761 463.58 371.204C464.548 370.647 465.311 369.855 465.868 368.828C466.44 367.801 466.726 366.621 466.726 365.286C466.726 363.995 466.426 362.873 465.824 361.92C465.223 360.967 464.416 360.241 463.404 359.742C462.407 359.243 461.322 358.994 460.148 358.994C459.4 358.994 458.696 359.067 458.036 359.214C457.391 359.361 456.782 359.588 456.21 359.896C455.638 360.204 455.103 360.6 454.604 361.084L450.974 358.422L452.844 343.66H470.422V348.104H457.464L455.594 358.444L451.832 357.938C452.786 357.219 453.776 356.633 454.802 356.178C455.829 355.709 456.856 355.364 457.882 355.144C458.909 354.924 459.899 354.814 460.852 354.814C463.067 354.814 465.018 355.247 466.704 356.112C468.406 356.963 469.726 358.187 470.664 359.786C471.618 361.37 472.094 363.24 472.094 365.396C472.094 367.684 471.596 369.671 470.598 371.358C469.616 373.03 468.222 374.313 466.418 375.208C464.614 376.088 462.51 376.528 460.104 376.528ZM465.824 343.66H470.422V348.06H465.824V343.66Z" fill="#FAFB45"/>
<path d="M50.5479 107.39C42.9669 107.39 37.7191 100.27 37.7191 90.014C37.7191 79.6929 42.9006 72.7689 50.5479 72.7689C58.1952 72.7689 63.3767 79.6929 63.3767 90.014C63.3767 100.27 58.1289 107.39 50.5479 107.39ZM50.5479 115.555C64.5433 115.555 73.0959 105.823 73.0959 89.9487C73.0959 74.0749 64.6081 64.5366 50.5479 64.5366C36.4878 64.5366 28 74.0749 28 89.9487C28 105.823 36.5525 115.555 50.5479 115.555Z" fill="#FAFAFA"/>
<path d="M94.5739 108.072C89.5448 108.072 85.805 103.993 85.805 98.5459V95.682C85.805 90.2345 89.5387 86.156 94.5739 86.156C99.8232 86.156 103.004 90.296 103.004 97.1132C103.004 103.93 99.8232 108.072 94.5739 108.072ZM76.9126 126.999H85.805C85.805 121.738 85.6526 112.617 85.4964 108.507H85.6198C87.2253 113.022 91.3347 115.543 97.1677 115.543C106.369 115.543 112.081 108.475 112.081 97.114C112.081 85.6582 106.462 78.6858 97.2294 78.6858C91.2699 78.6858 87.1331 81.2071 85.6198 85.7204H85.4964C85.7128 83.8844 85.805 82.0783 85.805 79.6814H76.9126V126.999Z" fill="#FAFAFA"/>
<path d="M129.013 115.179C132.378 115.179 133.86 114.868 135.559 114.121V106.805C134.478 107.272 132.749 107.708 130.464 107.708C128.303 107.708 127.593 106.587 127.593 103.599V69.6117H118.7V105C118.7 111.167 122.807 115.179 129.013 115.179ZM113.76 86.4158H134.571V79.6916H113.76V86.4158Z" fill="#FAFAFA"/>
<path d="M146.879 73.1482C150.337 73.1482 152.529 71.187 152.529 68.0426C152.529 64.9298 150.337 63 146.879 63C143.421 63 141.228 64.9298 141.228 68.0426C141.228 71.187 143.42 73.1482 146.879 73.1482ZM142.495 114.531H151.387V79.6659H138.676V86.4162H143.515L142.495 82.0934V114.531Z" fill="#FAFAFA"/>
<path d="M172.307 115.556C176.231 115.557 180.093 114.573 183.546 112.692L182.002 105.284C179.007 106.902 175.271 108.085 172.43 108.085C166.965 108.085 163.972 104.194 163.972 97.1283C163.972 90.0621 166.968 86.1703 172.402 86.1703C175.304 86.1703 179.194 87.3849 182.003 88.972L183.547 81.5633C179.749 79.6335 176.044 78.6993 172.215 78.6993C161.623 78.6993 154.893 85.8277 154.893 97.066C154.892 108.366 161.685 115.556 172.307 115.556Z" fill="#FAFAFA"/>
<path d="M200.163 108.055C196.734 108.055 195.16 105.783 195.16 103.604C195.16 99.8681 199.853 97.409 207.295 97.1601V102.64C205.848 106.156 203.281 108.055 200.163 108.055ZM197.322 115.526C201.83 115.526 205.906 113.191 208.375 109.176H208.499C209.611 113.191 212.204 115.215 216.249 115.215C217.556 115.22 218.853 114.988 220.078 114.53V108.18C219.646 108.304 218.966 108.366 218.534 108.366C216.959 108.366 216.187 107.526 216.187 105.939V90.6848C216.187 82.4048 212.236 78.6713 203.562 78.6713C197.109 78.6713 190.748 80.9129 187.259 84.181L191.119 90.127C194.361 87.419 198.374 85.9241 202.358 85.9241C205.724 85.9241 207.298 87.3253 207.298 90.4382V91.4368C194.203 91.8993 186.265 97.0042 186.265 104.945C186.265 110.981 191.023 115.526 197.322 115.526V115.526Z" fill="#FAFAFA"/>
<path d="M234.141 115.527C238.093 115.527 241.456 114.624 243.742 112.975V105.535C241.982 106.935 238.493 108.087 236.116 108.087C233.213 108.087 231.762 106.967 231.762 103.792V64.2472H222.869V105.97C222.871 111.76 227.287 115.527 234.141 115.527Z" fill="#FAFAFA"/>
<rect x="1" y="1" width="523" height="1063" rx="18" stroke="#FAFAFA" stroke-width="2"/>
</svg>
