<svg width="732" height="41" viewBox="0 0 732 41" fill="none" xmlns="http://www.w3.org/2000/svg">
<g clip-path="url(#clip0_1820_6680)">
<path d="M166.31 0H4.40104C1.97041 0 0 1.97129 0 4.40301V36.597C0 39.0287 1.97041 41 4.40104 41H166.31C168.741 41 170.711 39.0287 170.711 36.597V4.40301C170.711 1.97129 168.741 0 166.31 0Z" fill="#3B80E2"/>
<path d="M31.7115 14.4478H33.8109L38.2187 26.1883H36.1739L35.1378 23.1856H30.4005L29.3349 26.1861H27.3036L31.7115 14.4478ZM34.5152 21.4807L33.2701 17.9892L32.8157 16.6254H32.718L32.2636 17.9892L31.0071 21.4807H34.5152Z" fill="white"/>
<path d="M40.7907 25.8769C40.1736 25.4863 39.6729 24.9367 39.3411 24.2858C38.9913 23.5743 38.8093 22.7919 38.8093 21.999C38.8093 21.2061 38.9913 20.4238 39.3411 19.7123C39.672 19.0608 40.1729 18.511 40.7907 18.1211C41.4039 17.7392 42.1134 17.5405 42.8356 17.5483C43.3909 17.5388 43.9391 17.6743 44.4261 17.9415C44.8568 18.168 45.2227 18.5005 45.4894 18.9076H45.5712L45.4894 17.7278V14.4478H47.2935V26.1883H45.5712V25.1041H45.4894C45.2188 25.5043 44.8535 25.8315 44.4261 26.0565C43.9387 26.3227 43.3908 26.4582 42.8356 26.4498C42.1134 26.4575 41.4039 26.2588 40.7907 25.8769V25.8769ZM44.3238 24.4494C44.7106 24.2102 45.0249 23.8699 45.2327 23.4652C45.4678 23.0153 45.5858 22.5134 45.5758 22.0058C45.586 21.5011 45.468 21.0021 45.2327 20.5556C45.0223 20.1551 44.7085 19.8183 44.3238 19.5804C43.9567 19.3532 43.5332 19.2335 43.1014 19.2349C42.6677 19.2347 42.2424 19.3543 41.8722 19.5804C41.4872 19.8179 41.1733 20.1548 40.9634 20.5556C40.7281 21.0021 40.6101 21.5011 40.6203 22.0058C40.6103 22.5134 40.7283 23.0153 40.9634 23.4652C41.1712 23.8699 41.4854 24.2102 41.8722 24.4494C42.2426 24.6749 42.6679 24.7937 43.1014 24.7927C43.533 24.7949 43.9565 24.676 44.3238 24.4494V24.4494Z" fill="white"/>
<path d="M50.8381 25.8769C50.2204 25.4863 49.7189 24.9368 49.3863 24.2858C49.0364 23.5743 48.8545 22.7919 48.8545 21.999C48.8545 21.2061 49.0364 20.4238 49.3863 19.7123C49.718 19.0606 50.2196 18.5108 50.8381 18.1211C51.4513 17.7391 52.1608 17.5404 52.883 17.5483C53.4383 17.5388 53.9865 17.6743 54.4735 17.9415C54.9048 18.1679 55.2715 18.5004 55.5391 18.9076H55.6209L55.5391 17.7278V14.4478H57.3409V26.1883H55.6209V25.1041H55.5391C55.2672 25.504 54.9013 25.8311 54.4735 26.0565C53.9861 26.3227 53.4382 26.4582 52.883 26.4498C52.1608 26.4577 51.4513 26.2589 50.8381 25.8769V25.8769ZM54.369 24.4494C54.7558 24.2102 55.07 23.8699 55.2778 23.4652C55.5136 23.0155 55.6324 22.5136 55.6232 22.0058C55.6327 21.501 55.5139 21.0019 55.2778 20.5556C55.0681 20.1546 54.7541 19.8177 54.369 19.5804C54.0025 19.3535 53.5798 19.2338 53.1489 19.2349C52.7151 19.2341 52.2896 19.3537 51.9197 19.5804C51.5341 19.8172 51.22 20.1542 51.0108 20.5556C50.7755 21.0021 50.6575 21.5011 50.6677 22.0058C50.6585 22.5136 50.7773 23.0155 51.0131 23.4652C51.2201 23.8704 51.5345 24.2109 51.9219 24.4494C52.292 24.6754 52.7175 24.7943 53.1511 24.7927C53.5811 24.7942 54.003 24.6753 54.369 24.4494V24.4494Z" fill="white"/>
<path d="M65.6636 26.1406C65.3668 26.0382 65.094 25.8766 64.8615 25.6655C64.6203 25.4102 64.4334 25.1085 64.3123 24.7787C64.1912 24.4489 64.1385 24.0979 64.1572 23.747V19.4281H62.6871V17.837H64.1458V15.457H65.9476V17.8256H67.9789V19.4168H65.9476V23.3515C65.9476 23.8061 66.0339 24.1153 66.2089 24.3017C66.3149 24.4198 66.4474 24.5111 66.5955 24.568C66.7436 24.6249 66.9031 24.6458 67.0609 24.629C67.2282 24.6326 67.3949 24.608 67.554 24.5563C67.714 24.499 67.8666 24.4226 68.0084 24.329V26.0838C67.5938 26.2579 67.1469 26.3416 66.6974 26.3293C66.3444 26.3274 65.9945 26.2636 65.6636 26.1406V26.1406Z" fill="white"/>
<path d="M71.0278 25.8679C70.372 25.4916 69.8333 24.9408 69.4715 24.2767C69.1058 23.5785 68.9148 22.8021 68.9148 22.0139C68.9148 21.2256 69.1058 20.4492 69.4715 19.751C69.8333 19.0869 70.372 18.5361 71.0278 18.1598C71.72 17.7759 72.4983 17.5745 73.2897 17.5745C74.0811 17.5745 74.8595 17.7759 75.5516 18.1598C76.2072 18.5434 76.7454 19.0992 77.108 19.7669C77.4735 20.4622 77.6646 21.2361 77.6646 22.0218C77.6646 22.8075 77.4735 23.5814 77.108 24.2767C76.7454 24.9403 76.2068 25.4909 75.5516 25.8679C74.8587 26.2496 74.0806 26.4497 73.2897 26.4497C72.4988 26.4497 71.7207 26.2496 71.0278 25.8679V25.8679ZM74.5678 24.4586C74.965 24.2285 75.2912 23.8935 75.5107 23.4902C75.7537 23.034 75.8751 22.5227 75.8629 22.0059C75.8758 21.4919 75.7544 20.9834 75.5107 20.5307C75.2899 20.1307 74.9638 19.799 74.5678 19.5714C74.1779 19.3509 73.7376 19.235 73.2897 19.235C72.8418 19.235 72.4016 19.3509 72.0117 19.5714C71.6152 19.7983 71.2889 20.1302 71.0687 20.5307C70.8251 20.9834 70.7037 21.4919 70.7166 22.0059C70.7044 22.5227 70.8257 23.034 71.0687 23.4902C71.2873 23.8941 71.6138 24.2294 72.0117 24.4586C72.402 24.6776 72.8421 24.7926 73.2897 24.7926C73.7373 24.7926 74.1774 24.6776 74.5678 24.4586Z" fill="white"/>
<path d="M85.5487 25.6476C84.6227 25.1257 83.8573 24.36 83.3357 23.4336C82.8082 22.48 82.5314 21.4081 82.5314 20.3183C82.5314 19.2284 82.8082 18.1565 83.3357 17.203C83.8567 16.2761 84.6222 15.5102 85.5487 14.989C86.4975 14.4518 87.5714 14.175 88.6615 14.1866C89.4931 14.1755 90.3175 14.3429 91.079 14.6775C91.8142 15.0119 92.4701 15.4984 93.0035 16.1051L91.6925 17.3666C91.3274 16.9163 90.8693 16.5503 90.3496 16.2937C89.8208 16.05 89.2436 15.9295 88.6615 15.9414C87.9089 15.9326 87.1668 16.119 86.5075 16.4824C85.8587 16.8391 85.3221 17.3696 84.958 18.0145C84.5806 18.7237 84.3833 19.5148 84.3833 20.3183C84.3833 21.1217 84.5806 21.9128 84.958 22.6221C85.3227 23.2665 85.8592 23.7969 86.5075 24.1541C87.1668 24.5175 87.9089 24.7039 88.6615 24.6951C89.9717 24.6951 91.0858 24.1488 92.0037 23.0562L93.3329 24.336C92.7717 24.9966 92.074 25.5279 91.288 25.8931C90.3781 26.2981 89.3868 26.4868 88.3918 26.4442C87.3968 26.4016 86.4252 26.1289 85.5533 25.6476H85.5487Z" fill="white"/>
<path d="M94.9212 14.4478H96.7252V17.646L96.6434 18.9235H96.7252C96.9899 18.5113 97.3602 18.1777 97.7976 17.9574C98.2684 17.7023 98.7959 17.5702 99.3313 17.5733C100.346 17.5733 101.122 17.871 101.658 18.4666C102.194 19.0622 102.465 19.8706 102.471 20.892V26.1883H100.654V21.1398C100.654 20.5056 100.485 20.0305 100.154 19.7123C99.8252 19.4295 99.4124 19.2634 98.9796 19.24C98.5468 19.2165 98.1184 19.337 97.7613 19.5827C97.4345 19.8168 97.1719 20.1295 96.9979 20.4919C96.8141 20.8668 96.7192 21.2791 96.7207 21.6967V26.1906H94.9166L94.9212 14.4478Z" fill="white"/>
<path d="M104.516 17.8258H106.236V19.0556H106.318C106.521 18.6098 106.86 18.2398 107.286 17.9986C107.654 17.7769 108.067 17.6392 108.495 17.5952C108.922 17.5512 109.354 17.602 109.76 17.744V19.6125C109.347 19.4512 108.909 19.3627 108.465 19.3511C108.072 19.3445 107.685 19.4588 107.359 19.6784C107.034 19.9005 106.772 20.2027 106.597 20.5558C106.409 20.9293 106.314 21.3424 106.318 21.7606V26.1886H104.516V17.8258Z" fill="white"/>
<path d="M112.294 25.8679C111.637 25.4922 111.099 24.9413 110.737 24.2767C110.37 23.579 110.178 22.8024 110.178 22.0139C110.178 21.2254 110.37 20.4487 110.737 19.751C111.098 19.086 111.637 18.5349 112.294 18.1598C112.986 17.7759 113.764 17.5745 114.556 17.5745C115.347 17.5745 116.125 17.7759 116.817 18.1598C117.473 18.5412 118.012 19.0946 118.376 19.7601C118.742 20.4554 118.933 21.2293 118.933 22.015C118.933 22.8007 118.742 23.5746 118.376 24.2699C118.014 24.9335 117.475 25.484 116.82 25.8611C116.127 26.2427 115.349 26.4429 114.558 26.4429C113.767 26.4429 112.989 26.2427 112.296 25.8611L112.294 25.8679ZM115.834 24.4586C116.231 24.2285 116.557 23.8935 116.777 23.4902C117.02 23.034 117.141 22.5227 117.129 22.0059C117.144 21.4927 117.026 20.9842 116.786 20.5307C116.565 20.1307 116.239 19.799 115.843 19.5714C115.453 19.3509 115.013 19.235 114.565 19.235C114.117 19.235 113.677 19.3509 113.287 19.5714C112.89 19.7977 112.563 20.1298 112.344 20.5307C112.099 20.983 111.978 21.4918 111.992 22.0059C111.978 22.5229 112.1 23.0344 112.344 23.4902C112.562 23.8946 112.888 24.2301 113.287 24.4586C113.677 24.6776 114.117 24.7926 114.565 24.7926C115.012 24.7926 115.452 24.6776 115.843 24.4586H115.834Z" fill="white"/>
<path d="M120.421 17.8257H122.143V18.9236H122.225C122.487 18.5081 122.855 18.1693 123.291 17.9416C123.742 17.6916 124.249 17.5617 124.765 17.5643C125.315 17.5533 125.857 17.6975 126.328 17.9803C126.763 18.2397 127.105 18.6294 127.305 19.0941C127.598 18.6137 128.014 18.2196 128.508 17.952C129.003 17.6845 129.56 17.5531 130.123 17.5711C131.083 17.5711 131.812 17.8628 132.311 18.4463C132.809 19.0297 133.058 19.8253 133.058 20.833V26.1953H131.254V21.1399C131.254 19.8715 130.713 19.2373 129.632 19.2373C129.356 19.2332 129.082 19.2949 128.835 19.4175C128.587 19.54 128.372 19.7198 128.207 19.942C127.826 20.4395 127.628 21.054 127.648 21.6809V26.1907H125.847V21.1399C125.847 19.8715 125.289 19.2373 124.174 19.2373C123.901 19.234 123.632 19.2963 123.388 19.4189C123.144 19.5415 122.933 19.7209 122.772 19.942C122.397 20.4423 122.204 21.0558 122.225 21.6809V26.1907H120.421V17.8257Z" fill="white"/>
<path d="M136.721 25.877C136.075 25.4981 135.547 24.9473 135.196 24.2858C134.823 23.5872 134.634 22.8048 134.646 22.0127C134.645 21.2422 134.831 20.483 135.189 19.801C135.528 19.1346 136.04 18.5717 136.671 18.1711C137.315 17.7647 138.063 17.5539 138.825 17.5642C139.592 17.5437 140.349 17.7365 141.013 18.1211C141.621 18.4814 142.112 19.0115 142.424 19.6464C142.755 20.3232 142.923 21.0682 142.915 21.8218C142.911 22.0135 142.896 22.2049 142.867 22.3946H136.46C136.475 23.0504 136.748 23.6736 137.221 24.1284C137.693 24.5832 138.326 24.8326 138.982 24.8223C139.451 24.8336 139.915 24.7114 140.318 24.4699C140.696 24.2318 141.009 23.9018 141.226 23.5107L142.749 24.2312C142.381 24.8938 141.851 25.4522 141.208 25.8542C140.525 26.2386 139.754 26.442 138.97 26.4452C138.186 26.4484 137.414 26.2512 136.728 25.8724L136.721 25.877ZM141.072 21.0216C141.045 20.7128 140.949 20.414 140.792 20.1465C140.614 19.8411 140.356 19.5892 140.047 19.4168C139.674 19.2094 139.252 19.1073 138.825 19.1213C138.289 19.106 137.767 19.2899 137.359 19.6373C136.947 20.0022 136.658 20.4858 136.532 21.0216H141.072Z" fill="white"/>
<path d="M337.874 0.681885H199.108C197.229 0.681885 195.707 2.20539 195.707 4.08472V36.9152C195.707 38.7945 197.229 40.318 199.108 40.318H337.874C339.752 40.318 341.275 38.7945 341.275 36.9152V4.08472C341.275 2.20539 339.752 0.681885 337.874 0.681885Z" fill="white"/>
<path d="M337.874 1.36386C338.597 1.36386 339.291 1.65125 339.802 2.1628C340.313 2.67434 340.6 3.36815 340.6 4.09159V36.913C340.6 37.6364 340.313 38.3302 339.802 38.8418C339.291 39.3533 338.597 39.6407 337.874 39.6407H199.108C198.385 39.6407 197.691 39.3533 197.18 38.8418C196.669 38.3302 196.382 37.6364 196.382 36.913V4.09159C196.382 3.36815 196.669 2.67434 197.18 2.1628C197.691 1.65125 198.385 1.36386 199.108 1.36386H337.874ZM337.874 0H199.108C198.023 0 196.983 0.431077 196.216 1.1984C195.449 1.96572 195.018 3.00643 195.018 4.09159V36.913C195.018 37.9981 195.449 39.0388 196.216 39.8061C196.983 40.5735 198.023 41.0045 199.108 41.0045H337.874C338.959 41.0045 339.999 40.5735 340.766 39.8061C341.533 39.0388 341.964 37.9981 341.964 36.913V4.09159C341.964 3.00643 341.533 1.96572 340.766 1.1984C339.999 0.431077 338.959 0 337.874 0V0Z" fill="#CCCCCC"/>
<path d="M218.939 14.4478H221.038L225.446 26.1883H223.415L222.365 23.1856H217.628L216.564 26.1861H214.531L218.939 14.4478ZM221.742 21.4807L220.497 17.9892L220.043 16.6254H219.938L219.484 17.9892L218.234 21.4807H221.742Z" fill="#297AEF"/>
<path d="M227.92 25.8769C227.303 25.4863 226.802 24.9367 226.471 24.2857C226.12 23.5747 225.937 22.7922 225.937 21.999C225.937 21.2058 226.12 20.4234 226.471 19.7123C226.802 19.0608 227.302 18.511 227.92 18.1211C228.534 17.7392 229.243 17.5405 229.965 17.5483C230.521 17.5382 231.069 17.6738 231.556 17.9415C231.987 18.1679 232.354 18.5004 232.621 18.9076H232.703L232.621 17.7278V14.4478H234.425V26.1883H232.703V25.1041H232.621C232.349 25.504 231.983 25.8311 231.556 26.0565C231.068 26.3231 230.52 26.4586 229.965 26.4497C229.243 26.4575 228.534 26.2588 227.92 25.8769V25.8769ZM231.451 24.4494C231.838 24.2096 232.152 23.8695 232.36 23.4652C232.595 23.0153 232.713 22.5134 232.703 22.0058C232.713 21.5011 232.595 21.0021 232.36 20.5556C232.149 20.1553 231.836 19.8186 231.451 19.5804C231.085 19.3532 230.662 19.2335 230.231 19.2349C229.797 19.2343 229.372 19.3539 229.002 19.5804C228.617 19.8179 228.303 20.1548 228.093 20.5556C227.858 21.0021 227.74 21.5011 227.75 22.0058C227.74 22.5134 227.858 23.0153 228.093 23.4652C228.301 23.8699 228.615 24.2102 229.002 24.4494C229.372 24.6752 229.797 24.794 230.231 24.7926C230.662 24.7948 231.085 24.6759 231.451 24.4494V24.4494Z" fill="#297AEF"/>
<path d="M237.868 25.8769C237.25 25.4863 236.75 24.9367 236.418 24.2858C236.068 23.5743 235.886 22.7919 235.886 21.999C235.886 21.2061 236.068 20.4238 236.418 19.7123C236.749 19.0608 237.25 18.511 237.868 18.1211C238.481 17.7395 239.19 17.5407 239.912 17.5483C240.468 17.5388 241.016 17.6743 241.503 17.9415C241.934 18.168 242.3 18.5005 242.566 18.9076H242.648L242.566 17.7278V14.4478H244.37V26.1883H242.659V25.1041H242.578C242.307 25.5043 241.942 25.8315 241.514 26.0565C241.027 26.3227 240.479 26.4582 239.924 26.4498C239.198 26.4595 238.484 26.2607 237.868 25.8769V25.8769ZM241.401 24.4494C241.787 24.2102 242.102 23.8699 242.31 23.4652C242.545 23.0153 242.663 22.5134 242.653 22.0058C242.663 21.5011 242.545 21.0021 242.31 20.5556C242.099 20.1551 241.785 19.8183 241.401 19.5804C241.034 19.3532 240.61 19.2335 240.178 19.2349C239.745 19.2347 239.319 19.3543 238.949 19.5804C238.564 19.8179 238.25 20.1548 238.04 20.5556C237.805 21.0021 237.687 21.5011 237.697 22.0058C237.687 22.5134 237.805 23.0153 238.04 23.4652C238.248 23.8699 238.562 24.2102 238.949 24.4494C239.319 24.6749 239.745 24.7937 240.178 24.7927C240.61 24.7949 241.033 24.676 241.401 24.4494V24.4494Z" fill="#297AEF"/>
<path d="M251.725 25.8771C251.08 25.4976 250.552 24.9469 250.2 24.2859C249.827 23.5873 249.638 22.8049 249.651 22.0128C249.644 21.2392 249.828 20.476 250.185 19.7897C250.525 19.1237 251.036 18.5603 251.666 18.1576C252.314 17.7509 253.066 17.5409 253.831 17.553C254.597 17.5327 255.354 17.7255 256.017 18.1099C256.626 18.4702 257.116 19.0002 257.428 19.6351C257.759 20.3135 257.924 21.0604 257.912 21.815C257.908 22.0069 257.891 22.1982 257.862 22.3879H251.455C251.466 22.7272 251.545 23.0609 251.687 23.3693C251.829 23.6777 252.031 23.9546 252.282 24.1836C252.749 24.5972 253.353 24.8225 253.977 24.8155C254.446 24.8269 254.91 24.7047 255.313 24.4632C255.691 24.2251 256.004 23.8951 256.222 23.5039L257.744 24.2245C257.376 24.8871 256.846 25.4455 256.203 25.8475C255.52 26.2319 254.75 26.4353 253.965 26.4385C253.181 26.4417 252.409 26.2445 251.723 25.8657L251.725 25.8771ZM256.076 21.0217C256.049 20.7129 255.953 20.414 255.797 20.1466C255.618 19.8407 255.361 19.5886 255.051 19.4169C254.679 19.2098 254.257 19.1077 253.831 19.1214C253.295 19.1062 252.772 19.29 252.363 19.6374C251.951 20.0023 251.663 20.4859 251.536 21.0217H256.076Z" fill="#297AEF"/>
<path d="M261.368 21.94L258.484 17.8257H260.582L262.433 20.5534H262.483L264.253 17.8257H266.416L263.499 21.94L266.453 26.1884H264.324L262.454 23.3675H262.406L260.588 26.1884H258.459L261.368 21.94Z" fill="#297AEF"/>
<path d="M269.988 26.1406C269.692 26.0382 269.419 25.8766 269.186 25.6655C268.945 25.4102 268.758 25.1085 268.637 24.7787C268.516 24.4489 268.463 24.0979 268.482 23.747V19.4281H267.023V17.837H268.482V15.457H270.284V17.8256H272.329V19.4168H270.284V23.3515C270.284 23.8061 270.372 24.1153 270.547 24.3017C270.722 24.4881 271.002 24.629 271.399 24.629C271.566 24.6326 271.732 24.608 271.89 24.5563C272.05 24.499 272.203 24.4226 272.344 24.329V26.0838C271.93 26.2579 271.483 26.3416 271.033 26.3293C270.677 26.3286 270.323 26.2647 269.988 26.1406Z" fill="#297AEF"/>
<path d="M275.226 25.877C274.58 25.4975 274.053 24.9468 273.701 24.2859C273.328 23.5872 273.138 22.8049 273.151 22.0127C273.146 21.2394 273.33 20.4765 273.685 19.7897C274.025 19.123 274.538 18.5595 275.169 18.1576C275.816 17.7506 276.567 17.5405 277.332 17.5529C278.099 17.533 278.856 17.7257 279.52 18.1098C280.127 18.4711 280.616 19.0009 280.929 19.6351C281.259 20.3135 281.425 21.0604 281.413 21.815C281.41 22.0069 281.393 22.1983 281.362 22.3878H274.955C274.966 22.7272 275.045 23.0609 275.187 23.3693C275.329 23.6777 275.532 23.9545 275.782 24.1836C276.25 24.5975 276.855 24.8228 277.479 24.8155C277.949 24.8268 278.412 24.7047 278.815 24.4632C279.194 24.2246 279.506 23.8947 279.724 23.5039L281.249 24.2245C280.88 24.8866 280.35 25.4448 279.708 25.8475C279.024 26.2318 278.254 26.4352 277.469 26.4384C276.685 26.4416 275.913 26.2445 275.226 25.8657V25.877ZM279.577 21.0217C279.549 20.7129 279.454 20.414 279.297 20.1465C279.119 19.8406 278.861 19.5885 278.552 19.4169C278.179 19.2098 277.758 19.1077 277.332 19.1214C276.796 19.1066 276.273 19.2903 275.864 19.6374C275.453 20.0029 275.164 20.4862 275.037 21.0217H279.577Z" fill="#297AEF"/>
<path d="M282.953 17.8258H284.673V18.9237H284.754C285.02 18.5115 285.391 18.1779 285.829 17.9577C286.294 17.7037 286.815 17.5715 287.345 17.5735C288.36 17.5735 289.132 17.8713 289.662 18.4668C290.192 19.0624 290.457 19.8739 290.457 20.9013V26.1977H288.656V21.14C288.656 20.4831 288.494 20.0035 288.172 19.6966C287.803 19.3763 287.323 19.2131 286.836 19.242C286.449 19.2374 286.07 19.3552 285.754 19.5784C285.435 19.8064 285.181 20.1145 285.018 20.4717C284.842 20.8464 284.752 21.2557 284.754 21.6696V26.1954H282.953V17.8258Z" fill="#297AEF"/>
<path d="M292.998 25.8179C292.41 25.4264 291.957 24.8627 291.702 24.204L293.309 23.4994C293.481 23.9061 293.769 24.2536 294.136 24.4995C294.501 24.7313 294.926 24.8506 295.358 24.8428C295.75 24.859 296.139 24.781 296.494 24.6155C296.632 24.5545 296.749 24.4543 296.829 24.3273C296.91 24.2003 296.952 24.0522 296.949 23.9017C296.953 23.7573 296.918 23.6143 296.849 23.4874C296.78 23.3605 296.679 23.254 296.556 23.1788C296.18 22.962 295.77 22.8085 295.345 22.7242L294.345 22.4787C293.726 22.3412 293.154 22.0415 292.689 21.6104C292.475 21.4092 292.306 21.165 292.193 20.8939C292.08 20.6228 292.026 20.3309 292.034 20.0374C292.026 19.5685 292.179 19.1111 292.468 18.7417C292.775 18.3559 293.179 18.0586 293.638 17.8802C294.149 17.6749 294.695 17.5721 295.245 17.5779C295.953 17.5592 296.656 17.7153 297.29 18.0325C297.861 18.3256 298.313 18.8075 298.569 19.3964L296.994 20.0783C296.678 19.4358 296.099 19.1138 295.258 19.1123C294.903 19.0998 294.551 19.1847 294.24 19.3578C294.12 19.4165 294.019 19.5071 293.946 19.6198C293.874 19.7324 293.834 19.8628 293.831 19.9965C293.83 20.1167 293.857 20.2356 293.911 20.3428C293.965 20.4501 294.045 20.5427 294.143 20.6125C294.418 20.8008 294.726 20.9364 295.052 21.0126L296.281 21.324C296.974 21.4671 297.616 21.7928 298.142 22.2673C298.347 22.469 298.509 22.7106 298.617 22.9772C298.725 23.2439 298.778 23.5299 298.771 23.8176C298.778 24.3168 298.618 24.8041 298.317 25.2019C297.995 25.6177 297.567 25.9383 297.078 26.1293C296.527 26.353 295.937 26.4642 295.342 26.4567C294.514 26.4864 293.696 26.2636 292.998 25.8179V25.8179Z" fill="#297AEF"/>
<path d="M300.332 16.2596C300.129 16.0602 300.002 15.7966 299.972 15.5138C299.942 15.231 300.011 14.9465 300.168 14.7091C300.324 14.4716 300.558 14.2958 300.83 14.2118C301.101 14.1278 301.394 14.1407 301.657 14.2483C301.92 14.356 302.138 14.5517 302.272 14.802C302.407 15.0524 302.451 15.3418 302.396 15.6208C302.342 15.8999 302.192 16.1513 301.972 16.3321C301.753 16.5128 301.477 16.6118 301.193 16.6119C301.033 16.6158 300.874 16.5865 300.726 16.5258C300.578 16.4652 300.443 16.3746 300.332 16.2596V16.2596ZM300.291 17.8258H302.093V26.1885H300.291V17.8258Z" fill="#297AEF"/>
<path d="M305.824 25.8679C305.167 25.492 304.627 24.9412 304.265 24.2768C303.899 23.5786 303.708 22.8021 303.708 22.0139C303.708 21.2257 303.899 20.4492 304.265 19.751C304.627 19.0866 305.167 18.5358 305.824 18.1598C306.515 17.7759 307.293 17.5745 308.084 17.5745C308.875 17.5745 309.653 17.7759 310.345 18.1598C311.002 18.5426 311.541 19.0985 311.904 19.7669C312.269 20.4623 312.46 21.2362 312.46 22.0218C312.46 22.8075 312.269 23.5814 311.904 24.2768C311.541 24.9412 311.002 25.492 310.345 25.8679C309.653 26.2496 308.875 26.4497 308.084 26.4497C307.294 26.4497 306.516 26.2496 305.824 25.8679V25.8679ZM309.363 24.4586C309.761 24.2294 310.086 23.8941 310.304 23.4903C310.548 23.0344 310.669 22.5229 310.656 22.0059C310.67 21.4918 310.549 20.9831 310.304 20.5307C310.085 20.1304 309.759 19.7985 309.363 19.5714C308.973 19.3509 308.532 19.2351 308.084 19.2351C307.636 19.2351 307.195 19.3509 306.805 19.5714C306.409 19.7985 306.084 20.1304 305.864 20.5307C305.62 20.9831 305.498 21.4918 305.512 22.0059C305.499 22.5229 305.62 23.0344 305.864 23.4903C306.082 23.8941 306.408 24.2294 306.805 24.4586C307.196 24.6776 307.636 24.7926 308.084 24.7926C308.532 24.7926 308.973 24.6776 309.363 24.4586V24.4586Z" fill="#297AEF"/>
<path d="M313.844 17.8258H315.564V18.9237H315.646C315.915 18.5108 316.289 18.1772 316.73 17.9577C317.194 17.7037 317.716 17.5715 318.245 17.5735C319.26 17.5735 320.033 17.8713 320.565 18.4668C321.097 19.0624 321.361 19.8739 321.358 20.9013V26.1977H319.556V21.14C319.556 20.4831 319.395 20.0035 319.072 19.6966C318.703 19.3763 318.224 19.2131 317.736 19.242C317.349 19.2374 316.971 19.3552 316.655 19.5784C316.336 19.8071 316.082 20.115 315.919 20.4717C315.743 20.8464 315.653 21.2557 315.655 21.6696V26.1954H313.853L313.844 17.8258Z" fill="#297AEF"/>
<path d="M727.917 41H376.222C375.138 41 374.097 40.5689 373.33 39.8016C372.563 39.0343 372.132 37.9936 372.132 36.9084V4.09159C372.132 3.00643 372.563 1.96572 373.33 1.1984C374.097 0.431077 375.138 0 376.222 0L728.129 0C728.637 -2.19903e-06 729.14 0.100326 729.609 0.295234C730.079 0.490143 730.505 0.7758 730.864 1.13584C731.223 1.49587 731.507 1.92321 731.7 2.39336C731.894 2.86351 731.993 3.36722 731.991 3.87564V36.913C731.99 37.9946 731.561 39.0317 730.797 39.7976C730.034 40.5635 728.998 40.9958 727.917 41V41Z" fill="#E2E2E2"/>
<path d="M712.128 3.55737H681.825C680.84 3.55737 680.042 4.35627 680.042 5.34176V35.6582C680.042 36.6437 680.84 37.4425 681.825 37.4425H712.128C713.113 37.4425 713.912 36.6437 713.912 35.6582V5.34176C713.912 4.35627 713.113 3.55737 712.128 3.55737Z" fill="white"/>
<path d="M644.668 4.06201H509.253C500.178 4.06201 492.821 11.4215 492.821 20.5C492.821 29.5784 500.178 36.9379 509.253 36.9379H644.668C653.743 36.9379 661.099 29.5784 661.099 20.5C661.099 11.4215 653.743 4.06201 644.668 4.06201Z" fill="white"/>
<path d="M432.072 11.5063L429.95 13.1453L435.519 19.2485H421.555V21.749H435.519L429.95 27.8545L432.072 29.4934L439.788 20.4988L432.072 11.5063Z" fill="black"/>
<path d="M407.431 19.2485H393.47L399.038 13.1453L396.914 11.5063L389.198 20.4988L396.914 29.4934L399.038 27.8545L393.47 21.749H407.431V19.2485Z" fill="black"/>
<path d="M701.722 12.7295H704.587V8.78564H701.968C699.782 8.78564 698.105 9.43348 697.039 10.4041C696.283 9.38802 694.994 8.78564 693.434 8.78564C691.972 8.81663 690.551 9.27234 689.344 10.0972V13.841C690.146 13.1932 691.732 12.5931 692.827 12.5931C694.136 12.5931 694.751 13.225 694.751 15.1208V19.6852H692.009V23.1858H694.751V25.5703C694.751 27.1114 693.736 28.082 692.225 28.082H689.353V32.0736H691.957C694.145 32.0736 695.747 31.428 696.842 30.4415C697.612 31.5781 698.887 32.2145 700.538 32.2145C701.981 32.1694 703.383 31.7265 704.59 30.9348V27.1432C703.79 27.8252 702.202 28.423 701.125 28.423C699.829 28.423 699.198 27.8206 699.198 25.9226V23.1858H701.94V19.6852H699.198V15.2913C699.196 13.7478 700.198 12.7295 701.722 12.7295Z" fill="black"/>
<path d="M465.863 10.854L454.957 20.4965L456.595 22.6196L458.661 20.6965V29.6889H473.077V20.6965L475.142 22.6196L476.78 20.4965L465.863 10.854ZM470.571 27.1908H461.153V18.3689L465.863 13.9863L470.571 18.3689V27.1908Z" fill="black"/>
</g>
<defs>
<clipPath id="clip0_1820_6680">
<rect width="732" height="41" fill="white"/>
</clipPath>
</defs>
</svg>
