<?xml version="1.0" encoding="utf-8"?>
<!-- Generator: Adobe Illustrator 25.4.1, SVG Export Plug-In . SVG Version: 6.00 Build 0)  -->
<svg version="1.1" id="Layer_1" xmlns="http://www.w3.org/2000/svg" xmlns:xlink="http://www.w3.org/1999/xlink" x="0px" y="0px"
	 viewBox="0 0 1272.2 402.1" style="enable-background:new 0 0 1272.2 402.1;" xml:space="preserve">
<style type="text/css">
	.st0{clip-path:url(#SVGID_00000119106721604339944160000011281476270389323709_);}
	.st1{fill:#FCFF55;}
</style>
<g>
	<defs>
		<rect id="SVGID_1_" width="1272.2" height="402.1"/>
	</defs>
	<clipPath id="SVGID_00000013174839915442264590000002669897156594001585_">
		<use xlink:href="#SVGID_1_"  style="overflow:visible;"/>
	</clipPath>
	<g style="clip-path:url(#SVGID_00000013174839915442264590000002669897156594001585_);">
		<path class="st1" d="M141.5,321.3c-27.4,0-51.8-6.8-73.3-20.4c-21.4-13.5-38.8-32.6-50.2-55.2C5.8,221.9-0.3,195.4,0,168.6
			C-0.3,141.6,5.9,115,18,91c11.4-22.8,28.7-42.1,50.2-55.8c21.5-13.7,45.9-20.6,73.3-20.6c27.4,0,51.8,6.9,73.3,20.6
			c21.5,13.7,38.8,33,50.2,55.8c12.1,24,18.3,50.6,18,77.6c0.3,26.8-5.8,53.3-18,77.2c-11.4,22.6-28.8,41.7-50.2,55.2
			C193.3,314.5,168.9,321.3,141.5,321.3z M141.5,280.6c17.7,0.2,34.9-5.2,49.4-15.4c14.9-10.5,26.9-24.8,34.6-41.4
			c8.2-17.3,12.4-36.2,12.4-55.4s-4.3-38.1-12.4-55.4c-7.8-16.6-19.7-31-34.6-41.7c-14.5-10.3-31.8-15.8-49.5-15.8
			c-17.7,0-35,5.5-49.5,15.8C77.1,82,65.2,96.4,57.5,113c-8.3,17.3-12.6,36.4-12.4,55.6c-0.1,19.2,4.1,38.1,12.4,55.4
			c7.7,16.5,19.6,30.6,34.4,41.2C106.4,275.4,123.7,280.8,141.5,280.6L141.5,280.6z"/>
		<path class="st1" d="M316.2,402V131.8h-24.5v-36h64v36c7.7-13,19-23.6,32.4-30.5c12.8-7.1,27.2-10.9,41.9-11.1
			c17.3-0.2,34.1,5.4,47.8,15.8c14.3,11,25.6,25.5,32.8,42.1c8,18,12,37.5,11.9,57.2c0.2,19.7-3.7,39.3-11.7,57.4
			c-7,16.4-18.3,30.7-32.6,41.4c-14,10.2-30.9,15.5-48.2,15.2c-14.6-0.2-28.8-4.1-41.5-11.3c-13.1-6.7-24.2-16.9-32-29.5V402
			L316.2,402z M422.1,283.7c10.9,0,21.4-3.8,29.8-10.7c9.5-7.7,16.9-17.6,21.5-28.9c5.3-12.4,8-25.7,7.9-39.2
			c0-24.8-5.6-43.9-16.8-57.2c-5.1-6.4-11.6-11.5-18.9-14.9c-7.4-3.5-15.4-5.2-23.6-5c-12.3-0.3-24.4,3.1-34.9,9.6
			c-10.5,6.5-18.8,15.9-24,27.1c-6,12.7-9,26.5-8.7,40.6c-0.3,14.2,2.7,28.3,8.7,41.2c5.3,11.3,13.6,20.9,24.1,27.7
			C397.7,280.4,409.8,283.9,422.1,283.7L422.1,283.7z"/>
		<path class="st1" d="M597.5,321.3c-16.6,0-29.8-5.8-39.7-17.4c-9.9-11.6-14.8-28.8-14.8-51.4V133.3h-26.9V95.7H543V7.1h40.3v88.6
			h51.8v37.6h-51.8v125c0,8.2,1.5,14.2,4.5,18c1.5,1.9,3.5,3.4,5.7,4.4c2.2,1,4.7,1.5,7.1,1.3c5.7-0.2,11.3-1.5,16.4-4
			c6.4-2.9,12.5-6.7,18-11.1l10.7,40c-5.3,3.1-10.9,5.8-16.6,8.1c-5.2,2.1-10.7,3.7-16.2,4.7C607.9,320.8,602.7,321.3,597.5,321.3
			L597.5,321.3z"/>
		<path class="st1" d="M720.1,95.8v221.6h-40.3V133h-28.5V95.8H720.1z M699.9,51.8c-3.4,0-6.7-0.7-9.8-2.1s-5.9-3.4-8.2-5.9
			c-2.4-2.4-4.4-5.2-5.7-8.3c-1.3-3.1-2-6.5-2-9.9c0-3.4,0.7-6.7,1.9-9.9c1.3-3.1,3.2-6,5.6-8.4c2.4-2.4,5.2-4.3,8.3-5.6
			c3.1-1.3,6.5-1.9,9.8-1.9c3.4-0.1,6.8,0.5,10,1.8c3.2,1.3,6.1,3.1,8.5,5.5c2.5,2.4,4.4,5.2,5.7,8.4c1.3,3.2,1.9,6.6,1.8,10
			c-0.1,6.9-2.8,13.5-7.7,18.4C713.4,49,706.8,51.8,699.9,51.8L699.9,51.8z"/>
		<path class="st1" d="M842.6,321.3c-19.1,0.3-37.8-4.9-53.9-15c-15.8-10.1-28.6-24.4-37-41.2c-9.1-18.1-14.3-37.9-15-58.2
			c-0.3-20.3,4.4-40.3,13.6-58.4c8.6-17,21.8-31.4,37.9-41.5c16.4-10.2,35.4-15.5,54.7-15.2c18.1-0.2,35.8,4.5,51.5,13.5
			c15.7,9,28.7,21.9,37.8,37.6L897.1,165c-6-10-14.5-18.3-24.7-24.1c-9.6-6-20.7-9-32-8.7c-11.3,0.3-22.2,4-31.4,10.5
			c-9.8,6.8-17.7,16.1-22.9,26.9c-5.6,11.6-8.5,24.5-8.3,37.4c0.3,13,3.4,25.7,9.1,37.4c5.1,10.5,13,19.5,22.7,25.9
			c9.8,6.4,21.3,9.7,33,9.5c11,0.1,21.8-2.6,31.3-8c9.6-5.3,17.6-13.1,23.2-22.5l34.8,22.6c-9.8,14.8-22.9,27.2-38.3,36
			C878.1,316.8,860.5,321.5,842.6,321.3L842.6,321.3z"/>
		<path class="st1" d="M1027.5,321.3c-14,0.1-27.7-3-40.3-9.1c-11.9-5.7-22.2-14.2-29.8-24.9c-7.5-10.4-11.4-22.8-11.3-35.6
			c0-13.2,3-24.3,9.1-33.4c6.1-9.1,15.2-16.8,27.3-23.1c6-2.9,12.4-5,19-6.3c6.6-1.3,14.9-2.5,24.9-3.6c6.3-0.5,11.3-1.1,15-1.6
			l6.7-0.8c6.9-0.6,13.8-1.6,20.6-3c5.5-1.1,10.7-3.1,15.4-6.1c2.1-1.3,3.8-3.1,5-5.2c1.2-2.2,1.8-4.6,1.7-7
			c0.2-6.9-2.3-13.5-6.9-18.6c-4.9-5.2-11.1-9.1-18-11.3c-7.5-2.5-15.4-3.8-23.3-3.8c-12.3-0.1-24.3,3.8-34.2,11.1
			c-10.4,7.6-18.7,17.7-24.3,29.3L949.7,144c9.3-16.5,23.2-29.9,39.9-38.8c15.8-8.9,33.6-13.7,51.8-13.8c29.8,0,51.9,7.7,66.4,23.1
			s21.7,38.3,21.7,68.7l-0.4,69.2v4.7c-0.1,6.7,1.1,13.3,3.4,19.6c0.7,2.1,2.1,3.9,3.9,5.1c1.8,1.2,4,1.9,6.2,1.8
			c5.2-0.4,10.2-2,14.6-4.7v36.8c-9,3.1-18.5,4.9-28.1,5.1c-10.8,0-19.5-3.3-26.1-9.9c-6.6-6.6-10.5-17.2-11.9-31.7
			c-1.5,8.3-5.3,15.9-10.9,22.2c-6.1,6.6-13.7,11.6-22.1,14.6C1048.3,319.7,1038,321.5,1027.5,321.3L1027.5,321.3z M1031.5,285.3
			c23.4,0,39.1-6.5,46.8-19.6c7.8-13,11.9-27.8,12.1-42.9v-12.1c0-4.1,0.1-8,0.4-11.7v-8.7c-3.3,6.2-8.4,11.2-14.6,14.2
			c-8.5,3.7-17.4,6.7-26.5,8.7c-0.3,0-0.5,0.1-0.8,0.2c-0.2,0.1-0.5,0.2-0.8,0.2c-3.4,0.8-6.9,1.5-10.5,2.2c-3.6,0.7-7,1.3-10.5,1.8
			c-7.4,1.3-13.6,2.5-18.6,3.6c-6.2,1.3-11.7,4.7-15.8,9.5c-4.1,5.2-6.2,11.6-5.9,18.2c0.1,6.3,2.2,12.5,5.9,17.6
			c4.2,5.9,9.8,10.6,16.4,13.7C1016.1,283.6,1023.7,285.3,1031.5,285.3L1031.5,285.3z"/>
		<path class="st1" d="M1224.7,321.3c-16.6,0-29.8-5.8-39.7-17.4c-9.9-11.6-14.8-28.8-14.8-51.4V7.1h40.3v251.3
			c0,8.2,1.4,14.2,4.3,18c1.4,1.9,3.3,3.4,5.4,4.4c2.1,1,4.5,1.5,6.8,1.3c5.4-0.2,10.7-1.5,15.6-3.8c6.6-2.9,12.9-6.4,18.8-10.5
			l10.7,40C1255.8,316.8,1240,321.3,1224.7,321.3z"/>
	</g>
</g>
<image style="overflow:visible;" width="319" height="141" xlink:href="3624B595.jpg"  transform="matrix(1 0 0 1 -79.913 -232.3913)">
</image>
</svg>
