<svg id="Layer_1" data-name="Layer 1" xmlns="http://www.w3.org/2000/svg" xmlns:xlink="http://www.w3.org/1999/xlink" viewBox="0 0 1272.16 402.06"><defs><style>.cls-1{fill:none;}.cls-2{clip-path:url(#clip-path);}.cls-3{fill:#111;}</style><clipPath id="clip-path" transform="translate(0.02 0.02)"><rect class="cls-1" width="1272.16" height="402.05"/></clipPath></defs><g class="cls-2"><path class="cls-3" d="M141.47,321.31q-41.1,0-73.31-20.38A140,140,0,0,1,18,245.74,165.59,165.59,0,0,1,0,168.57,168,168,0,0,1,18,91,140.76,140.76,0,0,1,68.16,35.2q32.21-20.57,73.31-20.57T214.78,35.2A140.87,140.87,0,0,1,265,91a168,168,0,0,1,18,77.56,165.59,165.59,0,0,1-18,77.17,140,140,0,0,1-50.19,55.2Q182.58,321.31,141.47,321.31Zm0-40.76a84.38,84.38,0,0,0,49.4-15.43,104.38,104.38,0,0,0,34.58-41.36,129.48,129.48,0,0,0,0-110.8,107.5,107.5,0,0,0-34.58-41.74,85.31,85.31,0,0,0-99,0A108.09,108.09,0,0,0,57.49,113,126.74,126.74,0,0,0,45,168.56,125.41,125.41,0,0,0,57.49,224a105.3,105.3,0,0,0,34.38,41.16,84.12,84.12,0,0,0,49.6,15.43Z" transform="translate(0.02 0.02)"/><path class="cls-3" d="M316.15,402V131.76h-24.5v-36h64v36a80.41,80.41,0,0,1,32.41-30.48A89,89,0,0,1,430,90.2,77.3,77.3,0,0,1,477.79,106a106.54,106.54,0,0,1,32.8,42.15,137.62,137.62,0,0,1,11.86,57.18,139.28,139.28,0,0,1-11.66,57.38,100.42,100.42,0,0,1-32.61,41.35A79.77,79.77,0,0,1,430,319.33a87,87,0,0,1-41.5-11.28,81.68,81.68,0,0,1-32-29.48V402ZM422.07,283.71A47.3,47.3,0,0,0,451.9,273a72.4,72.4,0,0,0,21.54-28.89A97.32,97.32,0,0,0,481.35,205q0-37.2-16.8-57.19a53.2,53.2,0,0,0-42.48-20,63.52,63.52,0,0,0-58.89,36.6A90.4,90.4,0,0,0,354.49,205a92.64,92.64,0,0,0,8.69,41.15,66.88,66.88,0,0,0,24.11,27.7,62.9,62.9,0,0,0,34.78,9.89Z" transform="translate(0.02 0.02)"/><path class="cls-3" d="M597.54,321.3q-24.9,0-39.72-17.41T543,252.45V133.34H516.13V95.74H543V7.1h40.31V95.74h51.78v37.6H583.31v125q0,12.27,4.55,18a15.42,15.42,0,0,0,12.85,5.74,40.77,40.77,0,0,0,16.4-4,86.16,86.16,0,0,0,18-11.08l10.67,40a138.41,138.41,0,0,1-16.6,8.11,80.27,80.27,0,0,1-16.2,4.75,89.58,89.58,0,0,1-15.42,1.38Z" transform="translate(0.02 0.02)"/><path class="cls-3" d="M720.06,95.75V317.36h-40.3V133H651.29V95.75ZM699.9,51.83a24.3,24.3,0,0,1-18-7.91,25.08,25.08,0,0,1-5.71-8.32,25.49,25.49,0,0,1-2-9.89,26.05,26.05,0,0,1,1.94-9.86A26.17,26.17,0,0,1,718.48,7.3,24.67,24.67,0,0,1,726,25.71,26.33,26.33,0,0,1,699.9,51.82Z" transform="translate(0.02 0.02)"/><path class="cls-3" d="M842.56,321.32a97.84,97.84,0,0,1-53.94-15,104.42,104.42,0,0,1-37-41.15,140.65,140.65,0,0,1-15-58.17,124.84,124.84,0,0,1,13.64-58.37A105,105,0,0,1,788.23,107,100.87,100.87,0,0,1,843,91.8a102.2,102.2,0,0,1,89.32,51.05L897.11,165a68.76,68.76,0,0,0-24.7-24.14A57.36,57.36,0,0,0,809,142.65a69.11,69.11,0,0,0-22.92,26.91,83.27,83.27,0,0,0-8.3,37.39,89.18,89.18,0,0,0,9.09,37.39,65.74,65.74,0,0,0,22.74,25.92,58.59,58.59,0,0,0,33,9.5,62.67,62.67,0,0,0,54.54-30.47l34.78,22.56a113.79,113.79,0,0,1-38.33,36,100.24,100.24,0,0,1-51,13.46Z" transform="translate(0.02 0.02)"/><path class="cls-3" d="M1027.51,321.31a90.28,90.28,0,0,1-40.3-9.11,77.73,77.73,0,0,1-29.84-24.93,59.88,59.88,0,0,1-11.26-35.61q0-19.78,9.09-33.44t27.27-23.15a80.31,80.31,0,0,1,19-6.33q9.87-2,24.9-3.56,9.48-.8,15-1.58l6.72-.79q10.35-1,20.56-3A44.41,44.41,0,0,0,1084,173.7a13.85,13.85,0,0,0,6.72-12.26,26.46,26.46,0,0,0-6.92-18.6,42.56,42.56,0,0,0-18-11.28,71.91,71.91,0,0,0-23.32-3.76,56.76,56.76,0,0,0-34.19,11.08,79.37,79.37,0,0,0-24.3,29.28L949.67,144a99.17,99.17,0,0,1,39.91-38.78,108.26,108.26,0,0,1,51.77-13.85q44.67,0,66.4,23.15t21.74,68.66l-.4,69.25v4.75a55.69,55.69,0,0,0,3.36,19.59,10.29,10.29,0,0,0,10.08,6.92,32.08,32.08,0,0,0,14.62-4.75v36.81a95.15,95.15,0,0,1-28.06,5.15q-16.21,0-26.08-9.9t-11.86-31.66a45.1,45.1,0,0,1-10.86,22.16,55.22,55.22,0,0,1-22.14,14.64,86.25,86.25,0,0,1-30.64,5.15Zm4-36q35.18,0,46.83-19.59a85.36,85.36,0,0,0,12.06-42.94V210.7q0-6.13.39-11.68v-8.7a33,33,0,0,1-14.62,14.24,146.08,146.08,0,0,1-26.48,8.71,1.79,1.79,0,0,0-.79.21,1.66,1.66,0,0,1-.79.2q-5.14,1.2-10.47,2.18c-3.56.66-7,1.25-10.48,1.78q-11.05,2-18.57,3.56a28.58,28.58,0,0,0-15.81,9.5,27.51,27.51,0,0,0-5.92,18.21,30.4,30.4,0,0,0,5.92,17.61,42,42,0,0,0,16.4,13.66,49.83,49.83,0,0,0,22.33,5.12Z" transform="translate(0.02 0.02)"/><path class="cls-3" d="M1224.73,321.3q-24.9,0-39.72-17.41t-14.82-51.44V7.1h40.31V258.38q0,12.27,4.33,18a14.49,14.49,0,0,0,12.26,5.74,41,41,0,0,0,15.61-3.76,109.25,109.25,0,0,0,18.77-10.49l10.67,40Q1247.65,321.3,1224.73,321.3Z" transform="translate(0.02 0.02)"/></g></svg>