<svg width="230" height="56" viewBox="0 0 230 56" fill="none" xmlns="http://www.w3.org/2000/svg">
<g clip-path="url(#clip0_960_7738)">
<path d="M19.644 38.3921C13.0394 38.3921 8.46743 32.2342 8.46743 23.3641C8.46743 14.4376 12.9816 8.44909 19.644 8.44909C26.3064 8.44909 30.8206 14.4376 30.8206 23.3641C30.8206 32.2342 26.2487 38.3921 19.644 38.3921ZM19.644 45.4543C31.837 45.4543 39.2881 37.0367 39.2881 23.3077C39.2881 9.57862 31.8934 1.3291 19.644 1.3291C7.39464 1.3291 0 9.57862 0 23.3077C0 37.0367 7.45107 45.4543 19.644 45.4543Z" fill="#FAFAFA"/>
<path d="M58 38.982C53.6186 38.982 50.3604 35.4546 50.3604 30.7432V28.2662C50.3604 23.5547 53.6133 20.0273 58 20.0273C62.5733 20.0273 65.3442 23.6079 65.3442 29.504C65.3442 35.4001 62.5733 38.982 58 38.982ZM42.6133 55.3515H50.3604C50.3604 50.8015 50.2277 42.9128 50.0916 39.3588H50.1991C51.5978 43.2629 55.178 45.4436 60.2598 45.4436C68.2758 45.4436 73.2527 39.3309 73.2527 29.5047C73.2527 19.5967 68.3568 13.5664 60.3136 13.5664C55.1216 13.5664 51.5175 15.7471 50.1991 19.6506H50.0916C50.2801 18.0626 50.3604 16.5005 50.3604 14.4275H42.6133V55.3515Z" fill="#FAFAFA"/>
<path d="M88.0036 45.1289C90.9359 45.1289 92.2271 44.8599 93.7068 44.214V37.8867C92.7655 38.2907 91.2592 38.6674 89.2683 38.6674C87.3856 38.6674 86.7669 37.698 86.7669 35.1134V5.71851H79.0191V36.3253C79.0191 41.6593 82.5972 45.1289 88.0036 45.1289ZM74.7153 20.2522H92.8458V14.4364H74.7153V20.2522Z" fill="#FAFAFA"/>
<path d="M103.569 8.77707C106.581 8.77707 108.491 7.08079 108.491 4.36129C108.491 1.66904 106.581 0 103.569 0C100.556 0 98.6458 1.66904 98.6458 4.36129C98.6458 7.08079 100.556 8.77707 103.569 8.77707ZM99.7491 44.5684H107.496V14.4141H96.4219V20.2524H100.638L99.7491 16.5137V44.5684Z" fill="#FAFAFA"/>
<path d="M125.722 45.4553C129.141 45.4559 132.506 44.6046 135.514 42.9783L134.169 36.5706C131.559 37.9705 128.304 38.9937 125.829 38.9937C121.068 38.9937 118.461 35.6284 118.461 29.517C118.461 23.4057 121.07 20.0397 125.805 20.0397C128.333 20.0397 131.722 21.0901 134.169 22.4628L135.514 16.0551C132.206 14.3861 128.977 13.5781 125.641 13.5781C116.414 13.5781 110.551 19.7433 110.551 29.4632C110.55 39.2363 116.468 45.4553 125.722 45.4553Z" fill="#FAFAFA"/>
<path d="M149.99 38.9676C147.003 38.9676 145.632 37.0022 145.632 35.1179C145.632 31.8868 149.721 29.76 156.204 29.5447V34.2841C154.943 37.3251 152.707 38.9676 149.99 38.9676ZM147.515 45.4291C151.443 45.4291 154.994 43.41 157.145 39.937H157.253C158.221 43.41 160.481 45.1601 164.005 45.1601C165.143 45.1645 166.273 44.964 167.34 44.5681V39.0752C166.964 39.1829 166.372 39.2367 165.996 39.2367C164.623 39.2367 163.951 38.5098 163.951 37.1371V23.9443C163.951 16.7831 160.508 13.554 152.952 13.554C147.329 13.554 141.788 15.4928 138.748 18.3192L142.111 23.4619C144.935 21.1198 148.432 19.8268 151.903 19.8268C154.835 19.8268 156.206 21.0387 156.206 23.731V24.5947C144.798 24.9947 137.882 29.4098 137.882 36.2773C137.882 41.4984 142.027 45.4291 147.515 45.4291Z" fill="#FAFAFA"/>
<path d="M179.592 45.4297C183.036 45.4297 185.965 44.649 187.957 43.2225V36.7875C186.424 37.9988 183.384 38.9954 181.313 38.9954C178.784 38.9954 177.52 38.026 177.52 35.28V1.07861H169.772V37.1643C169.774 42.1721 173.621 45.4297 179.592 45.4297Z" fill="#FAFAFA"/>
<path d="M224.952 24.7422H206.191V31.4184H224.952V24.7422Z" fill="#FAFAFA"/>
<path d="M211.371 13.1794V32.9201C211.371 35.8436 209.472 37.7459 206.622 37.7459H201.148V45.2034H206.115C210.206 45.2034 213.274 44.034 215.32 42.2062C216.78 44.3263 219.191 45.4964 222.26 45.4964C224.597 45.4964 227.811 44.6187 230.003 43.0832V35.918C228.469 37.2343 225.474 38.3306 223.431 38.3306C220.946 38.3306 219.779 37.1612 219.779 33.5786V13.5448C219.779 10.6213 221.679 8.71906 224.527 8.71906H230.006V1.26221H225.039C220.875 1.26221 217.737 2.43226 215.688 4.33319C214.228 2.35851 211.816 1.26221 208.894 1.26221C206.551 1.26221 203.338 2.13859 201.148 3.67407V10.8392C202.682 9.52368 205.677 8.42672 207.72 8.42672C210.204 8.42672 211.371 9.59677 211.371 13.1794Z" fill="#FAFAFA"/>
</g>
<defs>
<clipPath id="clip0_960_7738">
<rect width="230" height="55.3527" fill="white"/>
</clipPath>
</defs>
</svg>
