<svg width="187" height="54" viewBox="0 0 187 54" fill="none" xmlns="http://www.w3.org/2000/svg">
<path d="M19.0854 37.4549C12.6686 37.4549 8.22663 31.4475 8.22663 22.7942C8.22663 14.0857 12.6124 8.2436 19.0854 8.2436C25.5583 8.2436 29.9441 14.0857 29.9441 22.7942C29.9441 31.4475 25.5022 37.4549 19.0854 37.4549ZM19.0854 44.3445C30.9316 44.3445 38.1708 36.1326 38.1708 22.7391C38.1708 9.34552 30.9864 1.29761 19.0854 1.29761C7.18435 1.29761 0 9.34552 0 22.7391C0 36.1326 7.23917 44.3445 19.0854 44.3445Z" fill="#FAFAFA"/>
<path d="M56.3505 38.0294C52.0937 38.0294 48.9282 34.5882 48.9282 29.9918V27.5754C48.9282 22.9791 52.0886 19.5379 56.3505 19.5379C60.7938 19.5379 63.4859 23.0309 63.4859 28.783C63.4859 34.535 60.7938 38.0294 56.3505 38.0294ZM41.4014 53.9988H48.9282C48.9282 49.56 48.7992 41.8641 48.667 38.3969H48.7715C50.1304 42.2057 53.6088 44.333 58.546 44.333C66.3341 44.333 71.1694 38.3697 71.1694 28.7836C71.1694 19.1178 66.4128 13.2349 58.5983 13.2349C53.5539 13.2349 50.0524 15.3622 48.7715 19.1703H48.667C48.8502 17.6212 48.9282 16.0973 48.9282 14.0749H41.4014V53.9988Z" fill="#FAFAFA"/>
<path d="M85.5003 44.0279C88.3491 44.0279 89.6036 43.7654 91.0412 43.1354V36.9626C90.1266 37.3567 88.6632 37.7243 86.7289 37.7243C84.8998 37.7243 84.2987 36.7786 84.2987 34.2571V5.58057H76.7712V35.4394C76.7712 40.6431 80.2476 44.0279 85.5003 44.0279ZM72.5898 19.7591H90.2047V14.0855H72.5898V19.7591Z" fill="#FAFAFA"/>
<path d="M100.623 8.56258C103.55 8.56258 105.406 6.90775 105.406 4.25471C105.406 1.62825 103.55 0 100.623 0C97.6966 0 95.8403 1.62825 95.8403 4.25471C95.8403 6.90775 97.6959 8.56258 100.623 8.56258ZM96.9123 43.4792H104.439V14.0618H93.6797V19.7575H97.7759L96.9123 16.1101V43.4792Z" fill="#FAFAFA"/>
<path d="M122.146 44.346C125.467 44.3466 128.737 43.5161 131.659 41.9295L130.352 35.6784C127.817 37.0441 124.655 38.0423 122.25 38.0423C117.625 38.0423 115.091 34.7593 115.091 28.7972C115.091 22.8352 117.626 19.5514 122.226 19.5514C124.683 19.5514 127.976 20.5762 130.353 21.9154L131.66 15.6643C128.445 14.036 125.309 13.2478 122.068 13.2478C113.103 13.2478 107.406 19.2624 107.406 28.7447C107.406 38.2789 113.156 44.346 122.146 44.346Z" fill="#FAFAFA"/>
<path d="M145.725 38.0174C142.822 38.0174 141.49 36.1001 141.49 34.2618C141.49 31.1097 145.463 29.0348 151.762 28.8248V33.4484C150.537 36.4151 148.364 38.0174 145.725 38.0174ZM143.32 44.3211C147.136 44.3211 150.586 42.3512 152.676 38.9632H152.781C153.722 42.3512 155.917 44.0586 159.341 44.0586C160.447 44.0629 161.544 43.8673 162.582 43.481V38.1225C162.216 38.2275 161.641 38.28 161.275 38.28C159.942 38.28 159.288 37.5708 159.288 36.2317V23.3612C159.288 16.3751 155.944 13.2249 148.602 13.2249C143.14 13.2249 137.756 15.1163 134.803 17.8737L138.069 22.8907C140.814 20.6058 144.211 19.3444 147.583 19.3444C150.432 19.3444 151.764 20.5267 151.764 23.1532V23.9958C140.68 24.386 133.961 28.6932 133.961 35.3929C133.961 40.4864 137.988 44.3211 143.32 44.3211Z" fill="#FAFAFA"/>
<path d="M174.484 44.3173C177.829 44.3173 180.676 43.5557 182.61 42.1641V35.8863C181.121 37.068 178.168 38.0403 176.156 38.0403C173.699 38.0403 172.47 37.0946 172.47 34.4156V1.05005H164.943V36.2539C164.945 41.1393 168.682 44.3173 174.484 44.3173Z" fill="#FAFAFA"/>
</svg>
