<svg id="Layer_1" data-name="Layer 1" xmlns="http://www.w3.org/2000/svg" viewBox="0 0 8863 1954"><defs><style>.cls-1{fill:#FFF;}</style></defs><path class="cls-1" d="M8581,1549c85,0,201-31,281-83V1205c-56,61-166,111-242,111-99,0-148-41-148-172V983h220V774H8472V446c0-103,65-171,164-171h227V29H8652c-140,0-256,48-319,119-48-75-146-119-255-119-86,0-204,30-285,85V372c37-43,145-108,248-108,99,0,145,42,145,171V774H7964V983h222v141c0,102-66,167-164,167H7793v249h209c140,0,251-49,317-124C8368,1500,8465,1549,8581,1549Z"/><path class="cls-1" d="M6712,1569c144,0,246-48,281-86V1258c-29,33-126,84-212,84-78,0-129-49-129-149V22H6379V1239C6379,1467,6515,1569,6712,1569Z"/><path class="cls-1" d="M6161,1331c-51,0-66-33-66-87V780c0-258-163-365-419-365-202,0-354,58-496,193l152,180c61-85,174-148,303-148,117,0,187,49,187,182v32c-294,14-671,90-671,385,0,200,164,330,357,330,106,0,216-35,282-117,30-40,49-81,56-127h8c16,137,86,234,224,234,68,0,97-6,161-30V1308C6220,1327,6190,1331,6161,1331Zm-339-143c-22,96-139,154-229,154-97,0-164-56-164-137,0-88,83-132,168-154,59-14,132-24,225-29Z"/><ellipse class="cls-1" cx="3794" cy="163" rx="184" ry="156"/><path class="cls-1" d="M4617,1569c164,0,314-51,415-179l-169-182c-65,82-116,129-223,129-194,0-267-157-267-349,0-184,68-342,249-342,93,0,178,47,214,139l208-143c-73-150-216-227-408-227-364,0-538,250-538,585C4098,1350,4277,1569,4617,1569Z"/><rect class="cls-1" x="3656" y="446" width="278" height="1093"/><path class="cls-1" d="M3278,1559c63,0,149-12,202-45V1293c-23,26-123,36-158,36-75,0-115-38-115-136V651h270V446H3207V77l-274,96V446H2780V651h153v571C2933,1450,3050,1559,3278,1559Z"/><path class="cls-1" d="M2215,415c-148,0-286,90-337,219h-12c8-36,17-102,17-188H1610V1954h273c0-90-2-219-5-334-3-117-4-210-16-272h16c51,133,187,221,337,221,308,0,478-254,478-578C2693,676,2531,415,2215,415Zm-57,927c-160,0-277-136-277-308V951c0-166,111-309,277-309,182,0,257,169,257,351C2415,1170,2335,1342,2158,1342Z"/><path class="cls-1" d="M695,0C231,0,0,334,0,780c0,454,238,789,695,789s695-328,695-789C1390,325,1162,0,695,0ZM905,1256c-61,45-129,69-210,69-264,0-400-264-400-542,0-277,124-536,400-536s402,260,402,536C1097,960,1043,1150,905,1256Z"/></svg>