<svg width="188" height="56" viewBox="0 0 188 56" fill="none" xmlns="http://www.w3.org/2000/svg">
<path d="M19.644 38.392C13.0394 38.392 8.46743 32.2341 8.46743 23.364C8.46743 14.4374 12.9816 8.44897 19.644 8.44897C26.3064 8.44897 30.8206 14.4374 30.8206 23.364C30.8206 32.2341 26.2487 38.392 19.644 38.392ZM19.644 45.4542C31.837 45.4542 39.2881 37.0366 39.2881 23.3075C39.2881 9.5785 31.8934 1.32898 19.644 1.32898C7.39464 1.32898 0 9.5785 0 23.3075C0 37.0366 7.45107 45.4542 19.644 45.4542Z" fill="#111111"/>
<path d="M57.9991 38.9831C53.6176 38.9831 50.3595 35.4557 50.3595 30.7442V28.2672C50.3595 23.5558 53.6123 20.0284 57.9991 20.0284C62.5723 20.0284 65.3432 23.6089 65.3432 29.5051C65.3432 35.4012 62.5723 38.9831 57.9991 38.9831ZM42.6123 55.3526H50.3595C50.3595 50.8026 50.2267 42.9139 50.0906 39.3598H50.1981C51.5969 43.264 55.177 45.4446 60.2588 45.4446C68.2748 45.4446 73.2517 39.3319 73.2517 29.5057C73.2517 19.5978 68.3558 13.5675 60.3126 13.5675C55.1206 13.5675 51.5165 15.7481 50.1981 19.6516H50.0906C50.2791 18.0636 50.3595 16.5016 50.3595 14.4286H42.6123V55.3526Z" fill="#111111"/>
<path d="M88.0032 45.1288C90.9354 45.1288 92.2266 44.8597 93.7063 44.2139V37.8866C92.765 38.2906 91.2587 38.6673 89.2678 38.6673C87.3851 38.6673 86.7664 37.6979 86.7664 35.1133V5.71838H79.0186V36.3252C79.0186 41.6592 82.5968 45.1288 88.0032 45.1288ZM74.7148 20.252H92.8453V14.4363H74.7148V20.252Z" fill="#111111"/>
<path d="M103.569 8.77707C106.581 8.77707 108.491 7.08079 108.491 4.36129C108.491 1.66904 106.581 0 103.569 0C100.556 0 98.6458 1.66904 98.6458 4.36129C98.6458 7.08079 100.556 8.77707 103.569 8.77707ZM99.7491 44.5684H107.496V14.4141H96.4219V20.2524H100.638L99.7491 16.5137V44.5684Z" fill="#111111"/>
<path d="M125.722 45.4553C129.141 45.4559 132.506 44.6046 135.514 42.9783L134.169 36.5706C131.559 37.9705 128.304 38.9937 125.829 38.9937C121.068 38.9937 118.461 35.6284 118.461 29.517C118.461 23.4057 121.07 20.0397 125.805 20.0397C128.333 20.0397 131.722 21.0901 134.169 22.4628L135.514 16.0551C132.206 14.3861 128.977 13.5781 125.641 13.5781C116.414 13.5781 110.551 19.7433 110.551 29.4632C110.55 39.2363 116.468 45.4553 125.722 45.4553Z" fill="#111111"/>
<path d="M149.99 38.9675C147.002 38.9675 145.632 37.0021 145.632 35.1178C145.632 31.8867 149.72 29.7599 156.203 29.5446V34.2839C154.943 37.325 152.706 38.9675 149.99 38.9675ZM147.515 45.429C151.442 45.429 154.993 43.4098 157.145 39.9369H157.252C158.221 43.4098 160.481 45.1599 164.004 45.1599C165.143 45.1644 166.273 44.9639 167.34 44.5679V39.0751C166.964 39.1828 166.372 39.2366 165.995 39.2366C164.623 39.2366 163.951 38.5097 163.951 37.137V23.9441C163.951 16.7829 160.508 13.5538 152.951 13.5538C147.329 13.5538 141.788 15.4926 138.748 18.3191L142.111 23.4618C144.935 21.1197 148.432 19.8267 151.902 19.8267C154.835 19.8267 156.206 21.0386 156.206 23.7309V24.5946C144.798 24.9946 137.882 29.4097 137.882 36.2772C137.882 41.4983 142.027 45.429 147.515 45.429V45.429Z" fill="#111111"/>
<path d="M179.592 45.4297C183.036 45.4297 185.965 44.649 187.957 43.2225V36.7875C186.424 37.9988 183.384 38.9954 181.313 38.9954C178.784 38.9954 177.52 38.026 177.52 35.28V1.07861H169.772V37.1643C169.774 42.1721 173.621 45.4297 179.592 45.4297Z" fill="#111111"/>
</svg>
