<svg width="1000" height="283" viewBox="0 0 1000 283" fill="none" xmlns="http://www.w3.org/2000/svg">
<g clip-path="url(#clip0_2339_16595)">
<g clip-path="url(#clip1_2339_16595)">
<path d="M191.248 0.193359H189.142V76.0517H191.248V0.193359Z" fill="#111111"/>
<path d="M0.821289 5.75781H12.257V8.26535H3.72761V12.6061H11.204V14.9662H3.72761V22.3202H0.821289V5.75781Z" fill="#111111"/>
<path d="M24.7251 22.3199H22.1136V20.6342C21.7804 21.2546 21.2896 21.7762 20.6905 22.1461C20.0915 22.5161 19.4055 22.7214 18.7018 22.7413C15.5849 22.7413 14.2371 21.161 14.2371 18.0423V10.3301H16.8485V17.6841C16.8485 19.7913 17.712 20.5499 19.1441 20.5499C21.3554 20.5499 22.0925 19.1381 22.0925 17.2838V10.3301H24.7461L24.7251 22.3199Z" fill="#111111"/>
<path d="M27.5049 10.327H29.99V12.097C30.378 11.4502 30.9277 10.9156 31.5851 10.5461C32.2425 10.1766 32.9847 9.98488 33.7387 9.98987C34.2965 9.92544 34.8617 9.9858 35.3933 10.1666C35.9249 10.3474 36.4098 10.6441 36.8129 11.0352C37.2159 11.4264 37.5271 11.9023 37.7239 12.4284C37.9206 12.9546 37.9982 13.518 37.9508 14.0778V22.3168H35.3814V14.7732C35.3814 12.8978 34.5811 12.097 33.0227 12.097C32.6167 12.0979 32.2153 12.1838 31.8445 12.3494C31.4737 12.5149 31.1417 12.7563 30.8699 13.0581C30.5981 13.3598 30.3924 13.7152 30.2663 14.1014C30.1401 14.4875 30.0962 14.8958 30.1374 15.2999V22.3801H27.5049V10.327Z" fill="#111111"/>
<path d="M52.0825 22.3202H49.5763V20.6977C49.1991 21.3331 48.6526 21.851 47.998 22.1933C47.3434 22.5357 46.6064 22.6891 45.8697 22.6363C42.0788 22.6363 40.2466 19.8337 40.2466 16.3148C40.2466 11.9951 42.8159 9.99323 45.4485 9.99323C46.2172 9.95366 46.9836 10.1063 47.6786 10.4374C48.3735 10.7685 48.975 11.2677 49.4289 11.8897V11.8897V5.75781H52.0825V22.3202ZM46.1645 20.5502C48.5233 20.5502 49.5342 18.443 49.5342 16.3358C49.5342 13.6808 48.2495 12.1215 46.2066 12.1215C43.7426 12.1215 42.8581 14.2287 42.8581 16.4623C42.8581 18.6959 43.8689 20.5502 46.1645 20.5502Z" fill="#111111"/>
<path d="M57.0101 17.0096C56.959 17.4601 57.0047 17.9163 57.1442 18.3477C57.2836 18.7791 57.5136 19.1757 57.8187 19.5109C58.1238 19.8461 58.497 20.1122 58.9133 20.2913C59.3296 20.4705 59.7793 20.5586 60.2323 20.5497C60.8875 20.5987 61.5389 20.414 62.0709 20.0283C62.6029 19.6425 62.9812 19.0807 63.1386 18.4425H65.6448C65.3764 19.6568 64.6839 20.7356 63.6918 21.4849C62.6998 22.2342 61.4731 22.6049 60.2323 22.5304C59.4136 22.5629 58.5975 22.4179 57.8399 22.1055C57.0823 21.793 56.4012 21.3204 55.8432 20.7201C55.2852 20.1197 54.8634 19.4058 54.6068 18.6271C54.3502 17.8485 54.2648 17.0236 54.3565 16.2089C54.2714 15.3711 54.3691 14.5247 54.6429 13.7283C54.9168 12.932 55.3602 12.2046 55.9426 11.5966C56.5249 10.9886 57.2324 10.5143 58.0159 10.2066C58.7994 9.89899 59.6404 9.76527 60.4807 9.81472C61.3209 9.86418 62.1404 10.0956 62.8825 10.4931C63.6246 10.8905 64.2715 11.4445 64.7786 12.1167C65.2857 12.7888 65.6409 13.5632 65.8195 14.3862C65.9982 15.2091 65.996 16.0611 65.8133 16.8832L57.0101 17.0096ZM63.1808 15.3028C63.1808 14.4869 62.8568 13.7044 62.2802 13.1274C61.7035 12.5505 60.9215 12.2263 60.106 12.2263C59.2905 12.2263 58.5084 12.5505 57.9318 13.1274C57.3551 13.7044 57.0312 14.4869 57.0312 15.3028H63.1808Z" fill="#111111"/>
<path d="M79.1021 22.3202H76.617V20.6977C76.2416 21.3348 75.6955 21.854 75.0404 22.1966C74.3853 22.5393 73.6475 22.6915 72.9104 22.6363C69.1406 22.6363 67.3083 19.8337 67.3083 16.3148C67.3083 11.9951 69.8777 9.99324 72.4892 9.99324C73.2611 9.95201 74.0311 10.1038 74.7297 10.4349C75.4283 10.766 76.0335 11.266 76.4906 11.8897V5.75781H79.1232L79.1021 22.3202ZM73.2052 20.5502C75.564 20.5502 76.5538 18.443 76.5538 16.3358C76.5538 13.6808 75.2902 12.1215 73.2473 12.1215C70.7622 12.1215 69.8777 14.2287 69.8777 16.4623C69.8777 18.6959 70.9097 20.5502 73.2052 20.5502V20.5502Z" fill="#111111"/>
<path d="M88.4529 5.75781H91.0854V11.8897C91.488 11.3111 92.023 10.8371 92.6458 10.5072C93.2685 10.1773 93.9611 10.0011 94.6657 9.99323C98.4354 9.99323 100.268 12.8801 100.268 16.3148C100.268 19.7495 98.646 22.6363 95.1079 22.6363C94.2911 22.7588 93.4564 22.6383 92.7075 22.2899C91.9586 21.9415 91.3286 21.3805 90.8959 20.6766V20.6766V22.3202H88.4529V5.75781ZM94.3498 12.0793C92.2437 12.0793 91.0012 13.7651 91.0012 16.2937C91.0012 18.8223 92.2227 20.508 94.3498 20.508C96.4768 20.508 97.6773 18.4009 97.6773 16.2937C97.6773 14.1865 96.5821 12.1004 94.3919 12.1004L94.3498 12.0793Z" fill="#111111"/>
<path d="M101.258 10.3301H104.143L107.281 19.2856L110.356 10.3301H113.115L108.461 22.9731C107.597 25.0803 106.986 27.0821 104.249 27.0821C103.636 27.0834 103.023 27.0412 102.416 26.9557V24.701C102.826 24.7895 103.241 24.8459 103.659 24.8696C104.88 24.8696 105.196 24.2164 105.512 23.1838L105.807 22.2567L101.258 10.3301Z" fill="#111111"/>
<path d="M119.833 10.3279H121.939V6.72461H124.466V10.3279H126.846V12.2876H124.466V18.6091C124.466 19.7048 124.466 20.2527 125.751 20.2527C126.115 20.2945 126.482 20.2945 126.846 20.2527V22.3599C126.277 22.3599 125.709 22.4863 125.14 22.4863C122.381 22.4863 121.876 21.4327 121.834 19.4309V12.2876H119.728L119.833 10.3279Z" fill="#111111"/>
<path d="M128.763 5.75781H131.395V11.9108C131.784 11.3121 132.318 10.8221 132.948 10.4867C133.578 10.1513 134.283 9.98147 134.997 9.99323C135.554 9.92881 136.119 9.98917 136.651 10.17C137.183 10.3507 137.668 10.6474 138.071 11.0386C138.474 11.4298 138.785 11.9056 138.982 12.4318C139.178 12.958 139.256 13.5213 139.209 14.0812V22.3202H136.639V14.7765C136.639 12.9011 135.839 12.1004 134.28 12.1004C133.874 12.1013 133.473 12.1872 133.102 12.3527C132.732 12.5183 132.4 12.7597 132.128 13.0615C131.856 13.3632 131.65 13.7186 131.524 14.1047C131.398 14.4909 131.354 14.8992 131.395 15.3033V22.3834H128.763V5.75781Z" fill="#111111"/>
<path d="M144.116 17.0078C144.063 17.4656 144.111 17.9292 144.255 18.3668C144.4 18.8043 144.637 19.2053 144.952 19.5419C145.266 19.8785 145.65 20.1428 146.077 20.3165C146.503 20.4902 146.962 20.5691 147.422 20.5478C148.077 20.5969 148.729 20.4121 149.261 20.0264C149.793 19.6407 150.171 19.0789 150.329 18.4407H152.835C152.588 19.6745 151.905 20.7778 150.911 21.5482C149.917 22.3185 148.678 22.704 147.422 22.6339C146.604 22.6664 145.787 22.5215 145.03 22.209C144.272 21.8965 143.591 21.4239 143.033 20.8236C142.475 20.2232 142.053 19.5093 141.797 18.7307C141.54 17.952 141.455 17.1271 141.546 16.3124C141.461 15.4746 141.559 14.6282 141.833 13.8319C142.107 13.0355 142.55 12.3082 143.133 11.7001C143.715 11.0921 144.422 10.6178 145.206 10.3102C145.989 10.0025 146.83 9.86879 147.671 9.91824C148.511 9.96769 149.33 10.1991 150.072 10.5966C150.815 10.994 151.461 11.548 151.969 12.2202C152.476 12.8923 152.831 13.6667 153.009 14.4897C153.188 15.3126 153.186 16.1646 153.003 16.9867L144.116 17.0078ZM150.265 15.301C150.265 14.485 149.941 13.7025 149.365 13.1256C148.788 12.5486 148.006 12.2245 147.191 12.2245C146.375 12.2245 145.593 12.5486 145.016 13.1256C144.44 13.7025 144.116 14.485 144.116 15.301H150.265Z" fill="#111111"/>
<path d="M37.5922 45.4979H35.8021L35.3598 43.5382C34.7832 44.3023 34.0294 44.9145 33.1635 45.322C32.2976 45.7295 31.3456 45.92 30.3896 45.8772C25.4404 45.8772 22.4709 41.9367 22.4709 37.2167C22.4709 32.4966 25.4404 28.5351 30.3896 28.5351C32.0759 28.392 33.7518 28.9096 35.0641 29.9789C36.3763 31.0481 37.2224 32.5854 37.4237 34.2666H34.5806C34.4245 33.2871 33.9031 32.4033 33.1215 31.7933C32.3398 31.1832 31.356 30.8924 30.3685 30.9794C26.8304 30.9794 25.3351 34.0981 25.3351 37.301C25.3351 40.5039 26.8304 43.6225 30.3685 43.6225C30.9855 43.6868 31.6091 43.614 32.1947 43.4093C32.7803 43.2045 33.3134 42.8729 33.7561 42.438C34.1987 42.0032 34.5399 41.4759 34.7552 40.8939C34.9706 40.3118 35.0548 39.6894 35.0018 39.071H30.5581V36.9638H37.5922V45.4979Z" fill="#111111"/>
<path d="M39.8251 39.4922C39.7488 38.6664 39.8506 37.8338 40.1235 37.0507C40.3964 36.2677 40.8342 35.5523 41.4072 34.953C41.9802 34.3538 42.6751 33.8845 43.4449 33.577C44.2147 33.2696 45.0415 33.131 45.8694 33.1707C46.6974 33.131 47.5242 33.2696 48.294 33.577C49.0638 33.8845 49.7587 34.3538 50.3317 34.953C50.9047 35.5523 51.3424 36.2677 51.6154 37.0507C51.8883 37.8338 51.99 38.6664 51.9137 39.4922C51.9936 40.3188 51.8944 41.1529 51.6227 41.9376C51.3511 42.7223 50.9135 43.4391 50.3397 44.0391C49.766 44.6392 49.0696 45.1084 48.2982 45.4146C47.5267 45.7209 46.6983 45.857 45.8694 45.8138C45.0406 45.857 44.2122 45.7209 43.4407 45.4146C42.6692 45.1084 41.9729 44.6392 41.3991 44.0391C40.8254 43.4391 40.3878 42.7223 40.1161 41.9376C39.8445 41.1529 39.7452 40.3188 39.8251 39.4922V39.4922ZM49.2812 39.4922C49.2812 37.3851 48.2282 35.2779 45.8694 35.2779C43.5107 35.2779 42.4577 37.3851 42.4577 39.4922C42.4577 41.5994 43.5107 43.7066 45.8694 43.7066C48.2282 43.7066 49.2812 41.5783 49.2812 39.4922Z" fill="#111111"/>
<path d="M52.9243 33.5074H55.8096L58.8423 42.6947L61.7696 33.4863H64.5075L60.2954 45.4762H57.2838L52.9243 33.5074Z" fill="#111111"/>
<path d="M68.1938 40.1869C68.1427 40.6374 68.1884 41.0936 68.3278 41.525C68.4673 41.9564 68.6973 42.3529 69.0024 42.6881C69.3075 43.0234 69.6807 43.2894 70.097 43.4686C70.5132 43.6478 70.9629 43.7358 71.416 43.7269C72.0605 43.7865 72.7057 43.6191 73.2401 43.2536C73.7745 42.8882 74.1647 42.3476 74.3434 41.7251H76.8495C76.5767 42.9412 75.8801 44.0203 74.8845 44.7694C73.8889 45.5184 72.6593 45.8884 71.416 45.813C70.598 45.846 69.7826 45.7011 69.0259 45.3885C68.2692 45.0759 67.5892 44.6029 67.0328 44.0021C66.4763 43.4013 66.0567 42.6869 65.8026 41.9083C65.5486 41.1296 65.4662 40.3051 65.5612 39.4915C65.4866 38.6614 65.5919 37.8249 65.8698 37.0392C66.1477 36.2535 66.5917 35.537 67.1716 34.9386C67.7515 34.3402 68.4536 33.8741 69.2299 33.5719C70.0063 33.2698 70.8387 33.1387 71.6702 33.1878C72.5018 33.2368 73.313 33.4647 74.0486 33.856C74.7841 34.2474 75.4266 34.7928 75.9322 35.4552C76.4378 36.1176 76.7947 36.8813 76.9784 37.6942C77.1622 38.5072 77.1685 39.3502 76.997 40.1658L68.1938 40.1869ZM74.3644 38.4801C74.3997 38.0532 74.3461 37.6237 74.2071 37.2187C74.068 36.8136 73.8466 36.4418 73.5566 36.1267C73.2667 35.8116 72.9146 35.5601 72.5226 35.3881C72.1306 35.2161 71.7072 35.1273 71.2791 35.1273C70.851 35.1273 70.4276 35.2161 70.0356 35.3881C69.6436 35.5601 69.2915 35.8116 69.0016 36.1267C68.7116 36.4418 68.4902 36.8136 68.3511 37.2187C68.2121 37.6237 68.1585 38.0532 68.1938 38.4801H74.3644Z" fill="#111111"/>
<path d="M79.0178 33.5071H81.5029V35.825C81.7465 35.0791 82.2116 34.4253 82.8363 33.9509C83.461 33.4765 84.2154 33.204 84.9989 33.1699C85.3283 33.1413 85.6595 33.1413 85.9888 33.1699V35.7196C85.6124 35.6555 85.2327 35.6133 84.8515 35.5932C83.0614 35.5932 81.6082 37.0682 81.6082 39.7022V45.4126H79.0178V33.5071Z" fill="#111111"/>
<path d="M87.5901 33.5087H90.0963V35.2787C90.4726 34.6261 91.0169 34.0865 91.6726 33.7159C92.3282 33.3453 93.0711 33.1573 93.8239 33.1715C94.3817 33.1071 94.9469 33.1674 95.4785 33.3482C96.0102 33.529 96.495 33.8257 96.8981 34.2169C97.3011 34.608 97.6123 35.0839 97.8091 35.6101C98.0059 36.1363 98.0834 36.6996 98.036 37.2594V45.4985H95.4666V37.9548C95.4666 36.0794 94.6663 35.2787 93.1289 35.2787C92.7221 35.2798 92.32 35.3658 91.9482 35.5311C91.5765 35.6964 91.2433 35.9375 90.9698 36.2388C90.6963 36.5402 90.4887 36.8953 90.36 37.2814C90.2314 37.6676 90.1846 38.0763 90.2226 38.4816V45.5617H87.5901V33.5087Z" fill="#111111"/>
<path d="M100.879 33.5063H103.385V35.171C103.758 34.532 104.298 34.0076 104.948 33.6547C105.598 33.3017 106.332 33.1338 107.071 33.1691C107.77 33.1128 108.47 33.2751 109.074 33.6337C109.677 33.9922 110.155 34.5294 110.44 35.171C110.843 34.545 111.398 34.0325 112.054 33.6821C112.711 33.3317 113.445 33.1551 114.189 33.1691C114.737 33.0854 115.298 33.1327 115.824 33.3071C116.351 33.4815 116.829 33.7781 117.219 34.1727C117.609 34.5672 117.901 35.0485 118.07 35.5772C118.238 36.1059 118.28 36.6671 118.19 37.2149V45.4961H115.621V38.4792C115.621 36.5828 115.495 35.2763 113.515 35.2763C111.535 35.2763 110.883 36.3721 110.883 38.4792V45.5172H108.25V37.7839C108.25 36.1403 107.745 35.2763 106.144 35.2763C105.754 35.2921 105.371 35.3906 105.022 35.5652C104.673 35.7399 104.364 35.9868 104.118 36.2895C103.871 36.5923 103.691 36.9441 103.59 37.3215C103.489 37.699 103.47 38.0936 103.532 38.4792V45.6015H100.879V33.5063Z" fill="#111111"/>
<path d="M123.097 40.1869C123.045 40.641 123.092 41.1009 123.234 41.5353C123.376 41.9698 123.61 42.3685 123.919 42.7044C124.229 43.0403 124.608 43.3055 125.029 43.482C125.45 43.6584 125.905 43.742 126.361 43.7269C127.006 43.7865 127.651 43.6191 128.185 43.2536C128.72 42.8882 129.11 42.3476 129.289 41.7251H131.795C131.518 42.9391 130.821 44.0158 129.826 44.7641C128.831 45.5124 127.604 45.8841 126.361 45.813C125.543 45.846 124.728 45.7012 123.971 45.3885C123.215 45.0759 122.535 44.6029 121.978 44.0021C121.422 43.4013 121.002 42.6869 120.748 41.9083C120.494 41.1296 120.412 40.3051 120.507 39.4915C120.432 38.6614 120.537 37.8249 120.815 37.0392C121.093 36.2535 121.537 35.537 122.117 34.9386C122.697 34.3402 123.399 33.8741 124.175 33.5719C124.952 33.2698 125.784 33.1387 126.616 33.1878C127.447 33.2368 128.258 33.4647 128.994 33.8561C129.729 34.2474 130.372 34.7928 130.877 35.4552C131.383 36.1176 131.74 36.8813 131.924 37.6942C132.108 38.5072 132.114 39.3502 131.942 40.1658L123.097 40.1869ZM129.268 38.4801C129.303 38.0532 129.249 37.6237 129.11 37.2187C128.971 36.8136 128.75 36.4418 128.46 36.1267C128.17 35.8116 127.818 35.5601 127.426 35.3881C127.034 35.2161 126.61 35.1273 126.182 35.1273C125.754 35.1273 125.331 35.2161 124.939 35.3881C124.547 35.5601 124.195 35.8116 123.905 36.1267C123.615 36.4418 123.393 36.8136 123.254 37.2187C123.115 37.6237 123.062 38.0532 123.097 38.4801H129.268Z" fill="#111111"/>
<path d="M133.923 33.5087H136.429V35.2787C136.805 34.6261 137.349 34.0865 138.005 33.7159C138.661 33.3453 139.404 33.1573 140.156 33.1715C140.714 33.1071 141.279 33.1674 141.811 33.3482C142.343 33.529 142.828 33.8257 143.231 34.2169C143.634 34.608 143.945 35.0839 144.142 35.6101C144.338 36.1363 144.416 36.6996 144.369 37.2594V45.4985H141.799V37.9548C141.799 36.0794 140.999 35.2787 139.461 35.2787C139.055 35.2798 138.653 35.3658 138.281 35.5311C137.909 35.6964 137.576 35.9375 137.302 36.2388C137.029 36.5402 136.821 36.8953 136.693 37.2814C136.564 37.6676 136.517 38.0763 136.555 38.4816V45.5617H133.923V33.5087Z" fill="#111111"/>
<path d="M146.01 33.5056H148.116V29.9023H150.749V33.5056H153.129V35.4653H150.644V41.7868C150.644 42.8825 150.644 43.4304 151.928 43.4304C152.292 43.4722 152.66 43.4722 153.023 43.4304V45.5376C152.455 45.5376 151.886 45.664 151.318 45.664C148.559 45.664 148.053 44.6104 148.011 42.6086V35.4653H145.905L146.01 33.5056Z" fill="#111111"/>
<path d="M44.079 62.6719C44.0027 61.8461 44.1045 61.0135 44.3774 60.2304C44.6503 59.4473 45.0881 58.732 45.6611 58.1327C46.2341 57.5334 46.929 57.0642 47.6988 56.7567C48.4686 56.4493 49.2954 56.3107 50.1233 56.3504C50.9513 56.3107 51.7781 56.4493 52.5479 56.7567C53.3177 57.0642 54.0126 57.5334 54.5856 58.1327C55.1586 58.732 55.5963 59.4473 55.8693 60.2304C56.1422 61.0135 56.2439 61.8461 56.1676 62.6719C56.2475 63.4985 56.1483 64.3326 55.8766 65.1173C55.605 65.9019 55.1674 66.6188 54.5936 67.2188C54.0199 67.8189 53.3235 68.288 52.5521 68.5943C51.7806 68.9006 50.9522 69.0367 50.1233 68.9934C49.2954 69.0332 48.4686 68.8946 47.6988 68.5871C46.929 68.2796 46.2341 67.8104 45.6611 67.2111C45.0881 66.6119 44.6503 65.8965 44.3774 65.1134C44.1045 64.3303 44.0027 63.4977 44.079 62.6719V62.6719ZM53.5351 62.6719C53.5351 60.5647 52.4821 58.4576 50.1233 58.4576C47.7646 58.4576 46.7116 60.5647 46.7116 62.6719C46.7116 64.7791 47.7646 66.8863 50.1233 66.8863C52.4821 66.8863 53.5351 64.758 53.5351 62.6719Z" fill="#111111"/>
<path d="M57.1997 56.6865H59.1583V55.6961C59.1583 52.6197 60.7589 52.1139 62.4858 52.1139C63.1084 52.087 63.7317 52.1437 64.3391 52.2825V54.3897C63.935 54.277 63.5159 54.2272 63.0966 54.2422C62.3805 54.2422 61.8119 54.495 61.8119 55.5065V56.7286H64.0443V58.6883H61.8119V68.7185H59.1583V58.6462H57.1997V56.6865Z" fill="#111111"/>
<path d="M83.6517 57.4456C83.491 56.4684 82.9684 55.5875 82.1879 54.9783C81.4073 54.3692 80.4262 54.0765 79.4397 54.1585C75.9015 54.1585 74.4063 57.2771 74.4063 60.48C74.4063 63.6829 75.9015 66.8015 79.4397 66.8015C80.0036 66.8018 80.5618 66.6887 81.0813 66.469C81.6007 66.2494 82.0708 65.9276 82.4636 65.5228C82.8564 65.118 83.164 64.6383 83.3681 64.1123C83.5722 63.5863 83.6686 63.0247 83.6517 62.4607H86.4948C86.4843 63.3682 86.292 64.2643 85.9292 65.096C85.5664 65.9278 85.0405 66.6782 84.3827 67.303C83.7248 67.9278 82.9484 68.4142 82.0994 68.7334C81.2503 69.0527 80.3459 69.1982 79.4397 69.1615C74.4905 69.1615 71.521 65.2211 71.521 60.501C71.521 55.781 74.4905 51.8195 79.4397 51.8195C81.1257 51.6404 82.8148 52.1289 84.1453 53.1805C85.4757 54.2321 86.3418 55.7631 86.558 57.4456H83.6517Z" fill="#111111"/>
<path d="M98.9833 65.9993C98.9833 66.6526 99.1096 66.9054 99.594 66.9054C99.8113 66.9232 100.03 66.9232 100.247 66.9054V68.7387C99.7057 68.9016 99.1473 69.0006 98.5831 69.0337C97.509 69.0337 96.7509 68.6544 96.4771 67.5797C95.3031 68.5723 93.801 69.0908 92.265 69.0337C91.7534 69.1148 91.2303 69.0858 90.7308 68.9486C90.2312 68.8114 89.7666 68.5693 89.368 68.2382C88.9694 67.9072 88.6459 67.4949 88.4192 67.0289C88.1924 66.5629 88.0676 66.0539 88.053 65.5358C88.053 62.5436 90.4538 62.0589 92.6652 61.8061C94.8765 61.5532 96.2665 61.6586 96.2665 60.0993C96.2665 58.5399 94.8554 58.4978 93.7814 58.4978C92.3072 58.4978 91.2541 59.0878 91.1488 60.3943H88.6216C88.8111 57.2967 91.4226 56.3906 94.0762 56.3906C96.4139 56.3906 98.878 57.3599 98.878 59.8885L98.9833 65.9993ZM96.3297 62.67C95.2986 63.0963 94.201 63.3388 93.0864 63.3864C91.9491 63.5761 90.9804 63.9765 90.9804 65.3672C90.9804 66.7579 92.4756 66.9054 93.4023 66.9054C94.3289 66.9054 96.3718 66.2943 96.3718 64.6297L96.3297 62.67Z" fill="#111111"/>
<path d="M101.721 56.6844H104.227V58.4545C104.603 57.8019 105.148 57.2622 105.803 56.8916C106.459 56.521 107.202 56.3331 107.955 56.3473C108.513 56.2829 109.078 56.3432 109.609 56.524C110.141 56.7048 110.626 57.0015 111.029 57.3927C111.432 57.7838 111.743 58.2597 111.94 58.7859C112.137 59.3121 112.214 59.8754 112.167 60.4352V68.6743H109.513V61.1306C109.513 59.2552 108.713 58.4545 107.176 58.4545C106.776 58.4671 106.383 58.5615 106.021 58.7319C105.659 58.9022 105.336 59.145 105.072 59.4451C104.808 59.7452 104.607 60.0963 104.484 60.4768C104.36 60.8573 104.316 61.2591 104.353 61.6574V68.7375H101.721V56.6844Z" fill="#111111"/>
<path d="M125.056 65.9993C125.056 66.6526 125.182 66.9054 125.667 66.9054C125.884 66.9232 126.102 66.9232 126.32 66.9054V68.7387C125.778 68.9016 125.22 69.0006 124.656 69.0337C123.582 69.0337 122.824 68.6544 122.55 67.5797C121.376 68.5723 119.874 69.0908 118.338 69.0337C117.826 69.1148 117.303 69.0858 116.804 68.9486C116.304 68.8114 115.839 68.5693 115.441 68.2382C115.042 67.9072 114.719 67.4949 114.492 67.0289C114.265 66.5629 114.14 66.0539 114.126 65.5358C114.126 62.5436 116.527 62.0589 118.738 61.8061C120.949 61.5532 122.339 61.6586 122.339 60.0993C122.339 58.5399 120.928 58.4978 119.854 58.4978C118.38 58.4978 117.327 59.0878 117.222 60.3943H114.8C114.989 57.2967 117.601 56.3906 120.254 56.3906C122.908 56.3906 125.056 57.3599 125.056 59.8885V65.9993ZM122.402 62.67C121.371 63.0963 120.274 63.3388 119.159 63.3864C118.022 63.5761 117.053 63.9765 117.053 65.3672C117.053 66.7579 118.548 66.9054 119.475 66.9054C120.402 66.9054 122.445 66.2943 122.445 64.6297L122.402 62.67Z" fill="#111111"/>
<path d="M139.187 68.6757H136.681V67.0532C136.304 67.6886 135.758 68.2064 135.103 68.5488C134.448 68.8912 133.711 69.0446 132.975 68.9918C129.184 68.9918 127.352 66.1892 127.352 62.6702C127.352 58.3505 129.921 56.3487 132.553 56.3487C133.322 56.3091 134.089 56.4618 134.784 56.7929C135.478 57.124 136.08 57.6231 136.534 58.2452V52.1133H139.187V68.6757ZM133.269 66.9057C135.628 66.9057 136.639 64.7985 136.639 62.6913C136.639 60.0363 135.354 58.477 133.312 58.477C130.848 58.477 129.963 60.5841 129.963 62.8177C129.963 65.0513 130.974 66.9057 133.269 66.9057Z" fill="#111111"/>
<path d="M152.077 65.9993C152.077 66.6526 152.224 66.9054 152.709 66.9054C152.926 66.9232 153.144 66.9232 153.361 66.9054V68.7387C152.82 68.8998 152.262 68.9987 151.698 69.0337C150.624 69.0337 149.865 68.6544 149.592 67.5797C148.411 68.5601 146.913 69.0769 145.38 69.0337C144.868 69.1148 144.345 69.0858 143.845 68.9486C143.346 68.8114 142.881 68.5693 142.483 68.2382C142.084 67.9072 141.76 67.4949 141.534 67.0289C141.307 66.5629 141.182 66.0539 141.167 65.5358C141.167 62.5436 143.547 62.0589 145.78 61.8061C147.675 61.4478 149.381 61.6586 149.381 60.0993C149.381 58.5399 147.949 58.4978 146.896 58.4978C145.401 58.4978 144.369 59.0878 144.242 60.3943H141.841C142.031 57.2967 144.642 56.3906 147.296 56.3906C149.95 56.3906 152.077 57.3599 152.077 59.8885V65.9993ZM149.528 62.67C148.497 63.0938 147.399 63.3362 146.285 63.3864C145.148 63.5761 144.179 63.9765 144.179 65.3672C144.179 66.7579 145.674 66.9054 146.601 66.9054C147.528 66.9054 149.528 66.2943 149.528 64.6297V62.67Z" fill="#111111"/>
<path d="M421.921 12.0765C421.921 11.5708 421.921 10.2643 420.363 10.2854C418.804 10.3065 408.843 10.8333 408.148 10.8965C407.453 10.9597 406.905 11.6551 408.148 11.7604C409.39 11.8658 414.718 12.2872 414.718 21.1163C414.718 21.7063 414.718 55.1893 414.718 50.0267C414.845 60.7523 410.717 64.5662 406.105 64.5452C398.86 64.5452 395.027 55.8636 395.027 47.5613C395.027 38.353 400.166 32.2632 405.557 32.5793C413.013 33.0218 414.613 39.1326 414.634 50.0057V31.9682C414.634 34.0754 414.634 34.4758 413.687 33.7172C410.93 31.8375 407.691 30.7915 404.357 30.7039C402.055 30.6499 399.766 31.0608 397.627 31.9121C395.488 32.7634 393.542 34.0376 391.907 35.6585C390.271 37.2794 388.979 39.2137 388.107 41.3458C387.236 43.4778 386.803 45.7638 386.835 48.0671C386.835 60.5205 395.68 66.4627 404.82 66.4627C407.916 66.404 410.932 65.4688 413.518 63.7655C414.782 62.9859 414.676 63.0491 414.908 64.208C415.14 65.367 414.908 66.6734 417.225 66.4627C419.541 66.252 425.649 65.4723 426.912 65.2195C428.176 64.9666 427.797 64.208 426.744 64.0816C426.007 64.0816 421.921 64.482 421.921 51.8389V12.0765Z" fill="#111111"/>
<path d="M266.581 12.4148C267.192 12.6255 269.108 13.363 269.719 11.9302C269.829 11.6083 269.97 11.2978 270.14 11.003C270.435 10.2866 271.846 9.69655 272.141 11.3612C272.436 13.0259 273.384 27.3336 273.426 28.0922C273.456 28.2519 273.453 28.4163 273.416 28.5747C273.379 28.733 273.309 28.8818 273.21 29.0113C273.112 29.1408 272.988 29.2482 272.845 29.3264C272.703 29.4046 272.545 29.452 272.383 29.4654C272.221 29.4788 272.058 29.4579 271.905 29.4041C271.752 29.3503 271.611 29.2648 271.493 29.1532C271.375 29.0416 271.281 28.9063 271.219 28.7562C271.156 28.606 271.126 28.4444 271.13 28.2818C270.962 26.1747 266.539 11.5509 254.471 11.7827C243.71 12.0144 236.633 24.4257 237.055 40.5667C237.434 55.6119 244.678 63.8931 256.577 63.7456C268.034 63.5138 271.32 54.7901 272.899 49.4589C273.615 47.2464 275.658 47.8575 275.174 49.8804C274.208 54.7057 271.56 59.0307 267.703 62.0836C263.845 65.1366 259.029 66.7189 254.113 66.5481C250.456 66.6071 246.825 65.9351 243.431 64.5717C240.037 63.2082 236.949 61.1806 234.348 58.6078C231.747 56.035 229.686 52.9687 228.284 49.5886C226.883 46.2084 226.17 42.5824 226.187 38.9231C225.829 20.6539 240.256 10.0548 254.514 9.75977C258.68 9.76979 262.795 10.6752 266.581 12.4148V12.4148Z" fill="#111111"/>
<path d="M434.979 10.5801H426.302V27.9221H434.979V10.5801Z" fill="#111111"/>
<path d="M443.971 26.5952C443.971 26.5952 443.866 23.6662 443.866 23.3923C443.866 23.1184 444.098 22.9919 444.393 23.0552L447.404 23.6662L447.067 22.6548C446.92 22.2123 447.067 22.128 447.215 22.0437L450.247 19.3887L449.763 19.1569C449.489 19.0305 449.531 18.7776 449.573 18.609L450.1 16.7336C450.1 16.7336 448.836 17.0286 448.541 17.0708C448.247 17.1129 448.226 17.0708 448.141 16.839L447.762 15.9329L446.162 17.6819C445.867 17.9558 445.572 17.6819 445.635 17.429C445.698 17.1761 446.435 13.6782 446.435 13.6782L445.34 14.3315C445.067 14.5 444.919 14.479 444.772 14.205C444.624 13.9311 443.592 11.9082 443.592 11.9082C443.592 11.9082 442.581 14.0154 442.434 14.205C442.287 14.3947 442.139 14.5 441.865 14.3315L440.77 13.6782C440.77 13.6782 441.528 17.134 441.57 17.429C441.613 17.724 441.339 17.9558 441.023 17.6819L439.443 15.9329L439.064 16.839C439.064 17.0076 438.896 17.1129 438.664 17.0708L437.043 16.7336L437.632 18.609C437.656 18.6585 437.67 18.7124 437.673 18.7675C437.675 18.8225 437.666 18.8775 437.646 18.9289C437.627 18.9804 437.596 19.0271 437.558 19.0664C437.519 19.1056 437.473 19.1364 437.422 19.1569L436.937 19.3887L439.991 22.0437C440.096 22.0437 440.286 22.2123 440.138 22.6548L439.78 23.6662L442.813 23.0552C443.108 23.0552 443.34 23.0552 443.34 23.3923C443.34 23.7295 443.34 26.5952 443.34 26.5952H443.971Z" fill="#111111"/>
<path d="M460.967 10.5801H452.29V27.9221H460.967V10.5801Z" fill="#111111"/>
<path d="M295.392 40.7135C295.392 44.3379 294.823 45.4336 292.591 46.5293C289.855 47.4927 287.034 48.1982 284.167 48.6365C281.871 49.1633 275.385 50.7437 275.532 57.6131C275.68 64.4825 282.293 66.6107 286.947 66.4843C289.974 66.4714 292.905 65.4146 295.245 63.4921C295.94 62.9232 295.876 63.0707 296.445 63.7239C297.501 64.7515 298.767 65.5379 300.156 66.029C301.545 66.5201 303.023 66.7042 304.49 66.5686C309.734 66.5686 310.513 64.061 310.808 63.2814C311.103 62.5017 310.113 61.701 309.734 62.6282C309.508 63.2087 309.111 63.7069 308.596 64.0568C308.081 64.4067 307.472 64.5919 306.849 64.5878C305.838 64.5878 302.847 64.335 302.826 56.6648V39.8496C302.826 34.687 298.888 30.4727 288.484 30.4727C277.301 30.4727 277.238 35.9935 277.175 37.3631C277.112 38.7328 277.891 40.545 280.713 40.566C283.535 40.5871 283.851 37.8056 284.209 36.752C284.567 35.6985 284.651 32.2427 289.179 32.327C293.054 32.327 295.497 35.7195 295.497 40.566V55.3163C295.497 60.4367 292.865 64.5035 288.969 64.5035C288.202 64.5321 287.437 64.4046 286.721 64.1285C286.005 63.8525 285.352 63.4338 284.803 62.8979C284.254 62.3619 283.819 61.7198 283.525 61.0106C283.231 60.3014 283.084 59.5398 283.093 58.772C283.187 56.9968 283.755 55.2791 284.736 53.7971C285.717 52.315 287.077 51.1226 288.674 50.3433C290.682 49.1564 292.797 48.1616 294.992 47.3722C295.35 47.3722 295.518 47.3722 295.518 48.2361L295.392 40.7135Z" fill="#111111"/>
<path d="M372.45 40.7132C372.45 44.3376 371.882 45.4333 369.649 46.529C366.913 47.4937 364.093 48.1992 361.225 48.6362C358.909 49.163 352.422 50.7434 352.569 57.6128C352.717 64.4822 359.351 66.6104 363.984 66.484C367.012 66.4711 369.942 65.4143 372.282 63.4918C372.977 62.9229 372.914 63.0704 373.503 63.7236C374.553 64.7542 375.815 65.5429 377.201 66.0343C378.587 66.5256 380.063 66.7079 381.527 66.5683C386.771 66.5683 387.55 64.0607 387.845 63.2811C388.14 62.5014 387.15 61.7007 386.75 62.6279C386.524 63.2084 386.127 63.7066 385.612 64.0565C385.097 64.4064 384.488 64.5916 383.865 64.5875C382.854 64.5875 379.885 64.3347 379.863 56.6645C379.863 56.6645 379.863 40.8607 379.863 39.9336C379.863 34.771 375.946 30.5566 365.543 30.5566C354.338 30.5566 354.296 36.0774 354.212 37.4471C354.128 38.8168 354.949 40.6289 357.75 40.65C360.551 40.6711 360.888 37.8896 361.246 36.836C361.604 35.7824 361.71 32.3267 366.216 32.411C370.092 32.411 372.534 35.8035 372.534 40.65V55.4002C372.534 60.5207 369.881 64.5875 366.006 64.5875C365.223 64.6175 364.442 64.4845 363.712 64.197C362.983 63.9095 362.321 63.4736 361.769 62.9171C361.217 62.3606 360.786 61.6955 360.504 60.9638C360.222 60.2321 360.094 59.4498 360.13 58.6664C360.214 56.891 360.774 55.1711 361.753 53.6878C362.731 52.2044 364.091 51.0125 365.69 50.2377C367.698 49.0507 369.813 48.0559 372.008 47.2665C372.387 47.2665 372.556 47.2665 372.556 48.1305L372.45 40.7132Z" fill="#111111"/>
<path d="M448.583 40.7135C448.689 44.3379 448.036 45.4336 445.803 46.5293C443.067 47.4927 440.247 48.1982 437.379 48.6365C435.084 49.1633 428.597 50.7437 428.724 57.6131C428.85 64.4825 435.505 66.6107 440.138 66.4843C443.167 66.4801 446.101 65.4223 448.436 63.4921C449.131 62.9232 449.068 63.0707 449.657 63.7239C450.711 64.755 451.976 65.5438 453.366 66.0351C454.755 66.5264 456.235 66.7085 457.702 66.5686C462.925 66.5686 463.726 64.061 464.02 63.2814C464.315 62.5017 463.325 61.701 462.925 62.6282C462.699 63.2087 462.302 63.7069 461.787 64.0568C461.272 64.4068 460.663 64.5919 460.04 64.5878C459.029 64.5878 456.06 64.335 456.039 56.6648V39.8496C456.039 34.687 452.1 30.4727 441.697 30.4727C430.514 30.4727 430.45 35.9935 430.366 37.3631C430.282 38.7328 430.977 40.5871 433.841 40.5871C436.705 40.5871 436.979 37.8267 437.337 36.7731C437.695 35.7195 437.779 32.2638 442.307 32.348C446.161 32.348 448.625 35.7406 448.625 40.5871V55.3373C448.625 60.4578 445.972 64.5246 442.097 64.5246C441.33 64.5532 440.565 64.4256 439.849 64.1496C439.133 63.8736 438.481 63.4549 437.931 62.9189C437.382 62.383 436.947 61.7409 436.653 61.0317C436.359 60.3224 436.212 59.5608 436.221 58.7931C436.311 57.0167 436.876 55.2972 437.858 53.8144C438.84 52.3316 440.202 51.14 441.802 50.3644C443.807 49.1728 445.923 48.1778 448.12 47.3933C448.499 47.3933 448.668 47.3933 448.668 48.2572L448.583 40.7135Z" fill="#111111"/>
<path d="M338.944 57.234C338.944 62.9866 337.28 64.8409 335.322 65.2413C333.363 65.6417 333.889 66.4635 334.732 66.4635H350.148C351.412 66.4635 352.254 65.6417 350.148 65.1359C348.779 64.8199 346.505 63.2816 346.505 56.054V42.6945C346.505 39.5127 346.82 31.4422 334.269 31.4422C330.452 31.3724 326.73 32.6312 323.738 35.0033C323.149 35.4458 322.917 35.6566 322.664 34.8137C322.412 33.9708 322.117 33.0647 321.927 32.5169C321.738 31.969 321.506 31.4633 320.285 31.6319C319.063 31.8004 311.734 32.9594 310.534 33.2754C309.333 33.5915 309.628 34.0972 310.534 34.2237C311.439 34.3501 315.356 34.7083 315.335 41.5356C315.314 48.3628 315.335 55.8222 315.335 55.8222C315.335 64.0613 313.629 64.8199 312.113 65.2413C310.133 65.7892 311.06 66.4845 312.008 66.4845H327.171C328.182 66.4845 328.624 65.5574 326.603 65.2202C324.581 64.8831 322.749 63.7241 322.791 57.2551C322.791 56.623 322.791 49.4375 322.791 48.131C322.791 44.6963 321.927 33.9287 331.636 33.8444C338.417 33.6126 339.07 39.2809 339.091 43.0317L338.944 57.234Z" fill="#111111"/>
</g>
<g clip-path="url(#clip2_2339_16595)">
<path d="M626.852 35.5973V9.81445H645.703V15.0843H633.279V20.0094H643.265V25.2669H633.279V30.3151H645.703V35.5973H626.852Z" fill="#111111"/>
<path d="M674.748 15.7122L669.096 35.1786H662.078L656.476 15.7492L656.316 35.5973H650.159L651.071 9.81445H660.354L665.71 29.1577L671.079 9.81445H680.239L681.101 35.5973H674.871L674.748 15.7122Z" fill="#111111"/>
<path d="M686.162 35.5973V9.81445H692.712V35.5973H686.162Z" fill="#111111"/>
<path d="M698.118 35.5973V9.81445H704.68V30.1058H715.491V35.5973H698.118Z" fill="#111111"/>
<path d="M726.547 25.8226V35.5989H720.108V25.7487L711.119 9.74219H718.039L723.358 19.9248L728.517 9.74219H735.449L726.547 25.8226Z" fill="#111111"/>
<path d="M763.817 16.647C761.85 15.46 759.602 14.8183 757.304 14.7878C752.847 14.7878 749.916 17.8044 749.916 22.6803C749.916 27.5561 752.637 30.6835 757.304 30.6835C759.73 30.661 762.097 29.9291 764.113 28.5781L765.479 34.3896C762.836 35.6404 759.944 36.276 757.021 36.2489C748.82 36.2119 743.354 31.4223 743.354 22.8034C743.354 14.4677 748.759 9.18555 757.255 9.18555C760.212 9.18924 763.132 9.85391 765.8 11.131L763.817 16.647Z" fill="#111111"/>
<path d="M793.652 35.5959H787.138L785.23 30.1044H775.663L773.803 35.5959H767.29L776.451 9.80078H784.663L793.652 35.5959ZM780.489 14.8859L777.066 24.9947H783.789L780.489 14.8859Z" fill="#111111"/>
<path d="M802.776 35.5959H796.213V9.80078H806.568C813.414 9.80078 817.009 12.9775 817.009 17.9764C817.046 19.6134 816.551 21.2181 815.599 22.55C814.646 23.8819 813.288 24.8693 811.727 25.364L818.327 35.559H810.939L805.78 26.9401L802.776 27.1863V35.5959ZM805.952 22.2243C808.76 22.015 810.287 20.8576 810.287 18.3827C810.287 16.1172 808.711 15.0091 805.361 15.0091H802.603V22.3105L805.952 22.2243Z" fill="#111111"/>
<path d="M827.523 35.5959H820.973V9.80078H831.316C838.162 9.80078 841.757 12.9775 841.757 17.9764C841.794 19.6134 841.299 21.2181 840.346 22.55C839.394 23.8819 838.036 24.8693 836.475 25.364L843.074 35.559H835.687L830.528 26.9401L827.511 27.1863L827.523 35.5959ZM830.7 22.2243C833.507 22.015 835.034 20.8576 835.034 18.3827C835.034 16.1172 833.471 15.0091 830.109 15.0091H827.339V22.3105L830.7 22.2243Z" fill="#111111"/>
<path d="M634.572 66.5006C629.647 66.5006 626.852 63.3978 626.852 58.5097V45.4336H628.896V58.2388C628.896 62.1666 630.841 64.5429 634.67 64.5429C638.5 64.5429 640.322 62.3389 640.322 58.2142V45.4336H642.403V58.1772C642.403 63.2993 639.731 66.5006 634.572 66.5006Z" fill="#111111"/>
<path d="M661.967 45.4336H664.011V66.2667H661.733L649.925 48.4133V66.0697H647.857V45.4336H650.319L662.029 63.1269L661.967 45.4336Z" fill="#111111"/>
<path d="M670.02 66.0697V45.4336H672.1V66.0697H670.02Z" fill="#111111"/>
<path d="M686.161 66.0697H683.699L676.176 45.4336H678.269L684.967 63.9026L691.641 45.4336H693.783L686.161 66.0697Z" fill="#111111"/>
<path d="M697.538 66.0697V45.4336H710.023V47.4283H699.656V54.8159H708.275V56.7243H699.656V64.112H710.023V66.0697H697.538Z" fill="#111111"/>
<path d="M716.808 66.0697H714.665V45.4336H720.218C725.303 45.4336 727.704 47.7853 727.704 51.3806C727.704 54.4834 725.599 56.3057 722.927 57.1922L728.628 66.0697H726.165L720.883 57.5493L716.808 57.8202V66.0697ZM720.502 55.8009C723.247 55.7024 725.624 54.1879 725.624 51.4791C725.624 48.7703 723.604 47.3544 720.009 47.3544H716.808V55.9733L720.502 55.8009Z" fill="#111111"/>
<path d="M743.021 60.715C743.021 58.314 741.039 57.3537 737.801 56.3933C734.907 55.5314 731.805 54.2878 731.805 50.6186C731.805 47.3557 734.575 45.004 738.404 45.004C740.585 44.9947 742.723 45.6146 744.56 46.7894L743.896 48.6609C742.293 47.5785 740.411 46.984 738.478 46.9494C735.375 46.9494 733.898 48.5993 733.898 50.4832C733.898 52.761 735.942 53.6106 739.106 54.6079C742.27 55.6053 745.09 56.8488 745.09 60.5796C745.09 63.9779 742.246 66.5266 738.121 66.5266C735.771 66.5328 733.468 65.8663 731.484 64.6058L732.248 62.722C733.965 63.9555 736.019 64.6343 738.133 64.6674C741.002 64.6674 743.021 62.8944 743.021 60.715Z" fill="#111111"/>
<path d="M749.855 66.0697V45.4336H751.936V66.0697H749.855Z" fill="#111111"/>
<path d="M765.062 47.4283V66.0697H762.956V47.4283H755.692V45.4336H772.326V47.4283H765.062Z" fill="#111111"/>
<path d="M783.716 57.7854V66.0718H781.598V57.7854L774.407 45.4727H776.784L782.718 55.7415L788.567 45.4727H790.906L783.716 57.7854Z" fill="#111111"/>
<path d="M839.037 66.0697H836.882L834.703 60.1596H825.369L823.19 66.0697H821.035L828.854 45.4336H831.317L839.037 66.0697ZM830.085 47.5144L826.133 58.2511H834.013L830.085 47.5144Z" fill="#111111"/>
<path d="M844.602 66.0697H842.496V45.4336H848.037C853.122 45.4336 855.535 47.7853 855.535 51.3806C855.535 54.4834 853.418 56.3057 850.746 57.1922L856.459 66.0697H853.996L848.727 57.5493L844.589 57.8202L844.602 66.0697ZM848.296 55.8009C851.029 55.7024 853.405 54.1879 853.405 51.4791C853.405 48.7703 851.398 47.3544 847.791 47.3544H844.589V55.9733L848.296 55.8009Z" fill="#111111"/>
<path d="M867.084 47.4283V66.0697H864.966V47.4283H857.702V45.4336H874.41V47.4283H867.084Z" fill="#111111"/>
<path d="M885.566 59.2384V65.1485H883.744V59.2384H877.944L878.043 57.4161H883.744V51.543H885.566V57.4161H891.205L891.304 59.2384H885.566Z" fill="#111111"/>
<path d="M906.153 66.0697H900.711V45.4336H906.326C913.085 45.4336 917.247 49.5337 917.247 55.6039C917.247 62.105 913.196 66.0697 906.153 66.0697ZM906.153 47.3913H902.792V64.1243H906.227C911.497 64.1243 915.104 61.4155 915.104 55.764C915.141 50.5187 911.842 47.4283 906.19 47.4283L906.153 47.3913Z" fill="#111111"/>
<path d="M921.309 66.0697V45.4336H933.782V47.4283H923.415V54.8159H932.034V56.7243H923.415V64.112H933.782V66.0574L921.309 66.0697Z" fill="#111111"/>
<path d="M948.606 60.7273C948.606 58.2648 946.624 57.3537 943.386 56.3933C940.48 55.5437 937.377 54.2878 937.377 50.6186C937.377 47.3557 940.147 45.004 943.977 45.004C946.158 44.9947 948.295 45.6146 950.133 46.7894L949.382 48.6363C947.777 47.559 945.897 46.9649 943.964 46.9248C940.862 46.9248 939.372 48.5747 939.372 50.4585C939.372 52.7364 941.428 53.5983 944.592 54.5833C947.56 55.4698 950.564 56.8242 950.564 60.555C950.564 63.9533 947.732 66.502 943.595 66.502C941.249 66.5059 938.951 65.8395 936.971 64.5812L937.722 62.6974C939.465 63.9658 941.562 64.6548 943.718 64.6674C946.587 64.6674 948.606 62.8944 948.606 60.7273Z" fill="#111111"/>
<path d="M955.428 66.0697V45.4336H957.509V66.0697H955.428Z" fill="#111111"/>
<path d="M971.964 66.5019C965.992 66.5019 962.003 62.3402 962.003 55.8021C962.003 49.2641 966.189 45.0039 971.964 45.0039C974.255 45.0056 976.507 45.5994 978.502 46.7277L977.837 48.6608C976.071 47.5671 974.041 46.9754 971.964 46.9493C967.47 46.9493 964.17 50.1506 964.17 55.7652C964.17 61.3798 967.309 64.6057 972.025 64.6057C973.744 64.615 975.438 64.1916 976.95 63.3745V57.7229H970.979V55.8021H978.994V64.421C976.895 65.7666 974.457 66.4882 971.964 66.5019V66.5019Z" fill="#111111"/>
<path d="M998.079 45.4336H1000.12V66.2667H997.845L986.025 48.4133V66.0697H983.994V45.4336H986.37L998.092 63.1269L998.079 45.4336Z" fill="#111111"/>
<path d="M801.532 61.7758C800.828 61.8019 800.127 61.6794 799.474 61.4163C798.821 61.1532 798.231 60.7554 797.742 60.249C797.253 59.7425 796.876 59.1386 796.636 58.4767C796.396 57.8148 796.298 57.1098 796.348 56.4075C796.312 55.7055 796.418 55.0033 796.663 54.3441C796.907 53.685 797.283 53.0826 797.769 52.5741C798.254 52.0657 798.838 51.6618 799.486 51.3872C800.133 51.1127 800.829 50.9733 801.532 50.9776C802.233 50.9533 802.931 51.0768 803.581 51.3401C804.232 51.6033 804.819 52.0004 805.306 52.5056C805.792 53.0108 806.167 53.6127 806.406 54.2722C806.644 54.9317 806.742 55.6341 806.691 56.3336C806.73 57.0346 806.625 57.736 806.383 58.395C806.141 59.054 805.767 59.6566 805.284 60.1661C804.801 60.6756 804.219 61.0811 803.574 61.3579C802.929 61.6347 802.234 61.7769 801.532 61.7758V61.7758ZM801.532 52.2335C801.011 52.2303 800.495 52.3375 800.018 52.548C799.541 52.7585 799.114 53.0676 798.765 53.4548C798.416 53.8421 798.153 54.2989 797.994 54.795C797.834 55.2912 797.781 55.8155 797.838 56.3336C797.838 58.8824 799.365 60.5323 801.631 60.5323C802.151 60.5263 802.665 60.412 803.139 60.1969C803.613 59.9817 804.037 59.6703 804.385 59.2824C804.732 58.8945 804.995 58.4387 805.157 57.9437C805.319 57.4488 805.376 56.9257 805.324 56.4075C805.38 55.8749 805.322 55.3364 805.154 54.8278C804.987 54.3192 804.713 53.8522 804.35 53.4575C803.988 53.0628 803.547 52.7496 803.054 52.5386C802.562 52.3276 802.031 52.2236 801.495 52.2335H801.532Z" fill="#111111"/>
<path d="M808.956 51.2207H815.309V52.5382H810.384V55.8872H814.484V57.1924H810.384V61.5264H808.98L808.956 51.2207Z" fill="#111111"/>
</g>
<g clip-path="url(#clip3_2339_16595)">
<path d="M307.31 253.528H305.346V252.687C304.707 253.329 303.864 253.697 302.883 253.697C300.794 253.697 299.063 251.921 299.063 249.594C299.063 247.252 300.794 245.476 302.883 245.476C303.817 245.476 304.628 245.813 305.252 246.395V242.139H307.31V253.528ZM303.195 247.344C302.057 247.344 301.137 248.324 301.137 249.61C301.137 250.865 302.057 251.83 303.195 251.83C304.333 251.83 305.253 250.834 305.253 249.61C305.253 248.354 304.333 247.344 303.195 247.344Z" fill="#111111"/>
<path d="M311.337 244.763H309.279V242.881H311.337V244.763ZM311.337 253.504H309.279V245.621H311.337V253.504Z" fill="#111111"/>
<path d="M316.599 253.693C314.556 253.693 313.044 252.637 312.795 250.938H314.884C315.165 251.612 315.991 251.856 316.599 251.856C317.424 251.856 318.049 251.611 318.049 251.153C318.049 250.709 317.768 250.524 316.364 250.31C314.931 250.096 313.013 249.713 313.013 247.953C313.013 246.713 314.12 245.428 316.443 245.428C318.282 245.428 319.654 246.408 319.919 247.892H317.783C317.659 247.525 317.206 247.234 316.443 247.234C315.492 247.234 315.102 247.571 315.102 247.862C315.102 248.275 315.694 248.413 316.692 248.566C318.687 248.888 320.122 249.316 320.122 251.03C320.122 252.591 318.656 253.693 316.599 253.693Z" fill="#111111"/>
<path d="M329.248 253.564H327.285V252.722C326.661 253.365 325.804 253.732 324.822 253.732C322.733 253.732 321.002 251.956 321.002 249.629C321.002 247.287 322.733 245.512 324.822 245.512C325.804 245.512 326.661 245.879 327.285 246.522V245.68H329.248V253.564ZM325.133 247.379C323.995 247.379 323.075 248.359 323.075 249.645C323.075 250.9 323.995 251.865 325.133 251.865C326.271 251.865 327.191 250.87 327.191 249.645C327.192 248.389 326.271 247.379 325.133 247.379Z" fill="#111111"/>
<path d="M335.645 253.696C334.679 253.696 333.821 253.328 333.197 252.686V253.527H331.218V242.139H333.291V246.395C333.899 245.813 334.726 245.476 335.645 245.476C337.749 245.476 339.464 247.252 339.464 249.594C339.464 251.92 337.749 253.696 335.645 253.696ZM335.349 247.343C334.211 247.343 333.291 248.353 333.291 249.609C333.291 250.833 334.211 251.829 335.349 251.829C336.487 251.829 337.406 250.864 337.406 249.609C337.406 248.323 336.487 247.343 335.349 247.343Z" fill="#111111"/>
<path d="M342.822 244.763H340.764V242.881H342.822V244.763ZM342.822 253.504H340.764V245.621H342.822V253.504Z" fill="#111111"/>
<path d="M346.84 242.139H344.782V253.527H346.84V242.139Z" fill="#111111"/>
<path d="M350.86 244.763H348.802V242.881H350.86V244.763ZM350.86 253.504H348.802V245.621H350.86V253.504Z" fill="#111111"/>
<path d="M359.883 250.22C359.883 252.21 358.511 253.695 356.36 253.695C354.209 253.695 352.821 252.21 352.821 250.22V243.623H354.879V245.628H359.805V247.526H354.879V250.327C354.879 251.046 355.331 251.781 356.36 251.781C357.373 251.781 357.826 251.046 357.826 250.327V249.577H359.883V250.22Z" fill="#111111"/>
<path d="M368.365 253.885C368.365 256.013 366.946 257.42 364.795 257.42C363.034 257.42 361.584 256.288 361.303 254.665H363.439C363.564 255.247 364.094 255.538 364.795 255.538C365.917 255.538 366.307 254.757 366.307 254.023V253.105C365.824 253.502 365.2 253.747 364.467 253.747C362.503 253.747 361.194 252.354 361.194 250.288V245.68H363.252V250.288C363.252 250.732 363.407 251.834 364.748 251.834C365.668 251.834 366.307 251.176 366.307 250.288V245.68H368.365V253.885Z" fill="#111111"/>
<path d="M382.838 253.564H380.874V252.722C380.25 253.365 379.393 253.732 378.411 253.732C376.322 253.732 374.592 251.956 374.592 249.629C374.592 247.287 376.322 245.512 378.411 245.512C379.392 245.512 380.25 245.879 380.874 246.522V245.68H382.838V253.564ZM378.723 247.379C377.585 247.379 376.665 248.359 376.665 249.645C376.665 250.9 377.585 251.865 378.723 251.865C379.861 251.865 380.781 250.87 380.781 249.645C380.78 248.389 379.86 247.379 378.723 247.379Z" fill="#111111"/>
<path d="M386.867 242.139H384.808V253.527H386.867V242.139Z" fill="#111111"/>
<path d="M390.886 242.139H388.828V253.527H390.886V242.139Z" fill="#111111"/>
<path d="M394.905 244.763H392.847V242.881H394.905V244.763ZM394.905 253.504H392.847V245.621H394.905V253.504Z" fill="#111111"/>
<path d="M404.609 253.564H402.646V252.722C402.021 253.365 401.164 253.732 400.182 253.732C398.093 253.732 396.363 251.956 396.363 249.629C396.363 247.287 398.093 245.512 400.182 245.512C401.164 245.512 402.021 245.879 402.646 246.522V245.68H404.609V253.564ZM400.494 247.379C399.356 247.379 398.435 248.359 398.435 249.645C398.435 250.9 399.355 251.865 400.494 251.865C401.632 251.865 402.551 250.87 402.551 249.645C402.551 248.389 401.632 247.379 400.494 247.379Z" fill="#111111"/>
<path d="M413.75 253.51H411.692V248.902C411.692 248.443 411.552 247.341 410.195 247.341C409.276 247.341 408.637 248.015 408.637 248.902V253.51H406.578V245.627H408.543V246.392C409.057 245.795 409.758 245.428 410.616 245.428C412.502 245.428 413.75 246.821 413.75 248.902V253.51H413.75Z" fill="#111111"/>
<path d="M418.932 253.694C416.515 253.694 414.786 251.857 414.786 249.576C414.786 247.295 416.515 245.428 418.932 245.428C420.865 245.428 422.33 246.499 422.798 248.274H420.601C420.319 247.739 419.681 247.28 418.932 247.28C417.795 247.28 416.874 248.32 416.874 249.591C416.874 250.831 417.794 251.857 418.932 251.857C419.696 251.857 420.35 251.398 420.615 250.847H422.814C422.346 252.638 420.881 253.694 418.932 253.694Z" fill="#111111"/>
<path d="M425.414 250.357C425.68 251.321 426.459 251.918 427.426 251.918C428.113 251.918 428.783 251.627 429.126 251H431.323C430.856 252.607 429.437 253.693 427.441 253.693C425.181 253.693 423.326 251.856 423.326 249.576C423.326 247.295 425.182 245.428 427.441 245.428C429.811 245.428 431.775 247.234 431.479 250.357H425.414V250.357ZM429.437 248.704C429.187 247.786 428.408 247.204 427.425 247.204C426.49 247.204 425.742 247.786 425.445 248.704H429.437Z" fill="#111111"/>
<path d="M442.158 253.696C441.191 253.696 440.334 253.328 439.71 252.686V253.527H437.73V242.139H439.804V246.395C440.411 245.813 441.238 245.476 442.158 245.476C444.262 245.476 445.977 247.252 445.977 249.594C445.976 251.92 444.261 253.696 442.158 253.696ZM441.861 247.343C440.723 247.343 439.803 248.353 439.803 249.609C439.803 250.833 440.723 251.829 441.861 251.829C442.999 251.829 443.919 250.864 443.919 249.609C443.919 248.323 442.999 247.343 441.861 247.343Z" fill="#111111"/>
<path d="M451.086 253.694C448.669 253.694 446.939 251.857 446.939 249.576C446.939 247.295 448.669 245.428 451.086 245.428C453.019 245.428 454.484 246.499 454.952 248.274H452.754C452.473 247.739 451.835 247.28 451.086 247.28C449.948 247.28 449.028 248.32 449.028 249.591C449.028 250.831 449.948 251.857 451.086 251.857C451.85 251.857 452.504 251.398 452.769 250.847H454.968C454.5 252.638 453.035 253.694 451.086 253.694Z" fill="#111111"/>
<path d="M368.014 200.769C364.673 197.971 360.346 196.277 355.621 196.277C350.251 196.277 345.395 198.464 341.917 201.974L324.171 221.71C322.248 223.935 319.383 225.353 316.185 225.353C310.407 225.353 305.706 220.738 305.706 215.064C305.706 209.39 310.407 204.774 316.185 204.774C319.458 204.774 322.382 206.257 324.304 208.571L327.257 211.837L335.317 202.837V184.992H326.664V199.358C323.651 197.413 320.051 196.277 316.185 196.277C305.636 196.277 297.053 204.705 297.053 215.064C297.053 225.423 305.636 233.85 316.185 233.85C321.639 233.85 326.561 231.594 330.048 227.987L347.769 208.273C349.691 206.133 352.494 204.774 355.621 204.774C361.399 204.774 366.099 209.39 366.099 215.064C366.099 220.738 361.399 225.353 355.621 225.353C352.345 225.353 349.425 223.862 347.504 221.542L344.549 218.284L338.785 224.72L341.196 227.385V227.383C344.704 231.342 349.869 233.85 355.621 233.85C359.487 233.85 363.087 232.714 366.099 230.77V232.933H374.752V200.769H368.014V200.769Z" fill="#111111"/>
<path d="M448.071 217.227C447.07 221.885 442.855 225.392 437.819 225.392C434.543 225.392 431.813 223.95 429.703 221.581L426.747 218.323L420.983 224.76L423.168 227.15C427.579 231.766 431.939 233.889 437.819 233.889C447.637 233.889 455.746 226.589 456.825 217.227H448.071V217.227Z" fill="#111111"/>
<path d="M437.849 196.277C432.479 196.277 426.958 198.796 424.145 201.974L406.394 221.706C404.235 224.06 401.612 225.353 398.413 225.353C392.635 225.353 387.935 220.738 387.935 215.064C387.935 209.39 392.635 204.774 398.413 204.774C401.685 204.774 404.36 206.167 406.533 208.571C406.535 208.568 408.056 210.257 409.48 211.842L414.985 205.695C411.676 200.072 405.489 196.277 398.413 196.277C394.547 196.277 390.947 197.413 387.935 199.358V184.992H379.281V215.064C379.281 225.423 387.864 233.85 398.413 233.85C403.866 233.85 408.789 231.595 412.277 227.989L429.998 208.273C431.919 206.133 434.722 204.774 437.849 204.774C442.886 204.774 447.101 208.282 448.101 212.94H456.856C455.777 203.577 447.666 196.277 437.849 196.277Z" fill="#111111"/>
</g>
<g clip-path="url(#clip4_2339_16595)">
<path d="M40.1768 263.669C39.6503 263.648 39.1266 263.755 38.651 263.982C38.1754 264.209 37.7622 264.548 37.4472 264.97C36.7861 265.984 36.4341 267.168 36.4341 268.379C36.4341 269.589 36.7861 270.773 37.4472 271.787C37.7772 272.189 38.1922 272.513 38.6623 272.735C39.1325 272.958 39.6461 273.073 40.1662 273.073C40.6863 273.073 41.1999 272.958 41.6701 272.735C42.1403 272.513 42.5553 272.189 42.8852 271.787C43.5553 270.778 43.9127 269.593 43.9127 268.382C43.9127 267.171 43.5553 265.986 42.8852 264.977C42.5698 264.56 42.1597 264.224 41.6888 263.996C41.2179 263.769 40.6996 263.656 40.1768 263.669V263.669Z" fill="#111111"/>
<path d="M18.2909 248.261C18.835 247.925 19.3121 247.491 19.6979 246.981C20.1174 246.398 20.4251 245.742 20.6054 245.046C21.0461 243.32 21.0461 241.511 20.6054 239.784C20.4266 239.088 20.1188 238.432 19.6979 237.85C19.3121 237.34 18.835 236.905 18.2909 236.569C17.7689 236.247 17.199 236.01 16.6025 235.866C15.9738 235.713 15.3289 235.638 14.682 235.641H12.4097V249.26H14.682C15.3289 249.263 15.9738 249.188 16.6025 249.035C17.2032 248.87 17.7733 248.608 18.2909 248.261Z" fill="#111111"/>
<path d="M129 283.211V160.803H0V283.211H129ZM44.6157 273.221C44.0965 273.824 43.4461 274.3 42.7144 274.612C41.9827 274.924 41.1891 275.065 40.3947 275.022C39.6266 275.022 38.8688 274.846 38.1787 274.509C37.5351 274.247 36.9807 273.804 36.5818 273.235V274.818H34.4713V256.71H36.5818V263.464C36.959 262.941 37.4724 262.533 38.0662 262.282C38.7723 261.908 39.5603 261.714 40.3595 261.719C41.154 261.677 41.9475 261.817 42.6792 262.129C43.4109 262.442 44.0613 262.917 44.5805 263.52C45.5572 264.949 46.0797 266.64 46.0797 268.371C46.0797 270.102 45.5572 271.792 44.5805 273.221H44.6157ZM46.1775 250.484C45.3123 251.238 44.1855 251.622 43.0399 251.554C41.9824 251.581 40.9467 251.251 40.0993 250.618C39.2675 249.966 38.6361 249.093 38.2772 248.1L40.0993 247.101C40.7887 248.789 41.7759 249.633 43.061 249.633C44.468 249.633 45.1715 248.93 45.1715 247.614C45.1715 246.861 44.468 246.207 43.061 245.736L42.3153 245.447C42.1394 245.37 41.9002 245.264 41.6118 245.11C41.3664 244.993 41.1311 244.857 40.9083 244.702C40.7324 244.575 40.5284 244.406 40.2962 244.202C40.0902 244.017 39.9145 243.801 39.7756 243.562C39.6434 243.316 39.5373 243.056 39.4591 242.788C39.3665 242.475 39.3215 242.15 39.3254 241.824C39.3113 241.35 39.3966 240.877 39.5759 240.437C39.7552 239.998 40.0245 239.6 40.3666 239.271C40.7273 238.932 41.1521 238.668 41.6159 238.495C42.0798 238.323 42.5734 238.244 43.068 238.265C43.8081 238.251 44.5397 238.425 45.1942 238.77C45.8488 239.116 46.4049 239.622 46.8106 240.241L45.3614 241.494C45.0692 241.117 44.6992 240.808 44.2768 240.587C43.8544 240.366 43.3893 240.238 42.9132 240.213C42.7052 240.206 42.4979 240.241 42.3042 240.317C42.1105 240.394 41.9347 240.509 41.7876 240.657C41.6373 240.816 41.5205 241.004 41.4444 241.209C41.3682 241.415 41.3343 241.634 41.3444 241.852C41.3454 242.161 41.4636 242.458 41.6751 242.683C41.9152 242.95 42.2072 243.165 42.5333 243.316C42.8851 243.492 43.2791 243.66 43.7012 243.836C44.1232 244.012 44.5594 244.195 44.9885 244.406C45.3981 244.609 45.791 244.844 46.1634 245.11C46.5339 245.385 46.8341 245.744 47.0395 246.157C47.2449 246.57 47.3497 247.026 47.3453 247.487C47.3719 248.041 47.2817 248.594 47.0805 249.11C46.8793 249.627 46.5716 250.095 46.1775 250.484V250.484ZM51.6225 251.371H49.512V238.483H51.6225V251.371ZM76.8569 242.289V251.371H74.7464V242.851C74.7464 241.093 74.0007 240.213 72.5093 240.213C71.9745 240.237 71.4543 240.395 70.9968 240.673C70.5393 240.95 70.1594 241.339 69.8923 241.803C69.1184 243.052 68.743 244.507 68.8159 245.975V251.371H66.7055V238.483H68.8159V240.854C69.21 240.061 69.8216 239.398 70.5791 238.94C71.3366 238.483 72.2086 238.251 73.0932 238.272C73.6004 238.242 74.108 238.321 74.5823 238.503C75.0567 238.685 75.4867 238.966 75.8439 239.327C76.5578 240.143 76.9217 241.207 76.8569 242.289V242.289ZM64.6161 209.808H66.7266V217.427C67.1335 216.626 67.7672 215.963 68.5486 215.521C69.3588 215.047 70.2833 214.803 71.2219 214.817C71.7322 214.785 72.2432 214.865 72.7195 215.051C73.1958 215.237 73.6258 215.524 73.9796 215.893C74.6833 216.757 75.0328 217.856 74.9575 218.968V227.923H72.847V219.404C72.847 217.645 72.1036 216.766 70.6169 216.766C70.0692 216.79 69.5358 216.948 69.0626 217.225C68.5895 217.502 68.191 217.89 67.9014 218.356C67.0644 219.552 66.6464 220.992 66.7125 222.45V227.923H64.602L64.6161 209.808ZM54.4365 215.028H56.7088V211.173L58.8193 209.808V215.028H62.2594V216.963H58.8052V224.061C58.7704 224.622 58.9293 225.179 59.2554 225.637C59.4108 225.821 59.6066 225.966 59.8275 226.061C60.0485 226.156 60.2885 226.199 60.5288 226.186C61.0435 226.203 61.5506 226.058 61.978 225.771L62.4915 227.635C61.8453 227.986 61.1156 228.154 60.381 228.12C59.8789 228.146 59.3772 228.061 58.9116 227.872C58.4459 227.682 58.0277 227.392 57.6866 227.023C56.981 226.13 56.6325 225.007 56.7088 223.871V216.963H54.4365V215.028ZM54.0496 247.811C54.0442 247.305 54.19 246.809 54.4682 246.387C54.7465 245.965 55.1445 245.635 55.6113 245.44C54.9643 244.648 54.6268 243.648 54.6616 242.626C54.6421 242.044 54.7468 241.464 54.9688 240.926C55.1907 240.387 55.5249 239.902 55.949 239.503C56.8212 238.69 57.9794 238.255 59.171 238.293C59.9836 238.284 60.785 238.483 61.4996 238.87L63.793 237.554L64.7708 239.32L63.0332 240.298C63.4736 240.996 63.6965 241.809 63.6734 242.633C63.6963 243.212 63.5952 243.789 63.3768 244.325C63.1584 244.861 62.8278 245.345 62.4071 245.743C61.528 246.551 60.3645 246.979 59.171 246.932C58.404 246.952 57.6427 246.793 56.948 246.467C56.7015 246.573 56.4904 246.747 56.3396 246.969C56.1887 247.191 56.1045 247.451 56.0967 247.72C56.0967 248.423 56.5892 248.796 57.56 248.796H60.5991C61.6675 248.736 62.7209 249.069 63.5608 249.732C63.9273 250.059 64.2151 250.465 64.4027 250.92C64.5903 251.374 64.6729 251.865 64.6442 252.356C64.6819 252.986 64.5666 253.615 64.3081 254.191C64.0496 254.767 63.6557 255.272 63.1598 255.662C62.0037 256.473 60.6095 256.874 59.1992 256.802C57.793 256.876 56.4027 256.474 55.2526 255.662C54.7737 255.301 54.3892 254.83 54.1319 254.289C53.8746 253.747 53.7523 253.152 53.7752 252.553C53.7635 252.048 53.8605 251.547 54.0595 251.083C54.2586 250.62 54.5551 250.204 54.9289 249.865C54.6329 249.615 54.3993 249.299 54.2467 248.942C54.0941 248.585 54.0266 248.198 54.0496 247.811ZM50.307 209.822H52.4175V227.923H50.307V209.822ZM49.4417 233.741C49.5885 233.59 49.7648 233.471 49.9597 233.391C50.1545 233.311 50.3638 233.272 50.5743 233.277C51.0072 233.273 51.4243 233.44 51.7351 233.741C51.8933 233.891 52.0183 234.072 52.1019 234.273C52.1855 234.475 52.2259 234.691 52.2205 234.909C52.2249 235.121 52.1839 235.332 52.1002 235.528C52.0165 235.723 51.892 235.898 51.7351 236.042C51.4212 236.337 51.005 236.498 50.5743 236.492C50.3645 236.498 50.1558 236.461 49.9607 236.383C49.7657 236.306 49.5884 236.19 49.4397 236.042C49.291 235.893 49.174 235.717 49.0957 235.522C49.0174 235.327 48.9796 235.119 48.9844 234.909C48.9768 234.691 49.0134 234.474 49.092 234.271C49.1705 234.068 49.2895 233.883 49.4417 233.727V233.741ZM49.0688 271.73C49.2816 271.729 49.4924 271.77 49.6891 271.851C49.8859 271.932 50.0646 272.051 50.215 272.202C50.3655 272.352 50.4846 272.531 50.5656 272.728C50.6466 272.924 50.6878 273.135 50.6869 273.348C50.6907 273.561 50.6509 273.773 50.5699 273.97C50.4888 274.167 50.3682 274.346 50.2155 274.495C50.0656 274.645 49.8867 274.764 49.6896 274.844C49.4926 274.924 49.2814 274.963 49.0688 274.959C48.8556 274.964 48.6437 274.925 48.4457 274.846C48.2477 274.767 48.0677 274.649 47.9166 274.498C47.7655 274.348 47.6463 274.168 47.5663 273.971C47.4862 273.773 47.4469 273.561 47.4508 273.348C47.4479 273.135 47.4879 272.923 47.5682 272.725C47.6485 272.528 47.7676 272.348 47.9184 272.198C48.0692 272.047 48.2487 271.928 48.4463 271.847C48.6439 271.767 48.8556 271.727 49.0688 271.73V271.73ZM42.9625 216.766C42.3351 216.75 41.7198 216.94 41.2108 217.308C40.7296 217.673 40.3972 218.2 40.2751 218.792L38.3616 218.356C38.4281 217.847 38.5955 217.356 38.854 216.913C39.1125 216.47 39.4569 216.082 39.8671 215.774C40.7614 215.115 41.8523 214.778 42.9625 214.817C44.2786 214.745 45.5709 215.189 46.5644 216.055C47.0269 216.535 47.3832 217.107 47.6098 217.734C47.8365 218.36 47.9285 219.028 47.8799 219.692V227.923H46.1845L45.875 226.108C45.4308 226.762 44.8261 227.29 44.119 227.642C43.4119 227.995 42.626 228.159 41.8369 228.12C40.7779 228.174 39.7392 227.816 38.9385 227.121C38.561 226.741 38.269 226.284 38.0822 225.782C37.8953 225.28 37.8179 224.743 37.8551 224.209C37.8275 223.6 37.9543 222.995 38.2237 222.449C38.4931 221.903 38.8963 221.434 39.3958 221.085C40.6763 220.286 42.1729 219.902 43.68 219.988H45.7905V219.425C45.7858 217.652 44.8432 216.766 42.9625 216.766ZM36.8421 245.391H27.3871C27.3896 246.51 27.7577 247.597 28.4353 248.486C28.7475 248.864 29.1432 249.165 29.5912 249.364C30.0392 249.563 30.5274 249.655 31.0171 249.633C31.7857 249.668 32.5459 249.462 33.1909 249.042C33.823 248.56 34.3098 247.912 34.5979 247.171L36.4974 248.001C36.0366 249.097 35.2788 250.042 34.3095 250.731C33.3171 251.323 32.1717 251.61 31.0171 251.554C30.1959 251.598 29.3759 251.448 28.6232 251.117C27.8704 250.786 27.206 250.282 26.6836 249.647C25.6639 248.283 25.1358 246.615 25.1851 244.913C25.131 243.216 25.6599 241.553 26.6836 240.199C27.2006 239.556 27.863 239.044 28.6164 238.706C29.3698 238.369 30.1927 238.215 31.0171 238.258C31.8191 238.215 32.6204 238.355 33.361 238.665C34.1016 238.976 34.7625 239.45 35.2944 240.052C36.3358 241.245 36.8885 242.788 36.8421 244.371V245.391ZM26.0716 216.766C26.587 216.12 27.249 215.606 28.0027 215.267C28.7563 214.929 29.5799 214.774 30.4051 214.817C31.2068 214.774 32.0078 214.914 32.7476 215.226C33.4874 215.538 34.1465 216.014 34.6753 216.618C35.7236 217.808 36.2795 219.352 36.23 220.938V221.937H26.768C26.7736 223.056 27.1441 224.142 27.8233 225.032C28.1351 225.411 28.5305 225.712 28.9785 225.912C29.4265 226.112 29.9148 226.206 30.4051 226.186C31.1748 226.222 31.9361 226.013 32.5789 225.588C33.2089 225.106 33.6954 224.461 33.9859 223.723L35.8783 224.546C35.4177 225.644 34.66 226.592 33.6904 227.283C32.6998 227.875 31.5582 228.166 30.4051 228.12C29.5851 228.165 28.766 228.018 28.0134 227.689C27.2609 227.36 26.5958 226.86 26.0716 226.228C25.0519 224.867 24.5237 223.2 24.5731 221.5C24.5118 219.797 25.0412 218.124 26.0716 216.766V216.766ZM24.0244 262.676C24.9187 262.017 26.0096 261.68 27.1198 261.719C28.4384 261.643 29.7342 262.088 30.7287 262.957C31.1896 263.437 31.5448 264.008 31.7714 264.633C31.998 265.258 32.091 265.924 32.0442 266.587V274.818H30.3418L30.0322 273.01C29.5917 273.659 28.9928 274.184 28.2922 274.536C27.5917 274.889 26.8127 275.056 26.0293 275.022C24.9706 275.075 23.9324 274.717 23.1309 274.023C22.7534 273.643 22.4615 273.186 22.2746 272.684C22.0878 272.182 22.0104 271.645 22.0476 271.111C22.0194 270.502 22.1467 269.895 22.4175 269.349C22.6882 268.803 23.0935 268.334 23.5952 267.987C24.8758 267.188 26.3724 266.805 27.8795 266.89H29.99V266.327C29.99 264.554 29.0544 263.668 27.176 263.668C26.5504 263.649 25.9365 263.84 25.4314 264.21C24.9485 264.572 24.6135 265.096 24.4887 265.687L22.5119 265.251C22.5797 264.742 22.7484 264.253 23.0082 263.811C23.2679 263.368 23.6134 262.983 24.0244 262.676V262.676ZM10.1585 210.005H12.4097V217.329H20.5913V210.005H22.8425V227.923H20.5913V219.481H12.4097V227.923H10.1585V210.005ZM10.1585 233.46H15.0829C16.1734 233.435 17.2572 233.637 18.2658 234.052C19.2744 234.468 20.186 235.087 20.9431 235.873C22.5259 237.449 23.3138 239.636 23.3138 242.415C23.3138 245.194 22.5259 247.389 20.9431 249C20.1798 249.774 19.2662 250.384 18.2583 250.792C17.2505 251.199 16.1698 251.397 15.0829 251.371H10.1585V233.46ZM12.4097 256.907V272.659H20.5421V274.769H10.1585V256.907H12.4097Z" fill="#111111"/>
<path d="M31.0173 240.213C30.1681 240.182 29.341 240.488 28.7168 241.065C28.0777 241.713 27.655 242.544 27.5068 243.443H34.591C34.4343 242.544 34.0044 241.717 33.3599 241.072C32.7227 240.488 31.8808 240.18 31.0173 240.213V240.213Z" fill="#111111"/>
<path d="M40.9434 222.528C40.7017 222.701 40.4993 222.924 40.3494 223.18C40.1995 223.437 40.1056 223.723 40.0737 224.018C40.0418 224.314 40.0727 224.613 40.1644 224.895C40.2561 225.178 40.4065 225.438 40.6057 225.659C41.0398 226.033 41.6028 226.222 42.1745 226.187C43.1091 226.205 44.0153 225.865 44.7071 225.237C45.0915 224.844 45.3867 224.373 45.5725 223.856C45.7582 223.339 45.8302 222.788 45.7835 222.24V221.937H43.476C42.5925 221.886 41.7129 222.091 40.9434 222.528V222.528Z" fill="#111111"/>
<path d="M32.7476 217.624C32.1104 217.041 31.2684 216.732 30.405 216.766C29.5671 216.74 28.7527 217.046 28.1397 217.617C27.5003 218.263 27.0775 219.092 26.9297 219.988H33.9787C33.8206 219.093 33.3908 218.267 32.7476 217.624V217.624Z" fill="#111111"/>
<path d="M25.1007 269.429C24.818 269.607 24.5867 269.855 24.43 270.15C24.2732 270.445 24.1964 270.776 24.2072 271.11C24.1931 271.378 24.2359 271.645 24.3329 271.895C24.43 272.145 24.5789 272.371 24.77 272.559C25.2004 272.935 25.7619 273.124 26.3318 273.087C27.2586 273.097 28.1553 272.758 28.8433 272.137C29.2311 271.746 29.5299 271.276 29.7193 270.759C29.9087 270.241 29.9842 269.689 29.9407 269.14V268.838H27.6333C26.7497 268.786 25.8702 268.992 25.1007 269.429V269.429Z" fill="#111111"/>
<path d="M59.1708 245.075C59.8028 245.09 60.417 244.864 60.8873 244.442C61.2512 244.098 61.5033 243.652 61.6109 243.163C61.7186 242.675 61.6768 242.165 61.491 241.7C61.3052 241.235 60.9839 240.836 60.569 240.556C60.154 240.276 59.6644 240.127 59.1638 240.129C58.8471 240.125 58.5329 240.185 58.2403 240.306C57.9476 240.427 57.6826 240.606 57.4613 240.833C57.0129 241.332 56.7649 241.98 56.7649 242.651C56.7649 243.322 57.0129 243.97 57.4613 244.47C57.9327 244.883 58.5445 245.099 59.1708 245.075V245.075Z" fill="#111111"/>
<path d="M56.7439 254.241C57.4858 254.663 58.3246 254.885 59.178 254.885C60.0314 254.885 60.8702 254.663 61.6121 254.241C61.8804 254.043 62.0962 253.783 62.2409 253.482C62.3855 253.182 62.4547 252.851 62.4422 252.517C62.4422 251.244 61.7387 250.604 60.2755 250.604H57.6866C57.567 250.604 57.2504 250.604 56.7369 250.555C56.4563 250.779 56.2337 251.067 56.088 251.395C55.9423 251.723 55.8777 252.082 55.8997 252.44C55.8816 252.787 55.9491 253.132 56.0964 253.446C56.2436 253.76 56.466 254.033 56.7439 254.241V254.241Z" fill="#111111"/>
</g>
<g clip-path="url(#clip5_2339_16595)">
<path d="M763.47 230.004H763.108C760.982 230.004 759.444 228.606 759.444 226.768C759.444 224.703 761.344 223.449 763.968 223.22L769.624 222.771V225.061C769.624 227.757 766.229 230.004 763.465 230.004H763.47ZM774.143 233.148C773.916 231.576 773.916 229.555 773.916 228.208V218.774C773.916 214.193 770.748 210.24 764.732 210.24C759.629 210.24 755.865 213.07 755.592 217.201H759.896C760.167 214.957 762.203 213.833 764.556 213.833H764.918C767.813 213.833 769.624 215.629 769.624 218.774V219.492L763.38 219.986C759.715 220.301 755.145 221.828 755.145 226.948C755.145 230.767 758.312 233.596 762.611 233.596C766.229 233.596 768.946 231.574 769.849 229.553C769.849 229.778 769.849 232.023 770.076 233.147L774.143 233.148ZM751.029 233.148H756.322L746.468 219.63L755.879 210.69H750.22L740.267 220.393V201.7H735.968V233.147H740.267V225.556L743.388 222.547L751.029 233.148ZM698.414 233.148H702.723V220.57C702.723 216.303 705.664 213.833 708.423 213.833H708.785C711.997 213.833 713.361 215.855 713.361 218.999V233.15H717.646V220.572C717.646 216.305 720.586 213.835 723.345 213.835H723.708C726.919 213.835 728.283 215.856 728.283 219.001V233.152H732.58V218.099C732.58 213.382 729.64 210.238 724.436 210.238C721.677 210.238 718.737 211.316 716.972 214.415C715.479 211.496 712.764 210.238 709.507 210.238C708.162 210.216 706.833 210.534 705.646 211.163C704.459 211.792 703.453 212.711 702.723 213.833V210.689H698.417L698.414 233.148ZM683.412 233.597C687.349 233.597 689.791 231.352 690.652 228.88V233.147H694.949V210.689H690.655V222.816C690.655 227.308 687.85 230.004 684.954 230.004H684.598C681.522 230.004 680.023 228.206 680.023 224.612V210.689H675.724V225.512C675.724 230.229 678.348 233.596 683.416 233.596L683.412 233.597ZM652.941 233.147H657.238V220.568C657.238 216.302 660.181 213.831 663.397 213.831H663.76C666.971 213.831 668.335 215.853 668.335 218.997V233.148H672.634V218.099C672.634 213.382 669.694 210.238 664.49 210.238C660.87 210.238 658.609 211.81 657.251 213.831V201.705H652.941V233.147ZM638.441 233.596C645.454 233.596 650.159 230.182 650.159 224.658C650.159 219.537 646.992 216.663 641.519 215.585L636.451 214.597C633.781 214.059 632.108 212.621 632.108 210.194C632.108 207.409 634.732 205.302 638.668 205.302H639.12C642.965 205.302 645.862 207.549 646.087 211.141H650.611C650.386 205.079 645.906 201.26 638.893 201.26C632.062 201.256 627.584 205.299 627.584 210.24C627.584 215.226 630.524 218.056 635.592 219.088L640.658 220.121C644.002 220.795 645.635 222.277 645.635 224.838C645.635 227.443 643.328 229.555 639.075 229.555H638.622C633.871 229.555 630.528 227.31 630.528 223.042H626C626.227 230.005 630.976 233.597 638.441 233.597" fill="#111111"/>
<path d="M815.299 186C798.523 186 784.525 199.078 783.689 215.897C783.275 224.226 786.211 232.378 791.85 238.559C797.49 244.739 805.371 248.443 813.761 248.855C814.292 248.882 814.82 248.894 815.345 248.893C823.608 248.887 831.541 245.675 837.452 239.943C843.364 234.212 846.785 226.413 846.986 218.212C847.187 210.011 844.152 202.057 838.529 196.046C832.906 190.035 825.139 186.444 816.886 186.038C816.358 186.012 815.83 186 815.302 186H815.299ZM815.302 189.145C815.777 189.145 816.258 189.157 816.733 189.18C822.307 189.453 827.678 191.345 832.179 194.621C836.681 197.897 840.114 202.413 842.055 207.608C843.995 212.803 844.356 218.45 843.094 223.847C841.832 229.245 839.002 234.155 834.955 237.971C829.67 242.973 822.646 245.759 815.345 245.749C814.871 245.749 814.389 245.736 813.914 245.714C808.34 245.439 802.97 243.546 798.469 240.27C793.969 236.994 790.536 232.478 788.596 227.283C786.657 222.088 786.296 216.442 787.558 211.045C788.82 205.648 791.65 200.737 795.697 196.922C800.98 191.923 808 189.137 815.299 189.145H815.302Z" fill="#111111"/>
<path d="M829.579 217.446C829.579 220.245 828.743 222.981 827.177 225.308C825.61 227.635 823.384 229.449 820.78 230.52C818.175 231.591 815.309 231.871 812.544 231.325C809.779 230.779 807.24 229.431 805.246 227.452C803.253 225.473 801.895 222.952 801.345 220.207C800.795 217.462 801.078 214.616 802.157 212.031C803.235 209.445 805.062 207.235 807.406 205.68C809.75 204.125 812.506 203.295 815.325 203.295C819.105 203.295 822.731 204.786 825.404 207.44C828.077 210.093 829.579 213.693 829.579 217.446Z" fill="#111111"/>
</g>
</g>
<defs>
<clipPath id="clip0_2339_16595">
<rect width="1000" height="283" fill="white"/>
</clipPath>
<clipPath id="clip1_2339_16595">
<rect width="464" height="75.8583" fill="white" transform="translate(0 0.550781)"/>
</clipPath>
<clipPath id="clip2_2339_16595">
<rect width="378" height="64.0261" fill="white" transform="translate(622 5.56641)"/>
</clipPath>
<clipPath id="clip3_2339_16595">
<rect width="159.644" height="72.5654" fill="white" transform="translate(297 185)"/>
</clipPath>
<clipPath id="clip4_2339_16595">
<rect width="129" height="122.436" fill="white" transform="translate(0 160.803)"/>
</clipPath>
<clipPath id="clip5_2339_16595">
<rect width="221" height="62.8933" fill="white" transform="translate(626 186)"/>
</clipPath>
</defs>
</svg>
