<svg width="155" height="46" viewBox="0 0 155 46" fill="none" xmlns="http://www.w3.org/2000/svg">
<g clip-path="url(#clip0_1135_6599)">
<path d="M16.2277 31.9051C10.7717 31.9051 6.99483 26.7877 6.99483 19.4164C6.99483 11.9981 10.7239 7.02145 16.2277 7.02145C21.7314 7.02145 25.4605 11.9981 25.4605 19.4164C25.4605 26.7877 21.6837 31.9051 16.2277 31.9051ZM16.2277 37.7741C26.3001 37.7741 32.4554 30.7787 32.4554 19.3694C32.4554 7.96013 26.3467 1.10449 16.2277 1.10449C6.10862 1.10449 0 7.96013 0 19.3694C0 30.7787 6.15523 37.7741 16.2277 37.7741Z" fill="#FAFAFA"/>
<path d="M47.9129 32.3954C44.2935 32.3954 41.602 29.464 41.602 25.5486V23.4902C41.602 19.5748 44.2891 16.6434 47.9129 16.6434C51.6909 16.6434 53.9799 19.619 53.9799 24.5189C53.9799 29.4187 51.6909 32.3954 47.9129 32.3954ZM35.2021 45.999H41.602C41.602 42.2178 41.4923 35.662 41.3799 32.7085H41.4687C42.6242 35.953 45.5817 37.7652 49.7797 37.7652C56.4016 37.7652 60.513 32.6853 60.513 24.5194C60.513 16.2856 56.4685 11.2742 49.8241 11.2742C45.5351 11.2742 42.5578 13.0864 41.4687 16.3303H41.3799C41.5356 15.0106 41.602 13.7125 41.602 11.9898H35.2021V45.999Z" fill="#FAFAFA"/>
<path d="M72.6985 37.5036C75.1208 37.5036 76.1874 37.28 77.4098 36.7433V31.4851C76.6322 31.8208 75.3878 32.1339 73.7432 32.1339C72.1879 32.1339 71.6768 31.3283 71.6768 29.1804V4.7522H65.2765V30.1875C65.2765 34.6203 68.2323 37.5036 72.6985 37.5036ZM61.7212 16.8302H76.6985V11.9971H61.7212V16.8302Z" fill="#FAFAFA"/>
<path d="M85.5569 7.29405C88.0455 7.29405 89.6233 5.88438 89.6233 3.62439C89.6233 1.38703 88.0455 0 85.5569 0C83.0683 0 81.49 1.38703 81.49 3.62439C81.49 5.88438 83.0677 7.29405 85.5569 7.29405ZM82.4014 37.0379H88.8012V11.9786H79.6528V16.8304H83.1357L82.4014 13.7234V37.0379Z" fill="#FAFAFA"/>
<path d="M103.857 37.775C106.681 37.7755 109.461 37.068 111.946 35.7165L110.835 30.3915C108.679 31.5549 105.991 32.4052 103.946 32.4052C100.013 32.4052 97.8589 29.6085 97.8589 24.5297C97.8589 19.4509 100.015 16.6537 103.926 16.6537C106.015 16.6537 108.814 17.5267 110.836 18.6674L111.947 13.3424C109.214 11.9554 106.547 11.2839 103.791 11.2839C96.1682 11.2839 91.3247 16.4074 91.3247 24.485C91.3242 32.6067 96.2131 37.775 103.857 37.775Z" fill="#FAFAFA"/>
<path d="M123.905 32.3833C121.437 32.3833 120.305 30.75 120.305 29.1841C120.305 26.4989 123.682 24.7314 129.038 24.5525V28.4911C127.997 31.0183 126.149 32.3833 123.905 32.3833ZM121.861 37.7531C125.105 37.7531 128.038 36.075 129.816 33.1889H129.905C130.705 36.075 132.571 37.5294 135.482 37.5294C136.423 37.5331 137.356 37.3665 138.238 37.0375V32.4727C137.927 32.5622 137.438 32.6069 137.127 32.6069C135.993 32.6069 135.438 32.0028 135.438 30.8621V19.8984C135.438 13.9472 132.594 11.2637 126.351 11.2637C121.707 11.2637 117.13 12.8749 114.618 15.2238L117.396 19.4975C119.73 17.5511 122.618 16.4766 125.485 16.4766C127.907 16.4766 129.04 17.4838 129.04 19.7211V20.4389C119.616 20.7713 113.903 24.4404 113.903 30.1476C113.903 34.4865 117.327 37.7531 121.861 37.7531V37.7531Z" fill="#FAFAFA"/>
<path d="M148.359 37.7538C151.204 37.7538 153.624 37.105 155.269 35.9195V30.5718C154.003 31.5784 151.491 32.4067 149.78 32.4067C147.692 32.4067 146.647 31.6011 146.647 29.319V0.896484H140.247V30.8849C140.248 35.0466 143.426 37.7538 148.359 37.7538Z" fill="#FAFAFA"/>
</g>
<defs>
<clipPath id="clip0_1135_6599">
<rect width="155" height="46" fill="white"/>
</clipPath>
</defs>
</svg>
