<svg id="Layer_1" data-name="Layer 1" xmlns="http://www.w3.org/2000/svg" viewBox="0 0 2470.75 1543.3"><defs><style>.cls-1{fill:#fafafa;}</style></defs><path class="cls-1" d="M48.31,140.17h70.57l14.35,37.55h34l-68.4-169H68.41L0,177.72H34ZM80.48,55.89a4.67,4.67,0,0,0,.33-.9q1-2.9,1.73-5.81a20.66,20.66,0,0,0,.73-4.92h.67a21.12,21.12,0,0,0,.62,4.59,54.49,54.49,0,0,0,1.51,5.36,13.31,13.31,0,0,1,.55,1.57l22,57.56H58.55Z"/><path class="cls-1" d="M211.2,106q-17.16,5.48-25.93,14.92a32,32,0,0,0-8.78,22.53,35.87,35.87,0,0,0,5.37,19.28,37.75,37.75,0,0,0,14.7,13.63,43.32,43.32,0,0,0,20.73,5,47.32,47.32,0,0,0,19.23-3.69,34,34,0,0,0,13.41-10.12,29.86,29.86,0,0,0,6.15-14.58H257q1.78,13.41,8.49,20.34t17.78,6.93a52,52,0,0,0,9.72-1,41.46,41.46,0,0,0,8.83-2.57V150.45a6.91,6.91,0,0,1-3.41,2,16.26,16.26,0,0,1-5.31.89q-4,0-5.81-2.29c-1.19-1.52-1.79-4-1.79-7.54V91q0-13.85-5.42-23.24A33.54,33.54,0,0,0,263.9,53.65Q253.18,49,237.19,49a92,92,0,0,0-21.69,2.46,76.53,76.53,0,0,0-19.06,7.37,80.11,80.11,0,0,0-16.59,12.3l17.66,21.24a39.38,39.38,0,0,1,14.81-12.24,44,44,0,0,1,19.84-4.64,27.24,27.24,0,0,1,11.73,2.23,15,15,0,0,1,7,6.71,24.07,24.07,0,0,1,2.35,11.29v3.58Q228.35,100.49,211.2,106Zm42.08,31.52a18.32,18.32,0,0,1-4.92,8.61,26.85,26.85,0,0,1-9.27,6.15,30.22,30.22,0,0,1-11.52,2.23,23,23,0,0,1-9.55-1.84,14.64,14.64,0,0,1-6.37-5.31,14.24,14.24,0,0,1-2.3-8,13.57,13.57,0,0,1,4.59-10.45q4.58-4.18,14.25-6.65a143.36,143.36,0,0,1,25.09-3.47Z"/><path class="cls-1" d="M475.15,171.57a45.79,45.79,0,0,0,19.9-17.32Q502,143.08,502,128.32q0-11.17-4.14-19.17a29.14,29.14,0,0,0-12.29-12.41q-8.16-4.41-20-4.86v-1a23.46,23.46,0,0,0,14.08-5.64,36.61,36.61,0,0,0,10.29-14.14,48.21,48.21,0,0,0,3.8-19.23q0-13.51-6.54-23.25A40.44,40.44,0,0,0,469,13.92a66.71,66.71,0,0,0-26.49-5h-64.6V177.72h66.84Q462.18,177.72,475.15,171.57ZM410.32,36.21h25q12.4,0,18.72,5t6.32,15.37q0,9.94-5.54,15.81t-15.48,5.87H410.32Zm0,69.31h31.07q13.2,0,20.24,6t7,17.66q0,10.06-5.42,15.31T447,149.78H410.32Z"/><path class="cls-1" d="M559.2,164.92q.34-4.63.34-8.88h.89a29.77,29.77,0,0,0,13,18.5q10.23,6.75,25.43,6.76,16.54,0,29-8.16t19.28-23.08Q654,135.14,654,115.35t-6.82-34.82q-6.82-15-19.34-23.3t-29-8.27q-15,0-25.2,6.7a30.45,30.45,0,0,0-13.25,18.56h-.89c.29-1.79.56-3.58.78-5.37q.55-5,.67-15.76t.11-48.62H528.91V177.72h29Q558.87,169.56,559.2,164.92ZM561.1,110a36.91,36.91,0,0,1,4.08-17.33,31.8,31.8,0,0,1,11.18-12.35A28.4,28.4,0,0,1,592,75.78a25.1,25.1,0,0,1,15.32,4.87,31.28,31.28,0,0,1,10.22,13.74,54.62,54.62,0,0,1,3.63,20.74,54.53,54.53,0,0,1-3.63,20.73,31.25,31.25,0,0,1-10.22,13.75A25.15,25.15,0,0,1,592,154.47,28.47,28.47,0,0,1,576.36,150a31.76,31.76,0,0,1-11.18-12.36,36.87,36.87,0,0,1-4.08-17.32Z"/><path class="cls-1" d="M765.2,170.79q16.88,10.29,40.46,10.28,22.14,0,38.4-9A58.68,58.68,0,0,0,868.7,146.2l-24.36-17.66a39.25,39.25,0,0,1-9.22,12.63,41.47,41.47,0,0,1-13.64,8.27,47.26,47.26,0,0,1-16.71,2.91q-20.12,0-30.85-15T763.19,94q0-28.38,10.79-43.48t30.9-15.09a40.68,40.68,0,0,1,16.21,3.08,30.61,30.61,0,0,1,11.79,8.71,32.34,32.34,0,0,1,6.43,13.47l28.28-13A59.22,59.22,0,0,0,854.9,25.15a53.91,53.91,0,0,0-20.68-13.86,77.44,77.44,0,0,0-27.89-4.7q-23.69,0-40.74,10.46t-26.1,30.17q-9,19.74-9,47.12,0,27.16,8.94,46.66T765.2,170.79Z"/><path class="cls-1" d="M906.26,173.59q13.41,7.71,32.19,7.71a69.63,69.63,0,0,0,27.27-5.09,51.19,51.19,0,0,0,20.12-14.92l-19.44-22q-6.82,8.39-12.36,11.57A25.43,25.43,0,0,1,941.13,154q-14.64,0-22.35-10.23t-7.71-29.12q0-12.3,3.29-20.9t9.56-13A25.45,25.45,0,0,1,939,76.34a28.64,28.64,0,0,1,10.45,1.85,23.49,23.49,0,0,1,8.22,5.31,28.19,28.19,0,0,1,5.7,8.38l24.25-17.33a49.1,49.1,0,0,0-11.34-14.36,44.47,44.47,0,0,0-15.54-8.44A66.84,66.84,0,0,0,940.69,49q-19.35,0-33.26,8a52.45,52.45,0,0,0-21.29,23.14q-7.38,15.14-7.38,36.16,0,20.44,7,35A50.21,50.21,0,0,0,906.26,173.59Z"/><path class="cls-1" d="M1165.8,166.94q17.1-10.78,26.66-30.13t9.55-44Q1202,68,1192.23,49a71.6,71.6,0,0,0-27.49-29.51Q1147,9,1124,8.94h-60.35V177.72h63Q1148.7,177.72,1165.8,166.94Zm-69.75-16.49V36.21h20.57q16.1,0,27.94,7a46.13,46.13,0,0,1,18.22,20.06q6.38,13.08,6.37,30.85,0,17.44-6,30.13A43.88,43.88,0,0,1,1146,143.69q-11.24,6.76-26.66,6.76Z"/><path class="cls-1" d="M1249,173.14q12.46,8.16,29.12,8.16,14.19,0,24.59-5.93a36.92,36.92,0,0,0,15.54-17.1h.89q.22,8.5,1,19.45H1348V4.47H1315.8q0,14.09.5,35.71t1.06,34h-.89a31.36,31.36,0,0,0-13.3-18.61q-10.07-6.64-25-6.65-16.55,0-29.06,8.21t-19.34,23.25q-6.81,15-6.81,34.93t6.81,34.71Q1236.55,165,1249,173.14Zm10.34-78.69a30.93,30.93,0,0,1,10.17-13.8,25.1,25.1,0,0,1,15.32-4.87,28.4,28.4,0,0,1,15.59,4.53,32.16,32.16,0,0,1,11.23,12.35A36.48,36.48,0,0,1,1315.8,110v10.28a38.65,38.65,0,0,1-3.91,17.6A30.3,30.3,0,0,1,1301,150.06a28.5,28.5,0,0,1-15.64,4.41,26.53,26.53,0,0,1-15.76-4.75,29.84,29.84,0,0,1-10.29-13.58,55.23,55.23,0,0,1-3.57-20.79A56.15,56.15,0,0,1,1259.35,94.45Z"/><polygon class="cls-1" points="1542.7 150.45 1469.82 150.45 1469.82 104.84 1531.52 104.84 1531.52 77.57 1469.82 77.57 1469.82 36.22 1542.7 36.22 1542.7 8.94 1437.41 8.94 1437.41 177.72 1542.7 177.72 1542.7 150.45"/><path class="cls-1" d="M1588.69,173.81q14.37,7.49,33.59,7.49a73.49,73.49,0,0,0,19.22-2.41,47.23,47.23,0,0,0,16.71-8.38,50.91,50.91,0,0,0,13.36-16.15L1648.1,140.5c-1,3.28-3.37,6.54-7,9.78s-9.89,4.86-18.83,4.86q-12.3,0-19.56-5.36A27.74,27.74,0,0,1,1592.6,135a56.08,56.08,0,0,1-1.89-9.34h79.63c.52-2.6,1-5.66,1.34-9.16a107.29,107.29,0,0,0,.56-11.51q0-18.12-5.92-30.63a41.17,41.17,0,0,0-17.55-18.95Q1637.15,49,1620.27,49q-20.36,0-34.21,9a55,55,0,0,0-20.67,24.25q-6.83,15.26-6.82,34.26,0,20.68,7.88,35.26A52.29,52.29,0,0,0,1588.69,173.81Zm12.58-94.17q6-4.53,16.54-4.53,11.51,0,18,5.59t6.49,17a47,47,0,0,1-.53,6.71h-51.12a62.8,62.8,0,0,1,2.19-12.13A23.62,23.62,0,0,1,1601.27,79.64Z"/><polygon class="cls-1" points="1785.47 110.88 1846.05 110.88 1846.05 83.61 1785.47 83.61 1785.47 36.22 1861.7 36.22 1861.7 8.94 1753.28 8.94 1753.28 177.72 1785.47 177.72 1785.47 110.88"/><path class="cls-1" d="M1888.08,177.72h32.19V77.12H1950V52.53h-29.73V42.7q.23-7.94,3.74-11t11.46-3a51.86,51.86,0,0,1,13.47,1.78c1.53.45,2.33.79,2.4,1v-28a72,72,0,0,0-10.17-2.35A78.28,78.28,0,0,0,1927.76,0q-12.85,0-21.69,4.3a29.44,29.44,0,0,0-13.41,13q-4.59,8.65-4.58,21.52V52.53h-17V77.12h17Z"/><path class="cls-1" d="M2056.69,169.9q16.48,11.17,37.72,11.17,13.86,0,23.59-3.35a41.61,41.61,0,0,0,15.7-9.16,39,39,0,0,0,9.11-13.64h.56q.55,7.83,1.23,12.35t2.12,11.57h20.12V83.72h-69.3v26.49L2140,110v30.29a27.69,27.69,0,0,1-6.37,5,49.4,49.4,0,0,1-13.75,5.19,81.64,81.64,0,0,1-18.78,2q-14.86,0-25.21-6.76T2060.21,126q-5.37-13-5.37-31.3,0-18.89,5.59-32.24t15.93-20.35q10.33-7,24.31-7,15.2,0,25.49,6.59a34,34,0,0,1,14.19,17.89l27.72-13.19a47.91,47.91,0,0,0-12.63-21.07A60.12,60.12,0,0,0,2133,11.68,89.15,89.15,0,0,0,2103,6.93q-25,0-43.26,10.12a68,68,0,0,0-28,29.28Q2022,65.5,2022,92.1q0,26.16,9.11,46.39T2056.69,169.9Z"/><path class="cls-1" d="M2215.41,172.86q12.45,8.22,29,8.21,14.87,0,24.87-6.65a31.42,31.42,0,0,0,13.25-18.61h.78v14.65q0,10.83-3.41,17.71a21.39,21.39,0,0,1-10.62,10.17q-7.2,3.3-18.61,3.3a78.66,78.66,0,0,1-20.9-2.79,79.85,79.85,0,0,1-19.45-8.27l-9.61,23.69a98.59,98.59,0,0,0,23.25,8.38,116.58,116.58,0,0,0,26.26,2.91q20.57,0,35.16-6.65t22.13-19.34q7.54-12.67,7.43-30.34l-.56-116.92h-27.83q-.78,10.95-1,19.45h-.89a36.92,36.92,0,0,0-15.54-17.1q-10.4-5.92-24.59-5.93-16.65,0-29.11,8.16T2196.13,80q-6.83,14.93-6.82,34.71t6.82,34.93Q2202.94,164.64,2215.41,172.86Zm10.34-79A29.81,29.81,0,0,1,2236,80.31a26.53,26.53,0,0,1,15.76-4.75A28.54,28.54,0,0,1,2267.44,80a30.28,30.28,0,0,1,10.84,12.19,38.58,38.58,0,0,1,3.91,17.6v10.29a36.55,36.55,0,0,1-4.13,17.32,32.19,32.19,0,0,1-11.24,12.35,28.4,28.4,0,0,1-15.59,4.53,25.1,25.1,0,0,1-15.31-4.86,30.82,30.82,0,0,1-10.17-13.81,55.91,55.91,0,0,1-3.58-20.9A55.1,55.1,0,0,1,2225.75,93.89Z"/><path class="cls-1" d="M2465.11,165.93q-5.66-7.87-16.82-12.3t-27.17-4.3l-20.34.11q-15.32.12-22.19-1.67t-6.87-6a6.39,6.39,0,0,1,1.28-3.63q1.29-1.84,4.87-3.13a30.79,30.79,0,0,1,10.06-1.29h13.52q16.55,0,29.29-5.36t19.78-15a36.72,36.72,0,0,0,7-22.18,35.82,35.82,0,0,0-7.26-22.3q-7.28-9.55-20-14.7c-1-.39-1.94-.75-2.93-1.09a16.5,16.5,0,0,1,7.46-6,47.14,47.14,0,0,1,17.49-4q9.27-.33,10.39,1.23V14.53a58,58,0,0,0-21.57,4.36A45.4,45.4,0,0,0,2423,31.74a29.83,29.83,0,0,0-7.14,18.37A87.18,87.18,0,0,0,2401.45,49a76.87,76.87,0,0,0-28.89,5.14q-12.79,5.15-20.12,14.64A35.42,35.42,0,0,0,2345.12,91a36.73,36.73,0,0,0,7.1,22.25,44.6,44.6,0,0,0,17,13.8v.49a65.69,65.69,0,0,0-17.72,7.56q-9.11,5.76-9.1,14,0,6.48,6,12.52a38.27,38.27,0,0,0,12.23,7.92v1.09a67.92,67.92,0,0,0-19.44,8.81q-10.07,6.77-10.06,16.83,0,8.59,7.88,16t22.52,11.79q14.64,4.41,33.87,4.42a132,132,0,0,0,37.55-5.09q17.22-5.08,27.5-15.14a32.61,32.61,0,0,0,10.28-24.15A30.4,30.4,0,0,0,2465.11,165.93ZM2384,75.5q6-5.52,17.33-5.53t17.38,5.53q6,5.53,6,15.15,0,9.84-6.09,15.93t-17.16,6.09q-11.05,0-17.27-6.15t-6.2-16Q2378,81,2384,75.5Zm43.54,123.91Q2418.32,203,2398,203a118,118,0,0,1-19.95-1.34c-5-.89-8.74-2.29-11.13-4.19a9.18,9.18,0,0,1-3.57-7.55q0-7,7.32-10.89t20.84-3.86h21.24q13.53,0,18.78,3.63t5.25,9.22Q2436.77,195.83,2427.55,199.41Z"/><polygon class="cls-1" points="14.31 273.94 14.31 442.72 46.72 442.72 46.72 368.5 116.24 368.5 116.24 442.72 148.66 442.72 148.66 273.94 116.24 273.94 116.24 341.23 46.72 341.23 46.72 273.94 14.31 273.94"/><path class="cls-1" d="M212.26,269.47H180.07V442.72h32.19V380.57q0-13.29,3.3-22.13t9.89-13.24q6.59-4.41,16.65-4.42,7.71,0,12.13,2.91t6.37,9.44q1.95,6.54,2,18.06v71.53h32.19V357.1q0-21.57-10.23-32.36T253.73,314a56.75,56.75,0,0,0-19.12,3A37.31,37.31,0,0,0,220.36,326a48.54,48.54,0,0,0-9.89,15.48h-.89q1.56-19.44,2.12-33.53T212.26,269.47Z"/><rect class="cls-1" x="382.38" y="273.94" width="32.64" height="168.78"/><path class="cls-1" d="M483,295.07a17.78,17.78,0,0,0,2.63-9.73,17.52,17.52,0,0,0-2.63-9.67,16.85,16.85,0,0,0-7.49-6.25,31.19,31.19,0,0,0-22.91,0,16.8,16.8,0,0,0-7.49,6.25,17.52,17.52,0,0,0-2.63,9.67,17.78,17.78,0,0,0,2.63,9.73,17,17,0,0,0,7.49,6.37,30.54,30.54,0,0,0,22.91,0A17,17,0,0,0,483,295.07Z"/><rect class="cls-1" x="447.88" y="317.53" width="32.86" height="125.19"/><polygon class="cls-1" points="510.58 415.67 510.69 442.72 618.33 442.72 618.44 415.67 580.78 415.67 580.78 300.99 618.22 300.99 618.11 273.94 510.92 273.94 510.81 300.99 548.14 300.99 548.14 415.67 510.58 415.67"/><polygon class="cls-1" points="686.85 442.72 686.85 317.53 622.69 317.53 622.69 342.13 653.99 342.13 653.99 442.72 686.85 442.72"/><path class="cls-1" d="M651.25,275.67a17.52,17.52,0,0,0-2.63,9.67,17.78,17.78,0,0,0,2.63,9.73,17,17,0,0,0,7.49,6.37,30.54,30.54,0,0,0,22.91,0,17,17,0,0,0,7.49-6.37,17.78,17.78,0,0,0,2.63-9.73,17.52,17.52,0,0,0-2.63-9.67,16.85,16.85,0,0,0-7.49-6.25,31.19,31.19,0,0,0-22.91,0A16.85,16.85,0,0,0,651.25,275.67Z"/><path class="cls-1" d="M797,275.67a16.85,16.85,0,0,0-7.49-6.25,31.19,31.19,0,0,0-22.91,0,16.85,16.85,0,0,0-7.49,6.25,17.52,17.52,0,0,0-2.63,9.67,17.78,17.78,0,0,0,2.63,9.73,17,17,0,0,0,7.49,6.37,30.54,30.54,0,0,0,22.91,0,17,17,0,0,0,7.49-6.37,17.78,17.78,0,0,0,2.63-9.73A17.52,17.52,0,0,0,797,275.67Z"/><polygon class="cls-1" points="761.85 442.72 794.71 442.72 794.71 317.53 718.26 317.53 718.26 339.33 761.85 339.33 761.85 442.72"/><path class="cls-1" d="M944.93,387.73A59,59,0,0,1,943.31,403a15.61,15.61,0,0,1-6.81,9.22q-5.21,3.35-15.49,3.35a112.93,112.93,0,0,1-14.69-1.12q-8.45-1.11-15.09-2.68t-7.77-2.57v30.4a122.36,122.36,0,0,0,18.5,4,133.16,133.16,0,0,0,17.6,1.22q17.55,0,30.4-5.3a41.47,41.47,0,0,0,20.12-17.33q7.27-12,7.27-31.58V273.94H944.93Z"/><path class="cls-1" d="M1005,490.11q19.11,0,29-9.94t9.9-30V317.53h-32.2V445.18a42.11,42.11,0,0,1-1.06,10.62,10.11,10.11,0,0,1-3.46,5.7,11,11,0,0,1-6.65,1.79,18.91,18.91,0,0,1-6.32-1,20.1,20.1,0,0,1-4.64-2.23l-1.11,26.26a25.21,25.21,0,0,0,7,2.91A41.81,41.81,0,0,0,1005,490.11Z"/><path class="cls-1" d="M1017,301.44a27.22,27.22,0,0,0,21.58,0,16.55,16.55,0,0,0,7.15-6.37,18.33,18.33,0,0,0,2.51-9.73q0-8.38-5.53-13.24t-14.92-4.86q-9.39,0-14.92,4.86t-5.53,13.24a18.33,18.33,0,0,0,2.51,9.73A16.55,16.55,0,0,0,1017,301.44Z"/><polygon class="cls-1" points="1135.17 273.94 1135.17 442.72 1167.59 442.72 1167.59 386.14 1187.36 364.27 1239.12 442.72 1277.13 442.72 1208.37 341.06 1269.08 273.94 1229.73 273.94 1167.59 346.93 1167.59 273.94 1135.17 273.94"/><polygon class="cls-1" points="1328.31 365.82 1328.31 269.47 1296.12 269.47 1296.12 442.72 1328.31 442.72 1328.31 398.12 1343.55 385.68 1379.95 442.72 1416.62 442.72 1365.54 365.09 1413.26 317.53 1373.92 317.53 1347.54 346.15 1328.31 365.82"/><polygon class="cls-1" points="1489.72 273.94 1489.72 442.72 1587.41 442.72 1587.41 413.66 1522.35 413.66 1522.35 273.94 1489.72 273.94"/><path class="cls-1" d="M1603.17,269.36V409.75q0,18.56,8.32,27.55t23.08,9a68.54,68.54,0,0,0,12.63-1.12,38.49,38.49,0,0,0,9.17-2.68V415.78q-1.12,1.46-4.53,2.63a22,22,0,0,1-7.21,1.17c-3.35,0-5.74-1.11-7.15-3.35s-2.12-6.33-2.12-12.29V269.36Z"/><path class="cls-1" d="M1717.4,446.3a91.75,91.75,0,0,0,16.54-1.4,47.39,47.39,0,0,0,11.74-3.41V414.11a33,33,0,0,1-18.67,5.47q-6.93,0-10.17-3.91t-3.24-13.19v-133h-32.19V408.18q0,19.45,9.38,28.78T1717.4,446.3Z"/><path class="cls-1" d="M1820.45,442.72h32.42V360.46l-3.36-50.75h.67l46,133H1924l46-133.46h.68l-3.36,51.2v82.26h32.42V273.94H1953l-37.56,112c-.3.89-.58,1.75-.84,2.57a21.15,21.15,0,0,1-.84,2.24c-1.34,4.1-2.22,6.87-2.62,8.32a16.68,16.68,0,0,0-.62,4.53h-.89a16.52,16.52,0,0,0-.56-4.3q-.57-2.07-2.35-7.55l-2-5.81-37.56-112h-46.72Z"/><path class="cls-1" d="M2138.22,341.9h-.6c-.13-.6-.26-1.21-.4-1.79q-3-12.18-11.57-19.17t-24.54-7q-16.09,0-26,7T2062,341.45h-.89q.78-5.93,1-11.23t.17-12.69h-31.08V442.72h32.19V378.34a59.12,59.12,0,0,1,2.86-18.89,30.33,30.33,0,0,1,8.66-13.58,21,21,0,0,1,14.31-5.09q7.93,0,12.07,4.42a22.43,22.43,0,0,1,5.47,11.4,90.23,90.23,0,0,1,1.34,16.82v69.3h32.2V378.34a59.12,59.12,0,0,1,2.85-18.89,30.42,30.42,0,0,1,8.66-13.58,21,21,0,0,1,14.31-5.09q7.93,0,12.07,4.42a22.43,22.43,0,0,1,5.47,11.4,90.15,90.15,0,0,1,1.35,16.82v69.3h32.19V360.9q0-23-9.39-35t-30.07-12q-15.87,0-26.16,7.1T2138.22,341.9Z"/><path class="cls-1" d="M156.26,538.94H123.85v89.2q0,7.82.61,15.37t2.29,19.73h-.45L52.2,538.94H14.31V707.72H46.72V620.54q0-9.39-.84-19.06t-2.18-19h.45l74,125.19h38.12Z"/><path class="cls-1" d="M261.33,579a56.75,56.75,0,0,0-19.12,3A37.31,37.31,0,0,0,228,591a48.37,48.37,0,0,0-9.89,15.48h-.89q.88-6.13,1.23-10.78t.33-13.14H187.67V707.72h32.19V645.57q0-12.51,3.58-21.4a28.7,28.7,0,0,1,10.73-13.64q7.14-4.74,17.66-4.75,7.36,0,11.23,2.74t5.48,9.17q1.62,6.42,1.62,18.5v71.53h32.19V622.1q0-21.57-10.29-32.36T261.33,579Z"/><path class="cls-1" d="M421.66,547.1q-17.49,10.39-26.82,30t-9.34,46.56q0,26.94,9.39,46.72t26.94,30.35q17.55,10.56,41.47,10.56t41.47-10.56q17.55-10.57,26.94-30.35t9.38-46.72q0-26.94-9.33-46.56t-26.82-30q-17.51-10.4-41.64-10.39T421.66,547.1ZM502,593q5.54,13.41,5.53,30.85T502,654.74q-5.58,13.53-15.64,21.07a38.94,38.94,0,0,1-46.06,0q-10-7.54-15.64-21.07T419,623.89q0-17.43,5.53-30.85t15.59-20.79a40,40,0,0,1,46.28,0Q496.49,579.63,502,593Z"/><path class="cls-1" d="M676.67,679.89q7.61-15,7.61-34.54t-7.61-34.76a55.63,55.63,0,0,0-21.46-23.36q-13.86-8.26-32-8.27t-32,8.32a56.39,56.39,0,0,0-21.57,23.42Q562,625.79,562,645.35t7.65,34.48A56.24,56.24,0,0,0,591.22,703q13.92,8.26,32,8.27t32-8.22A55.36,55.36,0,0,0,676.67,679.89ZM644,675.25q-7.44,9.22-21,9.22-13.29,0-20.73-9.28t-7.43-29.84q0-20.67,7.49-30.12T623,605.78q13.43,0,20.91,9.45t7.48,30.12Q651.41,666,644,675.25Z"/><path class="cls-1" d="M824.44,538.94H765.2V707.72h32.19V653.18h28.17q19.34,0,33.25-6.6a47.11,47.11,0,0,0,21.29-19.5q7.38-12.92,7.38-31.47T880,564.26a46.31,46.31,0,0,0-21.57-19Q844.34,538.94,824.44,538.94ZM851,612.55a23.68,23.68,0,0,1-11,10.28q-7.37,3.52-18.44,3.52H797.39V565.77h23q17.1,0,25.65,7.82t8.55,22.47Q854.62,605.78,851,612.55Z"/><path class="cls-1" d="M955.21,704.59q10.17,6.7,25,6.71,16.43,0,29-8.27t19.39-23.31q6.87-15,6.88-34.82t-6.82-34.7q-6.83-14.93-19.28-23.08t-29-8.16q-15.2,0-25.43,6.76a29.71,29.71,0,0,0-13,18.5H941q.78-4.92,1.17-10.06t.39-11.63H910.39v169.9h32.19q0-13.86-.45-34.37t-1-32h.78A31,31,0,0,0,955.21,704.59ZM942.58,640a36.48,36.48,0,0,1,4.14-17.33A32.16,32.16,0,0,1,958,610.31a28.4,28.4,0,0,1,15.59-4.53,25.1,25.1,0,0,1,15.32,4.87A30.93,30.93,0,0,1,999,624.45a55.81,55.81,0,0,1,3.57,20.79A55,55,0,0,1,999,665.92a31,31,0,0,1-10.17,13.69,25.15,25.15,0,0,1-15.32,4.86A28.47,28.47,0,0,1,958,680a32.11,32.11,0,0,1-11.23-12.36,36.44,36.44,0,0,1-4.14-17.32Z"/><path class="cls-1" d="M1121.42,577.56q-9.51,19.62-9.5,46.11t9.55,46.33q9.55,19.85,27.16,30.57t41.08,10.73a81.44,81.44,0,0,0,31.92-6l23.52,30.85,22.36-17.66-22.94-28.94A74.6,74.6,0,0,0,1258,670q9.55-19.85,9.56-46.33t-9.5-46.11q-9.51-19.62-27.11-30.23t-41.19-10.62q-23.58,0-41.19,10.62A69.94,69.94,0,0,0,1121.42,577.56Zm29.34,14.92q5.31-13.29,15.31-20.45t23.64-7.16q13.63,0,23.64,7.16t15.32,20.45q5.3,13.31,5.3,31.41t-5.36,31.63a55,55,0,0,1-4.09,8.2l-26.31-34.46-22.36,17.66L1203,681.31a42.51,42.51,0,0,1-13.33,2,39.21,39.21,0,0,1-23.53-7.2q-10-7.21-15.37-20.63t-5.36-31.63Q1145.45,605.79,1150.76,592.48Z"/><path class="cls-1" d="M1367.6,704.93q9.66-6.37,14.36-18.89h.78q-.56,19.66-.83,34.65t-.28,31.74h32.19V582.53h-29.51q-.55,5.49-.89,11.63c-.16,4.32-.23,7.67-.23,10.06h-.89q-6.27-13.08-15.43-19.17t-22.8-6.09q-16.54,0-29.06,8.21t-19.39,23.25q-6.88,15-6.88,34.93t6.82,34.71q6.81,14.91,19.23,23.08t29,8.16Q1357.93,711.3,1367.6,704.93Zm-42.42-39.07a61.84,61.84,0,0,1,0-41.47,30.82,30.82,0,0,1,10.17-13.74,25.07,25.07,0,0,1,15.32-4.87,28.42,28.42,0,0,1,15.59,4.53,32.23,32.23,0,0,1,11.23,12.35,36.48,36.48,0,0,1,4.14,17.33v10.28a36.44,36.44,0,0,1-4.14,17.32A32.19,32.19,0,0,1,1366.26,680a28.5,28.5,0,0,1-15.59,4.52,25.13,25.13,0,0,1-15.32-4.86A30.8,30.8,0,0,1,1325.18,665.86Z"/><path class="cls-1" d="M1563.37,538.94h-60.14V707.72h32.19V642.45h22.41l39.52,65.27h37.55l-46.08-71.53a63.08,63.08,0,0,0,14-6.82,46.66,46.66,0,0,0,16.15-17.55,49.92,49.92,0,0,0,5.25-23q0-15.19-7.26-26.49t-21-17.32Q1582.15,538.94,1563.37,538.94Zm24.53,66.23q-3.4,5.31-10.67,8.05t-18.56,2.62l-23.25-.18V565.77h23.92q15.87,0,23.92,7t8,19.22A23.78,23.78,0,0,1,1587.9,605.17Z"/><path class="cls-1" d="M1654.57,707.72h32.19V627a29.65,29.65,0,0,1,9.51-10.06,47.38,47.38,0,0,1,13.74-6.37,53,53,0,0,1,14.53-2.12c1,0,2.09,0,3.13.11s2,.18,3,.33l1.9-33.64q-17.55-1.12-28.56,6.37t-17.94,24.59h-.78q0-8-.89-23.7h-29.85Z"/><path class="cls-1" d="M1873.54,680.34a39,39,0,0,1-15.09,2.79,36.55,36.55,0,0,1-14-2.68,33.88,33.88,0,0,1-11.57-7.88,41.29,41.29,0,0,1-8.16-12.46L1799,677.43a47.83,47.83,0,0,0,21.69,25.09q15.42,8.78,38,8.78,19,0,33.14-6.48a50,50,0,0,0,21.85-18.5q7.71-12,7.72-28,0-12.18-4.81-21t-15-15.42q-10.23-6.6-27.11-11.85a127.7,127.7,0,0,1-20.45-7.88q-7.73-4-11.24-8.44a15.52,15.52,0,0,1-3.52-9.83,15.74,15.74,0,0,1,3-9.51,19.23,19.23,0,0,1,8.55-6.37,33.69,33.69,0,0,1,12.69-2.23,32,32,0,0,1,12.18,2.23,26.38,26.38,0,0,1,9.56,6.71,35.24,35.24,0,0,1,6.65,11.07L1919,570.24a54.2,54.2,0,0,0-12.41-18.33,51.94,51.94,0,0,0-18.5-11.35,69.84,69.84,0,0,0-23.86-3.85q-17.1,0-30.4,6a48.87,48.87,0,0,0-20.74,16.94,43.29,43.29,0,0,0-7.43,25,42.82,42.82,0,0,0,5.14,20.84,49.83,49.83,0,0,0,15.26,16.66,91.4,91.4,0,0,0,24.87,12,157.41,157.41,0,0,1,21.74,8.55q8,4.1,11.57,8.61a16.1,16.1,0,0,1,3.57,10.23,17.56,17.56,0,0,1-3.8,11.06A25.16,25.16,0,0,1,1873.54,680.34Z"/><path class="cls-1" d="M1964.74,583.71q-11.17,4.53-17.32,12.85a33.42,33.42,0,0,0-1.06,37.05q5.09,7.83,15,13.81A102.55,102.55,0,0,0,1986,657.65a86,86,0,0,1,15.48,5.86q5.31,2.85,7,5.37a9.31,9.31,0,0,1,1.67,5.2,9.21,9.21,0,0,1-2.29,6.37,13.91,13.91,0,0,1-6.54,3.85,34.78,34.78,0,0,1-10.06,1.29,46.26,46.26,0,0,1-16.48-2.85,49,49,0,0,1-13.3-7.43,63.19,63.19,0,0,1-10.34-10.4l-16.1,23.7a53,53,0,0,0,13,10.9,77.63,77.63,0,0,0,19.11,8.32,81.55,81.55,0,0,0,23.25,3.24,78.32,78.32,0,0,0,24.93-3.91,42.88,42.88,0,0,0,19.28-12.63q7.54-8.71,7.54-22.35,0-9.73-4.36-16.6t-13.3-12.24q-8.94-5.37-24.14-10.84c-2.54-.9-5.11-1.79-7.71-2.69q-7.95-2.79-11.63-4.41a17.67,17.67,0,0,1-5.81-3.86A7.78,7.78,0,0,1,1973,616a9.11,9.11,0,0,1,4.87-8.32,23.63,23.63,0,0,1,12.12-2.85,32.68,32.68,0,0,1,12.24,2.29,40.87,40.87,0,0,1,10.4,6,61.28,61.28,0,0,1,8.77,8.61L2040.19,603a51,51,0,0,0-20.68-17.83q-12.63-6-29.06-6A68,68,0,0,0,1964.74,583.71Z"/><polygon class="cls-1" points="2186.5 707.72 2186.5 565.77 2234.56 565.77 2234.56 538.94 2106.02 538.94 2106.02 565.77 2154.31 565.77 2154.31 707.72 2186.5 707.72"/><path class="cls-1" d="M2259.82,700.51q9.94,9.45,29.85,9.45a60.73,60.73,0,0,0,13.58-1.34,40.17,40.17,0,0,0,9.89-3.58V678.77c-.75,1-3,1.94-6.71,2.91a45.91,45.91,0,0,1-11.62,1.45q-5.14,0-7.83-1.51a8.37,8.37,0,0,1-3.8-5.08,37.14,37.14,0,0,1-1.11-10.4V606.68h30.85V582.53h-30.85V544l-32.2,11.18v27.38H2232v24.15h17.88v64.49Q2249.87,691.08,2259.82,700.51Z"/><path class="cls-1" d="M9.84,803.94V906.1q0,23.7,7,38.9a46.42,46.42,0,0,0,21.51,22.58Q52.86,975,75.56,975t36.94-7.32a46.06,46.06,0,0,0,21.35-22.53q7-15.2,7-39V803.94H108.42V907q0,20.57-8,30.29t-25,9.72q-17,0-25-9.72t-8-30.29V803.94Z"/><path class="cls-1" d="M185.82,970.65q8.55,5.65,21.63,5.65a44.49,44.49,0,0,0,16.65-2.91,32.55,32.55,0,0,0,12.47-8.77,42.68,42.68,0,0,0,8.21-14.7h.9v8.38c.07,3.21.13,5.59.16,7.16s.1,4,.17,7.26H276.3V847.53H244.11v67.74A47.06,47.06,0,0,1,241,933a28.74,28.74,0,0,1-8.6,12.12A19.4,19.4,0,0,1,220,949.47a14.86,14.86,0,0,1-10.73-4.08Q205,941.31,203,933.1a89.3,89.3,0,0,1-2-20.74V847.53H168.78v77.35q0,17.32,4.24,28.73T185.82,970.65Z"/><polygon class="cls-1" points="446.64 972.95 509.91 803.94 474.81 803.94 430.77 936.28 430.32 936.28 386.29 803.94 351.19 803.94 414.68 972.95 446.64 972.95"/><polygon class="cls-1" points="568.14 944.33 542.43 847.53 506.89 847.53 550.93 972.72 585.36 972.72 629.39 847.53 593.85 847.53 568.14 944.33"/><polygon class="cls-1" points="803.2 855.36 834.72 972.95 869.82 972.95 916.76 803.94 880.77 803.94 851.94 933.38 851.49 933.38 820.41 809.31 785.54 809.31 754.69 933.38 754.24 933.38 725.41 803.94 689.42 803.94 736.36 972.95 771.46 972.95 802.75 855.36 803.2 855.36"/><polygon class="cls-1" points="995.9 849.99 972.54 942.1 953.76 847.53 919.33 847.53 955.32 972.72 990.87 972.72 1012.11 882.18 1033.34 972.72 1068.89 972.72 1104.88 847.53 1070.45 847.53 1051.67 942.1 1028.31 849.99 995.9 849.99"/><polygon class="cls-1" points="1252.77 907.6 1292.43 972.72 1331.11 972.72 1273.2 884.84 1330.66 803.94 1292.77 803.94 1253.14 865.08 1213.52 803.94 1175.07 803.94 1232.53 884.84 1174.62 972.72 1212.74 972.72 1252.77 907.6"/><polygon class="cls-1" points="1376.26 847.53 1339.38 847.53 1380.95 909.08 1338.93 972.72 1376.04 972.72 1399.26 929.73 1423.21 972.72 1460.32 972.72 1418.51 909.09 1460.09 847.53 1423.21 847.53 1400.19 888.68 1376.26 847.53"/><path class="cls-1" d="M1613.67,907.45l61.47-103.28H1639l-37,67.17-1.11,2a40,40,0,0,0-2.52,5,12.12,12.12,0,0,0-.73,4.41H1597a12.62,12.62,0,0,0-.72-4.47,42.71,42.71,0,0,0-2.63-5.25l-1-1.68-37-67.17h-36.11l61.7,103.28v65.27h32.42Z"/><path class="cls-1" d="M1738.41,990.94l.45-1.23,52.31-142.18h-34.43l-24,79.25a4.48,4.48,0,0,0-.34,1c-.07.34-.15.69-.22,1.06a64,64,0,0,0-1.73,7.44,42.49,42.49,0,0,0-.62,7.09h-1.23a26.74,26.74,0,0,0-.78-6.48c-.52-2.08-1.27-4.77-2.24-8.05l-.67-2-24-79.25h-35.54L1713,976.23l-.7,1.86a.31.31,0,0,0-.11.22.33.33,0,0,1-.11.22,33.05,33.05,0,0,1-4.3,8.22,15.49,15.49,0,0,1-6.21,4.86,23.53,23.53,0,0,1-9.5,1.68,68.89,68.89,0,0,1-7.77-.51,56.22,56.22,0,0,1-7.82-1.39q-3.4-.9-4.19-1.9v26.82a60.84,60.84,0,0,0,11.51,2.74,87.55,87.55,0,0,0,13.3,1.06,48.17,48.17,0,0,0,18.22-3.18,36.13,36.13,0,0,0,13.53-9.61A54.63,54.63,0,0,0,1738.41,990.94Z"/><polygon class="cls-1" points="1977.38 945.9 1899.08 945.9 1977.38 827.64 1977.38 803.94 1860.91 803.94 1860.91 830.77 1938.75 830.77 1860.91 948.13 1860.91 972.72 1977.38 972.72 1977.38 945.9"/><polygon class="cls-1" points="2093.63 868.55 2093.63 847.53 1997.95 847.53 1997.95 874.36 2053.55 874.36 2048.47 880.84 1995.71 953.94 1995.71 972.72 2093.63 972.72 2093.63 945.9 2036.68 945.9 2042.1 939.08 2093.63 868.55"/><path class="cls-1" d="M144,1109.63q-7.65-19-23-28.84T82.94,1071q-22.81,0-38.23,9.84t-23.08,28.84Q14,1128.63,14,1156t7.66,46.39q7.65,19,23.08,28.89t38.23,9.9q22.8,0,38.11-9.9t23-28.89q7.65-19,7.66-46.39T144,1109.63Zm-29.4,78q-3.74,12.69-11.62,19.17t-20.06,6.48q-12.19,0-20.12-6.48t-11.74-19.17q-3.8-12.69-3.8-31.58t3.8-31.46q3.8-12.69,11.68-19.17t20.18-6.48q12.18,0,20.06,6.48t11.62,19.11q3.75,12.65,3.75,31.52T114.62,1187.59Z"/><path class="cls-1" d="M259.76,1137.57a21.71,21.71,0,0,0-21.68,0,21.92,21.92,0,0,0-7.83,7.83,21,21,0,0,0-2.9,10.84,20.23,20.23,0,0,0,2.9,10.62,21.75,21.75,0,0,0,7.83,7.65,22,22,0,0,0,21.68,0,21.75,21.75,0,0,0,7.83-7.65,20.23,20.23,0,0,0,2.9-10.62,21,21,0,0,0-2.9-10.84A21.92,21.92,0,0,0,259.76,1137.57Z"/><path class="cls-1" d="M287.15,1080.79Q271.84,1071,249,1071t-38.22,9.84q-15.44,9.84-23.09,28.84T180.07,1156q0,27.39,7.65,46.39t23.09,28.89q15.42,9.9,38.22,9.9t38.12-9.9q15.32-9.88,23-28.89t7.65-46.39q0-27.37-7.65-46.38T287.15,1080.79Zm-6.43,106.8q-3.75,12.69-11.62,19.17T249,1213.24q-12.18,0-20.12-6.48t-11.73-19.17q-3.81-12.69-3.8-31.58t3.8-31.46q3.8-12.69,11.68-19.17T249,1098.9q12.18,0,20.07,6.48t11.62,19.11q3.75,12.65,3.74,31.52T280.72,1187.59Z"/><path class="cls-1" d="M376.9,1231.29q15.44,9.9,38.23,9.9t38.12-9.9q15.3-9.88,23-28.89t7.66-46.39q0-27.37-7.66-46.38t-23-28.84q-15.31-9.84-38.12-9.84t-38.23,9.84q-15.42,9.84-23.08,28.84T346.17,1156q0,27.39,7.65,46.39T376.9,1231.29Zm38.23-18q-12.18,0-20.12-6.48t-11.74-19.17q-3.79-12.69-3.8-31.58a135.37,135.37,0,0,1,1.47-21L436.06,1206c-.29.26-.57.53-.87.78Q427.32,1213.24,415.13,1213.24Zm0-114.34q12.18,0,20.06,6.48t11.63,19.11q3.74,12.65,3.74,31.52a140.16,140.16,0,0,1-1.36,20.45l-54.82-70.56c.19-.17.38-.36.58-.52Q402.84,1098.9,415.13,1098.9Z"/><path class="cls-1" d="M619.23,1080.79Q603.81,1071,581,1071t-38.11,9.84q-15.32,9.84-23,28.84T512.26,1156q0,27.39,7.66,46.39t23,28.89q15.32,9.9,38.11,9.9t38.23-9.9q15.42-9.88,23.08-28.89T650,1156q0-27.37-7.66-46.38T619.23,1080.79Zm-69.92,43.7q3.75-12.63,11.63-19.11T581,1098.9q12.3,0,20.18,6.48c.2.16.38.35.57.52l-54.82,70.56a140.16,140.16,0,0,1-1.36-20.45Q545.57,1137.13,549.31,1124.49Zm63.55,63.1q-3.81,12.69-11.74,19.17T581,1213.24q-12.18,0-20.06-6.48c-.3-.25-.58-.52-.87-.78L615.19,1135a135.37,135.37,0,0,1,1.47,21Q616.66,1174.91,612.86,1187.59Z"/><path class="cls-1" d="M741.17,1237.72V1073.41l-31-.22-40.57,25.26v33.09l34.43-21.91a28.47,28.47,0,0,0,5.7-5.15v133.24Z"/><path class="cls-1" d="M827.86,1208.44a25.16,25.16,0,0,0,5.19-4l32.08-33.64a171.18,171.18,0,0,0,15.43-18.33,60.3,60.3,0,0,0,8.05-15.26,49.28,49.28,0,0,0,2.45-15.7q0-15.43-7.15-26.83a46.48,46.48,0,0,0-20.45-17.55q-13.31-6.15-31.41-6.15-18.33,0-31.41,6.38a44.17,44.17,0,0,0-19.73,18.1q-6.64,11.74-5.87,27.72l29,4.92q-1.11-9,1.9-15.87a21.65,21.65,0,0,1,9.9-10.51q6.87-3.69,16.71-3.69a35.25,35.25,0,0,1,15,2.91,21.09,21.09,0,0,1,9.56,8.49,25.72,25.72,0,0,1,3.3,13.31,28.56,28.56,0,0,1-1.68,9.78,39.28,39.28,0,0,1-5.59,9.89,129.54,129.54,0,0,1-10.73,12.29l-61.92,63.16.22,19.89H895V1210.9h-71.7Q826.1,1209.51,827.86,1208.44Z"/><path class="cls-1" d="M1028.49,1216q7.77-12,7.77-27.89,0-15.42-7.6-26.15t-22.36-16.26a84.78,84.78,0,0,0-19.17-4.52c1.16-1,2.28-2,3.3-2.92l41.69-38.56v-26.27H922.81v26.94H995.5a58.25,58.25,0,0,0-6.07,4.92l-39.68,37.44v22.47a87.93,87.93,0,0,1,16.32-1.45q19,0,28.72,6t9.73,17.82a25,25,0,0,1-4,14,26.72,26.72,0,0,1-11.18,9.55,37.64,37.64,0,0,1-16.43,3.41,41,41,0,0,1-16.32-3.69,49.28,49.28,0,0,1-14.53-9.44q-6-5.76-6.93-11.46l-21.23,22.8q4.25,8.28,13.41,14.76a73.38,73.38,0,0,0,21.46,10.17,87.78,87.78,0,0,0,25.37,3.69q18.45,0,32.53-6.65A51.52,51.52,0,0,0,1028.49,1216Z"/><path class="cls-1" d="M1057.38,1200.39h78.39l.08,37.33,31.52.11v-37.44h31.41v-25.93h-31.41v-38.34l-31.75-.11.09,38.45h-46a93.17,93.17,0,0,0,7.25-10.73l51.3-90.32h-34.87l-55.55,100.15Z"/><path class="cls-1" d="M1263.94,1241.3q19.66,0,34.15-6.76a50.92,50.92,0,0,0,22.3-19.34q7.81-12.57,7.82-29.57,0-16-6.76-28.22a47.89,47.89,0,0,0-19.06-19.06q-12.3-6.81-28.17-6.81a69,69,0,0,0-27,5.36l-1.12.5a44.41,44.41,0,0,0,1.51-6l5.18-31h67.25v-27H1225.6l-9.95,78.58,21.24,15.65a36.07,36.07,0,0,1,12.74-8.44,42.82,42.82,0,0,1,15.76-2.85,35.8,35.8,0,0,1,16,3.35,23.63,23.63,0,0,1,10.34,9.67,29.74,29.74,0,0,1,3.58,14.92,31.4,31.4,0,0,1-3.86,15.82,26.28,26.28,0,0,1-10.9,10.45,34.89,34.89,0,0,1-16.43,3.69,41.65,41.65,0,0,1-14.64-2.85,48,48,0,0,1-13.36-7.49c-3.83-3.09-6.39-6.35-7.65-9.78l-20.57,21a44.77,44.77,0,0,0,13,14,62.62,62.62,0,0,0,19.34,9.06A86.37,86.37,0,0,0,1263.94,1241.3Z"/><path class="cls-1" d="M1415.51,1241.3q18,0,31.85-6.82a51.14,51.14,0,0,0,21.52-19.23q7.65-12.4,7.65-28.5A54.37,54.37,0,0,0,1470,1160a46.18,46.18,0,0,0-18.33-18.33,54.31,54.31,0,0,0-26.78-6.54,60.35,60.35,0,0,0-22,3.91q-10.07,3.92-15.32,10.62l-.78-.33q4.24-12,14.2-26.33a209.56,209.56,0,0,1,22.91-27.55,174.63,174.63,0,0,1,25.93-22H1410.7q-20.46,19.13-33,36.27t-18.5,34.15a107.21,107.21,0,0,0-5.92,35.55q0,18.88,7.6,32.86a52.32,52.32,0,0,0,21.63,21.51Q1396.51,1241.3,1415.51,1241.3Zm-25.88-69.47a23.73,23.73,0,0,1,10.12-9.84,33.66,33.66,0,0,1,15.64-3.41q13.42,0,20.85,7.38t7.43,20.79a31.43,31.43,0,0,1-3.29,15,21.71,21.71,0,0,1-9.67,9.33q-6.37,3.2-15.54,3.19a35.46,35.46,0,0,1-15.7-3.19,22.21,22.21,0,0,1-10-9.27,29.59,29.59,0,0,1-3.41-14.7A31.28,31.28,0,0,1,1389.63,1171.83Z"/><path class="cls-1" d="M1534.66,1237.72,1593,1100.24v-26.83H1479.22v27h74.89c2.31,0,4.64-.13,7-.36l-61.2,137.62Z"/><path class="cls-1" d="M1728.7,1168.65v-25.94h-22.5l18-42.47v-26.83H1610.44v27h74.89c2.31,0,4.64-.13,7-.36l-19,42.61h-38.9v25.94h27.37l-30.72,69.07h34.76l29.32-69.07Z"/><path class="cls-1" d="M1865.62,1218.38a43.13,43.13,0,0,0,7.71-25.48,41.79,41.79,0,0,0-7.88-25.26q-7.87-10.85-23.08-18c-.71-.35-1.45-.67-2.21-1,.67-.34,1.33-.68,2-1a41.81,41.81,0,0,0,15.93-14.7,39,39,0,0,0-1.34-41.8,44.28,44.28,0,0,0-18.84-14.87q-12.08-5.29-27.61-5.31-15.75,0-28,5.48a44.78,44.78,0,0,0-19,15.31,38.84,38.84,0,0,0-6.82,22.69,42.54,42.54,0,0,0,5.42,21.19,34.91,34.91,0,0,0,14.92,14.47c.56.29,1.14.56,1.72.81-.83.42-1.67.85-2.5,1.31q-14.31,7.83-21.63,18.45a40.78,40.78,0,0,0-7.32,23.69,39.8,39.8,0,0,0,7.93,24.48q7.93,10.62,22.3,16.54t33.26,5.93q19,0,33.19-6T1865.62,1218.38Zm-75-112.5a19.74,19.74,0,0,1,8.27-7,27.53,27.53,0,0,1,11.9-2.51,26.09,26.09,0,0,1,11.46,2.4,18,18,0,0,1,7.71,6.87,19.37,19.37,0,0,1,2.74,10.29,20.73,20.73,0,0,1-6.76,15.59,33.7,33.7,0,0,1-13.29,7.42c-7.09-1.57-12.76-3.94-16.95-7.14q-8-6.15-8.05-15.54A18.44,18.44,0,0,1,1790.57,1105.88Zm42.64,102.61q-7.71,6.32-21.91,6.32a43.88,43.88,0,0,1-16.54-2.85,25.05,25.05,0,0,1-11-8.16,23,23,0,0,1-4.42-12.69q-.78-12.08,8.78-20.73a50.43,50.43,0,0,1,15.39-9.12,123.26,123.26,0,0,1,19.82,6.27q9.21,4,13.41,9.55a21.87,21.87,0,0,1,4.19,13.58Q1840.92,1202.18,1833.21,1208.49Z"/><path class="cls-1" d="M1944.42,1215.31q-11.85,14.48-20.9,22.41h38.23a220.23,220.23,0,0,0,26.94-34.87,199.33,199.33,0,0,0,18.72-37.84q6.77-18.72,6.76-33.25,0-19.11-7.38-32.75a49.47,49.47,0,0,0-21.35-20.85q-14-7.2-33.53-7.21-18.33,0-32.19,6.71a49.49,49.49,0,0,0-21.35,19.06q-7.48,12.35-7.49,28.78a54.24,54.24,0,0,0,6.54,26.77,46.18,46.18,0,0,0,18.33,18.33,54.27,54.27,0,0,0,26.77,6.54,57.72,57.72,0,0,0,20.63-3.58q9.43-3.57,14.47-9.83l.56.44q-2.68,7.83-12.3,22.25T1944.42,1215.31Zm29.06-69.24q-7.82,7.59-21.46,7.6-13.41,0-20.84-7.38t-7.43-20.79q0-8.84,3.29-15a21.66,21.66,0,0,1,9.67-9.33,34.54,34.54,0,0,1,15.54-3.19,35.59,35.59,0,0,1,15.7,3.19,22.23,22.23,0,0,1,10,9.28,29.68,29.68,0,0,1,3.41,14.69Q1981.31,1138.46,1973.48,1146.07Z"/><path class="cls-1" d="M42.87,1468.46A25.68,25.68,0,0,0,31,1465.84a26,26,0,0,0-12,2.62,19.11,19.11,0,0,0-7.88,7.16,18.89,18.89,0,0,0-2.74,10,19.94,19.94,0,0,0,2.85,10.45,20.19,20.19,0,0,0,8,7.49A24.66,24.66,0,0,0,31,1506.3a24.3,24.3,0,0,0,11.68-2.74,19.83,19.83,0,0,0,7.88-7.49,20.27,20.27,0,0,0,2.8-10.45,19.22,19.22,0,0,0-2.69-10A18.84,18.84,0,0,0,42.87,1468.46Z"/><polygon class="cls-1" points="73.21 1543.3 103.84 1543.3 127.98 1469.97 90.53 1469.97 73.21 1543.3"/><path class="cls-1" d="M237.4,1338q-12.74-6.27-29.62-6.26a81.66,81.66,0,0,0-25.65,3.91,77.69,77.69,0,0,0-20.23,9.72q-8.33,5.82-12.35,11.63l20.79,21.91a26.92,26.92,0,0,1,6.26-7.55,36.64,36.64,0,0,1,11.46-6.54,46.06,46.06,0,0,1,16.37-2.68,40.14,40.14,0,0,1,15.59,2.74,22,22,0,0,1,10,7.82,21,21,0,0,1,3.46,12.13,17.34,17.34,0,0,1-2,8.33q-2,3.63-7.21,7.77a119.28,119.28,0,0,1-15.43,9.72,49.13,49.13,0,0,0-13.24,10.23,29.53,29.53,0,0,0-6.71,13,46.19,46.19,0,0,0-.39,17h30.18a21.15,21.15,0,0,1,.22-11.07,22.2,22.2,0,0,1,6.43-9.27A74.36,74.36,0,0,1,239.3,1421q13-7.26,18.78-17a43.19,43.19,0,0,0,5.81-22.52,48.92,48.92,0,0,0-6.87-25.94A46.12,46.12,0,0,0,237.4,1338Z"/><path class="cls-1" d="M215.5,1469.19a23.8,23.8,0,0,0-11.18-2.46,24.47,24.47,0,0,0-11.29,2.46,17.4,17.4,0,0,0-7.32,6.76,19.05,19.05,0,0,0,.17,19.23,19,19,0,0,0,7.49,7,22.76,22.76,0,0,0,10.95,2.57,22.48,22.48,0,0,0,10.9-2.57,18.67,18.67,0,0,0,10-16.76,18.33,18.33,0,0,0-2.51-9.5A17.67,17.67,0,0,0,215.5,1469.19Z"/><path class="cls-1" d="M316.71,1468.46a25.63,25.63,0,0,0-11.91-2.62,26,26,0,0,0-12,2.62,19.17,19.17,0,0,0-7.88,7.16,19,19,0,0,0-2.73,10,20,20,0,0,0,10.84,17.94,24.65,24.65,0,0,0,11.73,2.74,24.37,24.37,0,0,0,11.69-2.74,19.89,19.89,0,0,0,7.88-7.49,20.27,20.27,0,0,0,2.79-10.45,19.21,19.21,0,0,0-2.68-10A18.81,18.81,0,0,0,316.71,1468.46Z"/><polygon class="cls-1" points="291.06 1443.48 318.33 1443.48 323.92 1333.94 285.47 1333.94 291.06 1443.48"/><path class="cls-1" d="M500.63,1454.6a68.8,68.8,0,0,0,6.15-27.55q0-3-.23-6.54a13.22,13.22,0,0,0-.78-4.53H476.93a41.46,41.46,0,0,1,1.23,10.85,48.17,48.17,0,0,1-1.17,11,37.52,37.52,0,0,1-4,9.89c-.54,1-1.15,1.93-1.81,2.92l-31-30.82a54.77,54.77,0,0,0,16.37-8.48,41.39,41.39,0,0,0,12.35-15.09A44.19,44.19,0,0,0,473,1377.2a45,45,0,0,0-6.2-23.47,42.72,42.72,0,0,0-17.38-16.21,54.5,54.5,0,0,0-25.49-5.81,55.17,55.17,0,0,0-24.75,5.42,41.78,41.78,0,0,0-17.16,15,38.49,38.49,0,0,0-6.15,21.29,39.22,39.22,0,0,0,4.47,18.33,72.79,72.79,0,0,0,9.85,14,53.7,53.7,0,0,0-28.51,24.88,49.59,49.59,0,0,0-5.93,23.64,45.91,45.91,0,0,0,8.11,26.44q8.1,11.89,22.69,18.77t33.14,6.88a80.65,80.65,0,0,0,23.3-3.24,66.31,66.31,0,0,0,19.45-9.39,62.62,62.62,0,0,0,7.4-6.16l13.67,15.32h39.9L491.55,1470A71.61,71.61,0,0,0,500.63,1454.6Zm-93.16-87.52a17.16,17.16,0,0,1,6.76-6.59A21.53,21.53,0,0,1,425,1358a21.92,21.92,0,0,1,10.51,2.41,16.87,16.87,0,0,1,6.87,6.65,19.17,19.17,0,0,1,2.4,9.61q0,8.05-6.76,14.08-5.73,5.13-19.08,7.91l-2.32-2.32a54.43,54.43,0,0,1-8.28-10.06,19.81,19.81,0,0,1-3.12-10.62A17.19,17.19,0,0,1,407.47,1367.08Zm29.78,107.59a49.09,49.09,0,0,1-15.53,2.12q-10.85-.11-18.22-4a26.83,26.83,0,0,1-11-9.83,24,24,0,0,1-3.57-12.47,19.13,19.13,0,0,1,7.21-15.25c3.74-3.17,8.77-5.67,15.06-7.55l38.87,40.33-.45.36A41.37,41.37,0,0,1,437.25,1474.67Z"/><polygon class="cls-1" points="528.8 1407.49 559.2 1407.49 581.78 1335.95 544.67 1335.95 528.8 1407.49"/><polygon class="cls-1" points="587.25 1407.49 617.66 1407.49 640.24 1335.95 603.13 1335.95 587.25 1407.49"/><polygon class="cls-1" points="736.03 1382.45 742.73 1360.1 716.13 1352.5 732.45 1329.69 713.23 1316.51 697.58 1339.75 680.81 1316.95 662.48 1331.26 679.47 1353.39 653.09 1361.66 660.91 1384.24 686.85 1374.4 686.85 1402.35 710.1 1402.35 709.42 1374.18 736.03 1382.45"/><rect class="cls-1" x="764.08" y="1297.73" width="86.74" height="18.44"/><path class="cls-1" d="M792.25,1333.72l-68.41,169h34l14.33-37.55h70.57l14.36,37.55h34l-68.41-169Zm-9.86,104.62,21.93-57.45a4.72,4.72,0,0,0,.34-.9c.67-1.93,1.24-3.87,1.73-5.81a21.1,21.1,0,0,0,.72-4.92h.67a21.12,21.12,0,0,0,.62,4.59q.61,2.67,1.51,5.36a14.06,14.06,0,0,1,.56,1.57l22,57.56Z"/><path class="cls-1" d="M947.05,1293.82a21.65,21.65,0,0,0,1.85,15.48A25.43,25.43,0,0,0,960.63,1320a46.37,46.37,0,0,0,37,0,25.46,25.46,0,0,0,11.74-10.73,21.64,21.64,0,0,0,1.84-15.48h-20.9q1.91,6.14-1.28,9.55t-9.9,3.41q-6.71,0-9.89-3.41t-1.28-9.55Z"/><path class="cls-1" d="M963.93,1333.72l-68.4,169h34l14.34-37.55h70.57l14.35,37.55h34l-68.41-169Zm-9.85,104.62L976,1380.89a4.72,4.72,0,0,0,.34-.9q1-2.9,1.73-5.81a21.18,21.18,0,0,0,.73-4.92h.67a21,21,0,0,0,.61,4.59c.41,1.78.92,3.57,1.51,5.36a12.3,12.3,0,0,1,.56,1.57l22,57.56Z"/><path class="cls-1" d="M1182.62,1344.45q-17.73-10.5-40.74-10.51h-60.36v71.76h-14.2V1431h14.2v71.76h63q22,0,39.12-10.78t26.66-30.13q9.56-19.33,9.55-44t-9.78-43.81A71.53,71.53,0,0,0,1182.62,1344.45Zm-1.57,104.79a43.88,43.88,0,0,1-17.21,19.45q-11.23,6.76-26.66,6.76h-23.25V1431H1143V1405.7h-29.06v-44.48h20.57q16.1,0,27.94,7a46.13,46.13,0,0,1,18.22,20.06q6.38,13.08,6.37,30.85Q1187,1436.56,1181.05,1449.24Z"/><path class="cls-1" d="M1360.79,1477.46a16.26,16.26,0,0,1-5.31.89q-4,0-5.81-2.29c-1.2-1.52-1.79-4-1.79-7.54V1416q0-13.85-5.42-23.24a33.59,33.59,0,0,0-16.15-14.09q-10.74-4.7-26.72-4.69a92,92,0,0,0-21.68,2.46,76.24,76.24,0,0,0-19.06,7.37,80.16,80.16,0,0,0-16.6,12.3l17.66,21.24a39.46,39.46,0,0,1,14.81-12.24,44,44,0,0,1,19.84-4.64,27.26,27.26,0,0,1,11.74,2.23,15,15,0,0,1,7,6.71,24.2,24.2,0,0,1,2.35,11.29v3.58q-24.93,1.23-42.09,6.7t-25.93,14.92a32,32,0,0,0-8.77,22.53,36,36,0,0,0,5.36,19.28,37.89,37.89,0,0,0,14.7,13.63,43.33,43.33,0,0,0,20.74,5,47.31,47.31,0,0,0,19.22-3.69,34,34,0,0,0,13.41-10.12,29.67,29.67,0,0,0,6.15-14.58h.9q1.78,13.41,8.49,20.34t17.77,6.93a52.15,52.15,0,0,0,9.73-1,41.63,41.63,0,0,0,8.83-2.57v-26.15A7,7,0,0,1,1360.79,1477.46Zm-45.1-15a18.5,18.5,0,0,1-4.92,8.61,27,27,0,0,1-9.28,6.15,30.17,30.17,0,0,1-11.51,2.23,23,23,0,0,1-9.56-1.84,14.7,14.7,0,0,1-6.37-5.31,14.23,14.23,0,0,1-2.29-8,13.59,13.59,0,0,1,4.58-10.45q4.59-4.18,14.25-6.65a143.49,143.49,0,0,1,25.1-3.47Z"/><path class="cls-1" d="M1309.32,1336.07a14.75,14.75,0,0,0-4.48,11.06,13.3,13.3,0,0,0,4.53,10.34,16.32,16.32,0,0,0,11.35,4.08,16.1,16.1,0,0,0,11.45-4.13,13.89,13.89,0,0,0,4.42-10.62,14.36,14.36,0,0,0-4.47-10.79,17.17,17.17,0,0,0-22.8.06Z"/><path class="cls-1" d="M1267.06,1336a14.36,14.36,0,0,0-4.47,10.79,13.83,13.83,0,0,0,4.47,10.62,17.81,17.81,0,0,0,22.75,0,13.3,13.3,0,0,0,4.53-10.34,14.78,14.78,0,0,0-4.47-11.06,17.19,17.19,0,0,0-22.81-.06Z"/><path class="cls-1" d="M1425.11,1354.51a13.92,13.92,0,0,1,6,1.45q3.08,1.45,8.33,4.47a94.71,94.71,0,0,0,10,5.31,20.57,20.57,0,0,0,8.33,1.85,17,17,0,0,0,9.78-3.19,22.63,22.63,0,0,0,7.49-9.11,31.08,31.08,0,0,0,2.85-13.64q0-3.24-.11-6.37h-22.25q.45,5.15.45,6.49a4.3,4.3,0,0,1-1.12,3.41,4.51,4.51,0,0,1-3,1,10.84,10.84,0,0,1-5.2-1.35,60.85,60.85,0,0,1-6.32-4,60.37,60.37,0,0,0-9.44-5.7,23.14,23.14,0,0,0-9.89-2,22,22,0,0,0-11.46,3,21,21,0,0,0-7.94,8.38,25.8,25.8,0,0,0-2.85,12.29,67.82,67.82,0,0,0,.67,8.61h22.81A13.86,13.86,0,0,1,1421,1362a15.3,15.3,0,0,1-.39-3.24,3.92,3.92,0,0,1,1.23-3.3A5.18,5.18,0,0,1,1425.11,1354.51Z"/><path class="cls-1" d="M1499.5,1477.46a16.26,16.26,0,0,1-5.31.89c-2.69,0-4.62-.76-5.81-2.29s-1.79-4-1.79-7.54V1416q0-13.85-5.42-23.24a33.57,33.57,0,0,0-16.16-14.09q-10.73-4.7-26.71-4.69a92,92,0,0,0-21.68,2.46,76.24,76.24,0,0,0-19.06,7.37,79.9,79.9,0,0,0-16.6,12.3l17.66,21.24a39.46,39.46,0,0,1,14.81-12.24,44,44,0,0,1,19.84-4.64,27.29,27.29,0,0,1,11.74,2.23,15,15,0,0,1,7,6.71,24.2,24.2,0,0,1,2.35,11.29v3.58q-24.93,1.23-42.09,6.7t-25.93,14.92a32,32,0,0,0-8.77,22.53,36,36,0,0,0,5.36,19.28,37.89,37.89,0,0,0,14.7,13.63,43.32,43.32,0,0,0,20.73,5,47.32,47.32,0,0,0,19.23-3.69,34,34,0,0,0,13.41-10.12,29.76,29.76,0,0,0,6.15-14.58h.89q1.8,13.41,8.5,20.34t17.77,6.93a52.15,52.15,0,0,0,9.73-1,41.63,41.63,0,0,0,8.83-2.57v-26.15A7,7,0,0,1,1499.5,1477.46Zm-45.1-15a18.5,18.5,0,0,1-4.92,8.61,27,27,0,0,1-9.28,6.15,30.17,30.17,0,0,1-11.51,2.23,23,23,0,0,1-9.56-1.84,14.7,14.7,0,0,1-6.37-5.31,14.23,14.23,0,0,1-2.29-8,13.59,13.59,0,0,1,4.58-10.45q4.59-4.18,14.25-6.65a143.49,143.49,0,0,1,25.1-3.47Z"/><rect class="cls-1" x="1525.82" y="1377.53" width="32.86" height="125.19"/><path class="cls-1" d="M1563.15,1335.28a15.68,15.68,0,0,0-11.4,4.36,14.82,14.82,0,0,0-4.47,11.07,13.34,13.34,0,0,0,4.52,10.34,16.32,16.32,0,0,0,11.35,4.08,16.1,16.1,0,0,0,11.46-4.14,13.89,13.89,0,0,0,4.41-10.62,14.34,14.34,0,0,0-4.47-10.78A15.76,15.76,0,0,0,1563.15,1335.28Z"/><path class="cls-1" d="M1536.77,1350.71a14.82,14.82,0,0,0-4.47-11.07,17.16,17.16,0,0,0-22.8-.05,14.34,14.34,0,0,0-4.47,10.78,13.8,13.8,0,0,0,4.47,10.62,16.12,16.12,0,0,0,11.4,4.14,16.29,16.29,0,0,0,11.34-4.08A13.31,13.31,0,0,0,1536.77,1350.71Z"/><path class="cls-1" d="M1675,1380.38q-11.62-6.42-28.51-6.42-20.34,0-34.2,9a55.08,55.08,0,0,0-20.68,24.25q-6.81,15.26-6.82,34.26,0,20.68,7.88,35.26a52.32,52.32,0,0,0,22.25,22.08q14.36,7.49,33.58,7.49a73.94,73.94,0,0,0,19.23-2.4,47.5,47.5,0,0,0,16.71-8.39,50.91,50.91,0,0,0,13.36-16.15l-23.47-13.86q-1.57,4.92-7,9.78t-18.84,4.86q-12.29,0-19.56-5.36a27.78,27.78,0,0,1-10.11-14.81,56.06,56.06,0,0,1-1.9-9.34h79.64c.52-2.6,1-5.66,1.34-9.16a110,110,0,0,0,.56-11.51q0-18.12-5.93-30.63A41.2,41.2,0,0,0,1675,1380.38Zm-47.51,24.26q6-4.53,16.54-4.53,11.52,0,18,5.59t6.48,17a47,47,0,0,1-.53,6.71H1616.9a64.36,64.36,0,0,1,2.19-12.13A23.67,23.67,0,0,1,1627.53,1404.64Z"/><polygon class="cls-1" points="1631.67 1364.35 1655.47 1364.35 1693.93 1337.52 1661.96 1337.52 1631.67 1364.35"/><path class="cls-1" d="M1831,1416.32q-4.92-9.84-13.75-23.92l-10.15-16,16.86-6.44-1.34-21.79-26.91,10.26-12.66-20h-35.88l21.16,30.44-16,6.11,1.34,21.8,26.93-10.28,11.19,16.09,1.79,2.46,1.11,1.57-.33.33a33.48,33.48,0,0,0-10.68-4.86,55.43,55.43,0,0,0-15.36-2,56.16,56.16,0,0,0-26.83,6.26,44.71,44.71,0,0,0-18.27,17.89q-6.54,11.63-6.54,27,0,16.65,7.6,29.06a50.42,50.42,0,0,0,21.46,19.17q13.86,6.75,32,6.76t32.36-6.82a51.54,51.54,0,0,0,22-19.56q7.89-12.75,7.88-30a64,64,0,0,0-2-16A91.08,91.08,0,0,0,1831,1416.32Zm-27.33,50.47a22.27,22.27,0,0,1-9.89,9.27q-6.48,3.2-15.76,3.19t-15.54-3.19a21.64,21.64,0,0,1-9.66-9.33,31.31,31.31,0,0,1-3.3-15q0-13.41,7.43-20.79t20.85-7.38a33.25,33.25,0,0,1,15.65,3.47,24.11,24.11,0,0,1,10.11,9.84,30.91,30.91,0,0,1,3.52,15.2A29.69,29.69,0,0,1,1803.63,1466.79Z"/><path class="cls-1" d="M1988,1331.71l-7.61,10.29q-17.43-10.29-41.46-10.29t-41.63,10.39q-17.5,10.39-26.83,30t-9.33,46.56q0,26.94,9.39,46.72a75.75,75.75,0,0,0,8.45,13.88l-20,27h30.52l7.84-10.62.09.06q17.55,10.56,41.47,10.56t41.47-10.56q17.55-10.58,26.94-30.35t9.39-46.72q0-26.94-9.34-46.56a74.76,74.76,0,0,0-8.49-13.85l19.62-26.55Zm-87.74,118q-5.6-13.52-5.59-30.85t5.53-30.85q5.54-13.41,15.59-20.79a40,40,0,0,1,46.06-.15l-61.39,83.1C1900.4,1450,1900.32,1449.9,1900.26,1449.74Zm77.4-61.7q5.53,13.41,5.53,30.85t-5.58,30.85q-5.59,13.53-15.65,21.07a38.93,38.93,0,0,1-46,0l-.1-.08,61.56-83.34C1977.47,1387.61,1977.57,1387.82,1977.66,1388Z"/><path class="cls-1" d="M2147.39,1428.45a92.61,92.61,0,0,0-13.86-7.77,49.54,49.54,0,0,1-7.77-4,4.85,4.85,0,0,1-2.4-4,5.45,5.45,0,0,1,1.67-3.69,40.92,40.92,0,0,1,5.15-4.36,85.77,85.77,0,0,0,8.71-7.71,32.53,32.53,0,0,0,6.26-9.89,37.14,37.14,0,0,0,2.69-14.81,44.1,44.1,0,0,0-6.1-22.91,42.27,42.27,0,0,0-17.71-16.21q-11.62-5.92-27.5-5.93t-27.66,5.93a43,43,0,0,0-18.33,16.76q-6.43,10.85-6.43,25.27v127.64h32.64V1379.55q0-14.21,5.2-20.51t15.14-6.32q9.28,0,14.25,4.92t5,14a25.37,25.37,0,0,1-2,10.45,27,27,0,0,1-5,7.66,92.37,92.37,0,0,1-7.66,7,80.62,80.62,0,0,0-6.2,5.59,21.42,21.42,0,0,0-3.8,5.31,14.37,14.37,0,0,0-1.51,6.65,13.71,13.71,0,0,0,2.35,8,22.33,22.33,0,0,0,5.75,5.76q3.42,2.34,9.45,5.81a126.13,126.13,0,0,1,11.46,7.32,28.73,28.73,0,0,1,7.37,8.21,22.74,22.74,0,0,1,3.08,12.08q0,9.49-5.26,13.3a21.17,21.17,0,0,1-12.74,3.8,28.15,28.15,0,0,1-23.47-12l-9.28,25.15a24.06,24.06,0,0,0,7.27,7.09,43.21,43.21,0,0,0,12,5.37,57,57,0,0,0,39.84-3.52,42.39,42.39,0,0,0,17.39-16.1q6.36-10.5,6.37-24.81,0-12-4.31-19.67A34.09,34.09,0,0,0,2147.39,1428.45Z"/><polygon class="cls-1" points="2261.62 1351.83 2309.76 1404.58 2184.27 1404.58 2184.27 1431.86 2309.76 1431.86 2261.62 1484.61 2285.09 1502.27 2356.18 1418.22 2285.09 1334.17 2261.62 1351.83"/></svg>