<svg id="Layer_1" data-name="Layer 1" xmlns="http://www.w3.org/2000/svg" viewBox="0 0 1624.74 510.3"><defs><style>.cls-1{fill:#fafafa;}</style></defs><path class="cls-1" d="M197.41,12.26,0,500H98.06l41.36-108.38H343.07L384.5,500h98.05L285.15,12.26ZM169,314.18l63.28-165.8a12.87,12.87,0,0,0,1-2.58q2.91-8.38,5-16.77a60.22,60.22,0,0,0,2.1-14.2h1.94A60.23,60.23,0,0,0,244,128.06q1.77,7.74,4.35,15.48a38.91,38.91,0,0,1,1.62,4.52l63.49,166.12Z"/><path class="cls-1" d="M832.12,427.07a47,47,0,0,1-15.32,2.58q-11.61,0-16.77-6.61t-5.16-21.77V249.66q0-40-15.65-67.09t-46.61-40.64q-31-13.55-77.09-13.55a265.72,265.72,0,0,0-62.58,7.1,219.63,219.63,0,0,0-55,21.29A231.35,231.35,0,0,0,490,192.25l51,61.28q15.79-21.93,42.74-35.32A127,127,0,0,1,641,204.83q20.32,0,33.87,6.45a43.28,43.28,0,0,1,20.32,19.35Q702,243.55,702,263.21v10.32Q630,277.08,580.52,292.89T505.69,336q-25.33,27.26-25.32,65,0,30.65,15.48,55.64a109.16,109.16,0,0,0,42.42,39.35q26.93,14.35,59.83,14.36,31.29,0,55.48-10.65t38.71-29.19A86,86,0,0,0,710,428.36h2.58q5.16,38.72,24.52,58.71t51.28,20a150.45,150.45,0,0,0,28.07-2.9A121.4,121.4,0,0,0,842,496.75V421.27Q839.7,424.5,832.12,427.07ZM702,383.85q-3.22,13.54-14.2,24.84A77.6,77.6,0,0,1,661,426.43a87.09,87.09,0,0,1-33.22,6.45q-15.81,0-27.58-5.32a42.44,42.44,0,0,1-18.39-15.32A41.13,41.13,0,0,1,575.2,389a39.2,39.2,0,0,1,13.23-30.16q13.22-12.09,41.12-19.19t72.42-10Z"/><path class="cls-1" d="M1181.94,266.28q-23.55-12.75-57.74-14v-2.9q21.93-1,40.64-16.29t29.68-40.8q10.95-25.49,11-55.48,0-39-18.87-67.1T1134.2,27.26q-33.56-14.35-76.45-14.36H871.31V500H1064.2q50.33,0,87.74-17.74t57.41-50q20-32.25,20-74.83,0-32.25-11.93-55.32A83.88,83.88,0,0,0,1181.94,266.28ZM964.85,91.61h72.25q35.81,0,54,14.35t18.23,44.35q0,28.73-16,45.65t-44.67,16.93H964.85Zm152.73,312.56q-15.64,15.16-46.93,15.16H964.85V291.6h89.67q38.06,0,58.39,17.42t20.32,51Q1133.23,389,1117.58,404.17Z"/><path class="cls-1" d="M1605.07,219.5q-19.68-43.38-55.8-67.25t-83.55-23.87q-43.23,0-72.74,19.35t-38.22,53.55h-2.58q1.29-7.74,2.26-15.48,1.61-14.52,1.93-45.49T1356.69,0H1263.8V500h83.54q2.91-23.54,3.87-36.93t1-25.64h2.58q8.06,33.87,37.58,53.38t73.38,19.52q47.73,0,83.71-23.55t55.64-66.61q19.67-43.06,19.67-100.16T1605.07,219.5Zm-85.64,159.67q-10.48,25.65-29.52,39.68t-44.19,14a82,82,0,0,1-45-13.06,91.57,91.57,0,0,1-32.25-35.65q-11.78-22.57-11.78-50V304.5q0-27.42,11.78-50a91.61,91.61,0,0,1,32.25-35.64,82,82,0,0,1,45-13.06q25.17,0,44.19,14t29.52,39.67q10.47,25.65,10.48,59.84T1519.43,379.17Z"/></svg>